<svg width="24" height="24" viewBox="0 0 24 24" fill="none" xmlns="http://www.w3.org/2000/svg">
<path d="M18.7969 1.82812H18.639L18.3281 1.40625V0.703125C18.3281 0.314812 18.0133 0 17.625 0C17.2367 0 16.9219 0.314812 16.9219 0.703125V1.40625L16.4699 1.82812H11.5922L11.2969 1.40625V0.703125C11.2969 0.314812 10.9821 0 10.5938 0C10.2054 0 9.89062 0.314812 9.89062 0.703125V1.40625L9.51839 1.82812H4.56619L4.21875 1.40625V0.703125C4.21875 0.314812 3.90394 0 3.51562 0C3.12731 0 2.8125 0.314812 2.8125 0.703125V1.40625L2.44027 1.82812H1.92188L0 5.67188V20.4375C0 20.8258 0.314812 21.1406 0.703125 21.1406H20.4375C20.8258 21.1406 21.1406 20.8258 21.1406 20.4375V5.67188L18.7969 1.82812Z" fill="url(#paint0_linear)"/>
<path d="M21.1406 2.10938C21.1406 1.72106 20.8258 1.40625 20.4375 1.40625H18.3281V3.51562C18.3281 3.90394 18.0133 4.21875 17.625 4.21875C17.2367 4.21875 16.9219 3.90394 16.9219 3.51562V1.40625H11.2969V3.51562C11.2969 3.90394 10.9821 4.21875 10.5938 4.21875C10.2054 4.21875 9.89062 3.90394 9.89062 3.51562V1.40625H4.21875V3.51562C4.21875 3.90394 3.90394 4.21875 3.51562 4.21875C3.12731 4.21875 2.8125 3.90394 2.8125 3.51562V1.40625H0.703125C0.314812 1.40625 0 1.72106 0 2.10938V5.67188H21.1406V2.10938ZM6.32812 8.48438H3.51562C3.12731 8.48438 2.8125 8.79919 2.8125 9.1875V12C2.8125 12.3883 3.12731 12.7031 3.51562 12.7031H6.32812C6.71644 12.7031 7.03125 12.3883 7.03125 12V9.1875C7.03125 8.79919 6.71644 8.48438 6.32812 8.48438ZM12 8.48438H9.1875C8.79919 8.48438 8.48438 8.79919 8.48438 9.1875V12C8.48438 12.3883 8.79919 12.7031 9.1875 12.7031H12C12.3883 12.7031 12.7031 12.3883 12.7031 12V9.1875C12.7031 8.79919 12.3883 8.48438 12 8.48438ZM14.8125 8.48438C14.4242 8.48438 14.1094 8.79919 14.1094 9.1875V12C14.1094 12.3883 14.4242 12.7031 14.8125 12.7031H17.625C18.0133 12.7031 18.3281 12.3883 18.3281 12V9.1875C18.3281 8.79919 18.0133 8.48438 17.625 8.48438H14.8125ZM12 14.1094H9.1875C8.79919 14.1094 8.48438 14.4242 8.48438 14.8125V17.625C8.48438 18.0133 8.79919 18.3281 9.1875 18.3281H12C12.3883 18.3281 12.7031 18.0133 12.7031 17.625V14.8125C12.7031 14.4242 12.3883 14.1094 12 14.1094ZM6.32812 14.1094H3.51562C3.12731 14.1094 2.8125 14.4242 2.8125 14.8125V17.625C2.8125 18.0133 3.12731 18.3281 3.51562 18.3281H6.32812C6.71644 18.3281 7.03125 18.0133 7.03125 17.625V14.8125C7.03125 14.4242 6.71644 14.1094 6.32812 14.1094ZM19.0312 14.1094C16.3173 14.1094 14.1094 16.3173 14.1094 19.0312C14.1094 21.771 16.3173 24 19.0312 24C21.7573 24 24 21.7468 24 19.0312C24 16.3173 21.771 14.1094 19.0312 14.1094ZM20.4375 19.7344H19.0312C18.6429 19.7344 18.3281 19.4196 18.3281 19.0312V17.625C18.3281 17.2367 18.6429 16.9219 19.0312 16.9219C19.4196 16.9219 19.7344 17.2367 19.7344 17.625V18.3281H20.4375C20.8258 18.3281 21.1406 18.6429 21.1406 19.0312C21.1406 19.4196 20.8258 19.7344 20.4375 19.7344Z" fill="url(#paint1_linear)"/>
<defs>
<linearGradient id="paint0_linear" x1="10.5703" y1="21.1406" x2="10.5703" y2="0" gradientUnits="userSpaceOnUse">
<stop stop-color="#4AA6F0"/>
<stop offset="1" stop-color="#00C0FF"/>
</linearGradient>
<linearGradient id="paint1_linear" x1="12" y1="24" x2="12" y2="1.40625" gradientUnits="userSpaceOnUse">
<stop stop-color="#ADDCFF"/>
<stop offset="0.5028" stop-color="#EAF6FF"/>
<stop offset="1" stop-color="#EAF6FF"/>
</linearGradient>
</defs>
</svg>
