<svg width="24" height="24" viewBox="0 0 24 24" fill="none" xmlns="http://www.w3.org/2000/svg">
<path d="M12.0004 0.900024C14.1958 0.900024 16.3418 1.55102 18.1672 2.7707C19.9926 3.99039 21.4153 5.72394 22.2555 7.7522C23.0956 9.78046 23.3154 12.0123 22.8871 14.1655C22.4588 16.3187 21.4016 18.2965 19.8492 19.8489C18.2969 21.4012 16.3191 22.4584 14.1659 22.8867C12.0127 23.315 9.7809 23.0952 7.75264 22.255C5.72438 21.4149 3.99075 19.9922 2.77107 18.1668C1.55139 16.3414 0.900391 14.1954 0.900391 12C0.900391 9.05612 2.06988 6.23275 4.15154 4.1511C6.23319 2.06944 9.05649 0.900024 12.0004 0.900024V0.900024Z" stroke="white" stroke-width="1.5" stroke-linecap="round" stroke-linejoin="round"/>
<path d="M6.62361 13.44C6.3388 13.44 6.06039 13.3555 5.82358 13.1973C5.58678 13.0391 5.40215 12.8141 5.29316 12.551C5.18417 12.2879 5.15572 11.9984 5.21128 11.7191C5.26684 11.4397 5.40393 11.1831 5.60532 10.9817C5.80671 10.7803 6.06332 10.6432 6.34265 10.5877C6.62198 10.5321 6.91156 10.5606 7.17468 10.6696C7.43781 10.7786 7.66267 10.9632 7.8209 11.2C7.97913 11.4368 8.06355 11.7152 8.06355 12C8.06355 12.1891 8.02635 12.3763 7.95398 12.551C7.88161 12.7257 7.77554 12.8845 7.64182 13.0182C7.50811 13.1519 7.34939 13.258 7.17468 13.3304C6.99997 13.4028 6.81271 13.44 6.62361 13.44Z" fill="white"/>
<path d="M12.0005 13.44C11.7157 13.44 11.4373 13.3555 11.2005 13.1973C10.9637 13.0391 10.7792 12.8141 10.6702 12.551C10.5612 12.2879 10.5327 11.9984 10.5882 11.7191C10.6438 11.4397 10.7809 11.1831 10.9823 10.9817C11.1837 10.7803 11.4403 10.6432 11.7196 10.5877C11.9989 10.5321 12.2885 10.5606 12.5516 10.6696C12.8147 10.7786 13.0396 10.9632 13.1978 11.2C13.3561 11.4368 13.4406 11.7152 13.4406 12C13.4406 12.1891 13.4033 12.3763 13.3309 12.551C13.2585 12.7257 13.1525 12.8845 13.0188 13.0182C12.885 13.1519 12.7263 13.258 12.5516 13.3304C12.3769 13.4028 12.1896 13.44 12.0005 13.44Z" fill="white"/>
<path d="M17.3755 13.44C17.0907 13.44 16.8123 13.3555 16.5755 13.1973C16.3387 13.0391 16.1542 12.8141 16.0452 12.551C15.9362 12.2879 15.9077 11.9984 15.9632 11.7191C16.0188 11.4397 16.1559 11.1831 16.3573 10.9817C16.5587 10.7803 16.8153 10.6432 17.0947 10.5877C17.374 10.5321 17.6635 10.5606 17.9266 10.6696C18.1897 10.7786 18.4147 10.9632 18.5729 11.2C18.7311 11.4368 18.8156 11.7152 18.8156 12C18.8156 12.1891 18.7784 12.3763 18.706 12.551C18.6336 12.7257 18.5275 12.8845 18.3938 13.0182C18.2601 13.1519 18.1013 13.258 17.9266 13.3304C17.7519 13.4028 17.5646 13.44 17.3755 13.44Z" fill="white"/>
</svg>
