<svg width="26" height="29" viewBox="0 0 26 29" fill="none" xmlns="http://www.w3.org/2000/svg">
<path d="M0.0143202 3.99107L0.0143202 3.81941C0.028446 3.48431 0.0861491 3.15249 0.185985 2.8323L0.300369 2.50329C0.698402 1.53288 1.4588 0.755661 2.42022 0.336375C3.38164 -0.0829111 4.46846 -0.111306 5.45044 0.257267L5.6937 0.343098L23.905 10.7435C24.3714 11.0004 24.7824 11.3468 25.1147 11.7628C25.447 12.1788 25.694 12.6563 25.8415 13.1679C25.989 13.6795 26.0342 14.2152 25.9744 14.7443C25.9146 15.2734 25.7509 15.7854 25.4929 16.2512C25.1723 16.8337 24.7098 17.3257 24.1483 17.6818L23.9193 17.8106L5.57914 28.2824C4.8929 28.564 4.14225 28.6502 3.41003 28.5316C2.67782 28.4129 1.99275 28.0939 1.43058 27.61C0.629687 26.9336 0.117852 25.9765 -1.08994e-06 24.9348L-1.74455e-07 3.99107L0.0143202 3.99107ZM2.1602 24.6487C2.18977 25.1496 2.41446 25.619 2.78625 25.956C3.15804 26.293 3.64713 26.4708 4.14855 26.4513L4.5062 26.4513L4.6494 26.4513L22.875 16.0223C23.3137 15.7781 23.638 15.3704 23.7773 14.888C23.9167 14.4057 23.8598 13.8877 23.619 13.4472C23.4757 13.1947 23.2807 12.9754 23.0467 12.8035L22.8607 12.689L4.76378 2.34595C4.29702 2.15713 3.77439 2.16103 3.3105 2.35678C2.8466 2.55252 2.4793 2.92413 2.2889 3.39025L2.17434 3.80509L2.17434 24.7202L2.1602 24.6487Z" fill="white"/>
</svg>
