<svg width="92" height="26" viewBox="0 0 92 26" fill="none" xmlns="http://www.w3.org/2000/svg">
<path d="M45.9992 0.695312C39.2141 0.695312 33.6945 6.21494 33.6945 13C33.6945 19.7851 39.2141 25.3048 45.9992 25.3048C52.7843 25.3048 58.3039 19.7851 58.3039 13C58.3039 6.21494 52.7843 0.695312 45.9992 0.695312ZM13.1866 0.695312C6.40147 0.695312 0.881836 6.21494 0.881836 13C0.881836 19.7851 6.40147 25.3048 13.1866 25.3048C19.9717 25.3048 25.4913 19.7851 25.4913 13C25.4913 6.21494 19.9717 0.695312 13.1866 0.695312ZM78.8118 0.695312C72.0267 0.695312 66.5071 6.21494 66.5071 13C66.5071 19.7851 72.0267 25.3048 78.8118 25.3048C85.5969 25.3048 91.1166 19.7851 91.1166 13C91.1166 6.21494 85.5969 0.695312 78.8118 0.695312Z" fill="url(#paint0_linear)"/>
<defs>
<linearGradient id="paint0_linear" x1="45.9992" y1="25.3048" x2="45.9992" y2="0.695312" gradientUnits="userSpaceOnUse">
<stop stop-color="#93CEFF"/>
<stop offset="1" stop-color="white"/>
</linearGradient>
</defs>
</svg>
