<svg width="40" height="50" viewBox="0 0 40 50" fill="none" xmlns="http://www.w3.org/2000/svg">
<g filter="url(#filter0_di)">
<path d="M19.668 14.1797H17.9102C13.5483 14.1797 10 17.7279 10 22.0898C10 23.1966 10.2259 24.2683 10.6555 25.2528C11.1293 26.3385 11.0956 27.6626 10.2575 28.4997C10.0069 28.7512 9.93139 29.1288 10.067 29.4576C10.2026 29.7854 10.5236 30 10.8789 30H19.668C24.0299 30 27.5781 26.4517 27.5781 22.0898C27.5781 17.7279 24.0299 14.1797 19.668 14.1797Z" fill="url(#paint0_linear)"/>
</g>
<path d="M38.2697 12.8488C39.3906 11.4515 40 9.72803 40 7.91016C40 3.54826 36.4517 0 32.0898 0H30.332C25.9701 0 22.4219 3.54826 22.4219 7.91016C22.4219 12.2721 25.9701 15.8203 30.332 15.8203H39.1211C39.4764 15.8203 39.7974 15.6057 39.933 15.2779C40.0686 14.9491 39.9931 14.5714 39.7425 14.32L38.2697 12.8488Z" fill="url(#paint1_linear)"/>
<defs>
<filter id="filter0_di" x="0" y="14.1797" width="37.5781" height="35.8203" filterUnits="userSpaceOnUse" color-interpolation-filters="sRGB">
<feFlood flood-opacity="0" result="BackgroundImageFix"/>
<feColorMatrix in="SourceAlpha" type="matrix" values="0 0 0 0 0 0 0 0 0 0 0 0 0 0 0 0 0 0 127 0" result="hardAlpha"/>
<feOffset dy="10"/>
<feGaussianBlur stdDeviation="5"/>
<feColorMatrix type="matrix" values="0 0 0 0 0.305882 0 0 0 0 0.67451 0 0 0 0 0.976471 0 0 0 0.2 0"/>
<feBlend mode="normal" in2="BackgroundImageFix" result="effect1_dropShadow"/>
<feBlend mode="normal" in="SourceGraphic" in2="effect1_dropShadow" result="shape"/>
<feColorMatrix in="SourceAlpha" type="matrix" values="0 0 0 0 0 0 0 0 0 0 0 0 0 0 0 0 0 0 127 0" result="hardAlpha"/>
<feOffset dy="2"/>
<feGaussianBlur stdDeviation="2"/>
<feComposite in2="hardAlpha" operator="arithmetic" k2="-1" k3="1"/>
<feColorMatrix type="matrix" values="0 0 0 0 0.279167 0 0 0 0 0.655653 0 0 0 0 1 0 0 0 1 0"/>
<feBlend mode="normal" in2="shape" result="effect2_innerShadow"/>
</filter>
<linearGradient id="paint0_linear" x1="8.67751" y1="-1.95701" x2="31.4407" y2="-0.653231" gradientUnits="userSpaceOnUse">
<stop stop-color="#93CFFF"/>
<stop offset="1" stop-color="#2894FF"/>
</linearGradient>
<linearGradient id="paint1_linear" x1="31.2109" y1="15.8203" x2="31.2109" y2="0" gradientUnits="userSpaceOnUse">
<stop stop-color="#A0D6FF"/>
<stop offset="1" stop-color="#6DC1FF"/>
</linearGradient>
</defs>
</svg>
