<svg width="20" height="20" viewBox="0 0 20 20" fill="none" xmlns="http://www.w3.org/2000/svg">
<path d="M18.953 5.88522L18.3101 4.84324C18.1802 4.63348 18.0071 4.44961 17.8007 4.30214C17.5944 4.15466 17.3588 4.04646 17.1075 3.98374C16.8562 3.92102 16.5941 3.90498 16.3361 3.93657C16.0781 3.96817 15.8294 4.04678 15.6041 4.16788V4.16788C15.1521 4.41232 14.615 4.48155 14.1087 4.36061C13.6024 4.23966 13.1675 3.93827 12.898 3.52149V3.52149C12.7227 3.25763 12.6294 2.95371 12.6284 2.6435V2.6435C12.6395 2.39941 12.5986 2.15571 12.5081 1.92639C12.4176 1.69706 12.2792 1.48667 12.1009 1.30732C11.9226 1.12797 11.708 0.983176 11.4693 0.881341C11.2307 0.779505 10.9727 0.722617 10.7103 0.713928H9.34177C8.81931 0.713928 8.31824 0.907078 7.94881 1.25085C7.57938 1.59462 7.37184 2.06088 7.37184 2.54704C7.36638 3.03242 7.15531 3.49617 6.78452 3.83759C6.41373 4.179 5.91317 4.37053 5.39154 4.3705C5.05633 4.36948 4.72732 4.28629 4.43766 4.12931V4.12931C4.2127 4.00692 3.96388 3.92728 3.70562 3.895C3.44736 3.86272 3.18479 3.87841 2.93311 3.94122C2.68142 4.00404 2.44562 4.11271 2.23938 4.26092C2.03314 4.40912 1.86056 4.5939 1.73161 4.80461L1.04731 5.86591C0.916031 6.0745 0.830607 6.30528 0.796053 6.54486C0.7615 6.78444 0.778511 7.02802 0.846046 7.26144C0.913581 7.49486 1.03029 7.71348 1.18944 7.90453C1.34859 8.09559 1.54698 8.25527 1.77306 8.37433V8.37433C2.07263 8.53863 2.32102 8.77273 2.49374 9.05357C2.66646 9.33441 2.75755 9.65233 2.75804 9.9759C2.75964 10.2999 2.66942 10.6185 2.49649 10.8996C2.32357 11.1808 2.07404 11.4146 1.77306 11.5774V11.5774C1.54749 11.6957 1.34935 11.8544 1.19008 12.0443C1.0308 12.2343 0.913545 12.4517 0.845097 12.684C0.776648 12.9163 0.758381 13.159 0.791307 13.398C0.824233 13.637 0.907708 13.8675 1.03693 14.0762V14.0762L1.69013 15.1278C1.94579 15.5552 2.37269 15.8711 2.8777 16.0066C3.38272 16.1422 3.92486 16.0864 4.38583 15.8514V15.8514C4.8371 15.6096 5.3729 15.5438 5.87611 15.6686C6.37933 15.7933 6.80901 16.0984 7.07116 16.5171V16.5171C7.23986 16.7867 7.32926 17.0928 7.33036 17.4047V17.4047C7.3331 17.8943 7.54405 18.363 7.91707 18.7083C8.2901 19.0536 8.79484 19.2475 9.32101 19.2475H10.617C11.1404 19.2475 11.6426 19.0546 12.0137 18.7111C12.3848 18.3676 12.5946 17.9014 12.5973 17.4144V17.4144C12.5946 17.1733 12.6432 16.9341 12.7405 16.7107C12.8377 16.4872 12.9816 16.2839 13.1639 16.1125C13.3461 15.9411 13.5631 15.8051 13.8022 15.7123C14.0413 15.6194 14.2978 15.5716 14.5569 15.5716V15.5716C14.8911 15.5793 15.2183 15.6621 15.5107 15.8128V15.8128C15.7357 15.9352 15.9845 16.0149 16.2428 16.0471C16.501 16.0794 16.7636 16.0637 17.0153 16.0009C17.267 15.9381 17.5028 15.8294 17.709 15.6812C17.9153 15.533 18.0879 15.3482 18.2168 15.1375V15.1375L18.9011 14.0762C19.0314 13.8679 19.1163 13.6377 19.1509 13.3988C19.1855 13.1598 19.169 12.9169 19.1026 12.6839C19.0361 12.4509 18.9209 12.2324 18.7636 12.0409C18.6063 11.8493 18.4099 11.6886 18.1857 11.5678V11.5678C17.7322 11.3271 17.4 10.9287 17.2619 10.4601C17.1239 9.99158 17.1914 9.49126 17.4496 9.069V9.069C17.6223 8.78759 17.8729 8.55438 18.1753 8.39364V8.39364C18.6278 8.14946 18.9581 7.74861 19.094 7.27864C19.23 6.80867 19.1607 6.30778 18.9011 5.88522H18.953Z" stroke="#262A33" stroke-width="1.5" stroke-linecap="round" stroke-linejoin="round"/>
<path d="M10.0057 12.5422C11.5174 12.5422 12.7429 11.4019 12.7429 9.99518C12.7429 8.5885 11.5174 7.44815 10.0057 7.44815C8.49403 7.44815 7.26855 8.5885 7.26855 9.99518C7.26855 11.4019 8.49403 12.5422 10.0057 12.5422Z" stroke="#262A33" stroke-width="1.5" stroke-linecap="round" stroke-linejoin="round"/>
</svg>
