<svg width="60" height="60" viewBox="0 0 60 60" fill="none" xmlns="http://www.w3.org/2000/svg">
<circle cx="30" cy="30" r="30" fill="url(#paint0_linear_4945_26035)"/>
<g clip-path="url(#clip0_4945_26035)">
<path d="M28.875 34.4491C28.875 34.1426 28.9935 33.8486 29.2045 33.6318C29.4155 33.4151 29.7016 33.2933 30 33.2933C30.2984 33.2933 30.5845 33.4151 30.7955 33.6318C31.0065 33.8486 31.125 34.1426 31.125 34.4491C31.125 34.7556 31.0065 35.0496 30.7955 35.2663C30.5845 35.4831 30.2984 35.6048 30 35.6048C29.7016 35.6048 29.4155 35.4831 29.2045 35.2663C28.9935 35.0496 28.875 34.7556 28.875 34.4491Z" fill="white"/>
<path d="M19.1993 40.8442H40.9193C41.3311 40.8264 41.7355 40.7253 42.1092 40.5468C42.483 40.3682 42.8187 40.1157 43.0974 39.8037C43.376 39.4917 43.5921 39.1263 43.7331 38.7284C43.8741 38.3305 43.9374 37.9079 43.9193 37.4849C43.8963 37.1259 43.8204 36.7726 43.6943 36.437L32.7742 16.82C32.577 16.45 32.3103 16.1238 31.9895 15.8604C31.6687 15.5971 31.3002 15.4017 30.9054 15.2856C30.5106 15.1695 30.0973 15.1351 29.6895 15.1842C29.2816 15.2333 28.8873 15.365 28.5293 15.5718C28.0145 15.8573 27.5922 16.2911 27.3143 16.82L16.3943 36.437C16.2403 36.8275 16.1627 37.2453 16.1661 37.6667C16.1695 38.088 16.2537 38.5046 16.414 38.8925C16.5742 39.2804 16.8072 39.632 17.0999 39.9272C17.3925 40.2225 17.7389 40.4555 18.1193 40.6131V40.6131C18.4435 40.7508 18.7888 40.8291 19.1393 40.8442" stroke="white" stroke-width="1.5" stroke-linecap="round" stroke-linejoin="round"/>
<path d="M30 30.0264V25.2493" stroke="white" stroke-width="1.5" stroke-linecap="round" stroke-linejoin="round"/>
</g>
<defs>
<linearGradient id="paint0_linear_4945_26035" x1="10" y1="7.5" x2="53.3333" y2="60" gradientUnits="userSpaceOnUse">
<stop stop-color="#B8DEFF"/>
<stop offset="1" stop-color="#8BC5FF"/>
</linearGradient>
<clipPath id="clip0_4945_26035">
<rect width="30" height="28" fill="white" transform="translate(15 14)"/>
</clipPath>
</defs>
</svg>
