<svg width="20" height="20" viewBox="0 0 20 20" fill="none" xmlns="http://www.w3.org/2000/svg">
<path d="M0 10C0 8.02219 0.586489 6.08871 1.6853 4.44422C2.78412 2.79973 4.3459 1.51811 6.17316 0.761235C8.00042 0.00435829 10.0111 -0.193709 11.9509 0.192143C13.8907 0.577995 15.6725 1.53043 17.071 2.92896C18.4696 4.32748 19.422 6.10927 19.8079 8.04908C20.1937 9.98889 19.9956 11.9995 19.2388 13.8268C18.4819 15.654 17.2002 17.2159 15.5557 18.3147C13.9112 19.4135 11.9778 20 10 20C7.34784 20 4.80432 18.9464 2.92896 17.071C1.05359 15.1957 0 12.6522 0 10ZM1.5 10C1.5 11.6811 1.9985 13.3245 2.9325 14.7223C3.86649 16.1201 5.19402 17.2096 6.74719 17.8529C8.30036 18.4963 10.0094 18.6646 11.6583 18.3367C13.3071 18.0087 14.8217 17.1991 16.0104 16.0104C17.1992 14.8216 18.0087 13.307 18.3367 11.6582C18.6646 10.0094 18.4963 8.30037 17.853 6.7472C17.2096 5.19402 16.1202 3.86649 14.7224 2.9325C13.3245 1.99851 11.6811 1.5 10 1.5C7.74566 1.5 5.58362 2.39557 3.98956 3.98963C2.3955 5.58369 1.5 7.74566 1.5 10ZM9.23999 13.7999C9.24284 13.6195 9.3098 13.446 9.42889 13.3104C9.54798 13.1748 9.71146 13.086 9.89001 13.0599H10C10.1981 13.0652 10.3863 13.1476 10.5245 13.2896C10.6628 13.4315 10.7401 13.6218 10.74 13.82C10.7356 13.9984 10.6693 14.1697 10.5526 14.3047C10.4359 14.4397 10.2759 14.5299 10.1 14.5599H10C9.80281 14.56 9.61351 14.4824 9.47314 14.3439C9.33278 14.2054 9.25263 14.0171 9.25 13.82L9.23999 13.7999ZM9.23999 10.73V6.19996C9.2452 6.00188 9.32758 5.81365 9.46954 5.67542C9.61151 5.53719 9.80185 5.4599 10 5.45997C10.1801 5.45831 10.3546 5.52244 10.4908 5.64026C10.6271 5.75808 10.7157 5.92152 10.74 6.09998V10.62C10.7413 10.7189 10.7229 10.817 10.6857 10.9086C10.6485 11.0002 10.5932 11.0834 10.5233 11.1533C10.4534 11.2232 10.3702 11.2785 10.2786 11.3157C10.187 11.3529 10.0889 11.3713 9.98999 11.37C9.80897 11.3692 9.63436 11.3029 9.49835 11.1835C9.36235 11.064 9.27413 10.8994 9.25 10.72L9.23999 10.73Z" fill="#B0B0B0"/>
</svg>
