<svg width="20" height="20" viewBox="0 0 20 20" fill="none" xmlns="http://www.w3.org/2000/svg">
<path fill-rule="evenodd" clip-rule="evenodd" d="M14.8168 6.03385C15.2021 6.03394 15.5144 6.34637 15.5143 6.73169L15.5113 19.3023C15.5113 19.6876 15.1988 19.9999 14.8135 19.9998C14.4282 19.9997 14.1159 19.6873 14.116 19.302L14.119 6.73136C14.1191 6.34605 14.4315 6.03376 14.8168 6.03385Z" fill="#210F32"/>
<path fill-rule="evenodd" clip-rule="evenodd" d="M9.85117 14.7791C10.109 14.4928 10.5502 14.4698 10.8365 14.7276L14.8354 18.3296L18.8344 14.7276C19.1207 14.4698 19.5618 14.4928 19.8197 14.7791C20.0776 15.0654 20.0545 15.5065 19.7682 15.7644L15.3024 19.787C15.037 20.026 14.6339 20.026 14.3685 19.787L9.90262 15.7644C9.61633 15.5065 9.59329 15.0654 9.85117 14.7791Z" fill="#210F32"/>
<path fill-rule="evenodd" clip-rule="evenodd" d="M0 0.697669C0 0.312357 0.312357 0 0.69767 0H18.8515C19.2368 0 19.5491 0.312357 19.5491 0.697669C19.5491 1.08298 19.2368 1.39534 18.8515 1.39534H0.69767C0.312357 1.39534 0 1.08298 0 0.697669Z" fill="#210F32"/>
<path fill-rule="evenodd" clip-rule="evenodd" d="M0 6.7316C0 6.34629 0.312357 6.03394 0.69767 6.03394H9.77457C10.1599 6.03394 10.4722 6.34629 10.4722 6.7316C10.4722 7.11692 10.1599 7.42927 9.77457 7.42927H0.69767C0.312357 7.42927 0 7.11692 0 6.7316Z" fill="#210F32"/>
<path fill-rule="evenodd" clip-rule="evenodd" d="M0 13.7712C0 13.3858 0.312357 13.0735 0.69767 13.0735H5.74039C6.1257 13.0735 6.43806 13.3858 6.43806 13.7712C6.43806 14.1565 6.1257 14.4688 5.74039 14.4688H0.69767C0.312357 14.4688 0 14.1565 0 13.7712Z" fill="#210F32"/>
</svg>
