<svg width="20" height="20" viewBox="0 0 20 20" fill="none" xmlns="http://www.w3.org/2000/svg">
<path d="M18.953 5.88516L18.3101 4.84318C18.1802 4.63342 18.0071 4.44955 17.8007 4.30207C17.5944 4.1546 17.3588 4.0464 17.1075 3.98368C16.8562 3.92096 16.5941 3.90492 16.3361 3.93651C16.0781 3.96811 15.8294 4.04672 15.6041 4.16781V4.16781C15.1521 4.41226 14.615 4.48149 14.1087 4.36055C13.6024 4.2396 13.1675 3.9382 12.898 3.52143V3.52143C12.7227 3.25757 12.6294 2.95364 12.6284 2.64344V2.64344C12.6395 2.39935 12.5986 2.15565 12.5081 1.92633C12.4176 1.697 12.2792 1.48661 12.1009 1.30726C11.9226 1.12791 11.708 0.983115 11.4693 0.88128C11.2307 0.779444 10.9727 0.722556 10.7103 0.713867H9.34177C8.81931 0.713867 8.31824 0.907017 7.94881 1.25079C7.57938 1.59456 7.37184 2.06082 7.37184 2.54698C7.36638 3.03236 7.15531 3.49611 6.78452 3.83752C6.41373 4.17894 5.91317 4.37047 5.39154 4.37044C5.05633 4.36942 4.72732 4.28623 4.43766 4.12924V4.12924C4.2127 4.00686 3.96388 3.92722 3.70562 3.89494C3.44736 3.86266 3.18479 3.87835 2.93311 3.94116C2.68142 4.00398 2.44562 4.11265 2.23938 4.26085C2.03314 4.40906 1.86056 4.59384 1.73161 4.80455L1.04731 5.86585C0.916031 6.07444 0.830607 6.30522 0.796053 6.5448C0.7615 6.78438 0.778511 7.02796 0.846046 7.26138C0.913581 7.4948 1.03029 7.71342 1.18944 7.90447C1.34859 8.09553 1.54698 8.2552 1.77306 8.37426V8.37426C2.07263 8.53857 2.32102 8.77267 2.49374 9.05351C2.66646 9.33435 2.75755 9.65226 2.75804 9.97584C2.75964 10.2998 2.66942 10.6184 2.49649 10.8996C2.32357 11.1808 2.07404 11.4145 1.77306 11.5774V11.5774C1.54749 11.6956 1.34935 11.8543 1.19008 12.0443C1.0308 12.2342 0.913545 12.4516 0.845097 12.6839C0.776648 12.9163 0.758381 13.159 0.791307 13.3979C0.824233 13.6369 0.907708 13.8674 1.03693 14.0762V14.0762L1.69013 15.1278C1.94579 15.5551 2.37269 15.871 2.8777 16.0066C3.38272 16.1421 3.92486 16.0863 4.38583 15.8514V15.8514C4.8371 15.6095 5.3729 15.5438 5.87611 15.6685C6.37933 15.7933 6.80901 16.0983 7.07116 16.5171V16.5171C7.23986 16.7866 7.32926 17.0927 7.33036 17.4046V17.4046C7.3331 17.8943 7.54405 18.3629 7.91707 18.7083C8.2901 19.0536 8.79484 19.2474 9.32101 19.2474H10.617C11.1404 19.2474 11.6426 19.0546 12.0137 18.7111C12.3848 18.3676 12.5946 17.9013 12.5973 17.4143V17.4143C12.5946 17.1732 12.6432 16.9341 12.7405 16.7106C12.8377 16.4871 12.9816 16.2838 13.1639 16.1125C13.3461 15.9411 13.5631 15.805 13.8022 15.7122C14.0413 15.6194 14.2978 15.5716 14.5569 15.5716V15.5716C14.8911 15.5793 15.2183 15.662 15.5107 15.8128V15.8128C15.7357 15.9352 15.9845 16.0148 16.2428 16.0471C16.501 16.0794 16.7636 16.0636 17.0153 16.0008C17.267 15.938 17.5028 15.8293 17.709 15.6811C17.9153 15.5329 18.0879 15.3481 18.2168 15.1374V15.1374L18.9011 14.0762C19.0314 13.8678 19.1163 13.6376 19.1509 13.3987C19.1855 13.1598 19.169 12.9168 19.1026 12.6838C19.0361 12.4508 18.9209 12.2323 18.7636 12.0408C18.6063 11.8493 18.4099 11.6885 18.1857 11.5677V11.5677C17.7322 11.327 17.4 10.9286 17.2619 10.4601C17.1239 9.99152 17.1914 9.4912 17.4496 9.06894V9.06894C17.6223 8.78753 17.8729 8.55432 18.1753 8.39358V8.39358C18.6278 8.1494 18.9581 7.74854 19.094 7.27858C19.23 6.80861 19.1607 6.30772 18.9011 5.88516H18.953Z" stroke="white" stroke-width="1.5" stroke-linecap="round" stroke-linejoin="round"/>
<path d="M10.0057 12.5421C11.5174 12.5421 12.7429 11.4017 12.7429 9.99503C12.7429 8.58834 11.5174 7.448 10.0057 7.448C8.49403 7.448 7.26855 8.58834 7.26855 9.99503C7.26855 11.4017 8.49403 12.5421 10.0057 12.5421Z" stroke="white" stroke-width="1.5" stroke-linecap="round" stroke-linejoin="round"/>
</svg>
