<svg width="20" height="20" viewBox="0 0 20 20" fill="none" xmlns="http://www.w3.org/2000/svg">
<g clip-path="url(#clip0_3707:36366)">
<path d="M20 7.23025V12.7703C19.9988 13.8254 19.5792 14.8371 18.833 15.5832C18.0869 16.3294 17.0752 16.7491 16.02 16.7503H11.5409L12.6721 17.8815C12.8187 18.028 12.901 18.2267 12.901 18.4339C12.901 18.6411 12.8187 18.8399 12.6721 18.9864C12.5256 19.1329 12.3269 19.2152 12.1197 19.2152C11.9125 19.2152 11.7138 19.1329 11.5673 18.9864L9.10242 16.5215C9.02987 16.449 8.97232 16.3629 8.93306 16.2681C8.89379 16.1733 8.87358 16.0717 8.87358 15.9691C8.87358 15.8665 8.89379 15.7649 8.93306 15.6701C8.97232 15.5753 9.02987 15.4892 9.10242 15.4167L11.6405 12.8786C11.713 12.806 11.7991 12.7485 11.8939 12.7092C11.9887 12.67 12.0903 12.6497 12.1929 12.6497C12.2955 12.6497 12.3971 12.67 12.4919 12.7092C12.5867 12.7485 12.6728 12.806 12.7454 12.8786C12.8179 12.9511 12.8754 13.0372 12.9147 13.132C12.954 13.2268 12.9742 13.3284 12.9742 13.431C12.9742 13.5336 12.954 13.6352 12.9147 13.73C12.8754 13.8248 12.8179 13.9109 12.7454 13.9835L11.5409 15.1878H16.02C16.661 15.187 17.2754 14.9321 17.7287 14.4789C18.1819 14.0257 18.4368 13.4112 18.4375 12.7703V7.23025C18.4368 6.58932 18.1819 5.97484 17.7287 5.52162C17.2754 5.06841 16.661 4.81347 16.02 4.81275H13.9582C13.751 4.81275 13.5523 4.73044 13.4058 4.58393C13.2593 4.43741 13.177 4.2387 13.177 4.0315C13.177 3.8243 13.2593 3.62559 13.4058 3.47907C13.5523 3.33256 13.751 3.25025 13.9582 3.25025H16.02C17.0752 3.25142 18.0869 3.67112 18.833 4.41726C19.5792 5.1634 19.9988 6.17505 20 7.23025ZM3.97996 16.7503H6.04176C6.24896 16.7503 6.44767 16.6679 6.59419 16.5214C6.7407 16.3749 6.82301 16.1762 6.82301 15.969C6.82301 15.7618 6.7407 15.5631 6.59419 15.4166C6.44767 15.2701 6.24896 15.1878 6.04176 15.1878H3.97996C3.33903 15.187 2.72455 14.9321 2.27134 14.4789C1.81814 14.0257 1.56321 13.4112 1.5625 12.7703V7.23025C1.56321 6.58932 1.81814 5.97484 2.27134 5.52162C2.72455 5.06841 3.33903 4.81347 3.97996 4.81275H8.45914L7.25473 6.01713C7.10821 6.16364 7.0259 6.36236 7.0259 6.56957C7.0259 6.77677 7.10821 6.97549 7.25473 7.12201C7.40124 7.26853 7.59996 7.35084 7.80717 7.35084C8.01437 7.35084 8.21309 7.26853 8.35961 7.12201L10.8977 4.58392C11.0442 4.43741 11.1265 4.2387 11.1265 4.0315C11.1265 3.8243 11.0442 3.62559 10.8977 3.47908L8.43281 1.01423C8.2863 0.867718 8.08759 0.785404 7.88038 0.7854C7.67318 0.785397 7.47447 0.867704 7.32795 1.01422C7.18143 1.16073 7.09912 1.35944 7.09911 1.56664C7.09911 1.77385 7.18142 1.97256 7.32793 2.11908L8.45914 3.25025H3.97996C2.92476 3.25142 1.91312 3.67112 1.16698 4.41726C0.420845 5.1634 0.001158 6.17505 0 7.23025L0 12.7703C0.001158 13.8254 0.420845 14.8371 1.16698 15.5832C1.91312 16.3294 2.92476 16.7491 3.97996 16.7503Z" fill="white"/>
</g>
<defs>
<clipPath id="clip0_3707:36366">
<rect width="20" height="20" fill="white"/>
</clipPath>
</defs>
</svg>
