<svg width="20" height="20" viewBox="0 0 20 20" fill="none" xmlns="http://www.w3.org/2000/svg">
<path d="M13.0108 10.1925C13.0091 9.99844 13.0651 9.80825 13.1716 9.64607C13.2782 9.48389 13.4304 9.357 13.6091 9.28158C13.7878 9.20615 13.9848 9.18556 14.1752 9.2224C14.3655 9.25925 14.5407 9.35188 14.6784 9.48853C14.8161 9.62518 14.9102 9.79973 14.9486 9.98996C14.987 10.1802 14.9681 10.3776 14.8943 10.5571C14.8205 10.7365 14.6951 10.89 14.534 10.998C14.3728 11.106 14.1833 11.1637 13.9894 11.1637V11.1637C13.7313 11.1637 13.4836 11.0616 13.3003 10.8798C13.1171 10.6979 13.013 10.4509 13.0108 10.1925ZM9.21339 10.1925C9.21339 9.93273 9.31647 9.68357 9.5 9.49987C9.68353 9.31617 9.93246 9.213 10.192 9.213C10.4516 9.213 10.7005 9.31617 10.884 9.49987C11.0675 9.68357 11.1706 9.93273 11.1706 10.1925C11.1684 10.4516 11.0647 10.6995 10.8816 10.8827C10.6986 11.0659 10.4509 11.1699 10.192 11.172C9.93246 11.172 9.68353 11.0689 9.5 10.8852C9.31647 10.7015 9.21339 10.4523 9.21339 10.1925V10.1925ZM5.41602 10.1925C5.41602 9.99843 5.47362 9.80871 5.58153 9.64745C5.68943 9.48619 5.84274 9.36067 6.02205 9.28679C6.20136 9.2129 6.39856 9.19399 6.58862 9.23247C6.77868 9.27095 6.95307 9.36506 7.08959 9.50289C7.22612 9.64072 7.31866 9.81606 7.35547 10.0066C7.39228 10.1972 7.37166 10.3944 7.2963 10.5732C7.22095 10.752 7.09423 10.9045 6.9322 11.0111C6.77017 11.1177 6.58015 11.1737 6.38625 11.172C6.12816 11.1698 5.88138 11.0657 5.69966 10.8822C5.51794 10.6987 5.41601 10.4509 5.41602 10.1925V10.1925Z" fill="#2894FF"/>
<path d="M9.99126 1.62793C7.77291 1.62793 5.64544 2.50996 4.07682 4.08003C2.50821 5.6501 1.62695 7.77961 1.62695 10C1.65071 11.4675 2.03873 12.906 2.75611 14.1861C2.82124 14.2994 2.86029 14.4258 2.87042 14.5562C2.88055 14.6865 2.86151 14.8175 2.81467 14.9395L2.25428 16.8149C2.21151 16.9459 2.22169 17.0885 2.28266 17.2122C2.34363 17.3358 2.45055 17.4306 2.5805 17.4763C2.6968 17.5178 2.82386 17.5178 2.94016 17.4763L4.61302 16.9739C4.82986 16.9237 5.05543 16.9247 5.27179 16.9771C5.48815 17.0294 5.68931 17.1315 5.85929 17.2754C6.97262 17.9099 8.21671 18.28 9.49555 18.357C10.7744 18.434 12.0538 18.216 13.2351 17.7197C14.4165 17.2234 15.4681 16.4622 16.3089 15.4946C17.1497 14.5271 17.7573 13.3792 18.0846 12.1394C18.412 10.8996 18.4505 9.60112 18.1971 8.3441C17.9437 7.08709 17.4052 5.90515 16.6232 4.88944C15.8411 3.87373 14.8364 3.05138 13.6865 2.48589C12.5367 1.9204 11.2724 1.62689 9.99126 1.62793V1.62793Z" stroke="#2894FF" stroke-width="1.5" stroke-linecap="round" stroke-linejoin="round"/>
</svg>
