<svg width="18" height="18" viewBox="0 0 18 18" fill="none" xmlns="http://www.w3.org/2000/svg">
<mask id="path-1-outside-1" maskUnits="userSpaceOnUse" x="0" y="0.000976562" width="18" height="18" fill="black">
<rect fill="white" y="0.000976562" width="18" height="18"/>
<path fill-rule="evenodd" clip-rule="evenodd" d="M8.52517 16.7981L8.71707 16.916L8.69306 16.9076C8.78427 16.9673 8.88952 16.9989 8.99691 16.9989C9.00381 16.9989 9.0107 16.9987 9.01758 16.9985V15.6622C7.40594 14.6104 5.90819 13.376 4.55113 11.9812C3.60979 10.9924 2.89353 9.79189 2.45618 8.46966C2.06595 7.2617 2.10286 5.94596 2.56014 4.76438C2.77814 4.21834 3.10521 3.72813 3.51913 3.32708C3.93305 2.92603 4.42412 2.62353 4.95894 2.44016L4.97494 2.43173C5.56725 2.23246 6.19493 2.17815 6.81016 2.27301C7.42539 2.36787 8.01196 2.6094 8.52517 2.97912L8.6851 3.09702C8.78447 3.17494 8.90504 3.21699 9.02892 3.21699C9.15281 3.21699 9.27338 3.17494 9.37275 3.09702C9.89623 2.68635 10.5049 2.41261 11.1486 2.2984C11.7923 2.1842 12.4525 2.23278 13.0749 2.44016C13.6107 2.62395 14.1025 2.92755 14.5165 3.33017C14.9305 3.73278 15.2571 4.22491 15.4737 4.7728C15.9351 5.9564 15.9721 7.27636 15.5777 8.48652C15.5203 8.65988 15.4582 8.83115 15.3914 9.00013H16.6378C16.6525 8.95815 16.6669 8.91606 16.6811 8.87385C17.1697 7.35883 17.1127 5.70758 16.5212 4.23385C16.2362 3.53428 15.8117 2.90752 15.2764 2.39606C14.7411 1.88459 14.1075 1.50038 13.4187 1.26962L13.2108 1.20229C12.5446 1.00753 11.8485 0.953351 11.1623 1.04295C10.4762 1.13256 9.81366 1.36417 9.21282 1.72439L8.99691 1.85915L8.78105 1.72439C8.14937 1.34659 7.45006 1.11105 6.72744 1.03278C6.00481 0.954498 5.27463 1.03515 4.58315 1.26962C3.89565 1.4985 3.26318 1.88118 2.72909 2.39133C2.19501 2.90148 1.77191 3.52708 1.4887 4.22542C0.897664 5.69633 0.840738 7.34476 1.32877 8.857C1.82174 10.3688 2.64316 11.7385 3.72757 12.857C5.18364 14.3533 6.79266 15.6751 8.52517 16.7981Z"/>
</mask>
<path fill-rule="evenodd" clip-rule="evenodd" d="M8.52517 16.7981L8.71707 16.916L8.69306 16.9076C8.78427 16.9673 8.88952 16.9989 8.99691 16.9989C9.00381 16.9989 9.0107 16.9987 9.01758 16.9985V15.6622C7.40594 14.6104 5.90819 13.376 4.55113 11.9812C3.60979 10.9924 2.89353 9.79189 2.45618 8.46966C2.06595 7.2617 2.10286 5.94596 2.56014 4.76438C2.77814 4.21834 3.10521 3.72813 3.51913 3.32708C3.93305 2.92603 4.42412 2.62353 4.95894 2.44016L4.97494 2.43173C5.56725 2.23246 6.19493 2.17815 6.81016 2.27301C7.42539 2.36787 8.01196 2.6094 8.52517 2.97912L8.6851 3.09702C8.78447 3.17494 8.90504 3.21699 9.02892 3.21699C9.15281 3.21699 9.27338 3.17494 9.37275 3.09702C9.89623 2.68635 10.5049 2.41261 11.1486 2.2984C11.7923 2.1842 12.4525 2.23278 13.0749 2.44016C13.6107 2.62395 14.1025 2.92755 14.5165 3.33017C14.9305 3.73278 15.2571 4.22491 15.4737 4.7728C15.9351 5.9564 15.9721 7.27636 15.5777 8.48652C15.5203 8.65988 15.4582 8.83115 15.3914 9.00013H16.6378C16.6525 8.95815 16.6669 8.91606 16.6811 8.87385C17.1697 7.35883 17.1127 5.70758 16.5212 4.23385C16.2362 3.53428 15.8117 2.90752 15.2764 2.39606C14.7411 1.88459 14.1075 1.50038 13.4187 1.26962L13.2108 1.20229C12.5446 1.00753 11.8485 0.953351 11.1623 1.04295C10.4762 1.13256 9.81366 1.36417 9.21282 1.72439L8.99691 1.85915L8.78105 1.72439C8.14937 1.34659 7.45006 1.11105 6.72744 1.03278C6.00481 0.954498 5.27463 1.03515 4.58315 1.26962C3.89565 1.4985 3.26318 1.88118 2.72909 2.39133C2.19501 2.90148 1.77191 3.52708 1.4887 4.22542C0.897664 5.69633 0.840738 7.34476 1.32877 8.857C1.82174 10.3688 2.64316 11.7385 3.72757 12.857C5.18364 14.3533 6.79266 15.6751 8.52517 16.7981Z" fill="#2F98FE"/>
<path d="M8.71707 16.916L8.65083 17.1047L8.82177 16.7456L8.71707 16.916ZM8.52517 16.7981L8.41636 16.966L8.42047 16.9685L8.52517 16.7981ZM8.69306 16.9076L8.7593 16.7189L8.58354 17.0749L8.69306 16.9076ZM9.01758 16.9985L9.02514 17.1983L9.21758 17.191V16.9985H9.01758ZM9.01758 15.6622H9.21758V15.5539L9.12689 15.4947L9.01758 15.6622ZM4.55113 11.9812L4.40627 12.1191L4.40778 12.1206L4.55113 11.9812ZM2.45618 8.46966L2.26586 8.53114L2.2663 8.53247L2.45618 8.46966ZM2.56014 4.76438L2.37438 4.69021L2.37362 4.69219L2.56014 4.76438ZM3.51913 3.32708L3.6583 3.47072L3.51913 3.32708ZM4.95894 2.44016L5.02381 2.62934L5.03844 2.62433L5.05212 2.61712L4.95894 2.44016ZM4.97494 2.43173L4.91117 2.24217L4.89596 2.24729L4.88176 2.25476L4.97494 2.43173ZM8.52517 2.97912L8.64386 2.81813L8.64208 2.81684L8.52517 2.97912ZM8.6851 3.09702L8.80857 2.93957L8.80378 2.93604L8.6851 3.09702ZM9.37275 3.09702L9.49616 3.2544L9.49619 3.25438L9.37275 3.09702ZM11.1486 2.2984L11.1836 2.49533L11.1486 2.2984ZM13.0749 2.44016L13.1398 2.25097L13.1381 2.25041L13.0749 2.44016ZM15.4737 4.7728L15.66 4.70016L15.6597 4.69927L15.4737 4.7728ZM15.5777 8.48652L15.7675 8.54933L15.7678 8.5485L15.5777 8.48652ZM15.3914 9.00013L15.2054 8.92659L15.0972 9.20013H15.3914V9.00013ZM16.6378 9.00013V9.20013H16.7797L16.8265 9.06619L16.6378 9.00013ZM16.6811 8.87385L16.8707 8.93763L16.8715 8.93524L16.6811 8.87385ZM16.5212 4.23385L16.7068 4.15934L16.7064 4.1584L16.5212 4.23385ZM15.2764 2.39606L15.1382 2.54066L15.2764 2.39606ZM13.4187 1.26962L13.4823 1.07997L13.4803 1.07935L13.4187 1.26962ZM13.2108 1.20229L13.2725 1.01194L13.2669 1.01032L13.2108 1.20229ZM11.1623 1.04295L11.1882 1.24127L11.1623 1.04295ZM9.21282 1.72439L9.10996 1.55283L9.10692 1.55473L9.21282 1.72439ZM8.99691 1.85915L8.89099 2.02881L8.9969 2.09492L9.10281 2.02882L8.99691 1.85915ZM8.78105 1.72439L8.88699 1.55471L8.88371 1.55275L8.78105 1.72439ZM6.72744 1.03278L6.7059 1.23161L6.72744 1.03278ZM4.58315 1.26962L4.64633 1.45938L4.64737 1.45903L4.58315 1.26962ZM2.72909 2.39133L2.59095 2.2467L2.72909 2.39133ZM1.4887 4.22542L1.30336 4.15025L1.30312 4.15085L1.4887 4.22542ZM1.32877 8.857L1.13843 8.91842L1.13862 8.919L1.32877 8.857ZM3.72757 12.857L3.58398 12.9962L3.58424 12.9965L3.72757 12.857ZM8.82177 16.7456L8.62987 16.6277L8.42047 16.9685L8.61237 17.0864L8.82177 16.7456ZM8.62681 17.0963L8.65083 17.1047L8.78331 16.7273L8.7593 16.7189L8.62681 17.0963ZM8.99691 16.7989C8.92899 16.7989 8.86171 16.7789 8.80257 16.7402L8.58354 17.0749C8.70683 17.1556 8.85005 17.1989 8.99691 17.1989V16.7989ZM9.01001 16.7986C9.00567 16.7988 9.0013 16.7989 8.99691 16.7989V17.1989C9.00632 17.1989 9.01573 17.1987 9.02514 17.1983L9.01001 16.7986ZM9.21758 16.9985V15.6622H8.81758V16.9985H9.21758ZM4.40778 12.1206C5.775 13.526 7.28415 14.7698 8.90827 15.8297L9.12689 15.4947C7.52774 14.4511 6.04138 13.2261 4.69448 11.8417L4.40778 12.1206ZM2.2663 8.53247C2.71273 9.88217 3.44415 11.1085 4.40628 12.1191L4.69598 11.8433C3.77543 10.8764 3.07433 9.70161 2.64607 8.40685L2.2663 8.53247ZM2.37362 4.69219C1.89974 5.91667 1.86155 7.2796 2.26587 8.53114L2.6465 8.40818C2.27034 7.2438 2.30598 5.97526 2.74666 4.83656L2.37362 4.69219ZM3.37996 3.18344C2.94537 3.60452 2.60264 4.11854 2.37439 4.69022L2.74588 4.83853C2.95365 4.31814 3.26505 3.85174 3.6583 3.47072L3.37996 3.18344ZM4.89407 2.25097C4.33089 2.44407 3.81458 2.76234 3.37996 3.18344L3.6583 3.47072C4.05152 3.08972 4.51736 2.803 5.02381 2.62934L4.89407 2.25097ZM4.88176 2.25476L4.86575 2.26319L5.05212 2.61712L5.06813 2.60869L4.88176 2.25476ZM6.84064 2.07535C6.19365 1.9756 5.53366 2.03274 4.91117 2.24217L5.03872 2.62129C5.60084 2.43217 6.1962 2.38071 6.77968 2.47068L6.84064 2.07535ZM8.64208 2.81684C8.10369 2.42899 7.4876 2.17509 6.84064 2.07535L6.77968 2.47068C7.36319 2.56064 7.92023 2.78981 8.40827 3.14139L8.64208 2.81684ZM8.80378 2.93604L8.64385 2.81814L8.40649 3.1401L8.56642 3.258L8.80378 2.93604ZM9.02892 3.01699C8.95067 3.01699 8.87337 2.9905 8.80852 2.93964L8.56169 3.2544C8.69556 3.35939 8.85941 3.41699 9.02892 3.41699V3.01699ZM9.24933 2.93964C9.18448 2.9905 9.10718 3.01699 9.02892 3.01699V3.41699C9.19844 3.41699 9.36229 3.35939 9.49616 3.2544L9.24933 2.93964ZM11.1137 2.10148C10.4371 2.22152 9.79812 2.50912 9.2493 2.93967L9.49619 3.25438C9.99435 2.86358 10.5728 2.60369 11.1836 2.49533L11.1137 2.10148ZM13.1381 2.25041C12.4843 2.03254 11.7903 1.98143 11.1137 2.10148L11.1836 2.49533C11.7943 2.38696 12.4208 2.43302 13.0117 2.6299L13.1381 2.25041ZM14.6559 3.18678C14.2212 2.764 13.7041 2.44454 13.1398 2.25098L13.01 2.62934C13.5174 2.80336 13.9838 3.0911 14.3771 3.47355L14.6559 3.18678ZM15.6597 4.69927C15.4329 4.1256 15.0907 3.60952 14.6559 3.18678L14.3771 3.47355C14.7704 3.85603 15.0813 4.32421 15.2877 4.84634L15.6597 4.69927ZM15.7678 8.5485C16.1765 7.29446 16.1383 5.92692 15.66 4.70016L15.2874 4.84545C15.732 5.98587 15.7676 7.25825 15.3875 8.42454L15.7678 8.5485ZM15.5773 9.07367C15.6456 8.90115 15.709 8.7263 15.7675 8.54932L15.3878 8.42371C15.3316 8.59346 15.2708 8.76116 15.2054 8.92659L15.5773 9.07367ZM15.3914 9.20013H16.6378V8.80013H15.3914V9.20013ZM16.4915 8.81008C16.4776 8.85152 16.4634 8.89285 16.449 8.93407L16.8265 9.06619C16.8415 9.02345 16.8562 8.9806 16.8707 8.93762L16.4915 8.81008ZM16.3356 4.30835C16.9097 5.73861 16.965 7.34179 16.4908 8.81247L16.8715 8.93524C17.3743 7.37587 17.3158 5.67654 16.7068 4.15934L16.3356 4.30835ZM15.1382 2.54066C15.6527 3.03225 16.0614 3.6353 16.3359 4.30929L16.7064 4.1584C16.4111 3.43326 15.9707 2.7828 15.4145 2.25145L15.1382 2.54066ZM13.3552 1.45926C14.0155 1.68049 14.6237 2.0491 15.1382 2.54066L15.4145 2.25145C14.8584 1.72008 14.1995 1.32026 13.4823 1.07998L13.3552 1.45926ZM13.1492 1.39256L13.3571 1.45989L13.4803 1.07935L13.2724 1.01202L13.1492 1.39256ZM11.1882 1.24127C11.8468 1.15527 12.515 1.20724 13.1547 1.39425L13.2669 1.01032C12.5742 0.807814 11.8501 0.751433 11.1364 0.844637L11.1882 1.24127ZM9.31566 1.89592C9.89327 1.54963 10.5297 1.32727 11.1882 1.24127L11.1364 0.844637C10.4227 0.937839 9.73405 1.1787 9.10998 1.55285L9.31566 1.89592ZM9.10281 2.02882L9.31872 1.89405L9.10692 1.55473L8.89101 1.68949L9.10281 2.02882ZM8.67513 1.89404L8.89099 2.02881L9.10283 1.6895L8.88697 1.55474L8.67513 1.89404ZM6.7059 1.23161C7.39946 1.30674 8.07115 1.53284 8.67839 1.89603L8.88371 1.55275C8.22759 1.16033 7.50066 0.915366 6.74898 0.833939L6.7059 1.23161ZM4.64737 1.45903C5.31142 1.23386 6.01234 1.15648 6.7059 1.23161L6.74898 0.833939C5.99728 0.752513 5.23783 0.836437 4.51892 1.08021L4.64737 1.45903ZM2.86724 2.53595C3.3804 2.04578 3.9874 1.67875 4.64632 1.45938L4.51997 1.07986C3.8039 1.31826 3.14596 1.71657 2.59095 2.2467L2.86724 2.53595ZM1.67404 4.30058C1.94684 3.62793 2.35405 3.02615 2.86724 2.53595L2.59095 2.2467C2.03597 2.77681 1.59699 3.42623 1.30336 4.15025L1.67404 4.30058ZM1.5191 8.79557C1.04539 7.32771 1.10072 5.7274 1.67428 4.29998L1.30312 4.15085C0.694608 5.66526 0.636082 7.3618 1.13844 8.91842L1.5191 8.79557ZM3.87116 12.7178C2.80839 11.6217 2.00265 10.2785 1.51892 8.79499L1.13862 8.919C1.64083 10.4592 2.47792 11.8554 3.58398 12.9962L3.87116 12.7178ZM8.63396 16.6303C6.91412 15.5155 5.31667 14.2032 3.8709 12.7175L3.58424 12.9965C5.05061 14.5033 6.67119 15.8347 8.41639 16.9659L8.63396 16.6303Z" fill="#2F98FE" mask="url(#path-1-outside-1)"/>
</svg>
