<svg width="26" height="26" viewBox="0 0 26 26" fill="none" xmlns="http://www.w3.org/2000/svg">
<path d="M13 0C5.82029 0 0 5.82029 0 13C0 20.1797 5.82029 25.9999 13 25.9999C20.1797 25.9999 25.9999 20.1797 25.9999 13C25.9923 5.8235 20.1765 0.00767159 13 0ZM13 24.1428C6.84594 24.1428 1.85712 19.154 1.85712 13C1.85712 6.84594 6.84594 1.85712 13 1.85712C19.154 1.85712 24.1428 6.84594 24.1428 13C24.1362 19.1513 19.1513 24.1362 13 24.1428Z" fill="#778797"/>
<path d="M18.0674 11.1858V12.5847H20.1375C20.6139 12.5847 21 12.9761 21 13.459C21 13.9419 20.6139 14.3333 20.1375 14.3333H18.0674V16.1257C18.0674 16.6086 17.6813 17 17.2049 17C16.7286 17 16.3423 16.6086 16.3423 16.1257V11.1858C16.3423 9.98053 17.3096 9 18.4987 9H20.1375C20.6139 9 21 9.39139 21 9.87432C21 10.3572 20.6139 10.7486 20.1375 10.7486H18.4987C18.261 10.7486 18.0674 10.9447 18.0674 11.1858ZM10.3046 12.6284H8.79515C8.3189 12.6284 7.93261 13.0198 7.93261 13.5027C7.93261 13.9857 8.3189 14.377 8.79515 14.377H9.39825C9.20266 14.9013 8.69879 15.2514 8.10512 15.2514C7.34417 15.2514 6.72507 14.6238 6.72507 13.8525V12.1913C6.72507 11.4199 7.34417 10.7923 8.10512 10.7923C8.59097 10.7923 9.03235 11.0441 9.28538 11.4655C9.53302 11.8781 10.0637 12.0089 10.4707 11.7577C10.8775 11.5067 11.0066 10.9688 10.7589 10.5564C10.1902 9.60912 9.19811 9.04372 8.10512 9.04372C6.39303 9.04372 5 10.4558 5 12.1913V13.8525C5 15.5879 6.39303 17 8.10512 17C8.82631 17 9.52695 16.7515 10.0782 16.3005C10.6312 15.8478 11.0121 15.2097 11.1506 14.5039C11.1616 14.4477 11.1671 14.3905 11.1671 14.3333V13.5027C11.1671 13.0198 10.781 12.6284 10.3046 12.6284ZM13.7547 9C13.2785 9 12.8922 9.39139 12.8922 9.87432V16.1257C12.8922 16.6086 13.2785 17 13.7547 17C14.2311 17 14.6173 16.6086 14.6173 16.1257V9.87432C14.6173 9.39139 14.2311 9 13.7547 9Z" fill="#778797"/>
</svg>
