<svg width="65" height="18" viewBox="0 0 65 18" fill="none" xmlns="http://www.w3.org/2000/svg">
<rect x="63" y="1" width="2" height="2" rx="1" fill="#778797"/>
<rect x="63" y="15" width="2" height="2" rx="1" fill="#778797"/>
<rect x="63" y="8" width="2" height="2" rx="1" fill="#778797"/>
<path d="M12.3782 15.5737V15.6987H12.4154C12.4523 15.8006 12.5144 15.8922 12.5968 15.9645C12.7059 16.0602 12.844 16.1165 12.989 16.1243L12.9903 16.1244C13.0751 16.1281 13.1597 16.1148 13.2393 16.0855L13.196 15.9682L13.2393 16.0855C13.3188 16.0562 13.3918 16.0114 13.4539 15.9536C13.5159 15.8959 13.5659 15.8264 13.6008 15.7491C13.6358 15.6719 13.655 15.5884 13.6573 15.5037L13.6574 15.5037V15.5003V13.6353H15.5907H15.6015L15.6121 13.6335C15.7574 13.6083 15.8896 13.5337 15.9862 13.4222C16.0826 13.311 16.1376 13.1699 16.142 13.0229C16.1455 12.9395 16.1325 12.8562 16.1036 12.7779C16.0746 12.6992 16.0303 12.6271 15.9731 12.5658C15.916 12.5044 15.8472 12.455 15.7708 12.4205C15.6944 12.386 15.6119 12.367 15.5281 12.3647L15.5281 12.3646H15.5246H13.65V10.4263V10.4149L13.6479 10.4036C13.6215 10.2609 13.5478 10.1312 13.4387 10.0354C13.3296 9.93964 13.1915 9.88346 13.0465 9.87566L13.0465 9.87566L13.0452 9.8756C12.9606 9.87194 12.876 9.88503 12.7963 9.91438C12.7166 9.94373 12.6437 9.98867 12.5817 10.0464C12.5196 10.1041 12.4697 10.1736 12.4347 10.2509C12.3998 10.3281 12.3806 10.4115 12.3782 10.4963L12.3782 10.4963V10.4997V12.3646H10.4375H10.4258L10.4144 12.3668C10.2721 12.3935 10.1432 12.4677 10.0486 12.5771C9.95427 12.6862 9.89961 12.824 9.89359 12.9681C9.88882 13.0522 9.90095 13.1364 9.92924 13.2158C9.95765 13.2955 10.0018 13.3687 10.0591 13.431C10.1163 13.4933 10.1856 13.5435 10.2626 13.5786L10.3144 13.4648L10.2626 13.5786C10.3397 13.6137 10.423 13.6329 10.5076 13.6352L10.5076 13.6353H10.511H12.3782V15.5737Z" fill="#778797" stroke="#778797" stroke-width="0.25"/>
<mask id="path-5-outside-1_1803:26091" maskUnits="userSpaceOnUse" x="0" y="0.000854492" width="18" height="18" fill="black">
<rect fill="white" y="0.000854492" width="18" height="18"/>
<path fill-rule="evenodd" clip-rule="evenodd" d="M8.52517 16.798L8.71707 16.9159L8.69306 16.9074C8.78427 16.9671 8.88952 16.9987 8.99691 16.9987C9.00381 16.9987 9.0107 16.9986 9.01758 16.9983V15.6621C7.40594 14.6103 5.90819 13.3759 4.55113 11.9811C3.60979 10.9923 2.89353 9.79177 2.45618 8.46954C2.06595 7.26158 2.10286 5.94584 2.56014 4.76425C2.77814 4.21822 3.10521 3.72801 3.51913 3.32696C3.93305 2.92591 4.42412 2.62341 4.95894 2.44003L4.97494 2.43161C5.56725 2.23234 6.19493 2.17803 6.81016 2.27289C7.42539 2.36774 8.01196 2.60928 8.52517 2.97899L8.6851 3.0969C8.78447 3.17482 8.90504 3.21686 9.02892 3.21686C9.15281 3.21686 9.27338 3.17482 9.37275 3.0969C9.89623 2.68623 10.5049 2.41248 11.1486 2.29828C11.7923 2.18407 12.4525 2.23266 13.0749 2.44003C13.6107 2.62383 14.1025 2.92743 14.5165 3.33004C14.9305 3.73266 15.2571 4.22479 15.4737 4.77268C15.9351 5.95627 15.9721 7.27624 15.5777 8.4864C15.5203 8.65976 15.4582 8.83103 15.3914 9.00001H16.6378C16.6525 8.95803 16.6669 8.91593 16.6811 8.87373C17.1697 7.35871 17.1127 5.70745 16.5212 4.23372C16.2362 3.53416 15.8117 2.9074 15.2764 2.39594C14.7411 1.88447 14.1075 1.50025 13.4187 1.2695L13.2108 1.20216C12.5446 1.00741 11.8485 0.953229 11.1623 1.04283C10.4762 1.13243 9.81366 1.36404 9.21282 1.72427L8.99691 1.85903L8.78105 1.72427C8.14937 1.34646 7.45006 1.11093 6.72744 1.03265C6.00481 0.954376 5.27463 1.03502 4.58315 1.2695C3.89565 1.49838 3.26318 1.88105 2.72909 2.39121C2.19501 2.90136 1.77191 3.52696 1.4887 4.22529C0.897664 5.69621 0.840738 7.34463 1.32877 8.85687C1.82174 10.3687 2.64316 11.7384 3.72757 12.8569C5.18364 14.3532 6.79266 15.6749 8.52517 16.798Z"/>
</mask>
<path fill-rule="evenodd" clip-rule="evenodd" d="M8.52517 16.798L8.71707 16.9159L8.69306 16.9074C8.78427 16.9671 8.88952 16.9987 8.99691 16.9987C9.00381 16.9987 9.0107 16.9986 9.01758 16.9983V15.6621C7.40594 14.6103 5.90819 13.3759 4.55113 11.9811C3.60979 10.9923 2.89353 9.79177 2.45618 8.46954C2.06595 7.26158 2.10286 5.94584 2.56014 4.76425C2.77814 4.21822 3.10521 3.72801 3.51913 3.32696C3.93305 2.92591 4.42412 2.62341 4.95894 2.44003L4.97494 2.43161C5.56725 2.23234 6.19493 2.17803 6.81016 2.27289C7.42539 2.36774 8.01196 2.60928 8.52517 2.97899L8.6851 3.0969C8.78447 3.17482 8.90504 3.21686 9.02892 3.21686C9.15281 3.21686 9.27338 3.17482 9.37275 3.0969C9.89623 2.68623 10.5049 2.41248 11.1486 2.29828C11.7923 2.18407 12.4525 2.23266 13.0749 2.44003C13.6107 2.62383 14.1025 2.92743 14.5165 3.33004C14.9305 3.73266 15.2571 4.22479 15.4737 4.77268C15.9351 5.95627 15.9721 7.27624 15.5777 8.4864C15.5203 8.65976 15.4582 8.83103 15.3914 9.00001H16.6378C16.6525 8.95803 16.6669 8.91593 16.6811 8.87373C17.1697 7.35871 17.1127 5.70745 16.5212 4.23372C16.2362 3.53416 15.8117 2.9074 15.2764 2.39594C14.7411 1.88447 14.1075 1.50025 13.4187 1.2695L13.2108 1.20216C12.5446 1.00741 11.8485 0.953229 11.1623 1.04283C10.4762 1.13243 9.81366 1.36404 9.21282 1.72427L8.99691 1.85903L8.78105 1.72427C8.14937 1.34646 7.45006 1.11093 6.72744 1.03265C6.00481 0.954376 5.27463 1.03502 4.58315 1.2695C3.89565 1.49838 3.26318 1.88105 2.72909 2.39121C2.19501 2.90136 1.77191 3.52696 1.4887 4.22529C0.897664 5.69621 0.840738 7.34463 1.32877 8.85687C1.82174 10.3687 2.64316 11.7384 3.72757 12.8569C5.18364 14.3532 6.79266 15.6749 8.52517 16.798Z" fill="#778797"/>
<path d="M8.71707 16.9159L8.65083 17.1046L8.82177 16.7455L8.71707 16.9159ZM8.52517 16.798L8.41636 16.9658L8.42047 16.9684L8.52517 16.798ZM8.69306 16.9074L8.7593 16.7187L8.58354 17.0748L8.69306 16.9074ZM9.01758 16.9983L9.02514 17.1982L9.21758 17.1909V16.9983H9.01758ZM9.01758 15.6621H9.21758V15.5538L9.12689 15.4946L9.01758 15.6621ZM4.55113 11.9811L4.40627 12.119L4.40778 12.1205L4.55113 11.9811ZM2.45618 8.46954L2.26586 8.53102L2.2663 8.53234L2.45618 8.46954ZM2.56014 4.76425L2.37438 4.69009L2.37362 4.69207L2.56014 4.76425ZM3.51913 3.32696L3.6583 3.4706L3.51913 3.32696ZM4.95894 2.44003L5.02381 2.62922L5.03844 2.62421L5.05212 2.617L4.95894 2.44003ZM4.97494 2.43161L4.91117 2.24205L4.89596 2.24716L4.88176 2.25464L4.97494 2.43161ZM8.52517 2.97899L8.64386 2.818L8.64208 2.81672L8.52517 2.97899ZM8.6851 3.0969L8.80857 2.93945L8.80378 2.93592L8.6851 3.0969ZM9.37275 3.0969L9.49616 3.25428L9.49619 3.25426L9.37275 3.0969ZM11.1486 2.29828L11.1836 2.4952L11.1486 2.29828ZM13.0749 2.44003L13.1398 2.25085L13.1381 2.25029L13.0749 2.44003ZM15.4737 4.77268L15.66 4.70004L15.6597 4.69915L15.4737 4.77268ZM15.5777 8.4864L15.7675 8.5492L15.7678 8.54837L15.5777 8.4864ZM15.3914 9.00001L15.2054 8.92647L15.0972 9.20001H15.3914V9.00001ZM16.6378 9.00001V9.20001H16.7797L16.8265 9.06607L16.6378 9.00001ZM16.6811 8.87373L16.8707 8.93751L16.8715 8.93512L16.6811 8.87373ZM16.5212 4.23372L16.7068 4.15922L16.7064 4.15828L16.5212 4.23372ZM15.2764 2.39594L15.1382 2.54054L15.2764 2.39594ZM13.4187 1.2695L13.4823 1.07985L13.4803 1.07923L13.4187 1.2695ZM13.2108 1.20216L13.2725 1.01182L13.2669 1.0102L13.2108 1.20216ZM11.1623 1.04283L11.1882 1.24115L11.1623 1.04283ZM9.21282 1.72427L9.10996 1.5527L9.10692 1.5546L9.21282 1.72427ZM8.99691 1.85903L8.89099 2.02868L8.9969 2.0948L9.10281 2.02869L8.99691 1.85903ZM8.78105 1.72427L8.88699 1.55458L8.88371 1.55262L8.78105 1.72427ZM6.72744 1.03265L6.7059 1.23149L6.72744 1.03265ZM4.58315 1.2695L4.64633 1.45926L4.64737 1.4589L4.58315 1.2695ZM2.72909 2.39121L2.59095 2.24658L2.72909 2.39121ZM1.4887 4.22529L1.30336 4.15013L1.30312 4.15073L1.4887 4.22529ZM1.32877 8.85687L1.13843 8.9183L1.13862 8.91888L1.32877 8.85687ZM3.72757 12.8569L3.58398 12.9961L3.58424 12.9964L3.72757 12.8569ZM8.82177 16.7455L8.62987 16.6276L8.42047 16.9684L8.61237 17.0863L8.82177 16.7455ZM8.62681 17.0962L8.65083 17.1046L8.78331 16.7272L8.7593 16.7187L8.62681 17.0962ZM8.99691 16.7987C8.92899 16.7987 8.86171 16.7788 8.80257 16.7401L8.58354 17.0748C8.70683 17.1555 8.85005 17.1987 8.99691 17.1987V16.7987ZM9.01001 16.7985C9.00567 16.7986 9.0013 16.7987 8.99691 16.7987V17.1987C9.00632 17.1987 9.01573 17.1986 9.02514 17.1982L9.01001 16.7985ZM9.21758 16.9983V15.6621H8.81758V16.9983H9.21758ZM4.40778 12.1205C5.775 13.5258 7.28415 14.7696 8.90827 15.8296L9.12689 15.4946C7.52774 14.451 6.04138 13.226 4.69448 11.8416L4.40778 12.1205ZM2.2663 8.53234C2.71273 9.88205 3.44415 11.1084 4.40628 12.119L4.69598 11.8431C3.77543 10.8762 3.07433 9.70149 2.64607 8.40673L2.2663 8.53234ZM2.37362 4.69207C1.89974 5.91655 1.86155 7.27948 2.26587 8.53102L2.6465 8.40806C2.27034 7.24368 2.30598 5.97513 2.74666 4.83644L2.37362 4.69207ZM3.37996 3.18332C2.94537 3.6044 2.60264 4.11842 2.37439 4.69009L2.74588 4.83841C2.95365 4.31801 3.26505 3.85162 3.6583 3.4706L3.37996 3.18332ZM4.89407 2.25085C4.33089 2.44395 3.81458 2.76222 3.37996 3.18332L3.6583 3.4706C4.05152 3.0896 4.51736 2.80287 5.02381 2.62922L4.89407 2.25085ZM4.88176 2.25464L4.86575 2.26307L5.05212 2.617L5.06813 2.60857L4.88176 2.25464ZM6.84064 2.07522C6.19365 1.97547 5.53366 2.03262 4.91117 2.24205L5.03872 2.62117C5.60084 2.43205 6.1962 2.38059 6.77968 2.47055L6.84064 2.07522ZM8.64208 2.81672C8.10369 2.42887 7.4876 2.17497 6.84064 2.07522L6.77968 2.47055C7.36319 2.56052 7.92023 2.78969 8.40827 3.14127L8.64208 2.81672ZM8.80378 2.93592L8.64385 2.81801L8.40649 3.13998L8.56642 3.25788L8.80378 2.93592ZM9.02892 3.01686C8.95067 3.01686 8.87337 2.99038 8.80852 2.93952L8.56169 3.25428C8.69556 3.35926 8.85941 3.41686 9.02892 3.41686V3.01686ZM9.24933 2.93952C9.18448 2.99038 9.10718 3.01686 9.02892 3.01686V3.41686C9.19844 3.41686 9.36229 3.35926 9.49616 3.25428L9.24933 2.93952ZM11.1137 2.10135C10.4371 2.2214 9.79812 2.509 9.2493 2.93954L9.49619 3.25426C9.99435 2.86346 10.5728 2.60357 11.1836 2.4952L11.1137 2.10135ZM13.1381 2.25029C12.4843 2.03242 11.7903 1.98131 11.1137 2.10135L11.1836 2.4952C11.7943 2.38684 12.4208 2.4329 13.0117 2.62978L13.1381 2.25029ZM14.6559 3.18666C14.2212 2.76388 13.7041 2.44442 13.1398 2.25085L13.01 2.62922C13.5174 2.80324 13.9838 3.09098 14.3771 3.47343L14.6559 3.18666ZM15.6597 4.69915C15.4329 4.12548 15.0907 3.6094 14.6559 3.18666L14.3771 3.47343C14.7704 3.85591 15.0813 4.32409 15.2877 4.84622L15.6597 4.69915ZM15.7678 8.54837C16.1765 7.29434 16.1383 5.9268 15.66 4.70004L15.2874 4.84533C15.732 5.98574 15.7676 7.25813 15.3875 8.42442L15.7678 8.54837ZM15.5773 9.07355C15.6456 8.90103 15.709 8.72618 15.7675 8.5492L15.3878 8.42359C15.3316 8.59334 15.2708 8.76103 15.2054 8.92647L15.5773 9.07355ZM15.3914 9.20001H16.6378V8.80001H15.3914V9.20001ZM16.4915 8.80996C16.4776 8.85139 16.4634 8.89272 16.449 8.93395L16.8265 9.06607C16.8415 9.02333 16.8562 8.98047 16.8707 8.9375L16.4915 8.80996ZM16.3356 4.30823C16.9097 5.73849 16.965 7.34167 16.4908 8.81235L16.8715 8.93512C17.3743 7.37575 17.3158 5.67641 16.7068 4.15922L16.3356 4.30823ZM15.1382 2.54054C15.6527 3.03213 16.0614 3.63517 16.3359 4.30917L16.7064 4.15828C16.4111 3.43314 15.9707 2.78267 15.4145 2.25133L15.1382 2.54054ZM13.3552 1.45914C14.0155 1.68037 14.6237 2.04898 15.1382 2.54054L15.4145 2.25133C14.8584 1.71996 14.1995 1.32014 13.4823 1.07986L13.3552 1.45914ZM13.1492 1.39244L13.3571 1.45977L13.4803 1.07923L13.2724 1.01189L13.1492 1.39244ZM11.1882 1.24115C11.8468 1.15515 12.515 1.20712 13.1547 1.39413L13.2669 1.0102C12.5742 0.807692 11.8501 0.751311 11.1364 0.844515L11.1882 1.24115ZM9.31566 1.8958C9.89327 1.54951 10.5297 1.32715 11.1882 1.24115L11.1364 0.844515C10.4227 0.937717 9.73405 1.17858 9.10998 1.55273L9.31566 1.8958ZM9.10281 2.02869L9.31872 1.89393L9.10692 1.5546L8.89101 1.68937L9.10281 2.02869ZM8.67513 1.89392L8.89099 2.02868L9.10283 1.68938L8.88697 1.55461L8.67513 1.89392ZM6.7059 1.23149C7.39946 1.30662 8.07115 1.53272 8.67839 1.89591L8.88371 1.55262C8.22759 1.16021 7.50066 0.915244 6.74898 0.833817L6.7059 1.23149ZM4.64737 1.4589C5.31142 1.23373 6.01234 1.15636 6.7059 1.23149L6.74898 0.833817C5.99728 0.75239 5.23783 0.836315 4.51892 1.08009L4.64737 1.4589ZM2.86724 2.53583C3.3804 2.04566 3.9874 1.67863 4.64632 1.45926L4.51997 1.07974C3.8039 1.31814 3.14596 1.71645 2.59095 2.24658L2.86724 2.53583ZM1.67404 4.30046C1.94684 3.62781 2.35405 3.02603 2.86724 2.53583L2.59095 2.24658C2.03597 2.77669 1.59699 3.42611 1.30336 4.15013L1.67404 4.30046ZM1.5191 8.79545C1.04539 7.32759 1.10072 5.72728 1.67428 4.29986L1.30312 4.15073C0.694608 5.66514 0.636082 7.36168 1.13844 8.9183L1.5191 8.79545ZM3.87116 12.7177C2.80839 11.6215 2.00265 10.2784 1.51892 8.79487L1.13862 8.91888C1.64083 10.459 2.47792 11.8553 3.58398 12.9961L3.87116 12.7177ZM8.63396 16.6301C6.91412 15.5153 5.31667 14.2031 3.8709 12.7174L3.58424 12.9964C5.05061 14.5032 6.67119 15.8346 8.41639 16.9658L8.63396 16.6301Z" fill="#778797" mask="url(#path-5-outside-1_1803:26091)"/>
<path d="M40.1176 12.552C42.0122 12.6992 43.8262 13.5423 45.2796 14.9659L45.2796 14.966L46.1224 15.7913L46.1225 15.7913C46.3003 15.9651 46.5555 16.0082 46.7732 15.8931M40.1176 12.552L39.5175 17.1C39.3785 17.1 39.2426 17.0462 39.1341 16.9455L39.1341 16.9455L31.1341 9.51684L31.134 9.5167C30.9953 9.38746 30.9176 9.19721 30.9176 8.99994C30.9176 8.80266 30.9953 8.61242 31.1339 8.48315L31.1341 8.483L39.1341 1.05435L39.1342 1.05427C39.3137 0.888007 39.5675 0.851543 39.7802 0.967224L39.7802 0.967234C39.9909 1.08188 40.1176 1.31922 40.1176 1.57125V5.49819C44.0395 5.84935 47.1176 9.60316 47.1176 14.1428V15.2857C47.1176 15.5409 46.9876 15.7804 46.7732 15.8931M40.1176 12.552V16.4286C40.1176 16.6806 39.9909 16.918 39.7802 17.0326L39.7798 17.0328C39.6973 17.0773 39.6078 17.1 39.5176 17.1L40.1176 12.552ZM46.7732 15.8931C46.7732 15.8931 46.7731 15.8931 46.7731 15.8932L46.7266 15.8046L46.7733 15.893C46.7733 15.8931 46.7732 15.8931 46.7732 15.8931ZM38.9176 3.00093V6.14272C38.9176 6.50084 39.1739 6.81417 39.5176 6.81417C42.9355 6.81417 45.7547 9.90688 45.9109 13.8021C44.1139 12.1143 41.852 11.1856 39.5176 11.1856C39.1739 11.1856 38.9176 11.499 38.9176 11.8571V14.9989L32.4575 8.99994L32.6668 8.80559L33.4266 8.10004L35.7321 5.95905L38.0377 3.81806L38.7975 3.1125L38.9176 3.00093Z" fill="#778797" stroke="#778797" stroke-width="0.2"/>
</svg>
