<svg width="18" height="18" viewBox="0 0 18 18" fill="none" xmlns="http://www.w3.org/2000/svg">
<path d="M12.0118 9.19252C12.0101 8.99844 12.0661 8.80825 12.1726 8.64607C12.2791 8.48389 12.4314 8.357 12.6101 8.28158C12.7887 8.20615 12.9858 8.18556 13.1761 8.2224C13.3665 8.25925 13.5417 8.35188 13.6794 8.48853C13.8171 8.62518 13.9111 8.79973 13.9496 8.98996C13.988 9.1802 13.9691 9.37759 13.8953 9.55706C13.8215 9.73654 13.696 9.88999 13.5349 9.998C13.3738 10.106 13.1843 10.1637 12.9904 10.1637C12.7323 10.1637 12.4846 10.0616 12.3013 9.87975C12.118 9.69786 12.014 9.45086 12.0118 9.19252ZM8.21437 9.19252C8.21437 8.93273 8.31745 8.68357 8.50098 8.49987C8.6845 8.31617 8.93343 8.213 9.19298 8.213C9.45253 8.213 9.70146 8.31617 9.88499 8.49987C10.0685 8.68357 10.1716 8.93273 10.1716 9.19252C10.1694 9.45163 10.0656 9.69949 9.88259 9.88272C9.69953 10.0659 9.45185 10.1699 9.19298 10.172C8.93343 10.172 8.6845 10.0689 8.50098 9.88517C8.31745 9.70147 8.21437 9.45231 8.21437 9.19252ZM4.41699 9.19252C4.417 8.99843 4.47459 8.80871 4.5825 8.64745C4.69041 8.48619 4.84372 8.36067 5.02303 8.28679C5.20234 8.2129 5.39954 8.19399 5.5896 8.23247C5.77966 8.27095 5.95405 8.36506 6.09057 8.50289C6.22709 8.64072 6.31964 8.81606 6.35645 9.00662C6.39326 9.19718 6.37263 9.39438 6.29728 9.57321C6.22192 9.75204 6.09521 9.90446 5.93318 10.0111C5.77115 10.1177 5.58113 10.1737 5.38723 10.172C5.12913 10.1698 4.88236 10.0657 4.70064 9.88221C4.51891 9.69875 4.41698 9.45087 4.41699 9.19252Z" fill="white"/>
<path d="M8.99224 0.627932C6.77389 0.627932 4.64641 1.50996 3.0778 3.08003C1.50919 4.6501 0.62793 6.77961 0.62793 9.00003C0.65169 10.4675 1.03971 11.906 1.75709 13.1861C1.82222 13.2994 1.86127 13.4258 1.8714 13.5562C1.88152 13.6865 1.86248 13.8175 1.81565 13.9395L1.25525 15.8149C1.21248 15.9459 1.22267 16.0885 1.28364 16.2122C1.34461 16.3358 1.45153 16.4306 1.58147 16.4763C1.69777 16.5178 1.82483 16.5178 1.94113 16.4763L3.614 15.9739C3.83083 15.9237 4.05641 15.9247 4.27277 15.9771C4.48913 16.0294 4.69029 16.1315 4.86027 16.2754C5.97359 16.9099 7.21769 17.28 8.49653 17.357C9.77537 17.434 11.0548 17.216 12.2361 16.7197C13.4174 16.2234 14.4691 15.4622 15.3099 14.4946C16.1507 13.5271 16.7582 12.3792 17.0856 11.1394C17.413 9.89962 17.4515 8.60112 17.1981 7.3441C16.9447 6.08709 16.4062 4.90515 15.6242 3.88944C14.8421 2.87373 13.8374 2.05138 12.6875 1.48589C11.5377 0.920397 10.2734 0.626892 8.99224 0.627932V0.627932Z" stroke="white" stroke-width="1.5" stroke-linecap="round" stroke-linejoin="round"/>
</svg>
