<svg width="50" height="46" viewBox="0 0 50 46" fill="none" xmlns="http://www.w3.org/2000/svg">
<g filter="url(#filter0_d_5904_22186)">
<g opacity="0.4" filter="url(#filter1_i_5904_22186)">
<path d="M38.0629 17.9165L17.4304 21.6343C16.1556 21.864 14.9401 20.9942 14.7153 19.6915L12.4442 6.52926C12.2194 5.22655 13.0706 3.98432 14.3453 3.75462L34.9778 0.0367851C36.2526 -0.192908 37.4682 0.676943 37.693 1.97959L39.964 15.1418C40.1889 16.4445 39.3377 17.6868 38.0629 17.9165Z" fill="url(#paint0_linear_5904_22186)"/>
</g>
<g filter="url(#filter2_i_5904_22186)">
<path d="M32.8516 26H12.3438C11.0494 26 10 24.9277 10 23.6049V10.5683C10 9.24558 11.0494 8.17322 12.3438 8.17322H32.8516C34.146 8.17322 35.1953 9.24558 35.1953 10.5683V23.6049C35.1953 24.9277 34.146 26 32.8516 26Z" fill="url(#paint1_linear_5904_22186)"/>
</g>
<path d="M10 12.2479H35.1953V16.3226H10V12.2479Z" fill="url(#paint2_linear_5904_22186)"/>
<path d="M16.9775 22.0458H12.9902C12.5048 22.0458 12.1113 22.4479 12.1113 22.9439C12.1113 23.44 12.5048 23.8421 12.9902 23.8421H16.9775C17.4629 23.8421 17.8564 23.44 17.8564 22.9439C17.8564 22.4479 17.4629 22.0458 16.9775 22.0458Z" fill="url(#paint3_linear_5904_22186)"/>
</g>
<defs>
<filter id="filter0_d_5904_22186" x="0" y="0" width="50" height="46" filterUnits="userSpaceOnUse" color-interpolation-filters="sRGB">
<feFlood flood-opacity="0" result="BackgroundImageFix"/>
<feColorMatrix in="SourceAlpha" type="matrix" values="0 0 0 0 0 0 0 0 0 0 0 0 0 0 0 0 0 0 127 0" result="hardAlpha"/>
<feOffset dy="10"/>
<feGaussianBlur stdDeviation="5"/>
<feComposite in2="hardAlpha" operator="out"/>
<feColorMatrix type="matrix" values="0 0 0 0 0.305882 0 0 0 0 0.67451 0 0 0 0 0.976471 0 0 0 0.2 0"/>
<feBlend mode="normal" in2="BackgroundImageFix" result="effect1_dropShadow_5904_22186"/>
<feBlend mode="normal" in="SourceGraphic" in2="effect1_dropShadow_5904_22186" result="shape"/>
</filter>
<filter id="filter1_i_5904_22186" x="12.4082" y="0" width="27.5918" height="23.6711" filterUnits="userSpaceOnUse" color-interpolation-filters="sRGB">
<feFlood flood-opacity="0" result="BackgroundImageFix"/>
<feBlend mode="normal" in="SourceGraphic" in2="BackgroundImageFix" result="shape"/>
<feColorMatrix in="SourceAlpha" type="matrix" values="0 0 0 0 0 0 0 0 0 0 0 0 0 0 0 0 0 0 127 0" result="hardAlpha"/>
<feOffset dy="2"/>
<feGaussianBlur stdDeviation="2"/>
<feComposite in2="hardAlpha" operator="arithmetic" k2="-1" k3="1"/>
<feColorMatrix type="matrix" values="0 0 0 0 0.279167 0 0 0 0 0.655653 0 0 0 0 1 0 0 0 1 0"/>
<feBlend mode="normal" in2="shape" result="effect1_innerShadow_5904_22186"/>
</filter>
<filter id="filter2_i_5904_22186" x="10" y="8.17322" width="25.1953" height="19.8268" filterUnits="userSpaceOnUse" color-interpolation-filters="sRGB">
<feFlood flood-opacity="0" result="BackgroundImageFix"/>
<feBlend mode="normal" in="SourceGraphic" in2="BackgroundImageFix" result="shape"/>
<feColorMatrix in="SourceAlpha" type="matrix" values="0 0 0 0 0 0 0 0 0 0 0 0 0 0 0 0 0 0 127 0" result="hardAlpha"/>
<feOffset dy="2"/>
<feGaussianBlur stdDeviation="2"/>
<feComposite in2="hardAlpha" operator="arithmetic" k2="-1" k3="1"/>
<feColorMatrix type="matrix" values="0 0 0 0 0.279167 0 0 0 0 0.655653 0 0 0 0 1 0 0 0 1 0"/>
<feBlend mode="normal" in2="shape" result="effect1_innerShadow_5904_22186"/>
</filter>
<linearGradient id="paint0_linear_5904_22186" x1="10.3323" y1="-22.1045" x2="46.0265" y2="-19.7618" gradientUnits="userSpaceOnUse">
<stop stop-color="#93CFFF"/>
<stop offset="1" stop-color="#2894FF"/>
</linearGradient>
<linearGradient id="paint1_linear_5904_22186" x1="8.10443" y1="-10.0101" x2="40.6659" y2="-7.63784" gradientUnits="userSpaceOnUse">
<stop stop-color="#93CFFF"/>
<stop offset="1" stop-color="#2894FF"/>
</linearGradient>
<linearGradient id="paint2_linear_5904_22186" x1="22.5977" y1="16.3226" x2="22.5977" y2="12.2479" gradientUnits="userSpaceOnUse">
<stop stop-color="#ADDCFF"/>
<stop offset="0.5028" stop-color="#EAF6FF"/>
<stop offset="1" stop-color="#EAF6FF"/>
</linearGradient>
<linearGradient id="paint3_linear_5904_22186" x1="14.9839" y1="23.8421" x2="14.9839" y2="22.0458" gradientUnits="userSpaceOnUse">
<stop stop-color="#ADDCFF"/>
<stop offset="0.5028" stop-color="#EAF6FF"/>
<stop offset="1" stop-color="#EAF6FF"/>
</linearGradient>
</defs>
</svg>
