<svg width="26" height="26" viewBox="0 0 26 26" fill="none" xmlns="http://www.w3.org/2000/svg">
<g clip-path="url(#clip0_4241:364)">
<path d="M12.9999 26C10.7569 26.0042 8.55197 25.4216 6.60388 24.31C6.18134 24.0004 5.68245 23.8117 5.16082 23.764C4.99304 23.7635 4.82634 23.7898 4.66689 23.842L2.06689 24.622C1.96819 24.6416 1.86654 24.6416 1.76783 24.622C1.64318 24.6212 1.5203 24.5927 1.40792 24.5388C1.29555 24.4849 1.19646 24.4067 1.11783 24.31C1.04149 24.2019 0.991184 24.0775 0.970886 23.9467C0.950589 23.8159 0.960896 23.6822 1.00088 23.556L1.87186 20.644C1.94465 20.4545 1.97424 20.2511 1.9585 20.0487C1.94276 19.8463 1.88207 19.65 1.78085 19.474C0.665879 17.4864 0.0628072 15.2527 0.0258789 12.974C0.0336988 9.57991 1.35162 6.3199 3.70482 3.87401C4.91574 2.63382 6.36243 1.64833 7.95982 0.975469C9.5572 0.302609 11.273 -0.0440445 13.0064 -0.0440445C14.7397 -0.0440445 16.4554 0.302609 18.0528 0.975469C19.6502 1.64833 21.0969 2.63382 22.3078 3.87401C23.4729 5.06549 24.3996 6.46865 25.0379 8.008C25.6878 9.57853 26.0235 11.2613 26.0259 12.961C26.0419 14.8268 25.6607 16.6747 24.9078 18.382C24.2127 19.9368 23.2036 21.331 21.9439 22.477C19.5081 24.7287 16.3169 25.9857 12.9999 26ZM18.9669 11.375C18.6378 11.375 18.316 11.4726 18.0424 11.6554C17.7687 11.8383 17.5554 12.0981 17.4295 12.4022C17.3035 12.7063 17.2706 13.0408 17.3348 13.3636C17.399 13.6864 17.5575 13.9829 17.7902 14.2156C18.0229 14.4483 18.3194 14.6068 18.6422 14.671C18.965 14.7352 19.2996 14.7023 19.6036 14.5764C19.9077 14.4504 20.1676 14.2371 20.3504 13.9635C20.5333 13.6898 20.6308 13.3681 20.6308 13.039C20.6308 12.5977 20.4556 12.1744 20.1435 11.8624C19.8314 11.5503 19.4082 11.375 18.9669 11.375ZM12.9479 11.375C12.7317 11.375 12.5176 11.4178 12.318 11.5009C12.1185 11.584 11.9373 11.7059 11.785 11.8594C11.6327 12.0128 11.5123 12.1949 11.4308 12.3952C11.3492 12.5954 11.3082 12.8098 11.3099 13.026C11.3073 13.3551 11.4024 13.6776 11.5831 13.9526C11.7638 14.2277 12.022 14.443 12.325 14.5713C12.6281 14.6996 12.9624 14.7352 13.2857 14.6735C13.6089 14.6118 13.9066 14.4556 14.1412 14.2247C14.3757 13.9938 14.5365 13.6986 14.6033 13.3763C14.67 13.0541 14.6396 12.7193 14.5161 12.4142C14.3925 12.1092 14.1813 11.8476 13.9091 11.6627C13.6369 11.4777 13.3159 11.3776 12.9868 11.375H12.9479ZM6.98085 11.375C6.65174 11.375 6.33003 11.4726 6.05639 11.6554C5.78275 11.8383 5.56947 12.0981 5.44352 12.4022C5.31758 12.7063 5.28466 13.0408 5.34887 13.3636C5.41307 13.6864 5.57152 13.9829 5.80423 14.2156C6.03694 14.4483 6.33346 14.6068 6.65624 14.671C6.97903 14.7352 7.31362 14.7023 7.61768 14.5764C7.92173 14.4504 8.18156 14.2371 8.3644 13.9635C8.54724 13.6898 8.64489 13.3681 8.64489 13.039C8.64489 12.5977 8.46953 12.1744 8.15746 11.8624C7.8454 11.5503 7.42217 11.375 6.98085 11.375Z" fill="white"/>
</g>
<defs>
<clipPath id="clip0_4241:364">
<rect width="26" height="26" fill="white"/>
</clipPath>
</defs>
</svg>
