<svg width="24" height="26" viewBox="0 0 24 26" fill="none" xmlns="http://www.w3.org/2000/svg">
<path d="M8.38774 24.427V20.436C8.39427 19.9485 8.58531 19.4829 8.92029 19.1381C9.25526 18.7934 9.70772 18.5967 10.1814 18.59H13.8067C14.2835 18.59 14.7411 18.7841 15.0795 19.1299C15.4179 19.4757 15.6096 19.9452 15.613 20.436V24.336C15.613 24.7578 15.7749 25.1626 16.0636 25.4621C16.3522 25.7616 16.7441 25.9315 17.154 25.935H19.6803C20.2514 25.9401 20.8179 25.829 21.3471 25.6081C21.8763 25.3871 22.3578 25.0606 22.764 24.6474C23.1702 24.2342 23.493 23.7425 23.7139 23.2005C23.9347 22.6584 24.0492 22.0768 24.0509 21.489V10.166C24.0514 9.69322 23.9496 9.22637 23.753 8.79914C23.5564 8.37192 23.2698 7.99508 22.9141 7.696L14.5014 0.819029C13.7903 0.23224 12.902 -0.0799169 11.9907 -0.0632956C11.0793 -0.0466743 10.2024 0.297607 9.51193 0.909959L1.27615 7.696C0.89721 7.98199 0.586502 8.35301 0.367641 8.78097C0.14878 9.20894 0.0275139 9.68256 0.0129945 10.166V21.476C0.00618542 22.0731 0.11566 22.6657 0.334952 23.2186C0.554244 23.7715 0.878905 24.2735 1.2898 24.6952C1.70069 25.1169 2.1895 25.4496 2.72735 25.6737C3.2652 25.8978 3.84121 26.0087 4.4214 26H6.84668C7.05057 26.0052 7.25339 25.9684 7.44322 25.8916C7.63306 25.8149 7.80602 25.6999 7.95199 25.5533C8.09795 25.4067 8.21397 25.2316 8.29314 25.0381C8.37231 24.8447 8.41305 24.6369 8.41299 24.427H8.38774Z" fill="white"/>
</svg>
