<svg width="22" height="26" viewBox="0 0 22 26" fill="none" xmlns="http://www.w3.org/2000/svg">
<g clip-path="url(#clip0_4241:362)">
<path d="M10.3329 25.961C9.52622 25.843 8.76397 25.516 8.12123 25.012C7.86465 24.8419 7.64985 24.6154 7.49302 24.3497C7.33619 24.084 7.24145 23.7859 7.2159 23.478C7.2159 22.828 7.81082 22.529 8.36697 22.399C10.0891 22.2716 11.8183 22.2716 13.5404 22.399C14.0966 22.529 14.6915 22.828 14.6915 23.478C14.6683 23.785 14.576 24.0827 14.4213 24.3485C14.2667 24.6143 14.0539 24.8412 13.799 25.012C13.1529 25.5186 12.3859 25.8458 11.5745 25.961C11.3592 25.9743 11.1432 25.9743 10.9278 25.961C10.7297 25.9719 10.5311 25.9719 10.3329 25.961ZM4.87493 20.475C3.44398 20.3447 2.10986 19.6927 1.12416 18.642C0.396169 17.7782 0.00141978 16.68 0.011893 15.548C-0.0533595 14.4641 0.282994 13.3943 0.956058 12.545C1.42798 12.0569 1.79361 11.4755 2.02965 10.8376C2.26568 10.1997 2.36695 9.51941 2.32701 8.84002V8.28099C2.24318 6.46196 2.83816 4.67706 3.99541 3.27602C4.85378 2.24716 5.92657 1.42041 7.13791 0.854307C8.34925 0.288208 9.66956 -0.00343299 11.0054 -8.33197e-06H11.1219C12.4786 0.00162357 13.8176 0.309721 15.0399 0.901518C16.2622 1.49331 17.3366 2.35368 18.1835 3.419C19.2775 4.79301 19.83 6.52371 19.7356 8.28099V8.84002C19.7078 9.51815 19.8148 10.195 20.0502 10.8312C20.2856 11.4673 20.6446 12.0499 21.1065 12.545C21.7774 13.3955 22.1135 14.4644 22.0507 15.548C22.0611 16.68 21.6664 17.7782 20.9384 18.642C19.9527 19.6927 18.6187 20.3447 17.1877 20.475C15.1571 20.644 13.1136 20.8 11.0571 20.8C8.9919 20.8104 6.92781 20.7019 4.87493 20.475Z" fill="white"/>
</g>
<defs>
<clipPath id="clip0_4241:362">
<rect width="22" height="26" fill="white"/>
</clipPath>
</defs>
</svg>
