<svg width="22" height="26" viewBox="0 0 22 26" fill="none" xmlns="http://www.w3.org/2000/svg">
<path fill-rule="evenodd" clip-rule="evenodd" d="M3.78564 6.86267C3.78564 3.04471 7.07956 0 11.0777 0C15.0759 0 18.3698 3.04471 18.3698 6.86267C18.3698 10.6806 15.0759 13.7253 11.0777 13.7253C7.07956 13.7253 3.78564 10.6806 3.78564 6.86267Z" fill="white"/>
<path fill-rule="evenodd" clip-rule="evenodd" d="M15.1609 17.3572C15.6292 17.2017 16.1278 17.1642 16.6141 17.2485C16.9299 17.3033 17.2332 17.4081 17.5136 17.5575C17.7934 17.4087 18.0957 17.3043 18.4105 17.2496C18.8959 17.1653 19.3936 17.2023 19.8611 17.3569C21.7198 17.9743 22.2478 20.0132 21.7597 21.5754L21.7556 21.588C21.4906 22.3812 21.0525 23.1043 20.4724 23.7005L20.4678 23.7053C19.7176 24.4615 18.8893 25.1315 17.9973 25.7029L17.9927 25.7059L17.9026 25.7626C17.6937 25.8942 17.4292 25.9071 17.208 25.7966L17.0944 25.7398C17.0721 25.7287 17.0504 25.7163 17.0294 25.7029C16.1374 25.1315 15.3091 24.4615 14.559 23.7052L14.5529 23.6991C13.9756 23.1023 13.5385 22.3808 13.2718 21.5898L13.2664 21.5732C12.78 19.9978 13.3012 17.9749 15.1609 17.3572Z" fill="white"/>
<path fill-rule="evenodd" clip-rule="evenodd" d="M11.9399 16.6802C10.623 16.6468 9.3046 16.6847 7.99119 16.7939C6.90675 16.8605 5.82852 16.9981 4.76445 17.2057C3.92917 17.3018 3.12165 17.5542 2.38971 17.9489C1.64676 18.3497 0.996368 18.8891 0.479643 19.5362C0.445807 19.5785 0.416338 19.624 0.391658 19.672C0.133869 20.173 0.00143769 20.7242 0.0056185 21.2828C-0.0268816 21.8517 0.0819817 22.4193 0.322685 22.9403C0.347372 22.9937 0.377888 23.0444 0.413709 23.0915C0.927623 23.7673 1.59166 24.3269 2.35747 24.7327C3.1049 25.1287 3.93241 25.3692 4.78424 25.4396C5.82746 25.663 6.88806 25.8078 7.95581 25.8724C8.35063 25.9372 8.75131 25.9643 9.15183 25.9532C10.78 26.0329 12.4121 26.0109 14.0372 25.8872C14.1067 25.8828 14.1762 25.8781 14.2456 25.8731C13.8477 25.5262 13.462 25.1645 13.0891 24.7886L13.08 24.7794C12.2139 23.8842 11.5584 22.802 11.1582 21.6154L11.1502 21.5906C10.6501 19.9708 10.8601 18.0357 11.9399 16.6802Z" fill="white"/>
</svg>
