<svg width="26" height="26" viewBox="0 0 26 26" fill="none" xmlns="http://www.w3.org/2000/svg">
<path d="M17.3494 13.2781C17.347 12.9977 17.4279 12.723 17.5817 12.4888C17.7356 12.2545 17.9555 12.0712 18.2136 11.9623C18.4717 11.8533 18.7563 11.8236 19.0312 11.8768C19.3062 11.93 19.5592 12.0638 19.7581 12.2612C19.957 12.4586 20.0929 12.7107 20.1484 12.9855C20.204 13.2603 20.1767 13.5454 20.07 13.8046C19.9634 14.0639 19.7822 14.2855 19.5495 14.4416C19.3168 14.5976 19.0431 14.6808 18.763 14.6808C18.3902 14.6809 18.0324 14.5335 17.7676 14.2708C17.5029 14.008 17.3525 13.6512 17.3494 13.2781ZM11.8643 13.2781C11.8643 12.9028 12.0131 12.5429 12.2782 12.2776C12.5433 12.0123 12.9029 11.8632 13.2778 11.8632C13.6527 11.8632 14.0123 12.0123 14.2774 12.2776C14.5425 12.5429 14.6913 12.9028 14.6913 13.2781C14.6882 13.6524 14.5383 14.0104 14.2739 14.275C14.0095 14.5397 13.6517 14.6898 13.2778 14.693C12.9029 14.693 12.5433 14.5439 12.2782 14.2786C12.0131 14.0132 11.8643 13.6533 11.8643 13.2781ZM6.37915 13.2781C6.37916 12.9977 6.46235 12.7237 6.61822 12.4908C6.77409 12.2578 6.99553 12.0765 7.25453 11.9698C7.51353 11.8631 7.79839 11.8358 8.07292 11.8913C8.34745 11.9469 8.59934 12.0829 8.79654 12.2819C8.99374 12.481 9.12741 12.7343 9.18058 13.0096C9.23375 13.2848 9.20396 13.5697 9.09512 13.828C8.98627 14.0863 8.80324 14.3064 8.56919 14.4604C8.33515 14.6145 8.06068 14.6953 7.7806 14.693C7.4078 14.6898 7.05135 14.5393 6.78886 14.2743C6.52637 14.0093 6.37914 13.6513 6.37915 13.2781Z" fill="white"/>
<path d="M12.9888 0.907017C9.78448 0.907017 6.71146 2.18105 4.44568 4.44894C2.17991 6.71682 0.906982 9.79277 0.906982 13C0.941302 15.1197 1.50178 17.1976 2.53799 19.0466C2.63206 19.2103 2.68847 19.3929 2.7031 19.5812C2.71773 19.7694 2.69022 19.9586 2.62257 20.1349L1.81312 22.8437C1.75134 23.033 1.76605 23.239 1.85412 23.4176C1.94218 23.5961 2.09663 23.7331 2.28432 23.7991C2.45231 23.8591 2.63584 23.8591 2.80383 23.7991L5.22019 23.0735C5.5334 23.0008 5.85923 23.0024 6.17175 23.078C6.48426 23.1536 6.77484 23.3011 7.02036 23.5089C8.6285 24.4254 10.4255 24.9599 12.2727 25.0712C14.12 25.1825 15.968 24.8675 17.6744 24.1507C19.3807 23.4338 20.8997 22.3342 22.1143 20.9367C23.3288 19.5391 24.2063 17.881 24.6792 16.0902C25.1521 14.2995 25.2077 12.4238 24.8417 10.6082C24.4756 8.79246 23.6978 7.08522 22.5682 5.61808C21.4386 4.15095 19.9873 2.96311 18.3264 2.14629C16.6655 1.32947 14.8393 0.905514 12.9888 0.907017V0.907017Z" stroke="white" stroke-width="1.5" stroke-linecap="round" stroke-linejoin="round"/>
</svg>
