<svg width="23" height="26" viewBox="0 0 23 26" fill="none" xmlns="http://www.w3.org/2000/svg">
<path d="M10.5156 25.9671C9.92055 25.8966 9.3453 25.7091 8.82294 25.4154C8.30058 25.1218 7.84143 24.7277 7.47192 24.2559C7.38816 24.1662 7.32361 24.0603 7.28224 23.9447C7.24087 23.8291 7.22354 23.7064 7.23133 23.5839C7.23913 23.4613 7.27189 23.3417 7.32757 23.2323C7.38325 23.1229 7.4607 23.0261 7.55516 22.9477C7.64962 22.8692 7.75909 22.8108 7.87688 22.7762C7.99468 22.7417 8.11832 22.7316 8.24018 22.7464C8.36204 22.7613 8.47957 22.8009 8.58558 22.8628C8.69158 22.9248 8.78382 23.0076 8.85663 23.1065C9.31657 23.6854 9.98721 24.0588 10.7217 24.1445C11.4562 24.2302 12.1948 24.0213 12.7756 23.5638C12.9541 23.4353 13.1125 23.2812 13.2459 23.1065C13.3199 23.008 13.4132 22.9259 13.5202 22.8649C13.6272 22.8039 13.7456 22.7655 13.868 22.752C13.9904 22.7386 14.1143 22.7504 14.232 22.7866C14.3496 22.8229 14.4586 22.8828 14.5522 22.9628C14.6482 23.0389 14.7279 23.1334 14.7866 23.2409C14.8453 23.3483 14.8818 23.4665 14.894 23.5883C14.9061 23.7101 14.8937 23.8332 14.8574 23.9501C14.8212 24.067 14.7618 24.1754 14.6828 24.269C14.4581 24.5568 14.1944 24.8119 13.8991 25.0267C13.4289 25.3966 12.8903 25.67 12.3142 25.8314C11.738 25.9928 11.1358 26.039 10.5418 25.9671H10.5156ZM5.29034 20.5725C3.75387 20.4166 2.32525 19.7116 1.26687 18.5871C0.453822 17.6146 0.0220574 16.3797 0.0519958 15.1126V14.7991C0.114449 13.8676 0.415863 12.9679 0.927213 12.1867L1.01867 12.0823C1.62726 11.4116 2.04653 10.5912 2.23354 9.70508V9.78337V8.29429C2.23354 7.95468 2.23354 7.64123 2.23354 7.35387C2.47222 5.29767 3.51477 3.4194 5.13359 2.1291C6.8047 0.754862 8.90064 0.0024321 11.0643 0H11.1035C13.2618 0.0107868 15.3509 0.762416 17.0212 2.1291C17.834 2.77592 18.5101 3.57788 19.0102 4.48828C19.5103 5.39869 19.8244 6.39929 19.9343 7.43216C19.9343 7.6934 19.9343 7.92854 19.9343 8.28121V9.82259V10.0576C20.1159 10.7409 20.4409 11.3777 20.8879 11.9255L21.0839 12.1607L21.1622 12.2652C21.7029 13.0669 22.0104 14.0028 22.0505 14.9689V15.4914C22.0056 16.6982 21.544 17.8521 20.7442 18.7569C19.714 19.8551 18.3229 20.546 16.8252 20.7031C12.9175 21.123 8.97602 21.123 5.06829 20.7031L5.29034 20.5725ZM2.39029 13.1925L2.2858 13.3623C2.07373 13.742 1.93627 14.1589 1.88085 14.5902V14.8383V15.1256C1.86705 15.9373 2.12963 16.7296 2.62546 17.3724C3.38819 18.1611 4.40715 18.652 5.49936 18.7569C9.27617 19.1749 13.0876 19.1749 16.8644 18.7569C17.931 18.6734 18.9323 18.2099 19.6861 17.4507C20.2221 16.8015 20.5051 15.9803 20.4829 15.1387V14.9168C20.4561 14.3016 20.2619 13.7054 19.9212 13.1925L19.7514 12.9706C19.1295 12.2062 18.6835 11.3143 18.4451 10.3582L18.3667 10.0055V9.87489C18.3537 9.70097 18.3537 9.5263 18.3667 9.35238V8.17678C18.382 7.94191 18.382 7.70625 18.3667 7.47138C18.0895 5.82049 17.2234 4.326 15.9289 3.26452C14.6343 2.20305 12.9989 1.64658 11.3256 1.69811H11.1035C9.43204 1.64611 7.79821 2.20074 6.50394 3.25958C5.20966 4.31842 4.3424 5.80981 4.06239 7.45831C4.06239 7.61505 4.06239 7.79797 4.06239 8.00696V10.0055C3.81722 11.1883 3.26796 12.2867 2.46871 13.1925H2.39029Z" fill="white"/>
</svg>
