<svg width="24" height="26" viewBox="0 0 24 26" fill="none" xmlns="http://www.w3.org/2000/svg">
<path d="M19.248 26H16.7204C16.1443 25.9917 15.5923 25.7612 15.1734 25.3541C14.7545 24.9469 14.4992 24.3927 14.4581 23.8012V19.8981C14.4571 19.7018 14.3876 19.5125 14.2623 19.3645C14.1371 19.2164 13.9644 19.1195 13.7757 19.0915H10.2875C10.0976 19.0952 9.91494 19.1677 9.77167 19.2962C9.6284 19.4246 9.53362 19.6009 9.50396 19.7941V23.619C9.51018 23.6969 9.51018 23.7753 9.50396 23.8532V23.9703C9.43159 24.511 9.17903 25.0091 8.78944 25.3793C8.39985 25.7495 7.89743 25.9689 7.3681 26H4.94155C3.67478 26.005 2.45477 25.5078 1.53465 24.6114C0.614535 23.7151 0.0649535 22.4884 0 21.1861V10.3747C0.00809748 9.83568 0.124589 9.30424 0.342105 8.81386C0.559621 8.32348 0.873444 7.88471 1.26382 7.52538L9.13744 1.02029C9.91721 0.3871 10.8746 0.029927 11.8674 0.00179866C12.8602 -0.0263297 13.8353 0.276095 14.6477 0.864169L14.8499 1.02029L22.5466 7.35625C22.9626 7.68889 23.3066 8.10724 23.5568 8.58437C23.8071 9.06149 23.958 9.58693 24 10.1274V20.926C23.9977 22.2397 23.5017 23.5016 22.6159 24.4474C21.7302 25.3932 20.5233 25.9496 19.248 26ZM10.098 17.27H13.6619C14.3048 17.2686 14.924 17.5195 15.3936 17.9715C15.8631 18.4235 16.1478 19.0427 16.1896 19.7031V23.6061C16.1898 23.7375 16.2338 23.8646 16.3144 23.9665C16.3949 24.0683 16.507 24.1386 16.6319 24.1655H18.9826C19.788 24.1674 20.564 23.8539 21.153 23.2885C21.7421 22.7231 22.1002 21.9483 22.1548 21.1211V10.3747C22.1384 9.81858 21.9117 9.29104 21.5229 8.90454L21.3586 8.76145L13.6493 2.41247C13.1473 2.00941 12.5292 1.78973 11.8926 1.788C11.332 1.789 10.7836 1.95611 10.3128 2.26937L10.1232 2.41247L2.43921 8.78749C2.22761 8.95258 2.05033 9.15967 1.91791 9.39655C1.78549 9.63344 1.70059 9.89522 1.66825 10.1665V20.926C1.67003 21.757 1.97953 22.5562 2.5337 23.1605C3.08787 23.7648 3.84504 24.1288 4.65089 24.1785H7.11532C7.24629 24.1868 7.3756 24.1448 7.47829 24.0607C7.58098 23.9766 7.64978 23.8564 7.67141 23.7232V23.4889V19.8981C7.67005 19.2363 7.91367 18.5989 8.35273 18.1155C8.79177 17.6322 9.39325 17.3391 10.0347 17.2961L10.098 17.27Z" fill="white"/>
</svg>
