<svg width="22" height="26" viewBox="0 0 22 26" fill="none" xmlns="http://www.w3.org/2000/svg">
<path fill-rule="evenodd" clip-rule="evenodd" d="M11.0777 1.63743C7.95184 1.63743 5.47057 4.00466 5.47057 6.86267C5.47057 9.72067 7.95184 12.0879 11.0777 12.0879C14.2036 12.0879 16.6849 9.72067 16.6849 6.86267C16.6849 4.00466 14.2036 1.63743 11.0777 1.63743ZM3.78564 6.86267C3.78564 3.04471 7.07956 0 11.0777 0C15.0759 0 18.3698 3.04471 18.3698 6.86267C18.3698 10.6806 15.0759 13.7253 11.0777 13.7253C7.07956 13.7253 3.78564 10.6806 3.78564 6.86267Z" fill="white"/>
<path fill-rule="evenodd" clip-rule="evenodd" d="M16.3709 18.596C16.1167 18.5519 15.8558 18.5713 15.6091 18.6532L15.385 18.0052L15.6091 18.6532C14.7115 18.9513 14.2528 20.0303 14.6005 21.1688C14.804 21.7681 15.1339 22.3097 15.5634 22.7546C16.1625 23.3581 16.8155 23.8999 17.5134 24.3729C18.2115 23.8997 18.8648 23.3577 19.4641 22.7539C19.8948 22.3104 20.2248 21.7687 20.4264 21.1686C20.7734 20.0486 20.313 18.9522 19.4142 18.6534C19.168 18.572 18.9078 18.5529 18.6542 18.597C18.4004 18.6411 18.1574 18.7477 17.946 18.9113C17.6922 19.1076 17.3341 19.1075 17.0804 18.911C16.8687 18.747 16.6252 18.6401 16.3709 18.596ZM15.1609 17.3572C15.6292 17.2017 16.1278 17.1642 16.6141 17.2485C16.9299 17.3033 17.2332 17.4081 17.5136 17.5575C17.7934 17.4087 18.0957 17.3043 18.4105 17.2496C18.8959 17.1653 19.3936 17.2023 19.8611 17.3569L19.862 17.3572C21.7207 17.9745 22.2478 20.0132 21.7597 21.5754L21.7556 21.588C21.4906 22.3812 21.0525 23.1043 20.4724 23.7005L20.4678 23.7053L20.4678 23.7052C19.7176 24.4615 18.8893 25.1315 17.9973 25.7029L17.9927 25.7059L17.9927 25.7058L17.9026 25.7626C17.6937 25.8942 17.4292 25.9071 17.208 25.7966L17.0944 25.7398C17.0721 25.7287 17.0504 25.7163 17.0294 25.7029C16.1374 25.1315 15.3091 24.4615 14.559 23.7052L14.5529 23.6991L14.553 23.6991C13.9756 23.1023 13.5385 22.3808 13.2718 21.5898L13.2664 21.5732C12.78 19.9978 13.3012 17.9749 15.1609 17.3572L15.1609 17.3572Z" fill="white"/>
<path fill-rule="evenodd" clip-rule="evenodd" d="M11.9399 16.6802C10.623 16.6468 9.3046 16.6848 7.99119 16.794C6.90675 16.8605 5.82852 16.9981 4.76445 17.2057C3.92917 17.3018 3.12165 17.5542 2.38971 17.949C1.64676 18.3497 0.996368 18.8891 0.479643 19.5362C0.445807 19.5785 0.416338 19.624 0.391658 19.672C0.133869 20.1731 0.00143769 20.7242 0.00561851 21.2828C-0.0268816 21.8517 0.0819817 22.4193 0.322685 22.9403C0.347372 22.9937 0.377888 23.0444 0.413709 23.0915C0.927623 23.7674 1.59166 24.3269 2.35747 24.7327C3.1049 25.1287 3.93241 25.3692 4.78424 25.4396C5.82747 25.6631 6.88806 25.8078 7.95581 25.8724C8.35063 25.9372 8.75131 25.9643 9.15183 25.9532C10.78 26.0329 12.4121 26.0109 14.0372 25.8872C14.1067 25.8828 14.1762 25.8781 14.2456 25.8731C13.8477 25.5263 13.462 25.1645 13.0891 24.7886L13.08 24.7794C12.9391 24.6338 12.8038 24.4833 12.6743 24.3281C11.518 24.3778 10.3595 24.3739 9.20317 24.3162C9.17906 24.315 9.15492 24.3148 9.1308 24.3156C8.81915 24.3261 8.50735 24.3047 8.20085 24.2518C8.16883 24.2463 8.1365 24.2426 8.10403 24.2407C7.09003 24.1816 6.08304 24.0439 5.0935 23.829C5.0537 23.8204 5.01331 23.8145 4.97265 23.8116C4.33524 23.7652 3.71778 23.5884 3.16399 23.295C2.63862 23.0167 2.18349 22.6403 1.82585 22.1917C1.71655 21.9248 1.67008 21.6398 1.68907 21.3556C1.69056 21.3334 1.69111 21.3111 1.69072 21.2888C1.68591 21.0095 1.74493 20.7317 1.86462 20.474C2.23077 20.0334 2.68635 19.6617 3.20734 19.3807C3.75424 19.0857 4.36093 18.8975 4.99045 18.8287C5.01489 18.826 5.0392 18.8223 5.06331 18.8175C6.06648 18.6203 7.08343 18.49 8.10642 18.4276L8.12567 18.4262C9.1187 18.3434 10.1148 18.3033 11.1107 18.306C11.2819 17.7176 11.5559 17.1623 11.9399 16.6802Z" fill="white"/>
</svg>
