<svg width="30" height="30" viewBox="0 0 30 30" fill="none" xmlns="http://www.w3.org/2000/svg">
<path d="M29.3681 10.6661C29.3722 10.6475 29.3767 10.6296 29.3805 10.6105L29.3495 10.6043C28.6418 8.28372 27.3715 6.15754 25.6074 4.39342C22.7743 1.56031 19.0075 0 15.0009 0C10.9942 0 7.22738 1.56031 4.39427 4.39348C1.56116 7.22659 0.000976562 10.9935 0.000976562 15.0001C0.000976562 19.0067 1.56122 22.7735 4.39427 25.6066C7.22732 28.4398 10.9942 30 15.0009 30C19.0075 30 22.7743 28.4398 25.6075 25.6066C28.4407 22.7735 30.0009 19.0067 30.0009 15.0001C30.0009 13.5103 29.7847 12.0538 29.3681 10.6661ZM21.5757 2.91761C22.6341 3.49549 23.6215 4.21667 24.5132 5.07204C24.43 5.3036 24.2886 5.55829 24.0691 5.55829C24.0657 5.55829 24.0623 5.55823 24.0588 5.5581C23.8703 5.55129 23.6519 5.4796 23.4206 5.40379C23.0703 5.28892 22.6731 5.15854 22.2218 5.19498C21.7802 5.23042 21.4016 5.41685 21.0677 5.58129C20.7546 5.73541 20.4843 5.86873 20.2906 5.82029C20.1065 5.77441 19.9138 5.5426 19.7161 5.2886C19.6282 5.17573 19.5738 5.09479 19.5538 5.04729C19.5774 5.00798 19.6253 4.94592 19.6508 4.91292C19.8997 4.59079 20.3201 4.17848 20.7266 3.77973C21.02 3.49199 21.3189 3.19805 21.5757 2.91761ZM17.1801 1.42168C17.1072 1.88712 16.9059 2.50061 16.7237 2.72605C16.5222 2.97511 16.1662 3.09011 15.9299 2.98255C15.6916 2.87393 15.5029 2.53449 15.4253 2.07455C15.3744 1.77306 15.2741 1.50062 15.1682 1.25212C15.8482 1.26012 16.5201 1.31718 17.1801 1.42168ZM5.2782 5.27735C6.90901 3.64655 8.87744 2.47611 11.0257 1.83074C11.2852 2.68374 11.6011 3.48286 11.9092 4.23804C12.1451 4.81635 12.4125 5.47173 12.3522 6.06485C12.3291 6.29197 12.2714 6.58241 12.1276 6.67647C12.0025 6.75835 11.7514 6.77928 11.4857 6.80147C11.0477 6.83803 10.5027 6.88353 10.0062 7.23216C9.90012 7.30659 9.80162 7.38359 9.70644 7.45791C9.50187 7.61772 9.30863 7.76859 9.12844 7.81909C8.95031 7.86909 8.72081 7.8429 8.45494 7.81259C8.30225 7.79522 8.14432 7.77728 7.97719 7.77178C7.4467 7.75228 6.23745 8.00715 5.71095 8.69478C5.45077 9.03459 5.37583 9.44534 5.49995 9.8514C5.59189 10.1523 5.78889 10.3623 5.96958 10.528C6.81351 11.3018 7.97176 11.8498 9.14719 12.0316C9.31531 12.0576 9.47806 12.0775 9.6355 12.0968C10.4974 12.2023 10.9262 12.279 11.2522 12.8664C11.3334 13.0128 11.3988 13.1859 11.4681 13.3693C11.5477 13.5805 11.6302 13.7989 11.7502 14.019C12.1067 14.6729 12.7077 15.056 13.3181 15.022C13.7737 14.9957 14.1102 14.7579 14.3806 14.5669C14.5054 14.4788 14.6232 14.3956 14.724 14.3536C14.9949 14.2404 15.4085 14.3409 15.8299 14.6218C16.1189 14.8144 16.4928 15.1332 16.6327 15.5574C16.738 15.8765 16.6652 16.2459 16.4608 16.4186L14.624 17.9874C14.0325 18.4927 13.3996 19.1062 13.3783 19.9959C13.3715 20.2772 13.4296 20.5474 13.4808 20.7859C13.5167 20.9527 13.5766 21.2319 13.5444 21.3048C13.5107 21.3348 13.3532 21.3734 13.2592 21.3965C13.0934 21.437 12.9056 21.483 12.7147 21.5795C11.7894 22.0467 11.7029 23.1537 11.6457 23.8863C11.6042 24.4178 11.4071 24.865 11.2061 24.8834C11.0427 24.8991 10.8119 24.6165 10.7317 24.3033C10.6819 24.109 10.6586 23.8924 10.6338 23.663C10.5982 23.3326 10.5577 22.958 10.4251 22.5902C10.2541 22.1163 9.95637 21.7256 9.69375 21.3809C9.43581 21.0423 9.19213 20.7225 9.11344 20.3898C9.0545 20.1406 9.07825 19.8412 9.1035 19.524C9.13563 19.1203 9.172 18.6627 9.04394 18.1969C8.86194 17.5347 8.41094 17.0616 8.01301 16.6441C7.75169 16.3699 7.50488 16.111 7.35826 15.8312C7.18151 15.494 7.20345 15.1405 7.22888 14.7312C7.25295 14.3433 7.28026 13.9035 7.12582 13.4511C6.97157 12.9993 6.60695 12.7383 6.33689 12.5449C5.54514 11.9781 4.80352 11.3326 4.13271 10.6263C3.77409 10.2487 3.42352 9.83633 3.28771 9.3799C3.25221 9.26059 3.22765 9.17046 3.20834 9.09996C3.12253 8.78571 3.07196 8.67346 2.89165 8.4739C3.51934 7.31303 4.3189 6.23666 5.2782 5.27735ZM15.0009 28.75C11.3281 28.75 7.87519 27.3198 5.2782 24.7227C2.68122 22.1257 1.25097 18.6728 1.25097 15.0001C1.25097 13.2628 1.57141 11.5749 2.18353 10.0033C2.41972 10.5865 2.82078 11.06 3.2264 11.487C3.95165 12.2506 4.75339 12.9484 5.61308 13.5638C5.73452 13.6508 5.91814 13.7823 5.94289 13.8548C6.01733 14.0729 6.00064 14.3421 5.98133 14.6537C5.95058 15.1488 5.91239 15.7649 6.25114 16.4113C6.47914 16.8464 6.79895 17.1819 7.1082 17.5064C7.44726 17.8621 7.74007 18.1693 7.83863 18.528C7.90851 18.7822 7.88369 19.0945 7.85744 19.4249C7.82719 19.8057 7.79288 20.2372 7.89701 20.6774C8.03682 21.2687 8.38888 21.7307 8.69944 22.1383C8.92775 22.438 9.14338 22.721 9.24919 23.0143C9.331 23.2411 9.36012 23.5112 9.39094 23.797C9.41931 24.0601 9.44869 24.3321 9.52069 24.6133C9.71919 25.3888 10.3484 26.1342 11.1883 26.1341C11.2315 26.1341 11.2754 26.1322 11.3197 26.1281C12.1924 26.0485 12.7947 25.2267 12.8918 23.9836C12.9293 23.5032 12.9807 22.8453 13.278 22.6953C13.3415 22.6632 13.4459 22.6376 13.5564 22.6106C13.8116 22.5481 14.161 22.4625 14.4384 22.1785C14.9465 21.658 14.8057 21.0022 14.7029 20.5235C14.6627 20.3362 14.6247 20.1594 14.6279 20.0259C14.6369 19.6511 15.0496 19.2678 15.4357 18.938L17.2703 17.371C17.8675 16.866 18.0883 15.9797 17.8197 15.1657C17.6206 14.5621 17.1723 14.0144 16.5231 13.5816C15.7302 13.0532 14.9205 12.9176 14.2432 13.1996C14.0146 13.2948 13.8257 13.4283 13.659 13.546C13.5044 13.6553 13.3444 13.7684 13.246 13.774C13.1478 13.7803 12.9721 13.6491 12.8475 13.4206C12.7689 13.2764 12.705 13.1071 12.6374 12.9278C12.5554 12.7106 12.4705 12.4859 12.3451 12.2598C11.6956 11.0895 10.6817 10.9655 9.78725 10.856C9.6395 10.8379 9.48675 10.8192 9.33819 10.7962C8.40063 10.6513 7.4807 10.2176 6.81432 9.60671C6.73026 9.52965 6.70245 9.49452 6.69339 9.4794C6.69251 9.4759 6.69195 9.47321 6.69164 9.47127C6.7742 9.27921 7.52288 9.00903 7.93601 9.02103C8.05282 9.0249 8.17938 9.03934 8.31338 9.05459C8.6595 9.09402 9.05175 9.13877 9.46569 9.02271C9.88356 8.90559 10.1982 8.65984 10.4758 8.44309C10.5625 8.37534 10.6444 8.3114 10.7245 8.25515C10.944 8.10103 11.2432 8.07609 11.5897 8.04715C12.2752 7.98997 13.4224 7.89422 13.5958 6.19147C13.6877 5.28829 13.3434 4.44417 13.0667 3.76592C12.7777 3.05749 12.4814 2.31049 12.2394 1.52643C12.7596 1.42093 13.2881 1.34568 13.8229 1.30056C13.8529 1.36912 13.883 1.43687 13.913 1.50343C14.035 1.77431 14.1502 2.03012 14.1929 2.28262C14.344 3.17817 14.7769 3.8308 15.4117 4.12005C15.6389 4.22361 15.8841 4.27323 16.1314 4.27323C16.7102 4.27323 17.3003 4.00117 17.6958 3.51192C18.0141 3.11811 18.2916 2.3528 18.4035 1.67243C19.0857 1.8453 19.7513 2.07074 20.3961 2.34574C20.2233 2.52261 20.036 2.70636 19.8515 2.8873C19.4147 3.31567 18.9631 3.75855 18.6618 4.14873C18.5425 4.30317 18.3622 4.53648 18.3112 4.85929C18.2246 5.40748 18.5658 5.84579 18.7298 6.05641C18.9847 6.38397 19.37 6.87897 19.9883 7.03322C20.1218 7.06647 20.2515 7.08097 20.3771 7.08091C20.852 7.08091 21.2698 6.87516 21.6199 6.70272C21.8762 6.57654 22.1183 6.45735 22.3219 6.44097C22.5226 6.4246 22.7583 6.50216 23.0313 6.5916C23.3206 6.68647 23.6486 6.79397 24.0135 6.80722C24.5976 6.82878 25.0885 6.55022 25.4257 6.03304C26.6013 7.39547 27.4846 8.95309 28.0443 10.6285C27.9523 10.695 27.765 10.7037 27.3256 10.7092C27.1346 10.7116 26.9182 10.7143 26.6876 10.732C26.045 10.7813 25.5481 10.5973 24.9727 10.3841C24.5865 10.241 24.1871 10.093 23.7096 9.99815C22.5066 9.75871 21.2635 10.431 20.5426 11.7104C20.4116 11.943 19.2861 14.0159 20.1188 15.1629C20.43 15.5914 20.8704 15.8555 21.2243 16.0677C21.7263 16.3686 22.2454 16.6797 22.8204 16.9117C22.9434 16.9614 23.0678 17.0072 23.1879 17.0516C23.6253 17.2131 24.0384 17.3656 24.2409 17.6427C24.4103 17.8746 24.4664 18.2417 24.4126 18.7649C24.3716 19.1619 24.2237 19.5655 24.067 19.9927C23.7157 20.9508 23.2784 22.1432 24.3034 23.3145C24.5957 23.6485 24.9467 23.9028 25.3349 24.07C25.1387 24.2928 24.9354 24.5109 24.7236 24.7227C22.1265 27.3198 18.6736 28.75 15.0009 28.75ZM26.1691 23.0247C25.8125 22.9608 25.4966 22.7798 25.2441 22.4913C24.7311 21.9051 24.8901 21.379 25.2406 20.423C25.4168 19.9425 25.599 19.4455 25.6559 18.8931C25.743 18.0484 25.6103 17.3982 25.2502 16.9053C24.8252 16.3236 24.1853 16.0874 23.6208 15.879C23.5041 15.8359 23.3938 15.7952 23.288 15.7526C22.8039 15.5572 22.3488 15.2845 21.867 14.9957C21.5841 14.8261 21.2915 14.6507 21.1303 14.4287C20.9321 14.1558 21.1758 13.133 21.6316 12.3241C21.974 11.7166 22.6599 11.0643 23.4659 11.2243C23.8459 11.2998 24.1823 11.4244 24.5384 11.5563C25.1918 11.7985 25.8677 12.0494 26.7834 11.9785C26.9741 11.9638 27.1607 11.9615 27.3412 11.9591C27.6659 11.9551 28.0425 11.9501 28.3867 11.8381C28.6266 12.8625 28.7509 13.9216 28.7509 15.0001C28.7509 17.9207 27.8455 20.7019 26.1691 23.0247Z" fill="#200E32"/>
</svg>
