<svg width="18" height="20" viewBox="0 0 18 20" fill="none" xmlns="http://www.w3.org/2000/svg">
<path d="M0.291432 19.7642C0.149208 19.6262 0.0628738 19.4403 0.0490537 19.2424C0.0352335 19.0444 0.0948958 18.8483 0.216558 18.6918L0.291432 18.606L3.26466 15.6248H2.92247C2.20597 15.6253 1.51707 15.3475 1.00055 14.8495C0.484031 14.3516 0.180053 13.6724 0.152389 12.9545C-0.0507964 10.9508 -0.0507964 8.93151 0.152389 6.92774C0.21195 6.26137 0.502355 5.63692 0.973198 5.16286C1.44404 4.68879 2.06556 4.395 2.7299 4.33252H4.86894L8.61225 1.26551C9.08003 0.871608 9.64556 0.612241 10.2486 0.514893H10.4197C11.0166 0.523082 11.5936 0.731249 12.0587 1.10633C12.5239 1.48141 12.8506 2.00175 12.9866 2.58452C13.0712 2.938 13.1354 3.29605 13.1791 3.65691L13.286 4.63282L13.3503 5.11534C13.3503 5.20828 13.3503 5.31557 13.3503 5.43711L16.5802 2.19312C16.7306 2.04251 16.9345 1.95789 17.1471 1.95789C17.3596 1.95789 17.5635 2.04251 17.7139 2.19312C17.8561 2.33113 17.9424 2.51696 17.9562 2.71492C17.9701 2.91288 17.9104 3.10899 17.7887 3.26551L17.7139 3.36199L1.37166 19.7534C1.22528 19.8898 1.03343 19.9665 0.833633 19.9685C0.633838 19.9705 0.440474 19.8976 0.291432 19.7642ZM1.74596 7.16363C1.55347 9.02459 1.55347 10.9005 1.74596 12.7615C1.84222 13.555 2.20585 13.9733 2.81548 14.0269H4.89035L11.8529 7.03495V5.96257C11.8529 5.65157 11.8529 5.44781 11.8529 5.27622L11.7673 4.56841L11.7032 4.05369C11.6756 3.69282 11.622 3.33442 11.5428 2.9813C11.5012 2.73849 11.3774 2.51741 11.1924 2.35531C11.0073 2.19321 10.7723 2.10003 10.5267 2.09127C10.2754 2.14364 10.0383 2.24962 9.83152 2.40217L9.7353 2.47731L5.76736 5.69447C5.65025 5.78812 5.50959 5.84754 5.36094 5.86609H2.99728C2.82754 5.85962 2.65838 5.88911 2.50077 5.95262C2.34317 6.01612 2.20067 6.11215 2.0826 6.23459C1.96453 6.35703 1.87355 6.5031 1.81555 6.66318C1.75754 6.82325 1.73381 6.99376 1.74596 7.16363ZM10.4839 19.4639C9.91135 19.4472 9.35816 19.2523 8.90104 18.9062L8.72995 18.7775L7.2326 17.555C7.07655 17.4271 6.97423 17.245 6.94603 17.0448C6.91782 16.8447 6.96585 16.6414 7.08043 16.4751C7.19502 16.3089 7.36782 16.1919 7.56447 16.1476C7.76112 16.1033 7.96716 16.1348 8.14166 16.236L8.24865 16.3111L9.74594 17.5444C9.95746 17.7181 10.213 17.8294 10.4839 17.866C10.717 17.8467 10.9374 17.7513 11.1112 17.5944C11.2851 17.4375 11.4029 17.2279 11.4465 16.9975L11.5107 16.7507C11.5107 16.622 11.5107 16.4933 11.5748 16.3432L11.7032 15.1958C11.7032 14.6918 11.8101 13.8017 11.8208 12.4826C11.8222 12.377 11.8444 12.2727 11.886 12.1757C11.9276 12.0786 11.9878 11.9908 12.0633 11.9171C12.1388 11.8434 12.228 11.7853 12.3259 11.7461C12.4237 11.707 12.5283 11.6877 12.6337 11.6891C12.7394 11.689 12.8441 11.7103 12.9416 11.7515C13.039 11.7927 13.1272 11.853 13.201 11.929C13.2748 12.005 13.3326 12.0951 13.3711 12.1938C13.4096 12.2926 13.4279 12.3981 13.4251 12.5041V13.3835C13.4251 14.1985 13.3609 14.8205 13.3182 15.2602L13.1898 16.3326C13.1591 16.6953 13.0947 17.0543 12.9973 17.405C12.8659 17.9637 12.5571 18.4644 12.1173 18.8319C11.6775 19.1993 11.1305 19.4136 10.5588 19.4424L10.4839 19.4639Z" fill="#778797"/>
</svg>
