<svg width="16" height="20" viewBox="0 0 16 20" fill="none" xmlns="http://www.w3.org/2000/svg">
<path d="M6.68048 19.9599H6.25049C6.11736 19.9703 5.9836 19.9703 5.85046 19.9599C5.06664 19.9026 4.28799 19.7888 3.52051 19.6193L3.2605 19.5591C2.64663 19.4992 2.05536 19.2958 1.5343 18.9651C1.01324 18.6345 0.576938 18.1857 0.260498 17.6553C0.0782591 17.2628 -0.0172806 16.8356 -0.0195312 16.4028C-0.0170529 15.9624 0.0819866 15.5281 0.270508 15.1303C0.623787 14.5862 1.09497 14.1287 1.64899 13.7922C2.20301 13.4557 2.82556 13.2486 3.47046 13.1864C4.24081 13.016 5.02316 12.9055 5.81049 12.8558C6.52049 12.7856 7.25047 12.7556 7.98047 12.7556C8.71047 12.7556 9.43051 12.7556 10.1505 12.8558H10.6105C11.2389 12.9209 11.8632 13.0212 12.4805 13.1563C14.2105 13.507 15.2305 14.1583 15.7005 15.1603C15.8803 15.5533 15.9733 15.9805 15.9733 16.4128C15.9733 16.8451 15.8803 17.2723 15.7005 17.6653C15.2305 18.6673 14.1805 19.2785 12.5005 19.6693L12.0305 19.7696C11.4096 19.8897 10.7816 19.9701 10.1505 20.0101C9.43051 20.0702 8.71048 20.1002 7.99048 20.1002C7.56048 19.99 7.11048 19.98 6.68048 19.9599ZM5.94049 14.2486C5.21775 14.2988 4.49933 14.3992 3.79047 14.5491C3.36282 14.5875 2.94715 14.7109 2.56769 14.9122C2.18822 15.1135 1.85262 15.3887 1.58051 15.7215C1.48928 15.9194 1.44152 16.1347 1.44049 16.3527C1.4417 16.5675 1.48949 16.7795 1.58051 16.974C1.84051 17.505 2.58049 17.9059 3.81049 18.1464L4.16046 18.2165C4.78118 18.3399 5.40912 18.4236 6.04047 18.467C6.13354 18.4768 6.22742 18.4768 6.3205 18.467H6.72046C7.14046 18.467 7.58051 18.467 8.02051 18.467C8.69051 18.467 9.38051 18.467 10.0205 18.3768C10.7476 18.3255 11.4697 18.2182 12.1805 18.0561H12.4105C12.8035 18.0235 13.1851 17.9075 13.53 17.7157C13.8748 17.5239 14.1749 17.2608 14.4105 16.9439C14.5045 16.7468 14.5534 16.5311 14.5534 16.3126C14.5534 16.0941 14.5045 15.8784 14.4105 15.6814C14.1705 15.1603 13.4105 14.7596 12.2005 14.5091C11.4916 14.3592 10.7732 14.2587 10.0505 14.2084C9.38381 14.1483 8.71714 14.1183 8.05048 14.1183C7.3594 14.1135 6.66852 14.1436 5.98047 14.2084L5.94049 14.2486ZM2.69049 5.30061C2.69247 4.2463 3.00644 3.21623 3.59265 2.34071C4.17886 1.46519 5.01097 0.783589 5.98383 0.381956C6.95668 -0.0196759 8.02658 -0.123264 9.05817 0.0843642C10.0898 0.291993 11.0367 0.801446 11.7794 1.54835C12.522 2.29526 13.0269 3.24607 13.2302 4.2805C13.4336 5.31493 13.3262 6.38661 12.9217 7.3599C12.5172 8.33319 11.8338 9.16438 10.9578 9.74847C10.0819 10.3326 9.05268 10.6432 8.00049 10.6412C7.30148 10.6412 6.60935 10.5031 5.96381 10.2344C5.31826 9.96579 4.73199 9.57205 4.23865 9.07586C3.74531 8.57967 3.3546 7.99074 3.08893 7.3429C2.82325 6.69506 2.68786 6.00101 2.69049 5.30061ZM4.13049 5.30061C4.13247 6.06953 4.36193 6.82062 4.78992 7.45885C5.2179 8.09709 5.82518 8.59385 6.53491 8.88627C7.24464 9.17869 8.02497 9.25362 8.77722 9.10167C9.52948 8.94971 10.2199 8.57763 10.7611 8.03251C11.3023 7.4874 11.6701 6.79381 11.8179 6.03927C11.9656 5.28473 11.8868 4.5032 11.5913 3.79356C11.2958 3.08393 10.7969 2.47796 10.1578 2.05241C9.51862 1.62687 8.76788 1.40082 8.00049 1.4028C7.49059 1.40279 6.98573 1.50377 6.51489 1.6999C6.04405 1.89603 5.61652 2.1835 5.2569 2.54571C4.89727 2.90792 4.61262 3.33778 4.41931 3.81057C4.22601 4.28335 4.12786 4.78969 4.13049 5.30061Z" fill="#778797"/>
</svg>
