<svg width="30" height="30" viewBox="0 0 30 30" fill="none" xmlns="http://www.w3.org/2000/svg">
<path d="M21.0628 0H8.93716C4.00919 0 0 4.00919 0 8.93716V21.0628C0 25.9908 4.00919 30 8.93716 30H21.0628C25.9908 30 30 25.9908 30 21.0628V8.93716C29.9999 4.00919 25.9908 0 21.0628 0ZM26.982 21.0628C26.982 24.3319 24.3319 26.982 21.0628 26.982H8.93716C5.66813 26.982 3.018 24.3319 3.018 21.0628V8.93716C3.018 5.66807 5.66813 3.018 8.93716 3.018H21.0628C24.3319 3.018 26.982 5.66807 26.982 8.93716V21.0628Z" fill="url(#paint0_linear)"/>
<path d="M14.9998 7.24097C10.7214 7.24097 7.24072 10.7217 7.24072 15C7.24072 19.2783 10.7214 22.759 14.9998 22.759C19.2781 22.759 22.7589 19.2783 22.7589 15C22.7589 10.7216 19.2781 7.24097 14.9998 7.24097ZM14.9998 19.7411C12.3813 19.7411 10.2587 17.6185 10.2587 15C10.2587 12.3816 12.3814 10.259 14.9998 10.259C17.6182 10.259 19.7409 12.3816 19.7409 15C19.7409 17.6184 17.6182 19.7411 14.9998 19.7411Z" fill="url(#paint1_linear)"/>
<path d="M22.7738 9.15841C23.8006 9.15841 24.633 8.326 24.633 7.29918C24.633 6.27235 23.8006 5.43994 22.7738 5.43994C21.747 5.43994 20.9146 6.27235 20.9146 7.29918C20.9146 8.326 21.747 9.15841 22.7738 9.15841Z" fill="url(#paint2_linear)"/>
<defs>
<linearGradient id="paint0_linear" x1="15" y1="29.9127" x2="15" y2="0.233015" gradientUnits="userSpaceOnUse">
<stop stop-color="#E09B3D"/>
<stop offset="0.3" stop-color="#C74C4D"/>
<stop offset="0.6" stop-color="#C21975"/>
<stop offset="1" stop-color="#7024C4"/>
</linearGradient>
<linearGradient id="paint1_linear" x1="14.9998" y1="29.9127" x2="14.9998" y2="0.233051" gradientUnits="userSpaceOnUse">
<stop stop-color="#E09B3D"/>
<stop offset="0.3" stop-color="#C74C4D"/>
<stop offset="0.6" stop-color="#C21975"/>
<stop offset="1" stop-color="#7024C4"/>
</linearGradient>
<linearGradient id="paint2_linear" x1="22.7738" y1="29.9127" x2="22.7738" y2="0.232993" gradientUnits="userSpaceOnUse">
<stop stop-color="#E09B3D"/>
<stop offset="0.3" stop-color="#C74C4D"/>
<stop offset="0.6" stop-color="#C21975"/>
<stop offset="1" stop-color="#7024C4"/>
</linearGradient>
</defs>
</svg>
