<svg width="30" height="30" viewBox="0 0 30 30" fill="none" xmlns="http://www.w3.org/2000/svg">
<g filter="url(#filter0_i_3707:17161)">
<path d="M27.3633 30H2.63672C1.18277 30 0 28.8172 0 27.3633V16.8164C0 15.3625 1.18277 14.1797 2.63672 14.1797H27.3633C28.8172 14.1797 30 15.3625 30 16.8164V27.3633C30 28.8172 28.8172 30 27.3633 30Z" fill="url(#paint0_linear_3707:17161)"/>
</g>
<path d="M7.96875 24.7265H5.33203V18.5742C5.33203 18.0884 4.93893 17.6953 4.45312 17.6953C3.96732 17.6953 3.57422 18.0884 3.57422 18.5742V25.6054C3.57422 26.0912 3.96732 26.4843 4.45312 26.4843H7.96875C8.45455 26.4843 8.84766 26.0912 8.84766 25.6054C8.84766 25.1196 8.45455 24.7265 7.96875 24.7265Z" fill="url(#paint1_linear_3707:17161)"/>
<path d="M11.4844 17.6953C10.9986 17.6953 10.6055 18.0884 10.6055 18.5742V25.6054C10.6055 26.0912 10.9986 26.4843 11.4844 26.4843C11.9702 26.4843 12.3633 26.0912 12.3633 25.6054V18.5742C12.3633 18.0884 11.9702 17.6953 11.4844 17.6953Z" fill="url(#paint2_linear_3707:17161)"/>
<path d="M25.5469 22.9687C26.0327 22.9687 26.4258 22.5756 26.4258 22.0898C26.4258 21.604 26.0327 21.2109 25.5469 21.2109H22.9102V19.4531H25.5469C26.0327 19.4531 26.4258 19.06 26.4258 18.5742C26.4258 18.0884 26.0327 17.6953 25.5469 17.6953H22.0312C21.5454 17.6953 21.1523 18.0884 21.1523 18.5742V25.6054C21.1523 26.0912 21.5454 26.4843 22.0312 26.4843H25.5469C26.0327 26.4843 26.4258 26.0912 26.4258 25.6054C26.4258 25.1196 26.0327 24.7265 25.5469 24.7265H22.9102V22.9687H25.5469Z" fill="url(#paint3_linear_3707:17161)"/>
<path d="M19.3771 18.7851L17.6193 25.8164C17.5138 26.203 17.1622 26.4843 16.7579 26.4843C16.3536 26.4843 16.0021 26.203 15.8966 25.8164L15.0001 22.1953L14.1388 18.7851C14.0333 18.3105 14.3145 17.8358 14.7892 17.7304C14.8594 17.7129 14.9299 17.6953 15.0001 17.6953C15.3868 17.6953 15.756 17.9589 15.8614 18.3633L16.7579 21.9843L17.6544 18.3633C17.7775 17.8886 18.252 17.6074 18.7267 17.7304C19.2013 17.8358 19.4825 18.3105 19.3771 18.7851Z" fill="url(#paint4_linear_3707:17161)"/>
<g filter="url(#filter1_i_3707:17161)">
<path d="M7.2648 11.9541C4.70015 8.53799 4.70015 3.76752 7.2648 0.351448C7.55659 -0.036501 8.10937 -0.113728 8.49392 0.17637C8.88357 0.468167 8.96085 1.01836 8.669 1.40719C6.57304 4.201 6.57304 8.10457 8.669 10.8983C8.9608 11.2871 8.88357 11.8373 8.49392 12.1291C8.10474 12.421 7.55349 12.3409 7.2648 11.9541Z" fill="url(#paint5_linear_3707:17161)"/>
</g>
<g filter="url(#filter2_i_3707:17161)">
<path d="M21.5056 12.1291C21.116 11.8373 21.0387 11.2871 21.3306 10.8983C23.4265 8.10451 23.4265 4.20093 21.3306 1.40718C21.0388 1.01836 21.116 0.46822 21.5056 0.176364C21.8919 -0.114612 22.4446 -0.0382059 22.7348 0.351443C25.2994 3.76752 25.2994 8.53799 22.7348 11.9541C22.4461 12.3408 21.8949 12.4211 21.5056 12.1291Z" fill="url(#paint6_linear_3707:17161)"/>
</g>
<g filter="url(#filter3_i_3707:17161)">
<path d="M10.4149 10.2546C8.32067 7.91658 8.32067 4.38895 10.4149 2.05088C10.7394 1.68866 11.2955 1.66036 11.6561 1.98221C12.0165 2.30577 12.0475 2.862 11.723 3.22334C10.2278 4.89362 10.2278 7.41186 11.723 9.08213C12.0475 9.44347 12.0166 9.99965 11.6561 10.3233C11.2949 10.6457 10.7394 10.6176 10.4149 10.2546Z" fill="url(#paint7_linear_3707:17161)"/>
</g>
<g filter="url(#filter4_i_3707:17161)">
<path d="M18.3439 10.3233C17.9834 9.99972 17.9525 9.44349 18.2769 9.08214C19.7721 7.41187 19.7721 4.89363 18.2769 3.22335C17.9525 2.86201 17.9834 2.30583 18.3439 1.98222C18.7044 1.65861 19.2606 1.68697 19.585 2.05089C21.6793 4.3889 21.6793 7.91654 19.585 10.2546C19.2611 10.617 18.7057 10.6463 18.3439 10.3233Z" fill="url(#paint8_linear_3707:17161)"/>
</g>
<g filter="url(#filter5_i_3707:17161)">
<path d="M15 8.78946C13.5461 8.78946 12.3633 7.60669 12.3633 6.15274C12.3633 4.6988 13.5461 3.51602 15 3.51602C16.4539 3.51602 17.6367 4.6988 17.6367 6.15274C17.6367 7.60669 16.4539 8.78946 15 8.78946Z" fill="url(#paint9_linear_3707:17161)"/>
</g>
<defs>
<filter id="filter0_i_3707:17161" x="0" y="14.1797" width="30" height="17.8203" filterUnits="userSpaceOnUse" color-interpolation-filters="sRGB">
<feFlood flood-opacity="0" result="BackgroundImageFix"/>
<feBlend mode="normal" in="SourceGraphic" in2="BackgroundImageFix" result="shape"/>
<feColorMatrix in="SourceAlpha" type="matrix" values="0 0 0 0 0 0 0 0 0 0 0 0 0 0 0 0 0 0 127 0" result="hardAlpha"/>
<feOffset dy="2"/>
<feGaussianBlur stdDeviation="2"/>
<feComposite in2="hardAlpha" operator="arithmetic" k2="-1" k3="1"/>
<feColorMatrix type="matrix" values="0 0 0 0 0.279167 0 0 0 0 0.655653 0 0 0 0 1 0 0 0 1 0"/>
<feBlend mode="normal" in2="shape" result="effect1_innerShadow_3707:17161"/>
</filter>
<filter id="filter1_i_3707:17161" x="5.34131" y="0.00088501" width="3.50439" height="14.3042" filterUnits="userSpaceOnUse" color-interpolation-filters="sRGB">
<feFlood flood-opacity="0" result="BackgroundImageFix"/>
<feBlend mode="normal" in="SourceGraphic" in2="BackgroundImageFix" result="shape"/>
<feColorMatrix in="SourceAlpha" type="matrix" values="0 0 0 0 0 0 0 0 0 0 0 0 0 0 0 0 0 0 127 0" result="hardAlpha"/>
<feOffset dy="2"/>
<feGaussianBlur stdDeviation="2"/>
<feComposite in2="hardAlpha" operator="arithmetic" k2="-1" k3="1"/>
<feColorMatrix type="matrix" values="0 0 0 0 0.279167 0 0 0 0 0.655653 0 0 0 0 1 0 0 0 1 0"/>
<feBlend mode="normal" in2="shape" result="effect1_innerShadow_3707:17161"/>
</filter>
<filter id="filter2_i_3707:17161" x="21.1538" y="0" width="3.50439" height="14.3051" filterUnits="userSpaceOnUse" color-interpolation-filters="sRGB">
<feFlood flood-opacity="0" result="BackgroundImageFix"/>
<feBlend mode="normal" in="SourceGraphic" in2="BackgroundImageFix" result="shape"/>
<feColorMatrix in="SourceAlpha" type="matrix" values="0 0 0 0 0 0 0 0 0 0 0 0 0 0 0 0 0 0 127 0" result="hardAlpha"/>
<feOffset dy="2"/>
<feGaussianBlur stdDeviation="2"/>
<feComposite in2="hardAlpha" operator="arithmetic" k2="-1" k3="1"/>
<feColorMatrix type="matrix" values="0 0 0 0 0.279167 0 0 0 0 0.655653 0 0 0 0 1 0 0 0 1 0"/>
<feBlend mode="normal" in2="shape" result="effect1_innerShadow_3707:17161"/>
</filter>
<filter id="filter3_i_3707:17161" x="8.84424" y="1.75873" width="3.10352" height="10.7885" filterUnits="userSpaceOnUse" color-interpolation-filters="sRGB">
<feFlood flood-opacity="0" result="BackgroundImageFix"/>
<feBlend mode="normal" in="SourceGraphic" in2="BackgroundImageFix" result="shape"/>
<feColorMatrix in="SourceAlpha" type="matrix" values="0 0 0 0 0 0 0 0 0 0 0 0 0 0 0 0 0 0 127 0" result="hardAlpha"/>
<feOffset dy="2"/>
<feGaussianBlur stdDeviation="2"/>
<feComposite in2="hardAlpha" operator="arithmetic" k2="-1" k3="1"/>
<feColorMatrix type="matrix" values="0 0 0 0 0.279167 0 0 0 0 0.655653 0 0 0 0 1 0 0 0 1 0"/>
<feBlend mode="normal" in2="shape" result="effect1_innerShadow_3707:17161"/>
</filter>
<filter id="filter4_i_3707:17161" x="18.0522" y="1.75745" width="3.10352" height="10.7899" filterUnits="userSpaceOnUse" color-interpolation-filters="sRGB">
<feFlood flood-opacity="0" result="BackgroundImageFix"/>
<feBlend mode="normal" in="SourceGraphic" in2="BackgroundImageFix" result="shape"/>
<feColorMatrix in="SourceAlpha" type="matrix" values="0 0 0 0 0 0 0 0 0 0 0 0 0 0 0 0 0 0 127 0" result="hardAlpha"/>
<feOffset dy="2"/>
<feGaussianBlur stdDeviation="2"/>
<feComposite in2="hardAlpha" operator="arithmetic" k2="-1" k3="1"/>
<feColorMatrix type="matrix" values="0 0 0 0 0.279167 0 0 0 0 0.655653 0 0 0 0 1 0 0 0 1 0"/>
<feBlend mode="normal" in2="shape" result="effect1_innerShadow_3707:17161"/>
</filter>
<filter id="filter5_i_3707:17161" x="12.3633" y="3.51602" width="5.27344" height="7.27344" filterUnits="userSpaceOnUse" color-interpolation-filters="sRGB">
<feFlood flood-opacity="0" result="BackgroundImageFix"/>
<feBlend mode="normal" in="SourceGraphic" in2="BackgroundImageFix" result="shape"/>
<feColorMatrix in="SourceAlpha" type="matrix" values="0 0 0 0 0 0 0 0 0 0 0 0 0 0 0 0 0 0 127 0" result="hardAlpha"/>
<feOffset dy="2"/>
<feGaussianBlur stdDeviation="2"/>
<feComposite in2="hardAlpha" operator="arithmetic" k2="-1" k3="1"/>
<feColorMatrix type="matrix" values="0 0 0 0 0.279167 0 0 0 0 0.655653 0 0 0 0 1 0 0 0 1 0"/>
<feBlend mode="normal" in2="shape" result="effect1_innerShadow_3707:17161"/>
</filter>
<linearGradient id="paint0_linear_3707:17161" x1="-2.25706" y1="-1.95701" x2="36.3507" y2="1.81692" gradientUnits="userSpaceOnUse">
<stop stop-color="#93CFFF"/>
<stop offset="1" stop-color="#2894FF"/>
</linearGradient>
<linearGradient id="paint1_linear_3707:17161" x1="6.21094" y1="26.4843" x2="6.21094" y2="17.6953" gradientUnits="userSpaceOnUse">
<stop stop-color="#ADDCFF"/>
<stop offset="0.5028" stop-color="#EAF6FF"/>
<stop offset="1" stop-color="#EAF6FF"/>
</linearGradient>
<linearGradient id="paint2_linear_3707:17161" x1="11.4844" y1="26.4843" x2="11.4844" y2="17.6953" gradientUnits="userSpaceOnUse">
<stop stop-color="#ADDCFF"/>
<stop offset="0.5028" stop-color="#EAF6FF"/>
<stop offset="1" stop-color="#EAF6FF"/>
</linearGradient>
<linearGradient id="paint3_linear_3707:17161" x1="23.7891" y1="26.4843" x2="23.7891" y2="17.6953" gradientUnits="userSpaceOnUse">
<stop stop-color="#ADDCFF"/>
<stop offset="0.5028" stop-color="#EAF6FF"/>
<stop offset="1" stop-color="#EAF6FF"/>
</linearGradient>
<linearGradient id="paint4_linear_3707:17161" x1="16.7579" y1="26.4843" x2="16.7579" y2="17.6953" gradientUnits="userSpaceOnUse">
<stop stop-color="#ADDCFF"/>
<stop offset="0.5028" stop-color="#EAF6FF"/>
<stop offset="1" stop-color="#EAF6FF"/>
</linearGradient>
<linearGradient id="paint5_linear_3707:17161" x1="5.07765" y1="-12.5493" x2="9.62971" y2="-12.4825" gradientUnits="userSpaceOnUse">
<stop stop-color="#93CFFF"/>
<stop offset="1" stop-color="#2894FF"/>
</linearGradient>
<linearGradient id="paint6_linear_3707:17161" x1="20.8902" y1="-12.5511" x2="25.4422" y2="-12.4843" gradientUnits="userSpaceOnUse">
<stop stop-color="#93CFFF"/>
<stop offset="1" stop-color="#2894FF"/>
</linearGradient>
<linearGradient id="paint7_linear_3707:17161" x1="8.61075" y1="-7.20556" x2="12.6415" y2="-7.13219" gradientUnits="userSpaceOnUse">
<stop stop-color="#93CFFF"/>
<stop offset="1" stop-color="#2894FF"/>
</linearGradient>
<linearGradient id="paint8_linear_3707:17161" x1="17.8188" y1="-7.20818" x2="21.8495" y2="-7.13482" gradientUnits="userSpaceOnUse">
<stop stop-color="#93CFFF"/>
<stop offset="1" stop-color="#2894FF"/>
</linearGradient>
<linearGradient id="paint9_linear_3707:17161" x1="11.9665" y1="-1.86288" x2="18.7997" y2="-1.51064" gradientUnits="userSpaceOnUse">
<stop stop-color="#93CFFF"/>
<stop offset="1" stop-color="#2894FF"/>
</linearGradient>
</defs>
</svg>
