<svg width="48" height="48" viewBox="0 0 48 48" fill="none" xmlns="http://www.w3.org/2000/svg">
<g filter="url(#filter0_d_3707:16857)">
<path d="M37.9998 17.7885V19.7293C37.9998 20.0551 37.9998 20.3762 37.9998 20.6927C37.9343 22.694 37.078 24.5874 35.6193 25.9567C34.1605 27.326 32.2186 28.0592 30.2203 27.9952H18.0632C16.0397 28.0668 14.0701 27.334 12.5841 25.9567C12.0268 25.4663 11.5555 24.8857 11.1899 24.2392C11.65 23.6807 12.1659 23.0664 12.6678 22.4381C13.5182 21.4327 14.3546 20.4135 14.8705 19.7572C15.6373 18.7938 17.6588 16.2945 20.4472 17.4673C20.9836 17.7086 21.497 17.9983 21.9808 18.333C23.124 19.087 23.598 19.3104 24.3927 18.8776C25.27 18.2721 25.9761 17.4495 26.4421 16.4899C26.7628 15.9733 27.0834 15.4707 27.4319 15.0099C28.0372 14.0707 28.9807 13.4014 30.0662 13.1413C31.1517 12.8813 32.2955 13.0504 33.2596 13.6136C34.2032 14.2078 35.0776 14.9056 35.8666 15.6941L36.3547 16.1688C36.5638 16.3783 37.2608 17.0904 37.9579 17.7606" fill="url(#paint0_linear_3707:16857)"/>
<path d="M30.1098 0.041929H18.0223C13.296 0.041929 10.1174 3.36502 10.1174 8.30781V19.7293C10.0875 21.294 10.4672 22.8392 11.2187 24.2113L12.6965 22.4241C13.5609 21.4048 14.3696 20.3995 14.8993 19.7433C15.6661 18.7798 17.6877 16.2805 20.476 17.4534C21.0093 17.7007 21.5222 17.9902 22.0096 18.319C23.1389 19.073 23.6129 19.2964 24.4076 18.8636C25.2888 18.2625 25.9958 17.4388 26.457 16.4759C26.7776 15.9593 27.0983 15.4567 27.4468 14.9959C28.0521 14.0567 28.9956 13.3875 30.0811 13.1274C31.1666 12.8674 32.3104 13.0365 33.2745 13.5996C34.2234 14.1862 35.0987 14.8847 35.8815 15.6801L36.3696 16.1548L37.9728 17.7466V8.26588C37.9728 3.32309 34.8081 0 30.0818 0" fill="url(#paint1_linear_3707:16857)"/>
<path d="M23.2916 9.53654C23.2916 10.249 23.0806 10.9455 22.6854 11.5379C22.2901 12.1303 21.7283 12.592 21.071 12.8647C20.4138 13.1373 19.6906 13.2086 18.9928 13.0696C18.2951 12.9307 17.6542 12.5876 17.1511 12.0838C16.6481 11.58 16.3056 10.9381 16.1668 10.2393C16.028 9.54048 16.0992 8.81616 16.3714 8.15791C16.6437 7.49966 17.1047 6.93709 17.6962 6.54126C18.2878 6.14543 18.9832 5.93414 19.6946 5.93414C20.6463 5.94145 21.5569 6.32337 22.2299 6.99737C22.9029 7.67136 23.2843 8.58339 23.2916 9.53654" fill="url(#paint2_linear_3707:16857)"/>
<path fill-rule="evenodd" clip-rule="evenodd" d="M10.8367 0.0419323C11.2987 0.0419323 11.6732 0.432834 11.6732 0.915036V3.14949C13.1029 1.25691 15.3193 0.0419323 17.8076 0.0419323H30.0762C34.3881 0.0419323 37.8836 3.69035 37.8836 8.1909V19.8323C37.8836 24.3328 34.3881 27.9813 30.0762 27.9813H17.8076C13.6493 27.9813 10.2503 24.5881 10.0134 20.3098C10.0046 20.2612 10 20.2111 10 20.1599V13.6839C10 13.2219 10.3745 12.8474 10.8365 12.8474C11.2985 12.8474 11.673 13.2219 11.673 13.6839V19.8323H11.6732C11.6732 23.3684 14.4197 26.235 17.8076 26.235H30.0762C33.4641 26.235 36.2106 23.3684 36.2106 19.8323V8.1909C36.2106 4.65475 33.4641 1.78814 30.0762 1.78814H17.8076C15.4237 1.78814 13.3575 3.2074 12.3421 5.28052L15.8556 5.28052C16.3176 5.28052 16.6921 5.67142 16.6921 6.15362C16.6921 6.63583 16.3176 7.02673 15.8556 7.02673H10.8444L10.8367 7.02676C10.7492 7.02676 10.6648 7.01273 10.5855 6.98669C10.2462 6.87537 10.0001 6.54449 10.0001 6.15362L10.0002 6.13928V0.915036C10.0002 0.432834 10.3747 0.0419323 10.8367 0.0419323Z" fill="url(#paint3_linear_3707:16857)"/>
</g>
<defs>
<filter id="filter0_d_3707:16857" x="0" y="0" width="48" height="48" filterUnits="userSpaceOnUse" color-interpolation-filters="sRGB">
<feFlood flood-opacity="0" result="BackgroundImageFix"/>
<feColorMatrix in="SourceAlpha" type="matrix" values="0 0 0 0 0 0 0 0 0 0 0 0 0 0 0 0 0 0 127 0" result="hardAlpha"/>
<feOffset dy="10"/>
<feGaussianBlur stdDeviation="5"/>
<feComposite in2="hardAlpha" operator="out"/>
<feColorMatrix type="matrix" values="0 0 0 0 0.305882 0 0 0 0 0.67451 0 0 0 0 0.976471 0 0 0 0.2 0"/>
<feBlend mode="normal" in2="BackgroundImageFix" result="effect1_dropShadow_3707:16857"/>
<feBlend mode="normal" in="SourceGraphic" in2="effect1_dropShadow_3707:16857" result="shape"/>
</filter>
<linearGradient id="paint0_linear_3707:16857" x1="24.5949" y1="28" x2="24.5949" y2="13.0222" gradientUnits="userSpaceOnUse">
<stop stop-color="#3C9FFF"/>
<stop offset="1" stop-color="#76C0FF"/>
</linearGradient>
<linearGradient id="paint1_linear_3707:16857" x1="24.0443" y1="24.2113" x2="24.0443" y2="0" gradientUnits="userSpaceOnUse">
<stop stop-color="#ADDCFF"/>
<stop offset="0.5028" stop-color="#EAF6FF"/>
<stop offset="1" stop-color="#EAF6FF"/>
</linearGradient>
<linearGradient id="paint2_linear_3707:16857" x1="19.6946" y1="13.1389" x2="19.6946" y2="5.93414" gradientUnits="userSpaceOnUse">
<stop stop-color="#3C9FFF"/>
<stop offset="1" stop-color="#76C0FF"/>
</linearGradient>
<linearGradient id="paint3_linear_3707:16857" x1="23.9418" y1="27.9813" x2="23.9418" y2="0.0419617" gradientUnits="userSpaceOnUse">
<stop stop-color="#3C9FFF"/>
<stop offset="1" stop-color="#76C0FF"/>
</linearGradient>
</defs>
</svg>
