<svg width="40" height="40" viewBox="0 0 40 40" fill="none" xmlns="http://www.w3.org/2000/svg">
<path d="M7.01367 20C7.01367 27.1609 12.8395 32.9869 20.0004 32.9869C27.1613 32.9869 32.9871 27.1609 32.9871 20C32.9871 12.8392 27.1613 7.01318 20.0004 7.01318C12.8395 7.01318 7.01367 12.8392 7.01367 20ZM31.1401 20C31.1401 26.1426 26.1428 31.1399 20.0004 31.1399C13.858 31.1399 8.86072 26.1426 8.86072 20C8.86072 13.8575 13.858 8.86023 20.0004 8.86023C26.1428 8.86023 31.1401 13.8575 31.1401 20Z" fill="#200E32"/>
<path d="M19.1689 12.7233V14.1699C18.6492 14.2899 18.1587 14.5156 17.7073 14.849C16.4721 15.7606 15.917 17.0238 16.2222 18.2282C16.5159 19.3864 17.5696 20.2282 18.9723 20.4249C22.1525 20.8705 22.6702 21.3454 22.534 22.4593C22.4615 23.0528 22.1204 23.4778 21.5201 23.7217C20.5053 24.1345 18.7461 23.9594 17.1023 22.6385L15.9453 24.0783C16.9392 24.877 18.062 25.4057 19.1687 25.6364V27.2766H21.0157V25.7334C21.4348 25.6849 21.8382 25.5861 22.2157 25.4326C23.4301 24.9389 24.2143 23.9368 24.3675 22.6831C24.5414 21.2601 23.9832 20.159 22.7534 19.4989C21.8004 18.9872 20.5423 18.7795 19.2286 18.5954C18.5743 18.5038 18.1198 18.1967 18.0127 17.7741C17.8983 17.323 18.1942 16.7851 18.8041 16.3349C19.4499 15.8583 20.211 15.7881 21.1309 16.1201C21.9113 16.402 22.4863 16.8736 22.492 16.8783L23.0834 16.169L23.6775 15.4618C23.5979 15.395 22.8693 14.7973 21.8189 14.4052C21.5476 14.3039 21.2797 14.2265 21.0158 14.1709V12.7231L19.1689 12.7233Z" fill="#200E32"/>
<path d="M20 1.84705C23.9724 1.84705 27.7511 3.11622 30.873 5.46075H28.4442V7.3078H34.3874V1.3646H32.5404V4.41827C28.9972 1.5562 24.6173 0 20 0C8.97199 0 0 8.97199 0 20H1.84705C1.84705 9.99046 9.99046 1.84705 20 1.84705Z" fill="#200E32"/>
<path d="M38.1537 20C38.1537 30.0095 30.0103 38.153 20.0008 38.153C16.141 38.153 12.4536 36.9503 9.37946 34.7248H11.7909V32.8778H5.84766V38.821H7.69471V35.7668C11.1975 38.5094 15.4922 40 20.0008 40C31.0289 40 40.0007 31.0281 40.0007 20H38.1537Z" fill="#200E32"/>
</svg>
