<svg width="20" height="20" viewBox="0 0 20 20" fill="none" xmlns="http://www.w3.org/2000/svg">
<path d="M3.50684 10C3.50684 13.5805 6.41976 16.4935 10.0002 16.4935C13.5807 16.4935 16.4936 13.5805 16.4936 10C16.4936 6.41958 13.5807 3.50659 10.0002 3.50659C6.41976 3.50659 3.50684 6.41958 3.50684 10ZM15.57 10C15.57 13.0713 13.0714 15.5699 10.0002 15.5699C6.92899 15.5699 4.43036 13.0713 4.43036 10C4.43036 6.92875 6.92899 4.43012 10.0002 4.43012C13.0714 4.43012 15.57 6.92875 15.57 10Z" fill="white"/>
<path d="M9.58446 6.36163V7.08494C9.32458 7.14497 9.07935 7.25782 8.85364 7.42449C8.23605 7.88028 7.9585 8.51191 8.11112 9.11411C8.25796 9.69322 8.78481 10.1141 9.48613 10.2124C11.0763 10.4352 11.3351 10.6727 11.267 11.2297C11.2307 11.5264 11.0602 11.7389 10.76 11.8609C10.2527 12.0672 9.37303 11.9797 8.55115 11.3192L7.97266 12.0392C8.46958 12.4385 9.03102 12.7029 9.58433 12.8182V13.6383H10.5079V12.8667C10.7174 12.8424 10.9191 12.7931 11.1078 12.7163C11.715 12.4695 12.1072 11.9684 12.1838 11.3415C12.2707 10.63 11.9916 10.0795 11.3767 9.74944C10.9002 9.49362 10.2711 9.38975 9.61432 9.29771C9.28714 9.2519 9.05989 9.09835 9.00633 8.88705C8.94913 8.66152 9.09708 8.39253 9.40203 8.16744C9.72496 7.92917 10.1055 7.89407 10.5654 8.06006C10.9556 8.20099 11.2432 8.4368 11.246 8.43914L11.5417 8.0845L11.8387 7.73092C11.799 7.69748 11.4347 7.39863 10.9095 7.2026C10.7738 7.15193 10.6399 7.11326 10.5079 7.08543V6.36157L9.58446 6.36163Z" fill="white"/>
<path d="M10 0.923526C11.9862 0.923526 13.8755 1.55811 15.4365 2.73037H14.2221V3.6539H17.1937V0.682301H16.2702V2.20914C14.4986 0.778101 12.3086 0 10 0C4.486 0 0 4.486 0 10H0.923526C0.923526 4.99523 4.99523 0.923526 10 0.923526Z" fill="white"/>
<path d="M19.0768 10C19.0768 15.0048 15.0051 19.0765 10.0004 19.0765C8.07051 19.0765 6.22679 18.4751 4.68973 17.3624H5.89543V16.4389H2.92383V19.4105H3.84735V17.8834C5.59873 19.2547 7.74611 20 10.0004 20C15.5144 20 20.0004 15.5141 20.0004 10H19.0768Z" fill="white"/>
</svg>
