<svg width="16" height="20" viewBox="0 0 16 20" fill="none" xmlns="http://www.w3.org/2000/svg">
<path d="M13.5915 19.8001L7.97498 16.6716L2.38848 19.8001C2.16283 19.927 1.90783 19.9925 1.64895 19.99C1.4089 19.9887 1.17199 19.9353 0.954592 19.8335C0.73719 19.7317 0.54446 19.5839 0.389729 19.4003L0.289785 19.2804L0.199845 19.1205C0.0761859 18.8755 0.0111771 18.6052 0.00996131 18.3308V4.44774C-0.0272001 3.82988 0.0736997 3.2116 0.305339 2.63761C0.536979 2.06363 0.893539 1.54841 1.34912 1.12945C2.39851 0.329668 3.69976 -0.0674858 5.01684 0.0100195H11.0131C14.1911 0.0100195 16.01 1.56925 16.01 4.2679V18.3308C16.0116 18.5493 15.9701 18.766 15.8877 18.9684C15.8054 19.1708 15.6839 19.355 15.5303 19.5103C15.3824 19.669 15.2028 19.7946 15.003 19.879C14.8032 19.9634 14.5878 20.0047 14.371 20C14.0982 20.0018 13.8297 19.9329 13.5915 19.8001ZM8.64458 15.3923L14.2411 18.5208H14.371C14.3994 18.5199 14.4273 18.5132 14.4531 18.5011C14.4789 18.4891 14.5019 18.472 14.5209 18.4508C14.5635 18.4081 14.5884 18.351 14.5908 18.2908V4.22788C14.5908 2.36881 13.3716 1.41935 10.9931 1.41935H4.99684C2.57835 1.41935 1.39911 2.41885 1.39911 4.41785V18.4109V18.4708C1.41867 18.5008 1.44528 18.5257 1.47664 18.5431C1.50799 18.5605 1.54313 18.57 1.57899 18.5707H1.66893L7.24543 15.4322C7.45056 15.3194 7.6809 15.2602 7.91502 15.2602C8.14915 15.2602 8.37946 15.3194 8.58459 15.4322L8.64458 15.3923ZM4.54713 7.77616C4.45264 7.78272 4.35776 7.77051 4.26795 7.74041C4.17814 7.7103 4.09514 7.66289 4.02369 7.60071C3.95223 7.53852 3.89372 7.46284 3.85149 7.37804C3.80927 7.29324 3.78416 7.20095 3.7776 7.10645C3.77103 7.01194 3.78315 6.91711 3.81325 6.82729C3.84335 6.73747 3.89085 6.65437 3.95302 6.5829C4.0152 6.51144 4.09084 6.45298 4.17563 6.41075C4.26042 6.36852 4.3527 6.34337 4.44719 6.33681H11.4428C11.5373 6.33025 11.6322 6.34234 11.722 6.37244C11.8118 6.40254 11.8948 6.45008 11.9663 6.51226C12.0377 6.57445 12.0962 6.65013 12.1384 6.73493C12.1807 6.81973 12.2058 6.91202 12.2123 7.00652C12.2189 7.10103 12.2068 7.19586 12.1767 7.28568C12.1466 7.3755 12.0991 7.45848 12.0369 7.52994C11.9748 7.60141 11.8991 7.65999 11.8143 7.70222C11.7295 7.74445 11.6373 7.76959 11.5428 7.77616H4.54713Z" fill="#778797"/>
</svg>
