<svg width="20" height="20" viewBox="0 0 20 20" fill="none" xmlns="http://www.w3.org/2000/svg">
<path d="M5.04858 12.8115L7.95556 9.05307L11.2598 11.6424L14.099 7.9903" stroke="#778797" stroke-width="1.5" stroke-linecap="round" stroke-linejoin="round"/>
<path d="M17.413 4.43475C18.4405 4.43475 19.2734 3.60421 19.2734 2.57968C19.2734 1.55515 18.4405 0.724609 17.413 0.724609C16.3854 0.724609 15.5525 1.55515 15.5525 2.57968C15.5525 3.60421 16.3854 4.43475 17.413 4.43475Z" stroke="#778797" stroke-width="1.5" stroke-linecap="round" stroke-linejoin="round"/>
<path d="M12.4904 1.51691H5.45549C2.54852 1.51691 0.726807 3.58456 0.726807 6.49278V14.2995C0.726807 17.198 2.50007 19.256 5.45549 19.256H13.7888C16.6958 19.256 18.5175 17.2077 18.5175 14.2995V7.53621" stroke="#778797" stroke-width="1.5" stroke-linecap="round" stroke-linejoin="round"/>
</svg>
