<svg width="12" height="15" viewBox="0 0 12 15" fill="none" xmlns="http://www.w3.org/2000/svg">
<g clip-path="url(#clip0_3928:26576)">
<path d="M8.98587 15H3.01413C2.62294 15.0049 2.23466 14.9279 1.87147 14.7734C1.50827 14.6189 1.17724 14.39 0.897346 14.0996C0.617454 13.8091 0.394207 13.463 0.240234 13.0809C0.086262 12.6987 0.00460752 12.2881 0 11.8724V8.16745C0.00460752 7.7518 0.086262 7.34121 0.240234 6.95909C0.394207 6.57696 0.617454 6.2308 0.897346 5.94038C1.17724 5.64996 1.50827 5.42096 1.87147 5.26646C2.23466 5.11196 2.62294 5.035 3.01413 5.03996H8.98587C9.77537 5.03194 10.5357 5.35651 11.1006 5.94262C11.6654 6.52873 11.9888 7.32865 12 8.16745V11.8724C11.9954 12.2881 11.9137 12.6987 11.7598 13.0809C11.6058 13.463 11.3825 13.8091 11.1027 14.0996C10.8228 14.39 10.4917 14.6189 10.1285 14.7734C9.76534 14.9279 9.37706 15.0049 8.98587 15ZM6 8.54245C5.9191 8.54045 5.83867 8.55565 5.76338 8.58717C5.6881 8.61869 5.61946 8.66592 5.56158 8.72601C5.50371 8.7861 5.45777 8.85788 5.42638 8.93713C5.395 9.01638 5.3788 9.1015 5.37882 9.18748V10.845C5.36949 10.938 5.37873 11.0322 5.40588 11.1213C5.43302 11.2103 5.47751 11.2923 5.53642 11.3619C5.59533 11.4316 5.66731 11.4872 5.74779 11.5253C5.82827 11.5634 5.91542 11.5831 6.00353 11.5831C6.09164 11.5831 6.1788 11.5634 6.25928 11.5253C6.33976 11.4872 6.41173 11.4316 6.47065 11.3619C6.52956 11.2923 6.57405 11.2103 6.60119 11.1213C6.62833 11.0322 6.63757 10.938 6.62825 10.845V9.18748C6.62733 9.10115 6.61025 9.01587 6.5781 8.93658C6.54594 8.85729 6.49935 8.78555 6.44092 8.72555C6.38248 8.66556 6.31342 8.61851 6.23774 8.58708C6.16205 8.55565 6.08124 8.54046 6 8.54245Z" fill="white"/>
<path opacity="0.4" d="M9.89665 4.04999V5.15251C9.63909 5.07734 9.37316 5.03948 9.10606 5.03999H8.64016V4.04999C8.63271 3.31531 8.35133 2.61376 7.85776 2.09918C7.36418 1.5846 6.69871 1.29901 6.00723 1.30501C5.31682 1.29892 4.65195 1.58196 4.15653 2.09291C3.66111 2.60386 3.375 3.3016 3.36017 4.03502V5.03999H2.90133C2.63367 5.0383 2.36726 5.07876 2.11075 5.16002V4.04999C2.19376 3.0167 2.63876 2.05413 3.35767 1.35271C4.07659 0.651282 5.01706 0.262085 5.9931 0.262085C6.96914 0.262085 7.90961 0.651282 8.62853 1.35271C9.34744 2.05413 9.79244 3.0167 9.87545 4.04999" fill="white"/>
</g>
<defs>
<clipPath id="clip0_3928:26576">
<rect width="12" height="15" fill="white"/>
</clipPath>
</defs>
</svg>
