<svg width="16" height="13" viewBox="0 0 16 13" fill="none" xmlns="http://www.w3.org/2000/svg">
<path d="M3.44107 12C2.5215 12.0237 1.62881 11.6966 0.953292 11.0883C0.639764 10.7822 0.393641 10.417 0.229966 10.0151C0.0662906 9.61315 -0.0114986 9.18289 0.00137212 8.75066V3.29612C-0.00872319 2.86423 0.070328 2.43477 0.233847 2.03321C0.397367 1.63165 0.642025 1.26617 0.953292 0.958453C1.62881 0.350218 2.5215 0.0230401 3.44107 0.0467308H8.45665C8.91258 0.0312118 9.36715 0.103799 9.79414 0.260275C10.2211 0.41675 10.6121 0.654052 10.9444 0.958453C11.5078 1.5016 11.8442 2.22909 11.8883 3.00001L14.0082 2.15068C14.3647 2.01178 14.7632 2.01568 15.1168 2.16162C15.4704 2.30757 15.7504 2.58374 15.896 2.92991C15.9512 3.06458 15.9862 3.20623 16 3.35062V8.63376C16 9.00782 15.8474 9.36659 15.5759 9.63109C15.3044 9.89559 14.9361 10.0442 14.5521 10.0442C14.4025 10.0444 14.2539 10.0207 14.1122 9.974L14.0082 9.93509L11.8883 9.09347C11.8463 9.86333 11.5129 10.5907 10.9524 11.135C10.2749 11.7452 9.37897 12.0725 8.45665 12.0468L3.44107 12ZM1.20127 3.26492V8.71946C1.16845 9.2454 1.35141 9.76256 1.70994 10.1571C2.06847 10.5516 2.5732 10.7913 3.11312 10.8234C3.22229 10.8313 3.33189 10.8313 3.44107 10.8234H8.45665C8.99437 10.8756 9.53138 10.7179 9.94981 10.3848C10.3682 10.0517 10.6339 9.57047 10.6884 9.04677C10.6965 8.94042 10.6965 8.83361 10.6884 8.72726V3.27272C10.7191 2.74808 10.5351 2.23305 10.1768 1.84021C9.81852 1.44738 9.31506 1.20878 8.77662 1.17666C8.66763 1.16489 8.55764 1.16489 8.44865 1.17666H3.44107C3.17462 1.14974 2.90535 1.17439 2.64873 1.24923C2.39211 1.32408 2.15323 1.44757 1.94581 1.61269C1.73839 1.7778 1.56652 1.98131 1.44012 2.21137C1.31371 2.44143 1.23527 2.6935 1.20928 2.95321C1.19466 3.05649 1.19197 3.16106 1.20127 3.26492ZM14.4641 8.80517C14.5236 8.82885 14.5903 8.82909 14.65 8.80583C14.7097 8.78257 14.7578 8.73769 14.7841 8.68056V3.45192C14.7841 3.38786 14.758 3.32648 14.7115 3.28118C14.665 3.23588 14.6019 3.21041 14.5361 3.21041H14.4961H14.4481L11.8883 4.22334V7.80784L14.4641 8.80517Z" fill="white"/>
</svg>
