<svg width="20" height="15" viewBox="0 0 20 15" fill="none" xmlns="http://www.w3.org/2000/svg">
<path d="M10.0019 0.28147C4.97294 -1.05838 0 2.55942 0 7.4999C0 12.4499 4.982 16.0558 10.0019 14.7183C15.0379 16.0611 20 12.4304 20 7.4999C20 2.56386 15.0317 -1.05969 10.0019 0.28147ZM1.17647 7.4999C1.17647 3.94991 4.24078 1.06797 7.98635 1.12537C5.74478 2.44801 4.24851 4.81064 4.24851 7.4999C4.24851 10.1892 5.74478 12.5518 7.98635 13.8744C4.24086 13.9318 1.17647 11.05 1.17647 7.4999ZM12.1243 13.8754C8.43027 13.8754 5.42502 11.0154 5.42502 7.4999C5.42502 3.98443 8.43027 1.12436 12.1243 1.12436C15.8183 1.12436 18.8235 3.98443 18.8235 7.4999C18.8235 11.0154 15.8183 13.8754 12.1243 13.8754Z" fill="white"/>
<path d="M12.9596 6.94003H11.2919C10.7904 6.94003 10.3825 6.55182 10.3825 6.0746C10.3825 5.59578 10.7897 5.20913 11.2917 5.20913C11.2954 5.20917 11.2992 5.20913 11.303 5.20917H12.901C13.2374 5.21212 13.569 5.35461 13.8109 5.60029C14.0331 5.8259 14.4054 5.83743 14.6424 5.62593C14.8794 5.41451 14.8915 5.06026 14.6694 4.83466C14.1129 4.26966 13.4728 4.08955 12.714 4.08955V3.41882C12.714 3.10965 12.4506 2.85901 12.1258 2.85901C11.8009 2.85901 11.5375 3.10965 11.5375 3.41882V4.08955C9.97574 4.08955 9.20605 5.05645 9.20605 6.0746C9.20605 7.16918 10.1418 8.05965 11.2919 8.05965H12.9596C13.4611 8.05965 13.869 8.44786 13.869 8.92508C13.869 9.40391 13.4617 9.79055 12.9598 9.79055C12.9561 9.79055 12.9523 9.79051 12.9485 9.79051H11.2051C10.9628 9.78835 10.7179 9.71001 10.4965 9.56387C10.2296 9.3876 9.86307 9.45071 9.6779 9.70468C9.49272 9.95872 9.55896 10.3075 9.82586 10.4837C10.5451 10.9586 11.1593 10.9101 11.5375 10.9101V11.5809C11.5375 11.89 11.8008 12.1407 12.1257 12.1407C12.4506 12.1407 12.7139 11.89 12.7139 11.5809V10.9101C14.2943 10.9101 15.0454 9.92479 15.0454 8.92508C15.0455 7.8305 14.1097 6.94003 12.9596 6.94003Z" fill="white"/>
</svg>
