<svg width="20" height="20" viewBox="0 0 20 20" fill="none" xmlns="http://www.w3.org/2000/svg">
<path d="M5 0C4.43168 0 3.88663 0.225765 3.48477 0.627628C3.08291 1.02949 2.85714 1.57454 2.85714 2.14286C2.85714 2.3323 2.9324 2.51398 3.06635 2.64793C3.20031 2.78189 3.38199 2.85714 3.57143 2.85714C3.76087 2.85714 3.94255 2.78189 4.0765 2.64793C4.21046 2.51398 4.28571 2.3323 4.28571 2.14286C4.28571 1.95342 4.36097 1.77174 4.49492 1.63778C4.62888 1.50383 4.81056 1.42857 5 1.42857H17.8571C18.0466 1.42857 18.2283 1.50383 18.3622 1.63778C18.4962 1.77174 18.5714 1.95342 18.5714 2.14286V15C18.5714 15.1894 18.4962 15.3711 18.3622 15.5051C18.2283 15.639 18.0466 15.7143 17.8571 15.7143C17.6677 15.7143 17.486 15.7895 17.3521 15.9235C17.2181 16.0574 17.1429 16.2391 17.1429 16.4286C17.1429 16.618 17.2181 16.7997 17.3521 16.9336C17.486 17.0676 17.6677 17.1429 17.8571 17.1429C18.4255 17.1429 18.9705 16.9171 19.3724 16.5152C19.7742 16.1134 20 15.5683 20 15V2.14286C20 1.57454 19.7742 1.02949 19.3724 0.627628C18.9705 0.225765 18.4255 0 17.8571 0H5ZM2.14286 4.57143C1.57454 4.57143 1.02949 4.79719 0.627628 5.19906C0.225765 5.60092 0 6.14596 0 6.71429V17.8571C0 18.4255 0.225765 18.9705 0.627628 19.3724C1.02949 19.7742 1.57454 20 2.14286 20H13.2857C13.854 20 14.3991 19.7742 14.8009 19.3724C15.2028 18.9705 15.4286 18.4255 15.4286 17.8571V6.71429C15.4286 6.14596 15.2028 5.60092 14.8009 5.19906C14.3991 4.79719 13.854 4.57143 13.2857 4.57143H2.14286ZM2.14286 6H13.2857C13.4752 6 13.6568 6.07526 13.7908 6.20921C13.9247 6.34316 14 6.52485 14 6.71429V17.8571C14 18.0466 13.9247 18.2283 13.7908 18.3622C13.6568 18.4962 13.4752 18.5714 13.2857 18.5714H2.14286C1.95342 18.5714 1.77174 18.4962 1.63778 18.3622C1.50383 18.2283 1.42857 18.0466 1.42857 17.8571V6.71429C1.42857 6.52485 1.50383 6.34316 1.63778 6.20921C1.77174 6.07526 1.95342 6 2.14286 6Z" fill="#778797"/>
</svg>
