<svg width="13" height="12" viewBox="0 0 13 12" fill="none" xmlns="http://www.w3.org/2000/svg">
<path d="M3.40332 11.9919C2.94608 12.0083 2.49047 11.9286 2.06587 11.7582C1.64127 11.5877 1.2571 11.3302 0.93812 11.0022C0.305308 10.3073 -0.0305232 9.39232 0.00242094 8.45301V3.55255C-0.0321075 2.61119 0.303831 1.69381 0.93812 0.997365C1.25703 0.668864 1.64106 0.410645 2.06558 0.239185C2.4901 0.0677247 2.94573 -0.0131407 3.40332 0.00173615H8.59768C9.05527 -0.0131407 9.5109 0.0677247 9.93542 0.239185C10.3599 0.410645 10.744 0.668864 11.0629 0.997365C11.6972 1.69381 12.0331 2.61119 11.9986 3.55255V8.45301C12.0331 9.39437 11.6972 10.3118 11.0629 11.0082C10.7439 11.3362 10.3597 11.5937 9.93513 11.7642C9.51053 11.9346 9.05493 12.0143 8.59768 11.9979L3.40332 11.9919ZM3.40332 11.0922H8.59768C8.93118 11.1039 9.26344 11.046 9.57328 10.922C9.88312 10.7981 10.1637 10.6109 10.3971 10.3724C10.863 9.84208 11.1059 9.15222 11.0749 8.44701V7.98514L10.8649 7.78723L10.4451 7.37933C10.1676 7.09579 9.85758 6.84613 9.52137 6.63558C9.30075 6.50881 9.039 6.47422 8.79303 6.53937C8.54706 6.60451 8.33675 6.76416 8.20779 6.98351L8.13582 7.08543C8.13582 7.12142 8.08183 7.15745 8.05784 7.19943L7.8239 7.57131C7.55898 8.11251 7.14212 8.56475 6.62429 8.87285C6.36725 9.02453 6.07094 9.09641 5.77297 9.07932C5.47501 9.06224 5.18885 8.957 4.95084 8.77693L4.68692 8.61497L4.46499 8.47102C4.3683 8.41119 4.26816 8.3571 4.16509 8.30906C3.76322 8.14112 3.40332 8.30906 2.91148 8.90887L1.82582 10.2344L1.64589 10.4503C1.8809 10.6696 2.15756 10.8394 2.45946 10.9496C2.76136 11.0599 3.08233 11.1084 3.40332 11.0922ZM0.902133 3.54655V8.45301C0.895755 8.86309 0.969081 9.27051 1.11805 9.65263L1.80785 8.81288L2.11376 8.435C2.88151 7.4873 3.58329 7.07344 4.51299 7.46331C4.65435 7.52458 4.79072 7.59676 4.92085 7.67924L5.32271 7.93118C5.71859 8.1831 5.92253 8.21907 6.19244 8.06312C6.49254 7.87817 6.7387 7.61753 6.90622 7.30736L7.08615 7.01946L7.20612 6.82756C7.29609 6.6836 7.38605 6.54561 7.48801 6.41365C7.75075 6.01765 8.15559 5.73772 8.61884 5.63167C9.08209 5.52563 9.56838 5.6016 9.97723 5.84386C10.3869 6.09618 10.7637 6.3984 11.0989 6.74357V3.55255C11.1284 2.84861 10.8881 2.15996 10.4271 1.62719C10.1937 1.38868 9.9131 1.20147 9.60327 1.07754C9.29343 0.953604 8.96116 0.89569 8.62766 0.907452H3.43331C1.8858 0.895456 0.902133 1.93906 0.902133 3.54655ZM2.56361 4.07438C2.56361 3.76594 2.65507 3.46444 2.82643 3.20799C2.99779 2.95153 3.24133 2.75169 3.52629 2.63366C3.81125 2.51562 4.12485 2.48467 4.42736 2.54484C4.72987 2.60502 5.00775 2.75361 5.22585 2.97171C5.44395 3.18981 5.59246 3.46765 5.65264 3.77016C5.71281 4.07267 5.68193 4.38623 5.5639 4.67119C5.44586 4.95615 5.24595 5.19973 4.9895 5.37109C4.73304 5.54245 4.43154 5.63394 4.1231 5.63394C3.9183 5.63394 3.7155 5.59355 3.52629 5.51518C3.33709 5.43681 3.16516 5.32194 3.02035 5.17713C2.87554 5.03232 2.76067 4.8604 2.6823 4.67119C2.60393 4.48198 2.56361 4.27918 2.56361 4.07438ZM3.46332 4.07438C3.46332 4.20488 3.50201 4.33249 3.57451 4.44099C3.64701 4.54949 3.75004 4.63406 3.8706 4.684C3.99116 4.73394 4.12383 4.74695 4.25182 4.72149C4.3798 4.69603 4.49738 4.63321 4.58965 4.54093C4.68192 4.44866 4.74475 4.33109 4.77021 4.2031C4.79566 4.07512 4.78262 3.94249 4.73268 3.82192C4.68274 3.70136 4.59817 3.59833 4.48967 3.52583C4.38117 3.45333 4.25359 3.41461 4.1231 3.41461C3.9486 3.41617 3.7817 3.48619 3.65831 3.60959C3.53491 3.73299 3.46489 3.89988 3.46332 4.07438Z" fill="white"/>
</svg>
