<svg width="24" height="24" viewBox="0 0 24 24" fill="none" xmlns="http://www.w3.org/2000/svg">
<path d="M16.015 12.2567C16.0128 11.9979 16.0875 11.7443 16.2295 11.5281C16.3715 11.3118 16.5746 11.1427 16.8128 11.0421C17.051 10.9415 17.3137 10.9141 17.5675 10.9632C17.8214 11.0123 18.0549 11.1358 18.2385 11.318C18.4221 11.5002 18.5475 11.733 18.5988 11.9866C18.65 12.2403 18.6248 12.5035 18.5264 12.7428C18.428 12.9821 18.2607 13.1867 18.0459 13.3307C17.8311 13.4747 17.5784 13.5515 17.3199 13.5515C16.9758 13.5516 16.6455 13.4155 16.4011 13.173C16.1567 12.9305 16.018 12.6011 16.015 12.2567ZM10.9518 12.2567C10.9518 11.9103 11.0893 11.5781 11.334 11.3332C11.5787 11.0882 11.9106 10.9507 12.2567 10.9507C12.6027 10.9507 12.9346 11.0882 13.1793 11.3332C13.424 11.5781 13.5615 11.9103 13.5615 12.2567C13.5586 12.6022 13.4202 12.9327 13.1761 13.177C12.9321 13.4213 12.6018 13.5598 12.2567 13.5627C11.9106 13.5627 11.5787 13.4252 11.334 13.1802C11.0893 12.9353 10.9518 12.6031 10.9518 12.2567ZM5.88867 12.2567C5.88868 11.9979 5.96548 11.7449 6.10935 11.5299C6.25323 11.3149 6.45764 11.1476 6.69672 11.0491C6.9358 10.9505 7.19873 10.9253 7.45215 10.9766C7.70556 11.0279 7.93808 11.1534 8.12011 11.3372C8.30214 11.521 8.42553 11.7548 8.47461 12.0088C8.52369 12.2629 8.49619 12.5258 8.39572 12.7643C8.29525 13.0027 8.12629 13.2059 7.91025 13.3481C7.69421 13.4903 7.44086 13.5649 7.18232 13.5627C6.8382 13.5598 6.50916 13.4209 6.26686 13.1763C6.02457 12.9317 5.88866 12.6012 5.88867 12.2567Z" fill="white"/>
<path d="M11.9903 0.837223C9.0325 0.837223 6.19587 2.01326 4.10438 4.10669C2.0129 6.20012 0.837891 9.03946 0.837891 12C0.869571 13.9567 1.38693 15.8747 2.34344 17.5814C2.43027 17.7325 2.48234 17.9011 2.49585 18.0749C2.50935 18.2487 2.48396 18.4233 2.42151 18.586L1.67432 21.0865C1.6173 21.2612 1.63087 21.4514 1.71217 21.6162C1.79346 21.781 1.93602 21.9074 2.10928 21.9684C2.26435 22.0237 2.43376 22.0237 2.58883 21.9684L4.81931 21.2986C5.10843 21.2315 5.40919 21.233 5.69767 21.3027C5.98615 21.3725 6.25437 21.5087 6.48101 21.7005C7.96544 22.5465 9.62423 23.0399 11.3294 23.1426C13.0345 23.2454 14.7404 22.9546 16.3155 22.2929C17.8906 21.6312 19.2927 20.6162 20.4138 19.3261C21.5349 18.0361 22.345 16.5055 22.7815 14.8525C23.218 13.1995 23.2693 11.4681 22.9314 9.79212C22.5936 8.1161 21.8756 6.54018 20.8329 5.1859C19.7901 3.83162 18.4505 2.73515 16.9173 1.98116C15.3842 1.22718 13.6985 0.835835 11.9903 0.837223V0.837223Z" stroke="white" stroke-width="1.5" stroke-linecap="round" stroke-linejoin="round"/>
</svg>
