<svg width="24" height="22" viewBox="0 0 24 22" fill="none" xmlns="http://www.w3.org/2000/svg">
<path fill-rule="evenodd" clip-rule="evenodd" d="M8.79844 1.61899C7.79681 1.45761 6.76969 1.52922 5.8036 1.82735L5.5781 1.09416L5.8036 1.82735C2.15325 2.95393 0.766077 6.7873 1.92522 10.2913C2.59407 12.1295 3.68629 13.8019 5.1231 15.183C7.21483 17.1421 9.52067 18.8791 12.0008 20.3635C14.4812 18.8788 16.7874 17.1416 18.8793 15.1821C20.3207 13.8048 21.4134 12.1315 22.0764 10.291C23.2345 6.83549 21.8388 2.95496 18.1866 1.8275C17.2221 1.53118 16.1971 1.46047 15.1976 1.6218C14.1981 1.78314 13.2553 2.17146 12.4475 2.75218C12.1804 2.94422 11.8207 2.9441 11.5537 2.7519C10.7447 2.16958 9.80005 1.78036 8.79844 1.61899ZM5.35245 0.360505C6.54387 -0.00716758 7.80863 -0.0950958 9.04177 0.10358C10.0962 0.273469 11.1031 0.648977 12.0011 1.20648C12.8973 0.650787 13.9018 0.276269 14.9539 0.106461C16.1845 -0.0921852 17.4469 -0.00530522 18.6364 0.360237L18.6373 0.360508C23.3091 1.80234 24.8947 6.71822 23.5261 10.7885L23.5208 10.8035C22.7756 12.8761 21.5478 14.7544 19.934 16.2956L19.9286 16.3007L19.9286 16.3007C17.7312 18.3593 15.3071 20.1808 12.6998 21.7331L12.6948 21.736L12.6948 21.736L12.4227 21.8952C12.2062 22.0219 11.9415 22.0345 11.7141 21.9289L11.3711 21.7697C11.3474 21.7586 11.3243 21.7464 11.3018 21.7331C8.69441 20.1808 6.27038 18.3593 4.07292 16.3007L4.06594 16.2942L4.06598 16.2941C2.4583 14.7499 1.23213 12.8741 0.481491 10.8057L0.47459 10.7858C-0.891627 6.67367 0.679115 1.80279 5.35243 0.360509L5.35245 0.360505Z" fill="white"/>
</svg>
