<svg width="14" height="16" viewBox="0 0 14 16" fill="none" xmlns="http://www.w3.org/2000/svg">
<path d="M6.65962 15.9798C6.28092 15.9363 5.91485 15.821 5.58244 15.6403C5.25003 15.4595 4.95784 15.217 4.7227 14.9267C4.6694 14.8715 4.62832 14.8063 4.60199 14.7352C4.57567 14.6641 4.56464 14.5885 4.5696 14.5131C4.57456 14.4377 4.59541 14.3641 4.63084 14.2968C4.66627 14.2295 4.71556 14.1699 4.77567 14.1216C4.83578 14.0734 4.90544 14.0374 4.9804 14.0162C5.05536 13.9949 5.13404 13.9886 5.21159 13.9978C5.28914 14.007 5.36393 14.0313 5.43139 14.0694C5.49885 14.1075 5.55754 14.1585 5.60388 14.2194C5.89656 14.5757 6.32334 14.8054 6.79075 14.8581C7.25816 14.9109 7.72815 14.7824 8.0978 14.5008C8.21133 14.4217 8.31216 14.3269 8.39705 14.2194C8.44413 14.1588 8.50351 14.1082 8.57159 14.0707C8.63968 14.0332 8.71502 14.0095 8.79292 14.0012C8.87081 13.993 8.94965 14.0002 9.02454 14.0225C9.09943 14.0448 9.16879 14.0817 9.22835 14.131C9.2894 14.1778 9.34012 14.236 9.37747 14.3021C9.41483 14.3682 9.43806 14.4409 9.44582 14.5159C9.45357 14.5909 9.44566 14.6666 9.42258 14.7385C9.3995 14.8105 9.36172 14.8772 9.31146 14.9348C9.16848 15.1119 9.00061 15.2689 8.8127 15.401C8.5135 15.6287 8.17074 15.7969 7.80412 15.8963C7.43751 15.9956 7.05423 16.024 6.67626 15.9798H6.65962ZM3.33442 12.66C2.35666 12.5641 1.44755 12.1302 0.77403 11.4382C0.256636 10.8398 -0.0181234 10.0798 0.000928285 9.30005V9.10714C0.0406715 8.5339 0.23248 7.98023 0.557884 7.49952L0.616081 7.43525C1.00337 7.02251 1.27018 6.51765 1.38918 5.97236V6.02053V5.10418C1.38918 4.89519 1.38918 4.7023 1.38918 4.52546C1.54107 3.26011 2.20451 2.10424 3.23467 1.31022C4.29811 0.46453 5.63188 0.00149667 7.00877 0H7.03371C8.40715 0.00663802 9.73659 0.469179 10.7995 1.31022C11.3168 1.70826 11.747 2.20177 12.0652 2.76202C12.3835 3.32227 12.5834 3.93802 12.6533 4.57364C12.6533 4.7344 12.6533 4.8791 12.6533 5.09613V6.04467V6.1893C12.7688 6.60978 12.9757 7.00168 13.2601 7.3388L13.3848 7.48352L13.4347 7.54779C13.7788 8.04116 13.9744 8.61712 14 9.21164V9.53318C13.9714 10.2758 13.6776 10.9859 13.1687 11.5427C12.5131 12.2185 11.6279 12.6437 10.6748 12.7404C8.18806 12.9988 5.67985 12.9988 3.19311 12.7404L3.33442 12.66ZM1.48894 8.11847L1.42244 8.22297C1.28749 8.45663 1.20001 8.71315 1.16474 8.9786V9.13128V9.30809C1.15596 9.80757 1.32306 10.2952 1.63859 10.6907C2.12396 11.1761 2.77239 11.4781 3.46743 11.5427C5.87086 11.7999 8.29629 11.7999 10.6997 11.5427C11.3785 11.4913 12.0157 11.2061 12.4954 10.7389C12.8364 10.3394 13.0165 9.83402 13.0024 9.31614V9.17955C12.9854 8.80101 12.8618 8.4341 12.645 8.11847L12.5369 7.98188C12.1412 7.51149 11.8573 6.96263 11.7056 6.37426L11.6557 6.15722V6.07686C11.6474 5.96983 11.6474 5.86234 11.6557 5.75531V5.03186C11.6655 4.88733 11.6655 4.74231 11.6557 4.59777C11.4793 3.58184 10.9282 2.66215 10.1044 2.00894C9.28059 1.35572 8.23989 1.01328 7.17502 1.04499H7.03371C5.97005 1.01299 4.93034 1.3543 4.10671 2.0059C3.28308 2.65749 2.73118 3.57526 2.553 4.58973C2.553 4.68618 2.553 4.79875 2.553 4.92736V6.15722C2.39698 6.88511 2.04745 7.56105 1.53884 8.11847H1.48894Z" fill="#778797"/>
</svg>
