<svg width="50" height="50" viewBox="0 0 50 50" fill="none" xmlns="http://www.w3.org/2000/svg">
<g filter="url(#filter0_d)">
<path d="M31.0938 11.543V4.27148L29.4875 1.604L26.8048 0H21.3026L18.6353 1.60623L17.0312 4.28906V11.543C17.0312 12.0351 17.4179 12.4219 17.9102 12.4219H30.2148C30.7071 12.4219 31.0938 12.0351 31.0938 11.543ZM39.1211 15.9375H38.125L31.9727 14.1797L25.8203 20.332L31.9727 26.4844L38.125 24.7266H39.1211C39.6133 24.7266 40 24.3398 40 23.8477V16.8164C40 16.3242 39.6133 15.9375 39.1211 15.9375Z" fill="url(#paint0_linear)"/>
<g filter="url(#filter1_i)">
<path d="M31.0938 4.27148V0.878906C31.0938 0.38666 30.7071 0 30.2148 0H26.8048C26.1718 2.61914 28.4746 4.92188 31.0938 4.27148ZM38.125 13.3008C38.125 11.8418 36.9474 10.6641 35.4883 10.6641H14.3945C11.9687 10.6641 10 12.6328 10 15.0586V25.6055C10 28.0312 11.9687 30 14.3945 30H35.4883C36.9474 30 38.125 28.8221 38.125 27.3633V24.7266H33.7305C31.3047 24.7266 29.3359 22.7578 29.3359 20.332C29.3359 17.8815 31.3275 15.9375 33.7305 15.9375H38.125V13.3008ZM32.8516 20.332C32.8516 20.8174 33.2451 21.2109 33.7305 21.2109C34.2159 21.2109 34.6094 20.8174 34.6094 20.332C34.6094 19.8466 34.2159 19.4531 33.7305 19.4531C33.2451 19.4531 32.8516 19.8466 32.8516 20.332ZM21.3026 0H17.9102C17.4179 0 17.0312 0.38666 17.0312 0.878906V4.28906C19.6504 4.92188 21.9532 2.61914 21.3026 0Z" fill="url(#paint1_linear)"/>
</g>
</g>
<defs>
<filter id="filter0_d" x="0" y="0" width="50" height="50" filterUnits="userSpaceOnUse" color-interpolation-filters="sRGB">
<feFlood flood-opacity="0" result="BackgroundImageFix"/>
<feColorMatrix in="SourceAlpha" type="matrix" values="0 0 0 0 0 0 0 0 0 0 0 0 0 0 0 0 0 0 127 0" result="hardAlpha"/>
<feOffset dy="10"/>
<feGaussianBlur stdDeviation="5"/>
<feComposite in2="hardAlpha" operator="out"/>
<feColorMatrix type="matrix" values="0 0 0 0 0.305882 0 0 0 0 0.67451 0 0 0 0 0.976471 0 0 0 0.2 0"/>
<feBlend mode="normal" in2="BackgroundImageFix" result="effect1_dropShadow"/>
<feBlend mode="normal" in="SourceGraphic" in2="effect1_dropShadow" result="shape"/>
</filter>
<filter id="filter1_i" x="10" y="0" width="28.125" height="32" filterUnits="userSpaceOnUse" color-interpolation-filters="sRGB">
<feFlood flood-opacity="0" result="BackgroundImageFix"/>
<feBlend mode="normal" in="SourceGraphic" in2="BackgroundImageFix" result="shape"/>
<feColorMatrix in="SourceAlpha" type="matrix" values="0 0 0 0 0 0 0 0 0 0 0 0 0 0 0 0 0 0 127 0" result="hardAlpha"/>
<feOffset dy="2"/>
<feGaussianBlur stdDeviation="2"/>
<feComposite in2="hardAlpha" operator="arithmetic" k2="-1" k3="1"/>
<feColorMatrix type="matrix" values="0 0 0 0 0.279167 0 0 0 0 0.655653 0 0 0 0 1 0 0 0 1 0"/>
<feBlend mode="normal" in2="shape" result="effect1_innerShadow"/>
</filter>
<linearGradient id="paint0_linear" x1="28.5156" y1="26.4844" x2="28.5156" y2="0" gradientUnits="userSpaceOnUse">
<stop stop-color="#ADDCFF"/>
<stop offset="0.5028" stop-color="#EAF6FF"/>
<stop offset="1" stop-color="#EAF6FF"/>
</linearGradient>
<linearGradient id="paint1_linear" x1="7.88401" y1="-30.6" x2="44.3395" y2="-28.8382" gradientUnits="userSpaceOnUse">
<stop stop-color="#93CFFF"/>
<stop offset="1" stop-color="#2894FF"/>
</linearGradient>
</defs>
</svg>
