<svg width="20" height="16" viewBox="0 0 20 16" fill="none" xmlns="http://www.w3.org/2000/svg">
<path d="M19.6949 1.89525C19.1464 2.71111 18.4734 3.40659 17.6761 3.9817C17.684 4.13594 17.6879 4.31027 17.6879 4.50469C17.6879 5.58493 17.5304 6.66649 17.2154 7.74934C16.9004 8.83221 16.4193 9.86871 15.772 10.8588C15.1247 11.849 14.3536 12.7261 13.4588 13.4903C12.564 14.2545 11.4884 14.8639 10.232 15.3183C8.97557 15.7728 7.62904 16 6.19239 16C3.95026 16 1.88548 15.3947 -0.00195312 14.1841C0.333044 14.2214 0.654334 14.24 0.961918 14.24C2.83504 14.24 4.50803 13.6631 5.9809 12.5092C5.10755 12.4932 4.3254 12.2244 3.63444 11.7027C2.94349 11.181 2.46799 10.5144 2.20795 9.70286C2.46498 9.75182 2.71867 9.7763 2.969 9.7763C3.32934 9.7763 3.68391 9.72931 4.03271 9.63531C3.10068 9.44864 2.32748 8.98443 1.71312 8.24267C1.09877 7.50092 0.791598 6.6448 0.791598 5.6743V5.62429C1.36368 5.94104 1.9739 6.10954 2.62225 6.12976C2.07012 5.76167 1.63237 5.28168 1.30899 4.68978C0.985587 4.09787 0.823886 3.45733 0.823886 2.76814C0.823886 2.04129 1.00602 1.36444 1.3703 0.737616C2.38387 1.98142 3.61202 2.97551 5.05475 3.71989C6.4975 4.46427 8.04529 4.87768 9.69813 4.96011C9.62764 4.66632 9.59232 4.35973 9.5922 4.04035C9.5922 2.92519 9.98683 1.97301 10.7761 1.18381C11.5654 0.394603 12.5176 0 13.6328 0C14.8003 0 15.7837 0.425125 16.583 1.27538C17.4963 1.09448 18.3514 0.767285 19.1483 0.293792C18.8413 1.26009 18.2497 2.00551 17.3734 2.53008C18.1788 2.43438 18.9526 2.22277 19.6948 1.89525H19.6949Z" fill="#00B3FF"/>
</svg>
