<svg width="21" height="16" viewBox="0 0 21 16" fill="none" xmlns="http://www.w3.org/2000/svg">
<path d="M20.6949 1.89525C20.1464 2.71111 19.4734 3.40659 18.6761 3.9817C18.684 4.13594 18.6879 4.31027 18.6879 4.50469C18.6879 5.58493 18.5304 6.66649 18.2154 7.74934C17.9004 8.83221 17.4193 9.86871 16.772 10.8588C16.1247 11.849 15.3536 12.7261 14.4588 13.4903C13.564 14.2545 12.4884 14.8639 11.232 15.3183C9.97557 15.7728 8.62904 16 7.19239 16C4.95026 16 2.88548 15.3947 0.998047 14.1841C1.33304 14.2214 1.65433 14.24 1.96192 14.24C3.83504 14.24 5.50803 13.6631 6.9809 12.5092C6.10755 12.4932 5.3254 12.2244 4.63444 11.7027C3.94349 11.181 3.46799 10.5144 3.20795 9.70286C3.46498 9.75182 3.71867 9.7763 3.969 9.7763C4.32934 9.7763 4.68391 9.72931 5.03271 9.63531C4.10068 9.44864 3.32748 8.98443 2.71312 8.24267C2.09877 7.50092 1.7916 6.6448 1.7916 5.6743V5.62429C2.36368 5.94104 2.9739 6.10954 3.62225 6.12976C3.07012 5.76167 2.63237 5.28168 2.30899 4.68978C1.98559 4.09787 1.82389 3.45733 1.82389 2.76814C1.82389 2.04129 2.00602 1.36444 2.3703 0.737616C3.38387 1.98142 4.61202 2.97551 6.05475 3.71989C7.4975 4.46427 9.04529 4.87768 10.6981 4.96011C10.6276 4.66632 10.5923 4.35973 10.5922 4.04035C10.5922 2.92519 10.9868 1.97301 11.7761 1.18381C12.5654 0.394603 13.5176 0 14.6328 0C15.8003 0 16.7837 0.425125 17.583 1.27538C18.4963 1.09448 19.3514 0.767285 20.1483 0.293792C19.8413 1.26009 19.2497 2.00551 18.3734 2.53008C19.1788 2.43438 19.9526 2.22277 20.6948 1.89525H20.6949Z" fill="#AFAFAF"/>
</svg>
