<svg width="14" height="16" viewBox="0 0 14 16" fill="none" xmlns="http://www.w3.org/2000/svg">
<path d="M8.32111 15.9999C8.85516 15.9999 9.3195 15.5334 9.3195 14.9984V12.6595H9.98653C10.3865 12.6595 10.6525 12.392 10.6525 11.9908V5.31061H2.66211V11.9909C2.66211 12.392 2.92806 12.6596 3.32807 12.6596H3.99509V14.9984C3.99509 15.5335 4.45943 16 4.99241 16C5.52538 16 5.99081 15.5335 5.99081 14.9984V12.6596H7.32378V14.9984C7.32378 15.5334 7.78813 15.9999 8.32111 15.9999Z" fill="#888888"/>
<path d="M12.3167 11.9909C12.8496 11.9909 13.314 11.5244 13.314 10.9893V6.31165C13.314 5.77951 12.8496 5.31061 12.3167 5.31061C11.7837 5.31061 11.3193 5.77953 11.3193 6.31165V10.9893C11.3193 11.5244 11.7837 11.9909 12.3167 11.9909Z" fill="#888888"/>
<path d="M0.99625 11.9909C1.52923 11.9909 1.99357 11.5244 1.99357 10.9893V6.31165C1.99357 5.77951 1.52923 5.31061 0.99625 5.31061C0.464345 5.31061 0 5.77953 0 6.31165V10.9893C0 11.5244 0.464345 11.9909 0.99625 11.9909Z" fill="#888888"/>
<path d="M9.85248 0.100896C9.7195 -0.0336319 9.52111 -0.0336319 9.38814 0.100896L8.49376 0.994783L8.45301 1.0361C7.92325 0.769795 7.32915 0.636797 6.66641 0.635515C6.66319 0.635515 6.65997 0.635418 6.65676 0.635418C6.65354 0.635418 6.65033 0.635515 6.64711 0.635515C5.98545 0.636797 5.39134 0.769795 4.86158 1.0361L4.81976 0.994783L3.92646 0.100896C3.79348 -0.0336319 3.59509 -0.0336319 3.46104 0.100896C3.32807 0.23468 3.32807 0.433234 3.46104 0.566921L4.32646 1.43465C4.04764 1.62131 3.79455 1.84971 3.57471 2.11095C3.04924 2.7365 2.71358 3.55064 2.66747 4.43274C2.66747 4.44193 2.6664 4.45099 2.6664 4.46018C2.66318 4.52024 2.66211 4.58062 2.66211 4.64124H10.6525C10.6525 4.58065 10.6514 4.52028 10.6482 4.46018C10.6482 4.45099 10.6471 4.44193 10.646 4.43274C10.601 3.55064 10.2653 2.73647 9.7388 2.11101C9.51896 1.84977 9.26695 1.62137 8.98813 1.43472L9.85248 0.566986C9.98653 0.433234 9.98653 0.234712 9.85248 0.100896ZM4.99133 3.47367C4.71573 3.47367 4.49268 3.24939 4.49268 2.97271C4.49268 2.69603 4.71573 2.47175 4.99133 2.47175C5.26694 2.47175 5.49107 2.69603 5.49107 2.97271C5.49107 3.24939 5.26694 3.47367 4.99133 3.47367ZM8.32325 3.47367C8.04765 3.47367 7.82352 3.24939 7.82352 2.97271C7.82352 2.69603 8.04657 2.47175 8.32325 2.47175C8.59885 2.47175 8.82191 2.69603 8.82191 2.97271C8.82191 3.24939 8.59885 3.47367 8.32325 3.47367Z" fill="#888888"/>
</svg>
