<svg width="78" height="30" viewBox="0 0 78 30" fill="none" xmlns="http://www.w3.org/2000/svg">
<rect width="2" height="10" rx="1" transform="matrix(-1 0 0 1 78 10)" fill="#C4C4C4"/>
<rect width="2" height="20" rx="1" transform="matrix(-1 0 0 1 46 5)" fill="#C4C4C4"/>
<rect width="2" height="12" rx="1" transform="matrix(-1 0 0 1 14 9)" fill="#C4C4C4"/>
<rect width="2" height="14" rx="1" transform="matrix(-1 0 0 1 62 8)" fill="#C4C4C4"/>
<rect width="2" height="30" rx="1" transform="matrix(-1 0 0 1 30 0)" fill="#C4C4C4"/>
<rect width="2" height="24" rx="1" transform="matrix(-1 0 0 1 70 3)" fill="#C4C4C4"/>
<rect width="2" height="20" rx="1" transform="matrix(-1 0 0 1 38 5)" fill="#C4C4C4"/>
<rect width="2" height="20" rx="1" transform="matrix(-1 0 0 1 6 5)" fill="#C4C4C4"/>
<rect width="2" height="16" rx="1" transform="matrix(-1 0 0 1 54 7)" fill="#C4C4C4"/>
<rect width="2" height="20" rx="1" transform="matrix(-1 0 0 1 22 5)" fill="#C4C4C4"/>
<rect width="2" height="20" rx="1" transform="matrix(-1 0 0 1 74 5)" fill="#C4C4C4"/>
<rect width="2" height="16" rx="1" transform="matrix(-1 0 0 1 42 7)" fill="#C4C4C4"/>
<rect width="2" height="10" rx="1" transform="matrix(-1 0 0 1 10 10)" fill="#C4C4C4"/>
<rect width="2" height="20" rx="1" transform="matrix(-1 0 0 1 58 5)" fill="#C4C4C4"/>
<rect width="2" height="24" rx="1" transform="matrix(-1 0 0 1 26 3)" fill="#C4C4C4"/>
<rect width="2" height="10" rx="1" transform="matrix(-1 0 0 1 66 10)" fill="#C4C4C4"/>
<rect width="2" height="20" rx="1" transform="matrix(-1 0 0 1 34 5)" fill="#C4C4C4"/>
<rect width="2" height="26" rx="1" transform="matrix(-1 0 0 1 2 2)" fill="#C4C4C4"/>
<rect width="2" height="30" rx="1" transform="matrix(-1 0 0 1 50 0)" fill="#C4C4C4"/>
<rect width="2" height="16" rx="1" transform="matrix(-1 0 0 1 18 7)" fill="#C4C4C4"/>
</svg>
