<svg width="12" height="12" viewBox="0 0 12 12" fill="none" xmlns="http://www.w3.org/2000/svg">
<path d="M12 4.26687L6 10.6922L0 4.26687L2.76169 1.30786H9.23831L12 4.26687Z" fill="#59B6FF"/>
<path d="M12 4.26687L6 10.6922V1.30786H9.23831L12 4.26687Z" fill="#2196F3"/>
<path d="M12 4.26687H0L2.76169 1.30786H9.23831L12 4.26687Z" fill="#EAF8FF"/>
<path d="M6 1.30786L3.75621 4.26687H0L2.76169 1.30786H6Z" fill="#9AD2FF"/>
<path d="M12 4.26687H8.24379L6 1.30786H9.23831L12 4.26687Z" fill="#7FC8F0"/>
<path d="M8.24443 4.26685L6.00063 10.6922L3.75684 4.26685H8.24443Z" fill="#9AD2FF"/>
<path d="M8.24379 4.26685L6 10.6922V4.26685H8.24379Z" fill="#59B6FF"/>
<path d="M12 4.26687H6V1.30786H9.23831L12 4.26687Z" fill="#9AD2FF"/>
<path d="M12 4.26687H8.24379L6 1.30786H9.23831L12 4.26687Z" fill="#59B6FF"/>
</svg>
