<svg width="411" height="731" viewBox="0 0 411 731" fill="none" xmlns="http://www.w3.org/2000/svg">
<path d="M0 40C0 17.9086 17.9086 0 40 0H371C393.091 0 411 17.9086 411 40V733H0V40Z" fill="#F2F6F9"/>
<path d="M0 40C0 17.9086 17.9086 0 40 0H371C393.091 0 411 17.9086 411 40V733H0V40Z" fill="url(#paint0_linear_10000_23982)"/>
<g clip-path="url(#clip0_10000_23982)">
<path d="M306.119 61.69C306.278 59.6558 307.056 57.7191 308.349 56.14C309.554 54.5486 311.23 53.3767 313.139 52.79C314.769 52.3263 316.506 52.4141 318.082 53.0398C319.657 53.6655 320.981 54.794 321.849 56.25C322.583 54.7874 323.764 53.5963 325.22 52.8486C326.676 52.1008 328.332 51.8352 329.949 52.09C331.915 52.4533 333.719 53.4217 335.109 54.86C336.577 56.2734 337.578 58.1016 337.979 60.1C338.438 62.6598 338.063 65.2994 336.909 67.63C335.549 70.0018 333.643 72.0144 331.349 73.5C327.639 76.05 322.739 79.25 322.739 79.25C322.739 79.25 318.268 76.25 314.278 74.25C311.821 73.0498 309.688 71.2767 308.058 69.08C306.632 66.8902 305.952 64.298 306.119 61.69V61.69Z" fill="#EBEBEB"/>
<path d="M289.011 86.1699C289.115 84.8657 289.614 83.6241 290.441 82.6099C291.219 81.5901 292.295 80.8385 293.521 80.4599C294.569 80.1709 295.682 80.2313 296.693 80.6319C297.703 81.0325 298.556 81.7515 299.121 82.6799C299.452 82.0255 299.923 81.4519 300.501 80.9999C301.036 80.5826 301.651 80.2788 302.308 80.1068C302.965 79.9349 303.65 79.8985 304.321 79.9999C305.583 80.232 306.741 80.8547 307.631 81.7799C308.577 82.6869 309.219 83.8639 309.471 85.1499C309.771 86.7911 309.533 88.4855 308.791 89.9799C307.922 91.5056 306.697 92.7988 305.221 93.7499C302.831 95.3799 299.691 97.4399 299.691 97.4399C299.691 97.4399 296.821 95.5499 294.251 94.1999C292.669 93.432 291.297 92.293 290.251 90.8799C289.343 89.4837 288.908 87.8323 289.011 86.1699V86.1699Z" fill="#F5F5F5"/>
<path d="M339.562 136.72C339.66 135.414 340.16 134.171 340.992 133.16C341.768 132.137 342.845 131.381 344.072 131C344.726 130.821 345.409 130.776 346.081 130.867C346.753 130.958 347.399 131.184 347.982 131.53C348.67 131.953 349.249 132.532 349.672 133.22C350.141 132.279 350.899 131.514 351.834 131.035C352.77 130.556 353.835 130.39 354.872 130.56C356.132 130.793 357.288 131.412 358.182 132.33C359.126 133.238 359.769 134.415 360.022 135.7C360.318 137.341 360.08 139.034 359.342 140.53C358.469 142.056 357.241 143.349 355.762 144.3C353.382 145.94 350.232 148 350.232 148C350.232 148 347.362 146.1 344.802 144.76C343.222 143.989 341.851 142.85 340.802 141.44C339.893 140.04 339.458 138.386 339.562 136.72Z" fill="#EBEBEB"/>
</g>
<g clip-path="url(#clip1_10000_23982)">
<path d="M73.0097 80.0501C73.175 78.0172 73.9525 76.0822 75.2397 74.5001C76.4515 72.9105 78.1297 71.7392 80.0397 71.1501C81.6699 70.6864 83.4076 70.7742 84.9827 71.3999C86.5578 72.0256 87.8821 73.1541 88.7497 74.6101C89.4845 73.1476 90.6651 71.9564 92.1211 71.2087C93.577 70.4609 95.2329 70.1953 96.8497 70.4501C98.8162 70.8134 100.62 71.7818 102.01 73.2201C103.478 74.632 104.476 76.4614 104.87 78.4601C105.341 81.0134 104.976 83.6505 103.83 85.9801C102.468 88.3498 100.562 90.3618 98.2697 91.8501C94.5497 94.4001 89.6597 97.6001 89.6597 97.6001C89.6597 97.6001 85.1797 94.6501 81.1997 92.6001C78.7422 91.3999 76.6089 89.6268 74.9797 87.4301C73.5454 85.2464 72.8545 82.658 73.0097 80.0501Z" fill="#EBEBEB"/>
<path d="M100.081 55.2199C100.18 53.9142 100.679 52.6708 101.511 51.6599C102.288 50.6364 103.365 49.8811 104.591 49.4999C105.245 49.3213 105.929 49.2762 106.6 49.3673C107.272 49.4583 107.919 49.6837 108.501 50.0299C109.189 50.4529 109.768 51.0319 110.191 51.7199C110.663 50.7813 111.421 50.0174 112.356 49.5391C113.291 49.0608 114.354 48.8929 115.391 49.0599C116.654 49.2841 117.814 49.9039 118.701 50.8299C119.646 51.7381 120.288 52.9145 120.541 54.1999C120.843 55.8411 120.604 57.5357 119.861 59.0299C118.989 60.5535 117.765 61.8461 116.291 62.7999C113.901 64.4399 110.761 66.4999 110.761 66.4999C110.761 66.4999 107.881 64.5999 105.321 63.2599C103.742 62.4887 102.37 61.3503 101.321 59.9399C100.413 58.5403 99.9778 56.8855 100.081 55.2199V55.2199Z" fill="#F5F5F5"/>
<path d="M106.732 96.66C106.799 95.8006 107.131 94.9831 107.682 94.32C108.184 93.6481 108.883 93.1485 109.682 92.89C110.113 92.7721 110.564 92.7423 111.007 92.8024C111.45 92.8625 111.877 93.0114 112.262 93.24C112.712 93.5238 113.092 93.9069 113.372 94.36C113.592 93.929 113.902 93.5504 114.282 93.25C114.636 92.9765 115.042 92.7779 115.475 92.6661C115.908 92.5544 116.359 92.5319 116.802 92.6C117.634 92.7498 118.397 93.1594 118.982 93.77C119.613 94.3625 120.049 95.1334 120.232 95.98C120.427 97.0641 120.269 98.1822 119.782 99.17C119.207 100.178 118.397 101.032 117.422 101.66C115.852 102.74 113.772 104.09 113.772 104.09C113.772 104.09 111.882 102.84 110.192 101.96C109.155 101.447 108.254 100.697 107.562 99.77C106.958 98.8495 106.667 97.759 106.732 96.66V96.66Z" fill="#F5F5F5"/>
</g>
<g clip-path="url(#clip2_10000_23982)">
<path d="M36.0088 194.227C36.1371 192.641 36.7406 191.131 37.7397 189.897C38.6802 188.656 39.9828 187.742 41.4653 187.283C42.7306 186.921 44.0793 186.989 45.3019 187.478C46.5245 187.966 47.5523 188.846 48.2257 189.982C48.7961 188.841 49.7124 187.912 50.8425 187.328C51.9725 186.745 53.2578 186.538 54.5127 186.737C56.0391 187.02 57.4393 187.776 58.5177 188.898C59.6573 190 60.4323 191.427 60.7376 192.986C61.1033 194.979 60.8202 197.036 59.9304 198.854C58.8734 200.703 57.3942 202.273 55.6149 203.434C52.7275 205.424 48.9321 207.921 48.9321 207.921C48.9321 207.921 45.4548 205.619 42.3657 204.019C40.4582 203.083 38.8024 201.699 37.5379 199.985C36.4246 198.281 35.8883 196.262 36.0088 194.227Z" fill="#EBEBEB"/>
<path d="M57.0195 174.853C57.0957 173.834 57.4834 172.864 58.1294 172.076C58.7319 171.277 59.5678 170.688 60.52 170.39C61.0276 170.251 61.5578 170.216 62.0792 170.287C62.6006 170.358 63.1025 170.534 63.5548 170.804C64.0889 171.134 64.5382 171.585 64.8665 172.122C65.2324 171.39 65.821 170.794 66.5468 170.421C67.2725 170.048 68.0978 169.917 68.9026 170.047C69.883 170.222 70.7827 170.705 71.4717 171.428C72.2047 172.137 72.7032 173.054 72.8999 174.057C73.1337 175.338 72.9485 176.66 72.3721 177.826C71.6952 179.015 70.7451 180.023 69.6012 180.768C67.7461 182.047 65.3089 183.655 65.3089 183.655C65.3089 183.655 63.0736 182.172 61.0866 181.127C59.8607 180.525 58.7961 179.636 57.9819 178.536C57.2765 177.444 56.9391 176.153 57.0195 174.853V174.853Z" fill="#F5F5F5"/>
<path d="M62.1788 207.187C62.2309 206.517 62.4885 205.879 62.9161 205.361C63.3064 204.837 63.8488 204.447 64.4685 204.246C64.8034 204.154 65.1533 204.13 65.4974 204.177C65.8415 204.224 66.1726 204.34 66.471 204.519C66.8207 204.74 67.1154 205.039 67.3325 205.393C67.5034 205.056 67.7443 204.761 68.0389 204.526C68.3137 204.313 68.6288 204.158 68.965 204.071C69.3012 203.984 69.6516 203.966 69.9948 204.019C70.6406 204.136 71.233 204.456 71.6869 204.932C72.1771 205.394 72.5155 205.996 72.6571 206.657C72.8084 207.502 72.686 208.375 72.3078 209.146C71.8616 209.932 71.2332 210.598 70.476 211.088C69.2574 211.931 67.643 212.984 67.643 212.984C67.643 212.984 66.1761 212.009 64.8643 211.323C64.0598 210.922 63.3604 210.337 62.823 209.614C62.3543 208.896 62.1284 208.045 62.1788 207.187V207.187Z" fill="#F5F5F5"/>
</g>
<path opacity="0.1" d="M286.79 642.472C498.612 642.472 421.269 514.912 510 533.227V1084H-1549V383.919C-1470.43 371.824 -1200.52 483.157 -1002.36 483.157C-776.875 483.157 -776.875 601.505 -610.606 601.505C-531.608 601.505 -542.277 683.438 -428.394 683.438C-314.511 683.438 -264.403 521.848 -132.299 521.848C-0.194702 521.848 74.9679 642.472 286.79 642.472Z" fill="url(#paint1_linear_10000_23982)"/>
<path opacity="0.1" d="M839.79 642.472C1051.61 642.472 974.269 514.912 1063 533.227V1084H-996V383.919C-917.429 371.824 -647.519 483.157 -449.363 483.157C-223.875 483.157 -223.875 601.505 -57.6062 601.505C21.3925 601.505 10.7234 683.438 124.606 683.438C238.489 683.438 288.597 521.848 420.701 521.848C552.805 521.848 627.968 642.472 839.79 642.472Z" fill="url(#paint2_linear_10000_23982)"/>
<defs>
<linearGradient id="paint0_linear_10000_23982" x1="8.01273e-07" y1="104.326" x2="411" y2="104.326" gradientUnits="userSpaceOnUse">
<stop stop-color="#F6F6F6"/>
<stop offset="0.510949" stop-color="white"/>
<stop offset="1" stop-color="#EFEFEF"/>
</linearGradient>
<linearGradient id="paint1_linear_10000_23982" x1="-519.5" y1="275.566" x2="-519.5" y2="1097.66" gradientUnits="userSpaceOnUse">
<stop stop-color="#2894FF"/>
<stop offset="1" stop-color="#15161C" stop-opacity="0"/>
</linearGradient>
<linearGradient id="paint2_linear_10000_23982" x1="33.5" y1="275.566" x2="33.5" y2="1097.66" gradientUnits="userSpaceOnUse">
<stop stop-color="#2894FF"/>
<stop offset="1" stop-color="#15161C" stop-opacity="0"/>
</linearGradient>
<clipPath id="clip0_10000_23982">
<rect width="71.14" height="95.99" fill="white" transform="translate(289 52)"/>
</clipPath>
<clipPath id="clip1_10000_23982">
<rect width="47.67" height="55.11" fill="white" transform="translate(73 49)"/>
</clipPath>
<clipPath id="clip2_10000_23982">
<rect width="37" height="43" fill="white" transform="translate(36 170)"/>
</clipPath>
</defs>
</svg>
