<svg width="18" height="16" viewBox="0 0 18 16" fill="none" xmlns="http://www.w3.org/2000/svg">
<path d="M3.87558 16C2.84926 16 1.86483 15.5929 1.13828 14.868C0.411727 14.1431 0.0023954 13.1597 4.14436e-05 12.1334V6.86224C-0.00469086 5.84062 0.396022 4.85887 1.11425 4.13231C1.83247 3.40576 2.80955 2.99375 3.83115 2.9867H3.90228C3.93326 2.98296 3.96271 2.97113 3.98767 2.95241C4.01264 2.93368 4.03222 2.90873 4.04448 2.88003L4.48892 1.99115L4.8267 1.29779C4.99939 0.919892 5.27742 0.599789 5.62743 0.375911C5.97743 0.152034 6.38458 0.0338437 6.80006 0.0355249H10.9778C11.3918 0.0352394 11.7974 0.15306 12.1469 0.375043C12.4964 0.597026 12.7754 0.914002 12.9512 1.28889C13.0045 1.39556 13.0667 1.51998 13.1556 1.71554L13.7334 2.91562C13.7507 2.9497 13.7776 2.97794 13.8108 2.9969C13.8439 3.01585 13.8819 3.02469 13.92 3.02229H14.1067C15.0979 3.07248 16.0319 3.50184 16.7153 4.22161C17.3986 4.94139 17.7791 5.89643 17.7778 6.88893V12.16C17.7755 13.1863 17.3661 14.1698 16.6396 14.8947C15.913 15.6196 14.9286 16.0267 13.9023 16.0267L3.87558 16ZM6.01784 1.85779L5.82225 2.26664L5.25335 3.44894C5.14372 3.6909 4.97295 3.90006 4.75785 4.05592C4.54276 4.21179 4.2908 4.30899 4.02673 4.33783H3.87558C3.20134 4.33783 2.55471 4.60564 2.07795 5.0824C1.60119 5.55916 1.33337 6.2058 1.33337 6.88003V12.1511C1.33337 12.4845 1.39919 12.8147 1.52706 13.1227C1.65493 13.4306 1.84231 13.7102 2.07849 13.9456C2.31468 14.1809 2.59503 14.3674 2.90342 14.4942C3.2118 14.621 3.54215 14.6857 3.87558 14.6845H13.9023C14.575 14.6845 15.2203 14.4178 15.6968 13.943C16.1733 13.4681 16.4421 12.8238 16.4445 12.1511V6.88003C16.4478 6.23055 16.2015 5.60455 15.7566 5.13145C15.3116 4.65834 14.7018 4.37428 14.0534 4.33783H13.7689C13.5012 4.31375 13.2447 4.21869 13.026 4.06243C12.8072 3.90618 12.6341 3.6944 12.5245 3.44894L11.9023 2.1423L11.76 1.85779C11.6969 1.70044 11.5875 1.56605 11.4462 1.47237C11.3049 1.3787 11.1385 1.33022 10.969 1.33338H6.80891C6.63809 1.32962 6.47032 1.37882 6.32865 1.47433C6.18699 1.56983 6.07842 1.70694 6.01784 1.86669V1.85779ZM8.88893 12.6756C7.96316 12.6733 7.07599 12.3044 6.42137 11.6498C5.76676 10.9952 5.39795 10.108 5.3956 9.18223C5.39161 8.72628 5.47924 8.27423 5.65331 7.8528C5.82738 7.43137 6.08436 7.04912 6.40895 6.72888C6.73191 6.39868 7.11771 6.13657 7.54366 5.95794C7.96961 5.77932 8.42705 5.68788 8.88893 5.68895H9.07562C10.0021 5.71253 10.8813 6.10309 11.5197 6.77489C12.1582 7.44669 12.5036 8.3446 12.48 9.27109C12.4564 10.1976 12.0658 11.0768 11.394 11.7152C10.7222 12.3537 9.82432 12.6992 8.89783 12.6756H8.88893ZM8.74673 7.02229C8.20112 7.06453 7.69116 7.30978 7.31759 7.70968C6.94402 8.10958 6.73398 8.635 6.72894 9.18223C6.72894 9.60943 6.85563 10.0271 7.09298 10.3823C7.33032 10.7375 7.66764 11.0143 8.06232 11.1778C8.45701 11.3413 8.89132 11.3841 9.31032 11.3007C9.72932 11.2174 10.1142 11.0117 10.4163 10.7096C10.7184 10.4075 10.9241 10.0227 11.0074 9.60367C11.0908 9.18467 11.048 8.75031 10.8845 8.35562C10.7211 7.96093 10.4442 7.62356 10.089 7.38622C9.73375 7.14888 9.31614 7.02229 8.88893 7.02229H8.74673ZM13.2445 7.10226C13.1527 7.09116 13.0629 7.06726 12.9778 7.03118C12.8695 6.98826 12.7723 6.92133 12.6934 6.83555C12.5346 6.67077 12.4454 6.45113 12.4445 6.22227C12.4458 6.10035 12.4699 5.97974 12.5156 5.86669C12.6077 5.65284 12.7801 5.48366 12.9956 5.39555C13.1563 5.32939 13.3329 5.31181 13.5036 5.34499C13.6742 5.37816 13.8314 5.46072 13.9556 5.58229C14.0225 5.65103 14.0793 5.72873 14.1245 5.8133V5.86669C14.1773 5.97778 14.2046 6.09927 14.2045 6.22227C14.2011 6.45673 14.1053 6.68033 13.9378 6.84444C13.7924 6.99066 13.6008 7.08182 13.3956 7.10226H13.2267H13.2445Z" fill="white"/>
</svg>
