<svg width="36" height="33" viewBox="0 0 36 33" fill="none" xmlns="http://www.w3.org/2000/svg">
<path d="M7.84806 32.4001C5.76975 32.4001 3.77628 31.5756 2.30502 30.1077C0.833746 28.6398 0.00485068 26.6484 8.39233e-05 24.5701V13.896C-0.00949899 11.8273 0.801945 9.8392 2.25635 8.36793C3.71075 6.89666 5.68933 6.06234 7.75808 6.04806H7.90211C7.96485 6.0405 8.02448 6.01654 8.07504 5.97862C8.12559 5.94071 8.16524 5.89018 8.19006 5.83207L9.09006 4.03207L9.77407 2.62801C10.1238 1.86278 10.6868 1.21457 11.3955 0.761217C12.1043 0.307866 12.9288 0.0685309 13.7701 0.0719352H22.23C23.0685 0.071357 23.8897 0.309944 24.5975 0.75946C25.3052 1.20898 25.8702 1.85085 26.2261 2.61C26.3341 2.826 26.4601 3.07796 26.6401 3.47396L27.8101 5.90414C27.8451 5.97313 27.8996 6.03033 27.9668 6.06871C28.0339 6.1071 28.1108 6.12499 28.188 6.12013H28.5661C30.5733 6.22177 32.4646 7.09123 33.8484 8.54877C35.2322 10.0063 36.0027 11.9403 36.0001 13.9501V24.624C35.9953 26.7023 35.1664 28.6938 33.6952 30.1617C32.2239 31.6296 30.2304 32.4541 28.1521 32.4541L7.84806 32.4001ZM12.1861 3.76202L11.7901 4.58995L10.638 6.98409C10.416 7.47406 10.0702 7.89761 9.63465 8.21324C9.19908 8.52888 8.68887 8.72571 8.15414 8.78409H7.84806C6.48272 8.78409 5.17329 9.32642 4.20785 10.2919C3.24241 11.2573 2.70008 12.5667 2.70008 13.9321V24.6059C2.70008 25.2811 2.83336 25.9498 3.0923 26.5734C3.35123 27.197 3.73067 27.7632 4.20895 28.2398C4.68722 28.7164 5.25494 29.094 5.87942 29.3507C6.5039 29.6075 7.17286 29.7385 7.84806 29.7361H28.1521C29.5143 29.7361 30.821 29.1961 31.7859 28.2345C32.7509 27.273 33.2953 25.9682 33.3001 24.6059V13.9321C33.3068 12.6169 32.8081 11.3492 31.907 10.3912C31.0059 9.43313 29.7712 8.85791 28.4581 8.78409H27.8821C27.3399 8.73534 26.8206 8.54284 26.3776 8.22643C25.9346 7.91002 25.5841 7.48116 25.3621 6.98409L24.1021 4.33815L23.8141 3.76202C23.6863 3.44339 23.4646 3.17124 23.1785 2.98155C22.8924 2.79187 22.5554 2.69368 22.2121 2.70008H13.788C13.4421 2.69248 13.1024 2.79211 12.8155 2.98551C12.5286 3.17891 12.3088 3.45654 12.1861 3.78004V3.76202ZM18.0001 25.6681C16.1254 25.6633 14.3289 24.9164 13.0033 23.5908C11.6777 22.2652 10.9309 20.4687 10.9261 18.594C10.918 17.6707 11.0955 16.7553 11.4479 15.9019C11.8004 15.0485 12.3208 14.2745 12.9781 13.626C13.6321 12.9573 14.4134 12.4265 15.2759 12.0648C16.1385 11.7031 17.0648 11.518 18.0001 11.5201H18.3781C20.2543 11.5679 22.0346 12.3588 23.3275 13.7192C24.6203 15.0795 25.3198 16.8978 25.272 18.774C25.2243 20.6501 24.4333 22.4304 23.0729 23.7233C21.7125 25.0162 19.8942 25.7158 18.0181 25.6681H18.0001ZM17.7121 14.2201C16.6073 14.3057 15.5746 14.8023 14.8181 15.6121C14.0616 16.4219 13.6363 17.4859 13.6261 18.594C13.6261 19.4591 13.8827 20.3049 14.3633 21.0242C14.8439 21.7435 15.527 22.3039 16.3262 22.635C17.1255 22.9661 18.0049 23.0527 18.8534 22.8839C19.7019 22.7152 20.4812 22.2986 21.093 21.6869C21.7047 21.0752 22.1213 20.2959 22.29 19.4474C22.4588 18.5989 22.3722 17.7194 22.0412 16.9201C21.7101 16.1209 21.1495 15.4377 20.4302 14.9571C19.7108 14.4765 18.8652 14.2201 18.0001 14.2201H17.7121ZM26.8201 14.3821C26.6343 14.3596 26.4524 14.3112 26.28 14.2381C26.0607 14.1512 25.8638 14.0157 25.7041 13.842C25.3825 13.5083 25.2019 13.0635 25.2001 12.6001C25.2028 12.3532 25.2516 12.109 25.3441 11.88C25.5307 11.447 25.8796 11.1044 26.3161 10.926C26.6416 10.792 26.9992 10.7564 27.3447 10.8236C27.6902 10.8908 28.0085 11.058 28.2601 11.3041C28.3955 11.4433 28.5106 11.6007 28.6021 11.7719V11.88C28.709 12.105 28.7643 12.351 28.764 12.6001C28.7573 13.0749 28.5632 13.5277 28.2241 13.86C27.9297 14.1561 27.5416 14.3407 27.1261 14.3821H26.7841H26.8201Z" fill="#262A33"/>
</svg>
