<svg width="28" height="28" viewBox="0 0 28 28" fill="none" xmlns="http://www.w3.org/2000/svg">
<path d="M14 3.51335e-05C10.287 3.51335e-05 6.72605 1.47645 4.10054 4.10459C1.47503 6.73273 0 10.2973 0 14.0141C0.0356416 16.4711 0.685372 18.88 1.88997 21.0211C1.99804 21.2111 2.06289 21.4227 2.07983 21.6407C2.09677 21.8587 2.06539 22.0778 1.98798 22.2823L1.05 25.4214C0.978415 25.6408 0.99546 25.8795 1.09751 26.0864C1.19956 26.2934 1.37852 26.4521 1.59602 26.5286C1.78928 26.6058 2.00476 26.6058 2.19801 26.5286L4.99801 25.6877C5.36095 25.6035 5.73851 25.6053 6.10065 25.6929C6.46278 25.7805 6.79949 25.9515 7.084 26.1922C8.94746 27.2544 11.0298 27.8738 13.1703 28.0028C15.3108 28.1317 17.4523 27.7667 19.4295 26.936C21.4068 26.1052 23.167 24.831 24.5743 23.2114C25.9817 21.5919 26.9986 19.6704 27.5465 17.5951C28.0945 15.5199 28.1589 13.3463 27.7348 11.2422C27.3106 9.1381 26.4094 7.15966 25.1004 5.45946C23.7914 3.75927 22.1097 2.38274 20.1851 1.43616C18.2605 0.48959 16.1444 -0.00170678 14 3.51335e-05Z" fill="white"/>
<path d="M18.634 14.028C18.634 13.6732 18.7391 13.3264 18.936 13.0314C19.1329 12.7364 19.4128 12.5065 19.7403 12.3708C20.0677 12.235 20.428 12.1995 20.7756 12.2687C21.1233 12.3379 21.4426 12.5087 21.6932 12.7596C21.9438 13.0105 22.1145 13.3301 22.1836 13.6781C22.2527 14.026 22.2173 14.3867 22.0817 14.7145C21.946 15.0423 21.7163 15.3224 21.4216 15.5195C21.127 15.7167 20.7805 15.8218 20.4261 15.8218C20.1914 15.8237 19.9586 15.779 19.7413 15.6904C19.524 15.6017 19.3263 15.471 19.1597 15.3055C18.9931 15.1401 18.8609 14.9432 18.7707 14.7264C18.6804 14.5095 18.634 14.2769 18.634 14.042V14.028ZM12.1801 14.028C12.1828 13.6738 12.2903 13.3284 12.4889 13.0353C12.6874 12.7421 12.9683 12.5144 13.2959 12.3808C13.6236 12.2471 13.9834 12.2137 14.3301 12.2845C14.6768 12.3552 14.9948 12.5272 15.244 12.7786C15.4932 13.03 15.6625 13.3497 15.7306 13.6972C15.7986 14.0448 15.7623 14.4047 15.6262 14.7317C15.4902 15.0586 15.2605 15.338 14.9661 15.5345C14.6717 15.731 14.3258 15.8358 13.972 15.8359C13.735 15.8378 13.5 15.7922 13.2808 15.7018C13.0616 15.6115 12.8626 15.4782 12.6957 15.3097C12.5287 15.1413 12.3971 14.9411 12.3086 14.721C12.22 14.5009 12.1763 14.2652 12.1801 14.028ZM5.72607 14.028C5.72607 13.6732 5.83114 13.3264 6.02805 13.0314C6.22496 12.7364 6.50485 12.5065 6.8323 12.3708C7.15975 12.235 7.51999 12.1995 7.8676 12.2687C8.21522 12.3379 8.53454 12.5087 8.78516 12.7596C9.03577 13.0105 9.20649 13.3301 9.27564 13.6781C9.34478 14.026 9.30924 14.3867 9.17361 14.7145C9.03798 15.0423 8.80829 15.3224 8.5136 15.5195C8.21891 15.7167 7.87245 15.8218 7.51803 15.8218C7.04276 15.8218 6.58697 15.6329 6.2509 15.2965C5.91484 14.9601 5.72607 14.5037 5.72607 14.028Z" fill="#369DFD"/>
</svg>
