<svg width="25" height="24" viewBox="0 0 25 24" fill="none" xmlns="http://www.w3.org/2000/svg">
<path d="M16.8149 12.2567C16.8127 11.9979 16.8873 11.7444 17.0294 11.5281C17.1714 11.3119 17.3744 11.1427 17.6127 11.0421C17.8509 10.9416 18.1136 10.9141 18.3674 10.9632C18.6212 11.0124 18.8548 11.1359 19.0384 11.3181C19.222 11.5003 19.3474 11.733 19.3986 11.9866C19.4499 12.2403 19.4247 12.5035 19.3263 12.7428C19.2279 12.9821 19.0606 13.1867 18.8458 13.3307C18.631 13.4747 18.3783 13.5516 18.1198 13.5516C17.7756 13.5516 17.4454 13.4156 17.201 13.173C16.9566 12.9305 16.8178 12.6012 16.8149 12.2567ZM11.7517 12.2567C11.7517 11.9103 11.8891 11.5781 12.1338 11.3332C12.3786 11.0883 12.7105 10.9507 13.0565 10.9507C13.4026 10.9507 13.7345 11.0883 13.9792 11.3332C14.2239 11.5781 14.3613 11.9103 14.3613 12.2567C14.3584 12.6022 14.2201 12.9327 13.976 13.177C13.7319 13.4213 13.4017 13.5598 13.0565 13.5628C12.7105 13.5628 12.3786 13.4252 12.1338 13.1803C11.8891 12.9353 11.7517 12.6031 11.7517 12.2567ZM6.68854 12.2567C6.68855 11.9979 6.76534 11.745 6.90922 11.53C7.05309 11.3149 7.25751 11.1476 7.49658 11.0491C7.73566 10.9506 7.9986 10.9254 8.25201 10.9767C8.50543 11.028 8.73794 11.1534 8.91997 11.3372C9.10201 11.521 9.2254 11.7548 9.27448 12.0089C9.32356 12.2629 9.29606 12.5259 9.19559 12.7643C9.09511 13.0028 8.92616 13.206 8.71012 13.3481C8.49408 13.4903 8.24072 13.565 7.98219 13.5628C7.63806 13.5598 7.30903 13.4209 7.06673 13.1763C6.82443 12.9317 6.68853 12.6012 6.68854 12.2567Z" fill="white"/>
<path d="M12.7897 0.837253C9.83188 0.837253 6.99524 2.01329 4.90376 4.10672C2.81228 6.20015 1.63727 9.03949 1.63727 12C1.66895 13.9567 2.18631 15.8747 3.14282 17.5814C3.22965 17.7325 3.28172 17.9011 3.29522 18.0749C3.30873 18.2487 3.28334 18.4233 3.22089 18.5861L2.4737 21.0865C2.41667 21.2612 2.43025 21.4514 2.51155 21.6162C2.59284 21.7811 2.7354 21.9075 2.90866 21.9684C3.06373 22.0238 3.23314 22.0238 3.38821 21.9684L5.61869 21.2986C5.90781 21.2315 6.20857 21.233 6.49705 21.3028C6.78553 21.3725 7.05375 21.5087 7.28039 21.7005C8.76482 22.5465 10.4236 23.0399 12.1287 23.1427C13.8339 23.2454 15.5398 22.9546 17.1149 22.2929C18.6899 21.6312 20.0921 20.6162 21.2132 19.3262C22.3343 18.0361 23.1443 16.5056 23.5809 14.8525C24.0174 13.1995 24.0687 11.4682 23.7308 9.79215C23.393 8.11613 22.675 6.54021 21.6322 5.18593C20.5895 3.83165 19.2499 2.73518 17.7167 1.98119C16.1836 1.22721 14.4979 0.835866 12.7897 0.837253V0.837253Z" stroke="white" stroke-width="1.5" stroke-linecap="round" stroke-linejoin="round"/>
</svg>
