<svg width="20" height="20" viewBox="0 0 20 20" fill="none" xmlns="http://www.w3.org/2000/svg">
<path d="M13.0108 10.1926C13.0091 9.99847 13.0651 9.80828 13.1716 9.6461C13.2782 9.48392 13.4304 9.35703 13.6091 9.28161C13.7878 9.20618 13.9848 9.18559 14.1752 9.22243C14.3655 9.25928 14.5407 9.35191 14.6784 9.48856C14.8161 9.62521 14.9102 9.79976 14.9486 9.98999C14.987 10.1802 14.9681 10.3776 14.8943 10.5571C14.8205 10.7366 14.6951 10.89 14.534 10.998C14.3728 11.106 14.1833 11.1637 13.9894 11.1637C13.7313 11.1637 13.4836 11.0617 13.3003 10.8798C13.1171 10.6979 13.013 10.4509 13.0108 10.1926ZM9.21339 10.1926C9.21339 9.93276 9.31647 9.6836 9.5 9.4999C9.68353 9.3162 9.93246 9.21303 10.192 9.21303C10.4516 9.21303 10.7005 9.3162 10.884 9.4999C11.0675 9.6836 11.1706 9.93276 11.1706 10.1926C11.1684 10.4517 11.0647 10.6995 10.8816 10.8827C10.6986 11.066 10.4509 11.1699 10.192 11.1721C9.93246 11.1721 9.68353 11.0689 9.5 10.8852C9.31647 10.7015 9.21339 10.4523 9.21339 10.1926ZM5.41602 10.1926C5.41602 9.99846 5.47362 9.80874 5.58153 9.64748C5.68943 9.48622 5.84274 9.3607 6.02205 9.28682C6.20136 9.21293 6.39856 9.19402 6.58862 9.2325C6.77868 9.27098 6.95307 9.36509 7.08959 9.50292C7.22612 9.64075 7.31866 9.81609 7.35547 10.0067C7.39228 10.1972 7.37166 10.3944 7.2963 10.5732C7.22095 10.7521 7.09423 10.9045 6.9322 11.0111C6.77017 11.1177 6.58015 11.1737 6.38625 11.1721C6.12816 11.1699 5.88138 11.0657 5.69966 10.8822C5.51794 10.6988 5.41601 10.4509 5.41602 10.1926Z" fill="#2894FF"/>
<path d="M9.99126 1.62793C7.77291 1.62793 5.64544 2.50996 4.07682 4.08003C2.50821 5.6501 1.62695 7.77961 1.62695 10C1.65071 11.4675 2.03873 12.906 2.75611 14.1861C2.82124 14.2994 2.86029 14.4258 2.87042 14.5562C2.88055 14.6865 2.86151 14.8175 2.81467 14.9395L2.25428 16.8149C2.21151 16.9459 2.22169 17.0885 2.28266 17.2122C2.34363 17.3358 2.45055 17.4306 2.5805 17.4763C2.6968 17.5178 2.82386 17.5178 2.94016 17.4763L4.61302 16.9739C4.82986 16.9237 5.05543 16.9247 5.27179 16.9771C5.48815 17.0294 5.68931 17.1315 5.85929 17.2754C6.97262 17.9099 8.21671 18.28 9.49555 18.357C10.7744 18.434 12.0538 18.216 13.2351 17.7197C14.4165 17.2234 15.4681 16.4622 16.3089 15.4946C17.1497 14.5271 17.7573 13.3792 18.0846 12.1394C18.412 10.8996 18.4505 9.60112 18.1971 8.3441C17.9437 7.08709 17.4052 5.90515 16.6232 4.88944C15.8411 3.87373 14.8364 3.05138 13.6865 2.48589C12.5367 1.9204 11.2724 1.62689 9.99126 1.62793V1.62793Z" stroke="#2894FF" stroke-width="1.5" stroke-linecap="round" stroke-linejoin="round"/>
</svg>
