<svg width="25" height="24" viewBox="0 0 25 24" fill="none" xmlns="http://www.w3.org/2000/svg">
<path fill-rule="evenodd" clip-rule="evenodd" d="M0.75 0C1.16421 0 1.5 0.335786 1.5 0.75V4.5H5.25C5.66421 4.5 6 4.83579 6 5.25C6 5.66421 5.66421 6 5.25 6H0.75C0.335786 6 0 5.66421 0 5.25V0.75C0 0.335786 0.335786 0 0.75 0Z" fill="#778797"/>
<path fill-rule="evenodd" clip-rule="evenodd" d="M8.95455 6.74703C8.64583 6.74537 8.34356 6.83514 8.08605 7.00502C7.8286 7.17485 7.62738 7.41727 7.50797 7.70155C7.3886 7.98573 7.3565 8.29891 7.41574 8.60133C7.47498 8.90376 7.62289 9.18178 7.84065 9.40017C8.05834 9.6185 8.33615 9.7674 8.6389 9.82811C8.94163 9.88882 9.25554 9.85854 9.54085 9.74111C9.82623 9.62366 10.0703 9.42432 10.242 9.16827C10.4138 8.91225 10.5055 8.61097 10.5056 8.3028L11.2102 8.30281L10.5056 8.29899C10.5067 8.0956 10.4674 7.894 10.3901 7.70566C10.3128 7.51739 10.199 7.34622 10.0552 7.20202C9.91137 7.05774 9.74045 6.94329 9.55231 6.86527C9.36412 6.78722 9.16226 6.74704 8.95837 6.74704L8.95455 6.74703ZM11.9148 8.30474C11.9144 8.89024 11.74 9.46265 11.4134 9.94936C11.0866 10.4366 10.622 10.8161 10.0786 11.0398C9.5351 11.2635 8.93731 11.3211 8.36103 11.2055C7.78477 11.0899 7.25579 10.8065 6.84122 10.3907C6.42671 9.97499 6.14532 9.44593 6.03263 8.87063C5.91993 8.29532 5.98099 7.69954 6.2081 7.15886C6.43516 6.61828 6.818 6.15683 7.3084 5.83333C7.7982 5.51021 8.37307 5.33929 8.96026 5.34207C9.34921 5.34232 9.73437 5.41908 10.0936 5.56807C10.4534 5.71731 10.78 5.93606 11.0547 6.2115C11.3294 6.48702 11.5468 6.81397 11.6944 7.17352C11.8417 7.53244 11.9167 7.9168 11.9148 8.30474Z" fill="#200E32"/>
<path fill-rule="evenodd" clip-rule="evenodd" d="M8.95455 6.74703C8.64583 6.74537 8.34356 6.83514 8.08605 7.00502C7.8286 7.17485 7.62738 7.41727 7.50797 7.70155C7.3886 7.98573 7.3565 8.29891 7.41574 8.60133C7.47498 8.90376 7.62289 9.18178 7.84065 9.40017C8.05834 9.6185 8.33615 9.7674 8.6389 9.82811C8.94163 9.88882 9.25554 9.85854 9.54085 9.74111C9.82623 9.62366 10.0703 9.42432 10.242 9.16827C10.4138 8.91225 10.5055 8.61097 10.5056 8.3028L11.2102 8.30281L10.5056 8.29899C10.5067 8.0956 10.4674 7.894 10.3901 7.70566C10.3128 7.51739 10.199 7.34622 10.0552 7.20202C9.91137 7.05774 9.74045 6.94329 9.55231 6.86527C9.36412 6.78722 9.16226 6.74704 8.95837 6.74704L8.95455 6.74703ZM11.9148 8.30474C11.9144 8.89024 11.74 9.46265 11.4134 9.94936C11.0866 10.4366 10.622 10.8161 10.0786 11.0398C9.5351 11.2635 8.93731 11.3211 8.36103 11.2055C7.78477 11.0899 7.25579 10.8065 6.84122 10.3907C6.42671 9.97499 6.14532 9.44593 6.03263 8.87063C5.91993 8.29532 5.98099 7.69954 6.2081 7.15886C6.43516 6.61828 6.818 6.15683 7.3084 5.83333C7.7982 5.51021 8.37307 5.33929 8.96026 5.34207C9.34921 5.34232 9.73437 5.41908 10.0936 5.56807C10.4534 5.71731 10.78 5.93606 11.0547 6.2115C11.3294 6.48702 11.5468 6.81397 11.6944 7.17352C11.8417 7.53244 11.9167 7.9168 11.9148 8.30474Z" fill="#778797"/>
<path fill-rule="evenodd" clip-rule="evenodd" d="M18.1108 11.6732C19.0081 11.4551 19.9552 11.5913 20.7541 12.0532C20.7758 12.0657 20.7968 12.0793 20.817 12.0941C22.1543 13.0703 23.4107 14.1522 24.574 15.3294C24.8471 15.6058 24.8438 16.0506 24.5666 16.3228C24.2894 16.5951 23.8432 16.5918 23.5701 16.3154C22.4692 15.2014 21.281 14.1768 20.0167 13.2512C19.5387 12.9851 18.9772 12.9087 18.4446 13.0382C17.9007 13.1704 17.4288 13.5072 17.1277 13.9783C17.1165 13.9958 17.1046 14.0128 17.0919 14.0293C16.8789 14.3052 16.6816 14.6098 16.475 14.941C16.4302 15.0129 16.3846 15.0866 16.3383 15.1615C16.1769 15.4224 16.0064 15.698 15.8284 15.9615C15.3672 16.6443 14.7912 17.3481 13.9322 17.8072C13.3974 18.0995 12.8791 18.2199 12.371 18.193C11.8708 18.1665 11.4325 17.9998 11.0524 17.801C10.7306 17.6326 10.417 17.422 10.1368 17.2339C10.0944 17.2054 10.0528 17.1774 10.012 17.1502C9.68517 16.932 9.3915 16.7456 9.08752 16.6106C8.62175 16.4036 8.14837 16.468 7.6297 16.7584C7.09384 17.0584 6.5757 17.5692 6.12802 18.1201C5.18351 19.2824 4.21484 20.4566 3.24652 21.6181C2.99778 21.9165 2.55352 21.9573 2.25425 21.7093C1.95497 21.4613 1.91401 21.0184 2.16276 20.72C3.12803 19.5622 4.09289 18.3927 5.03302 17.2357C5.52765 16.627 6.17826 15.9597 6.93964 15.5334C7.71822 15.0975 8.67057 14.8872 9.66111 15.3272C10.0853 15.5157 10.4662 15.7626 10.796 15.9827C10.8418 16.0132 10.8863 16.0431 10.9298 16.0723C11.2161 16.2642 11.4591 16.4271 11.7072 16.5569C11.9834 16.7013 12.2189 16.778 12.4458 16.79C12.6636 16.8016 12.9242 16.7563 13.257 16.5739L13.2641 16.5701L13.2641 16.5701C13.8228 16.2723 14.2432 15.793 14.6595 15.1768C14.8201 14.9389 14.9706 14.6957 15.1293 14.4393C15.178 14.3606 15.2275 14.2806 15.2782 14.1992C15.4839 13.8694 15.706 13.5237 15.9566 13.1964C16.4536 12.4339 17.224 11.8888 18.1108 11.6732Z" fill="#200E32"/>
<path fill-rule="evenodd" clip-rule="evenodd" d="M18.1108 11.6732C19.0081 11.4551 19.9552 11.5913 20.7541 12.0532C20.7758 12.0657 20.7968 12.0793 20.817 12.0941C22.1543 13.0703 23.4107 14.1522 24.574 15.3294C24.8471 15.6058 24.8438 16.0506 24.5666 16.3228C24.2894 16.5951 23.8432 16.5918 23.5701 16.3154C22.4692 15.2014 21.281 14.1768 20.0167 13.2512C19.5387 12.9851 18.9772 12.9087 18.4446 13.0382C17.9007 13.1704 17.4288 13.5072 17.1277 13.9783C17.1165 13.9958 17.1046 14.0128 17.0919 14.0293C16.8789 14.3052 16.6816 14.6098 16.475 14.941C16.4302 15.0129 16.3846 15.0866 16.3383 15.1615C16.1769 15.4224 16.0064 15.698 15.8284 15.9615C15.3672 16.6443 14.7912 17.3481 13.9322 17.8072C13.3974 18.0995 12.8791 18.2199 12.371 18.193C11.8708 18.1665 11.4325 17.9998 11.0524 17.801C10.7306 17.6326 10.417 17.422 10.1368 17.2339C10.0944 17.2054 10.0528 17.1774 10.012 17.1502C9.68517 16.932 9.3915 16.7456 9.08752 16.6106C8.62175 16.4036 8.14837 16.468 7.6297 16.7584C7.09384 17.0584 6.5757 17.5692 6.12802 18.1201C5.18351 19.2824 4.21484 20.4566 3.24652 21.6181C2.99778 21.9165 2.55352 21.9573 2.25425 21.7093C1.95497 21.4613 1.91401 21.0184 2.16276 20.72C3.12803 19.5622 4.09289 18.3927 5.03302 17.2357C5.52765 16.627 6.17826 15.9597 6.93964 15.5334C7.71822 15.0975 8.67057 14.8872 9.66111 15.3272C10.0853 15.5157 10.4662 15.7626 10.796 15.9827C10.8418 16.0132 10.8863 16.0431 10.9298 16.0723C11.2161 16.2642 11.4591 16.4271 11.7072 16.5569C11.9834 16.7013 12.2189 16.778 12.4458 16.79C12.6636 16.8016 12.9242 16.7563 13.257 16.5739L13.2641 16.5701L13.2641 16.5701C13.8228 16.2723 14.2432 15.793 14.6595 15.1768C14.8201 14.9389 14.9706 14.6957 15.1293 14.4393C15.178 14.3606 15.2275 14.2806 15.2782 14.1992C15.4839 13.8694 15.706 13.5237 15.9566 13.1964C16.4536 12.4339 17.224 11.8888 18.1108 11.6732Z" fill="#778797"/>
<rect x="0.375" y="11.375" width="0.75" height="6.25" rx="0.375" stroke="#778797" stroke-width="0.75"/>
<path fill-rule="evenodd" clip-rule="evenodd" d="M7 1.5H18C21.0376 1.5 23.5 3.96243 23.5 7V17C23.5 20.0376 21.0376 22.5 18 22.5H7C3.96243 22.5 1.5 20.0376 1.5 17H0C0 20.866 3.13401 24 7 24H18C21.866 24 25 20.866 25 17V7C25 3.13401 21.866 0 18 0H7C3.82898 0 1.15043 2.10851 0.289879 5H1.87494C2.67501 2.95132 4.66802 1.5 7 1.5Z" fill="#778797"/>
</svg>
