<svg width="31" height="22" viewBox="0 0 31 22" fill="none" xmlns="http://www.w3.org/2000/svg">
<path d="M20.6635 16.5618C20.6635 16.5662 20.6636 16.5705 20.6637 16.5748C20.6638 16.5815 20.664 16.5882 20.6643 16.5948C20.69 17.1784 20.5996 17.7613 20.3982 18.3104C20.1969 18.8594 19.8884 19.3639 19.4903 19.7949C19.0921 20.2259 18.6121 20.575 18.0775 20.8218C17.5429 21.0687 16.9644 21.2084 16.375 21.233C16.3666 21.2333 16.3582 21.2338 16.3498 21.2344C16.1744 21.2477 15.9982 21.2477 15.8228 21.2344C15.804 21.233 15.7852 21.2323 15.7663 21.2323H5.8157C5.79513 21.2323 5.77456 21.2332 5.75406 21.2348C5.1677 21.2832 4.57754 21.2156 4.01772 21.0361C3.45791 20.8565 2.93972 20.5687 2.49307 20.1893L2.00758 20.761L2.49307 20.1893C2.04641 19.81 1.68013 19.3468 1.4151 18.8265L0.746816 19.167L1.4151 18.8265C1.15007 18.3063 0.991502 17.7392 0.948401 17.1581C0.935157 16.9779 0.935168 16.7971 0.948431 16.6169C0.94978 16.5986 0.950455 16.5802 0.950455 16.5618V5.43473C0.950455 5.42373 0.950213 5.41274 0.94973 5.40175C0.924045 4.81817 1.01443 4.23513 1.21578 3.6861C1.41714 3.13705 1.7256 2.63255 2.12374 2.20156C2.52188 1.77056 3.00193 1.42152 3.53653 1.17467C4.06658 0.929907 4.63982 0.790442 5.22398 0.76418H15.7823C15.8006 0.76418 15.8189 0.76351 15.8371 0.762173C17.0231 0.675248 18.195 1.0565 19.0988 1.82189C19.9945 2.58041 20.5552 3.65529 20.6635 4.81651V4.81685V4.81806V4.81927V4.82048V4.82169V4.8229V4.82411V4.82532V4.82653V4.82775V4.82896V4.83017V4.83138V4.83259V4.8338V4.83501V4.83622V4.83743V4.83864V4.83985V4.84106V4.84228V4.84349V4.8447V4.84591V4.84712V4.84833V4.84954V4.85075V4.85196V4.85317V4.85438V4.85559V4.85681V4.85802V4.85923V4.86044V4.86165V4.86286V4.86407V4.86528V4.86649V4.8677V4.86891V4.87012V4.87134V4.87255V4.87376V4.87497V4.87618V4.87739V4.8786V4.87981V4.88102V4.88223V4.88344V4.88465V4.88587V4.88708V4.88829V4.8895V4.89071V4.89192V4.89313V4.89434V4.89555V4.89676V4.89797V4.89919V4.9004V4.90161V4.90282V4.90403V4.90524V4.90645V4.90766V4.90887V4.91008V4.91129V4.91251V4.91372V4.91493V4.91614V4.91735V4.91856V4.91977V4.92098V4.92219V4.9234V4.92461V4.92582V4.92704V4.92825V4.92946V4.93067V4.93188V4.93309V4.9343V4.93551V4.93672V4.93793V4.93914V4.94035V4.94157V4.94278V4.94399V4.9452V4.94641V4.94762V4.94883V4.95004V4.95125V4.95246V4.95367V4.95489V4.9561V4.95731V4.95852V4.95973V4.96094V4.96215V4.96336V4.96457V4.96578V4.96699V4.9682V4.96942V4.97063V4.97184V4.97305V4.97426V4.97547V4.97668V4.97789V4.9791V4.98031V4.98152V4.98274V4.98395V4.98516V4.98637V4.98758V4.98879V4.99V4.99121V4.99242V4.99363V4.99484V4.99606V4.99727V4.99848V4.99969V5.0009V5.00211V5.00332V5.00453V5.00574V5.00695V5.00816V5.00938V5.01059V5.0118V5.01301V5.01422V5.01543V5.01664V5.01785V5.01906V5.02027V5.02148V5.02269V5.02391V5.02512V5.02633V5.02754V5.02875V5.02996V5.03117V5.03238V5.03359V5.0348V5.03601V5.03723V5.03844V5.03965V5.04086V5.04207V5.04328V5.04449V5.0457V5.04691V5.04812V5.04933V5.05055V5.05176V5.05297V5.05418V5.05539V5.0566V5.05781V5.05902V5.06023V5.06144V5.06265V5.06386V5.06508V5.06629V5.0675V5.06871V5.06992V5.07113V5.07234V5.07355V5.07476V5.07597V5.07718V5.0784V5.07961V5.08082V5.08203V5.08324V5.08445V5.08566V5.08687V5.08808V5.08929V5.0905V5.09172V5.09293V5.09414V5.09535V5.09656V5.09777V5.09898V5.10019V5.1014V5.10261V5.10382V5.10503V5.10625V5.10746V5.10867V5.10988V5.11109V5.1123V5.11351V5.11472V5.11593V5.11714V5.11835V5.11957V5.12078V5.12199V5.1232V5.12441V5.12562V5.12683V5.12804V5.12925V5.13046V5.13167V5.13289V5.1341V5.13531V5.13652V5.13773V5.13894V5.14015V5.14136V5.14257V5.14378V5.14499V5.1462V5.14742V5.14863V5.14984V5.15105V5.15226V5.15347V5.15468V5.15589V5.1571V5.15831V5.15952V5.16074V5.16195V5.16316V5.16437V5.16558V5.16679V5.168V5.16921V5.17042V5.17163V5.17284V5.17406V5.17527V5.17648V5.17769V5.1789V5.18011V5.18132V5.18253V5.18374V5.18495V5.18616V5.18738V5.18859V5.1898V5.19101V5.19222V5.19343V5.19464V5.19585V5.19706V5.19827V5.19948V5.20069V5.20191V5.20312V5.20433V5.20554V5.20675V5.20796V5.20917V5.21038V5.21159V5.2128V5.21401V5.21523V5.21644V5.21765V5.21886V5.22007V5.22128V5.22249V5.2237V5.22491V5.22612V5.22733V5.22854V5.22976V5.23097V5.23218V5.23339V5.2346V5.23581V5.23702V5.23823V5.23944V5.24065V5.24186V5.24308V5.24429V5.2455V5.24671V5.24792V5.24913V5.25034V5.25155V5.25276V5.25397V5.25518V5.25639V5.25761V5.25882V5.26003V5.26124V5.26245V5.26366V5.26487V5.26608V5.26729V5.2685V5.26971V5.27093V5.27214V5.27335V5.27456V5.27577V5.27698V5.27819V5.2794V5.28061V5.28182V5.28303V5.28425V5.28546V5.28667V5.28788V5.28909V5.2903V5.29151V5.29272V5.29393V5.29514V5.29635V5.29756V5.29878V5.29999V5.3012V5.30241V5.30362V5.30483V5.30604V5.30725V5.30846V5.30967V5.31088V5.31209V5.31331V5.31452V5.31573V5.31694V5.31815V5.31936V5.32057V5.32178V5.32299V5.3242V5.32541V5.32662V5.32784V5.32905V5.33026V5.33147V5.33268V5.33389V5.3351V5.33631V5.33752V5.33873V5.33994V5.34116V5.34237V5.34358V5.34479V5.346V5.34721V5.34842V5.34963V5.35084V5.35205V5.35326V5.35447V5.35569V5.3569V5.35811V5.35932V5.36053V5.36174V5.36295V5.36416V5.36537V5.36658V5.36779V5.369V5.37021V5.37143V5.37264V5.37385V5.37506V5.37627V5.37748V5.37869V5.3799V5.38111V5.38232V5.38353V5.38475V5.38596V5.38717V5.38838V5.38959V5.3908V5.39201V5.39322V5.39443V5.39564V5.39685V5.39806V5.39927V5.40049V5.4017V5.40291V16.5618Z" stroke="#778797" stroke-width="1.5" stroke-linecap="round" stroke-linejoin="round"/>
<mask id="path-2-inside-1" fill="white">
<path d="M21.4131 9.66302L27.9722 4.33794C28.2978 4.07257 28.7155 3.94542 29.1347 3.98411C29.554 4.02279 29.9411 4.2242 30.2119 4.5446C30.4504 4.83058 30.5805 5.19045 30.5798 5.56186V16.4823C30.5808 16.7831 30.496 17.0781 30.335 17.3329C30.1741 17.5877 29.9437 17.7918 29.6706 17.9216C29.3975 18.0515 29.0929 18.1017 28.7923 18.0664C28.4917 18.0311 28.2073 17.9118 27.9722 17.7222L21.4131 12.3972"/>
</mask>
<path d="M22.1631 9.66302C22.1631 9.24881 21.8273 8.91302 21.4131 8.91302C20.9989 8.91302 20.6631 9.24881 20.6631 9.66302H22.1631ZM20.6631 12.3972C20.6631 12.8114 20.9989 13.1472 21.4131 13.1472C21.8273 13.1472 22.1631 12.8114 22.1631 12.3972H20.6631ZM20.6631 9.66302V12.3972H22.1631V9.66302H20.6631ZM20.4676 8.49849C19.8245 9.02064 19.7264 9.96531 20.2486 10.6085C20.7707 11.2516 21.7154 11.3497 22.3585 10.8276L20.4676 8.49849ZM27.9722 4.33794L28.9176 5.50248L28.9199 5.50062L27.9722 4.33794ZM30.2119 4.5446L31.3639 3.58388L31.3575 3.57629L30.2119 4.5446ZM30.5798 5.56186L29.0798 5.55891V5.56186H30.5798ZM30.5798 16.4823H29.0798L29.0798 16.4875L30.5798 16.4823ZM27.9722 17.7222L27.0268 18.8868L27.0308 18.8901L27.9722 17.7222ZM22.3585 11.2326C21.7154 10.7105 20.7707 10.8086 20.2486 11.4517C19.7264 12.0949 19.8245 13.0395 20.4676 13.5617L22.3585 11.2326ZM22.3585 10.8276L28.9176 5.50248L27.0268 3.17341L20.4676 8.49849L22.3585 10.8276ZM28.9199 5.50062C28.9401 5.48414 28.9678 5.47508 28.9969 5.47776L29.2725 2.49045C28.4631 2.41576 27.6554 2.66101 27.0245 3.17527L28.9199 5.50062ZM28.9969 5.47776C29.026 5.48044 29.0505 5.49425 29.0663 5.51291L31.3575 3.57629C30.8316 2.95415 30.0821 2.56514 29.2725 2.49045L28.9969 5.47776ZM29.0599 5.50529C29.0735 5.52163 29.0798 5.5406 29.0798 5.55891L32.0798 5.56481C32.0812 4.8403 31.8272 4.13954 31.3639 3.5839L29.0599 5.50529ZM29.0798 5.56186V16.4823H32.0798V5.56186H29.0798ZM29.0798 16.4875C29.0799 16.5025 29.0756 16.5179 29.0669 16.5318L31.6032 18.134C31.9163 17.6384 32.0818 17.0638 32.0798 16.4772L29.0798 16.4875ZM29.0669 16.5318C29.058 16.5458 29.0445 16.5584 29.0265 16.567L30.3147 19.2763C30.8429 19.0251 31.2901 18.6296 31.6032 18.134L29.0669 16.5318ZM29.0265 16.567C29.0085 16.5755 28.9878 16.579 28.9672 16.5766L28.6174 19.5561C29.1981 19.6243 29.7865 19.5274 30.3147 19.2763L29.0265 16.567ZM28.9672 16.5766C28.9466 16.5742 28.9281 16.5661 28.9136 16.5544L27.0308 18.8901C27.4866 19.2574 28.0368 19.488 28.6174 19.5561L28.9672 16.5766ZM28.9176 16.5577L22.3585 11.2326L20.4676 13.5617L27.0268 18.8868L28.9176 16.5577Z" fill="#778797" mask="url(#path-2-inside-1)"/>
</svg>
