<svg width="24" height="25" viewBox="0 0 24 25" fill="none" xmlns="http://www.w3.org/2000/svg">
<path fill-rule="evenodd" clip-rule="evenodd" d="M1.81045 2.21831C2.99674 0.948016 4.68949 0.227539 6.70123 0.227539H17.287C19.3154 0.227539 21.0134 0.947028 22.1984 2.2284C23.3776 3.50339 23.9946 5.27505 23.9882 7.29095V17.2262C23.9882 19.2162 23.359 20.9719 22.1778 22.2368C20.9915 23.5071 19.2987 24.2275 17.287 24.2275H6.70123C4.6763 24.2275 2.98301 23.5002 1.79992 22.2262C0.622439 20.9581 0 19.203 0 17.2262V7.22884C0 5.23888 0.629207 3.4832 1.81045 2.21831ZM2.84187 3.17568C1.94265 4.13858 1.40924 5.53231 1.40924 7.22884V17.2262C1.40924 18.9116 1.93718 20.3058 2.83405 21.2717C3.72529 22.2315 5.03031 22.8226 6.70123 22.8226H17.287C18.9466 22.8226 20.2522 22.2369 21.1463 21.2794C22.0456 20.3165 22.579 18.9228 22.579 17.2262V7.28978L22.579 7.2875C22.5846 5.55633 22.0574 4.14854 21.1624 3.18076C20.2731 2.21914 18.9666 1.63251 17.287 1.63251H6.70123C5.04159 1.63251 3.73604 2.21819 2.84187 3.17568Z" fill="#200E32"/>
<path fill-rule="evenodd" clip-rule="evenodd" d="M1.81045 2.21831C2.99674 0.948016 4.68949 0.227539 6.70123 0.227539H17.287C19.3154 0.227539 21.0134 0.947028 22.1984 2.2284C23.3776 3.50339 23.9946 5.27505 23.9882 7.29095V17.2262C23.9882 19.2162 23.359 20.9719 22.1778 22.2368C20.9915 23.5071 19.2987 24.2275 17.287 24.2275H6.70123C4.6763 24.2275 2.98301 23.5002 1.79992 22.2262C0.622439 20.9581 0 19.203 0 17.2262V7.22884C0 5.23888 0.629207 3.4832 1.81045 2.21831ZM2.84187 3.17568C1.94265 4.13858 1.40924 5.53231 1.40924 7.22884V17.2262C1.40924 18.9116 1.93718 20.3058 2.83405 21.2717C3.72529 22.2315 5.03031 22.8226 6.70123 22.8226H17.287C18.9466 22.8226 20.2522 22.2369 21.1463 21.2794C22.0456 20.3165 22.579 18.9228 22.579 17.2262V7.28978L22.579 7.2875C22.5846 5.55633 22.0574 4.14854 21.1624 3.18076C20.2731 2.21914 18.9666 1.63251 17.287 1.63251H6.70123C5.04159 1.63251 3.73604 2.21819 2.84187 3.17568Z" fill="#778797"/>
<path fill-rule="evenodd" clip-rule="evenodd" d="M8.17721 6.74703C7.86848 6.74537 7.56622 6.83514 7.30871 7.00502C7.05126 7.17485 6.85003 7.41727 6.73062 7.70155C6.61126 7.98573 6.57915 8.29891 6.63839 8.60133C6.69764 8.90376 6.84554 9.18178 7.0633 9.40017C7.281 9.6185 7.5588 9.7674 7.86156 9.82811C8.16429 9.88882 8.47819 9.85854 8.76351 9.74111C9.04888 9.62366 9.29292 9.42432 9.4647 9.16827C9.63646 8.91225 9.7282 8.61097 9.72821 8.3028L10.4328 8.30281L9.72822 8.29899C9.72933 8.0956 9.6901 7.894 9.61279 7.70566C9.5355 7.51739 9.42168 7.34622 9.27789 7.20202C9.13403 7.05774 8.9631 6.94329 8.77497 6.86527C8.58678 6.78722 8.38492 6.74704 8.18103 6.74704L8.17721 6.74703ZM11.1374 8.30474C11.1371 8.89024 10.9626 9.46265 10.6361 9.94936C10.3092 10.4366 9.8447 10.8161 9.30126 11.0398C8.75776 11.2635 8.15997 11.3211 7.58368 11.2055C7.00742 11.0899 6.47845 10.8065 6.06387 10.3907C5.64937 9.97499 5.36798 9.44593 5.25528 8.87063C5.14258 8.29532 5.20365 7.69954 5.43076 7.15886C5.65782 6.61828 6.04066 6.15683 6.53105 5.83333C7.02086 5.51021 7.59572 5.33929 8.18292 5.34207C8.57186 5.34232 8.95702 5.41908 9.31625 5.56807C9.67611 5.71731 10.0027 5.93606 10.2773 6.2115C10.5521 6.48702 10.7694 6.81397 10.917 7.17352C11.0644 7.53244 11.1393 7.9168 11.1374 8.30474Z" fill="#200E32"/>
<path fill-rule="evenodd" clip-rule="evenodd" d="M8.17721 6.74703C7.86848 6.74537 7.56622 6.83514 7.30871 7.00502C7.05126 7.17485 6.85003 7.41727 6.73062 7.70155C6.61126 7.98573 6.57915 8.29891 6.63839 8.60133C6.69764 8.90376 6.84554 9.18178 7.0633 9.40017C7.281 9.6185 7.5588 9.7674 7.86156 9.82811C8.16429 9.88882 8.47819 9.85854 8.76351 9.74111C9.04888 9.62366 9.29292 9.42432 9.4647 9.16827C9.63646 8.91225 9.7282 8.61097 9.72821 8.3028L10.4328 8.30281L9.72822 8.29899C9.72933 8.0956 9.6901 7.894 9.61279 7.70566C9.5355 7.51739 9.42168 7.34622 9.27789 7.20202C9.13403 7.05774 8.9631 6.94329 8.77497 6.86527C8.58678 6.78722 8.38492 6.74704 8.18103 6.74704L8.17721 6.74703ZM11.1374 8.30474C11.1371 8.89024 10.9626 9.46265 10.6361 9.94936C10.3092 10.4366 9.8447 10.8161 9.30126 11.0398C8.75776 11.2635 8.15997 11.3211 7.58368 11.2055C7.00742 11.0899 6.47845 10.8065 6.06387 10.3907C5.64937 9.97499 5.36798 9.44593 5.25528 8.87063C5.14258 8.29532 5.20365 7.69954 5.43076 7.15886C5.65782 6.61828 6.04066 6.15683 6.53105 5.83333C7.02086 5.51021 7.59572 5.33929 8.18292 5.34207C8.57186 5.34232 8.95702 5.41908 9.31625 5.56807C9.67611 5.71731 10.0027 5.93606 10.2773 6.2115C10.5521 6.48702 10.7694 6.81397 10.917 7.17352C11.0644 7.53244 11.1393 7.9168 11.1374 8.30474Z" fill="#778797"/>
<path fill-rule="evenodd" clip-rule="evenodd" d="M17.3345 11.6732C18.2317 11.4551 19.1788 11.5913 19.9778 12.0532C19.9994 12.0657 20.0204 12.0793 20.0406 12.0941C21.3779 13.0703 22.6343 14.1522 23.7976 15.3294C24.0708 15.6058 24.0674 16.0506 23.7902 16.3228C23.513 16.5951 23.0669 16.5918 22.7938 16.3154C21.6928 15.2014 20.5046 14.1768 19.2403 13.2512C18.7624 12.9851 18.2008 12.9087 17.6683 13.0382C17.1243 13.1704 16.6524 13.5072 16.3514 13.9783C16.3402 13.9958 16.3282 14.0128 16.3155 14.0293C16.1025 14.3052 15.9052 14.6098 15.6987 14.941C15.6539 15.0129 15.6083 15.0866 15.5619 15.1615C15.4005 15.4224 15.23 15.698 15.052 15.9615C14.5908 16.6443 14.0148 17.3481 13.1558 17.8072C12.621 18.0995 12.1027 18.2199 11.5946 18.193C11.0944 18.1665 10.6562 17.9998 10.276 17.801C9.95427 17.6326 9.64068 17.422 9.36046 17.2339C9.31806 17.2054 9.27643 17.1774 9.23565 17.1502C8.9088 16.932 8.61513 16.7456 8.31116 16.6106C7.84539 16.4036 7.372 16.468 6.85333 16.7584C6.31747 17.0584 5.79934 17.5692 5.35166 18.1201C4.40715 19.2824 3.43847 20.4566 2.47016 21.6181C2.22141 21.9165 1.77715 21.9573 1.47788 21.7093C1.17861 21.4613 1.13764 21.0184 1.38639 20.72C2.35167 19.5622 3.31652 18.3927 4.25665 17.2357C4.75129 16.627 5.4019 15.9597 6.16327 15.5334C6.94185 15.0975 7.8942 14.8872 8.88475 15.3272C9.30893 15.5157 9.68987 15.7626 10.0197 15.9827C10.0654 16.0132 10.1099 16.0431 10.1535 16.0723C10.4398 16.2642 10.6828 16.4271 10.9308 16.5569C11.207 16.7013 11.4426 16.778 11.6694 16.79C11.8872 16.8016 12.1479 16.7563 12.4807 16.5739L12.4878 16.5701L12.4878 16.5701C13.0464 16.2723 13.4669 15.793 13.8831 15.1768C14.0438 14.9389 14.1942 14.6957 14.3529 14.4393C14.4016 14.3606 14.4511 14.2806 14.5019 14.1992C14.7075 13.8694 14.9296 13.5237 15.1803 13.1964C15.6773 12.4339 16.4476 11.8888 17.3345 11.6732Z" fill="#200E32"/>
<path fill-rule="evenodd" clip-rule="evenodd" d="M17.3345 11.6732C18.2317 11.4551 19.1788 11.5913 19.9778 12.0532C19.9994 12.0657 20.0204 12.0793 20.0406 12.0941C21.3779 13.0703 22.6343 14.1522 23.7976 15.3294C24.0708 15.6058 24.0674 16.0506 23.7902 16.3228C23.513 16.5951 23.0669 16.5918 22.7938 16.3154C21.6928 15.2014 20.5046 14.1768 19.2403 13.2512C18.7624 12.9851 18.2008 12.9087 17.6683 13.0382C17.1243 13.1704 16.6524 13.5072 16.3514 13.9783C16.3402 13.9958 16.3282 14.0128 16.3155 14.0293C16.1025 14.3052 15.9052 14.6098 15.6987 14.941C15.6539 15.0129 15.6083 15.0866 15.5619 15.1615C15.4005 15.4224 15.23 15.698 15.052 15.9615C14.5908 16.6443 14.0148 17.3481 13.1558 17.8072C12.621 18.0995 12.1027 18.2199 11.5946 18.193C11.0944 18.1665 10.6562 17.9998 10.276 17.801C9.95427 17.6326 9.64068 17.422 9.36046 17.2339C9.31806 17.2054 9.27643 17.1774 9.23565 17.1502C8.9088 16.932 8.61513 16.7456 8.31116 16.6106C7.84539 16.4036 7.372 16.468 6.85333 16.7584C6.31747 17.0584 5.79934 17.5692 5.35166 18.1201C4.40715 19.2824 3.43847 20.4566 2.47016 21.6181C2.22141 21.9165 1.77715 21.9573 1.47788 21.7093C1.17861 21.4613 1.13764 21.0184 1.38639 20.72C2.35167 19.5622 3.31652 18.3927 4.25665 17.2357C4.75129 16.627 5.4019 15.9597 6.16327 15.5334C6.94185 15.0975 7.8942 14.8872 8.88475 15.3272C9.30893 15.5157 9.68987 15.7626 10.0197 15.9827C10.0654 16.0132 10.1099 16.0431 10.1535 16.0723C10.4398 16.2642 10.6828 16.4271 10.9308 16.5569C11.207 16.7013 11.4426 16.778 11.6694 16.79C11.8872 16.8016 12.1479 16.7563 12.4807 16.5739L12.4878 16.5701L12.4878 16.5701C13.0464 16.2723 13.4669 15.793 13.8831 15.1768C14.0438 14.9389 14.1942 14.6957 14.3529 14.4393C14.4016 14.3606 14.4511 14.2806 14.5019 14.1992C14.7075 13.8694 14.9296 13.5237 15.1803 13.1964C15.6773 12.4339 16.4476 11.8888 17.3345 11.6732Z" fill="#778797"/>
</svg>
