<svg width="16" height="16" viewBox="0 0 16 16" fill="none" xmlns="http://www.w3.org/2000/svg">
<path d="M15.4142 5.00045H8.0012C6.34442 4.99883 5.00001 6.34058 4.99835 7.99736C4.99785 8.51196 5.12972 9.01803 5.38131 9.46692L1.6748 3.10719C4.37447 -0.386888 9.39551 -1.03086 12.8896 1.66881C14.0117 2.5358 14.883 3.68566 15.4142 5.00045Z" fill="#F44336"/>
<path d="M15.9996 8.00037C15.996 12.4169 12.4165 15.9963 7.99996 16C7.66547 16.0013 7.33133 15.979 7 15.9334L10.5999 9.5003C11.4249 8.06399 10.9331 6.23091 9.4999 5.40047C9.04614 5.13777 8.53094 4.99974 8.00662 5.00049H15.413C15.8023 5.95264 16.0016 6.97172 15.9996 8.00037Z" fill="#FFC107"/>
<path d="M10.6002 9.50025L7.00034 15.9333H6.99369C2.61299 15.3799 -0.489564 11.3799 0.0639133 6.9992C0.243062 5.58129 0.799008 4.23732 1.67391 3.10718L5.38041 9.46691L5.40041 9.50025C6.22697 10.9361 8.06102 11.4301 9.49689 10.6036C9.95556 10.3395 10.3362 9.95889 10.6002 9.50025Z" fill="#4CAF50"/>
<path d="M10.5994 9.50033C9.77281 10.9362 7.93876 11.4301 6.50288 10.6036C6.04424 10.3396 5.6636 9.95896 5.39958 9.50033L5.37958 9.46698C4.56958 8.0217 5.08462 6.19344 6.52991 5.38344C6.97883 5.13186 7.4849 4.99999 7.99948 5.00049H8.00613C8.53046 4.99974 9.04565 5.13777 9.49942 5.40047C10.9326 6.23094 11.4244 8.06401 10.5994 9.50033Z" fill="#F44336"/>
<path d="M10.5994 9.50033C9.77281 10.9362 7.93876 11.4301 6.50288 10.6036C6.04424 10.3396 5.6636 9.95896 5.39958 9.50033L5.37958 9.46698C4.56958 8.0217 5.08462 6.19344 6.52991 5.38344C6.97883 5.13186 7.4849 4.99999 7.99948 5.00049H8.00613C8.53046 4.99974 9.04565 5.13777 9.49942 5.40047C10.9326 6.23094 11.4244 8.06401 10.5994 9.50033Z" fill="#2196F3"/>
<path d="M7.9884 11.3335C7.40724 11.3334 6.83633 11.1803 6.33313 10.8895C5.82574 10.5961 5.40435 10.1744 5.11118 9.66691C4.19075 8.07266 4.73698 6.03412 6.33122 5.11369C6.83848 4.82083 7.41399 4.6668 7.99975 4.66712C9.84061 4.66568 11.3341 6.15687 11.3355 7.99773C11.336 8.5837 11.1819 9.15943 10.8889 9.66691C10.2882 10.6997 9.18317 11.3346 7.9884 11.3335ZM8.00571 5.33374C7.0491 5.32865 6.16345 5.83779 5.68647 6.66703C4.95012 7.94385 5.38826 9.57588 6.66508 10.3122C7.9419 11.0486 9.57393 10.6104 10.3103 9.33361C11.0466 8.05822 10.6096 6.42739 9.33425 5.69101C8.93046 5.4579 8.4726 5.33471 8.00637 5.33377H8.00571V5.33374Z" fill="#FAFAFA"/>
</svg>
