<svg width="20" height="16" viewBox="0 0 20 16" fill="none" xmlns="http://www.w3.org/2000/svg">
<path d="M10.0019 0.300234C4.97294 -1.12894 0 2.73004 0 7.99989C0 13.2798 4.982 17.1261 10.0019 15.6995C15.0379 17.1319 20 13.2591 20 7.99989C20 2.73478 15.0317 -1.13033 10.0019 0.300234ZM1.17647 7.99989C1.17647 4.21324 4.24078 1.13916 7.98635 1.20039C5.74478 2.61121 4.24851 5.13135 4.24851 7.99989C4.24851 10.8684 5.74478 13.3886 7.98635 14.7994C4.24086 14.8606 1.17647 11.7866 1.17647 7.99989ZM12.1243 14.8005C8.43027 14.8005 5.42502 11.7497 5.42502 7.99989C5.42502 4.25006 8.43027 1.19932 12.1243 1.19932C15.8183 1.19932 18.8235 4.25006 18.8235 7.99989C18.8235 11.7497 15.8183 14.8005 12.1243 14.8005Z" fill="white"/>
<path d="M12.9576 7.40277H11.2899C10.7885 7.40277 10.3805 6.98868 10.3805 6.47964C10.3805 5.9689 10.7878 5.55648 11.2897 5.55648C11.2935 5.55652 11.2972 5.55648 11.301 5.55652H12.899C13.2354 5.55966 13.567 5.71165 13.809 5.97371C14.0311 6.21436 14.4034 6.22666 14.6404 6.00106C14.8774 5.77555 14.8896 5.39768 14.6674 5.15704C14.111 4.55437 13.4708 4.36225 12.7121 4.36225V3.64681C12.7121 3.31703 12.4487 3.04968 12.1238 3.04968C11.799 3.04968 11.5356 3.31703 11.5356 3.64681V4.36225C9.97379 4.36225 9.2041 5.39362 9.2041 6.47964C9.2041 7.6472 10.1398 8.59703 11.29 8.59703H12.9577C13.4591 8.59703 13.867 9.01113 13.867 9.52016C13.867 10.0309 13.4598 10.4433 12.9578 10.4433C12.9541 10.4433 12.9504 10.4433 12.9466 10.4433H11.2031C10.9609 10.441 10.7159 10.3574 10.4946 10.2015C10.2276 10.0135 9.86112 10.0808 9.67594 10.3517C9.49077 10.6227 9.557 10.9947 9.82391 11.1827C10.5431 11.6893 11.1573 11.6375 11.5355 11.6375V12.353C11.5355 12.6828 11.7989 12.9501 12.1237 12.9501C12.4486 12.9501 12.712 12.6828 12.712 12.353V11.6375C14.2924 11.6375 15.0435 10.5865 15.0435 9.52016C15.0435 8.35261 14.1078 7.40277 12.9576 7.40277Z" fill="white"/>
</svg>
