<svg width="12" height="12" viewBox="0 0 12 12" fill="none" xmlns="http://www.w3.org/2000/svg">
<path d="M6 2.48664e-05C4.4087 2.48664e-05 2.88259 0.632776 1.75737 1.75912C0.632155 2.88547 0 4.41314 0 6.00603C0.015275 7.05903 0.293731 8.09144 0.809985 9.00904C0.856302 9.09049 0.884097 9.18115 0.891357 9.27458C0.898618 9.36802 0.885168 9.46192 0.85199 9.54955L0.45 10.8949C0.41932 10.9889 0.426626 11.0912 0.470361 11.1799C0.514097 11.2686 0.590796 11.3366 0.684009 11.3694C0.766832 11.4025 0.859181 11.4025 0.942004 11.3694L2.142 11.009C2.29755 10.9729 2.45936 10.9737 2.61456 11.0112C2.76976 11.0488 2.91407 11.1221 3.036 11.2253C3.83462 11.6804 4.72705 11.9459 5.64441 12.0012C6.56177 12.0565 7.47954 11.9 8.32694 11.544C9.17434 11.188 9.92871 10.6419 10.5319 9.94777C11.135 9.25368 11.5708 8.43018 11.8057 7.54078C12.0405 6.65139 12.0681 5.71986 11.8863 4.8181C11.7046 3.91634 11.3183 3.06843 10.7573 2.33978C10.1963 1.61112 9.47558 1.02118 8.65074 0.615509C7.82591 0.209834 6.91902 -0.000721669 6 2.48664e-05Z" fill="#DA02FD"/>
<path d="M7.98608 6.012C7.98608 5.85995 8.03111 5.71132 8.1155 5.5849C8.19989 5.45848 8.31985 5.35994 8.46018 5.30176C8.60051 5.24357 8.75494 5.22836 8.90392 5.25802C9.0529 5.28769 9.18975 5.36089 9.29716 5.4684C9.40456 5.57592 9.47769 5.71291 9.50732 5.86203C9.53696 6.01116 9.52176 6.16574 9.46363 6.30622C9.40551 6.44669 9.30707 6.56676 9.18077 6.65124C9.05448 6.73571 8.906 6.78079 8.7541 6.78079C8.65353 6.78158 8.55376 6.76242 8.46062 6.72444C8.36748 6.68647 8.28277 6.63043 8.21138 6.55952C8.13998 6.48861 8.08331 6.40425 8.04464 6.31131C8.00597 6.21837 7.98608 6.11869 7.98608 6.01801V6.012ZM5.22009 6.012C5.22128 5.86021 5.26734 5.71218 5.35244 5.58655C5.43755 5.46092 5.55789 5.36331 5.69833 5.30605C5.83876 5.24878 5.99297 5.23443 6.14155 5.26477C6.29013 5.29511 6.42641 5.36879 6.53322 5.47654C6.64002 5.58429 6.71258 5.72128 6.74174 5.87024C6.77089 6.0192 6.75532 6.17346 6.69702 6.31358C6.63872 6.45371 6.54029 6.57344 6.41412 6.65765C6.28796 6.74186 6.13971 6.78679 5.98807 6.7868C5.88648 6.78761 5.78578 6.76808 5.69185 6.72936C5.59791 6.69063 5.51262 6.6335 5.44106 6.56132C5.36951 6.48913 5.31312 6.40333 5.27517 6.309C5.23722 6.21467 5.21849 6.11368 5.22009 6.012ZM2.4541 6.012C2.4541 5.85995 2.49913 5.71132 2.58352 5.5849C2.66791 5.45848 2.78786 5.35994 2.9282 5.30176C3.06853 5.24357 3.22292 5.22836 3.3719 5.25802C3.52088 5.28769 3.65773 5.36089 3.76514 5.4684C3.87254 5.57592 3.94571 5.71291 3.97534 5.86203C4.00498 6.01116 3.98974 6.16574 3.93162 6.30622C3.87349 6.44669 3.77505 6.56676 3.64875 6.65124C3.52246 6.73571 3.37398 6.78079 3.22208 6.78079C3.0184 6.78079 2.82306 6.69981 2.67903 6.55563C2.535 6.41146 2.4541 6.21589 2.4541 6.012Z" fill="white"/>
</svg>
