<svg width="26" height="32" viewBox="0 0 26 32" fill="none" xmlns="http://www.w3.org/2000/svg">
<path fill-rule="evenodd" clip-rule="evenodd" d="M11.704 1.49761C8.30979 1.49761 5.55257 4.25284 5.55257 7.65863C5.55257 11.0644 8.30979 13.8196 11.704 13.8196C15.0981 13.8196 17.8554 11.0644 17.8554 7.65863C17.8554 4.25284 15.0981 1.49761 11.704 1.49761ZM4.0498 7.65863C4.0498 3.43203 7.47354 0 11.704 0C15.9344 0 19.3581 3.43203 19.3581 7.65863C19.3581 11.8852 15.9344 15.3173 11.704 15.3173C7.47354 15.3173 4.0498 11.8852 4.0498 7.65863Z" fill="#200E32"/>
<path fill-rule="evenodd" clip-rule="evenodd" d="M14.7418 20.6918C12.6773 20.5079 10.6006 20.5079 8.53613 20.6918L8.51826 20.6932C7.41796 20.7649 6.32409 20.9146 5.24495 21.1413C5.22263 21.146 5.20011 21.1496 5.17746 21.1523C4.48832 21.2328 3.82262 21.453 3.22094 21.7996C2.64085 22.1339 2.13197 22.5788 1.7232 23.1092C1.57645 23.4375 1.50318 23.7944 1.50899 24.155C1.50931 24.1745 1.50886 24.1941 1.50763 24.2136C1.48467 24.5806 1.54311 24.9477 1.67827 25.2887C2.07865 25.8314 2.58877 26.2836 3.17547 26.6156C3.78576 26.961 4.4642 27.168 5.16287 27.2223C5.20057 27.2253 5.23799 27.231 5.27481 27.2396C6.34032 27.4867 7.42446 27.6451 8.51604 27.713C8.54616 27.7149 8.57614 27.7186 8.60582 27.7241C8.94226 27.7861 9.28435 27.8111 9.62619 27.7988C9.6486 27.798 9.67104 27.7982 9.69343 27.7994C11.3778 27.8891 13.0663 27.8655 14.7475 27.7286L14.7581 27.7277L14.7581 27.7278C15.8567 27.6538 16.948 27.495 18.0223 27.253L18.0426 27.2487C18.7913 27.1016 19.5684 26.8963 20.2232 26.5758C20.8783 26.2551 21.3436 25.8525 21.5772 25.3442L21.5838 25.3302C21.7529 24.9814 21.8409 24.5985 21.8409 24.2104C21.8409 23.8223 21.7529 23.4395 21.5838 23.0907L21.5822 23.0873C21.3495 22.6013 20.88 22.1944 20.2166 21.8616C19.5579 21.5311 18.7777 21.309 18.036 21.1564L18.026 21.1543L18.026 21.1542C16.9508 20.9177 15.8591 20.7635 14.7606 20.6932L14.7418 20.6918ZM14.8663 19.1993C12.7188 19.0085 10.5587 19.0086 8.41123 19.1993C7.25386 19.2752 6.1032 19.4321 4.96779 19.669C4.0873 19.7766 3.23748 20.0603 2.46882 20.5031C1.69009 20.9518 1.01094 21.5543 0.472838 22.2741C0.443963 22.3127 0.418894 22.354 0.39798 22.3974C0.134717 22.944 0.000772055 23.5436 0.00606072 24.1497C-0.0280196 24.7672 0.08196 25.3844 0.327621 25.9524C0.348466 26.0006 0.374339 26.0465 0.404812 26.0893C0.939055 26.8397 1.63144 27.464 2.43338 27.9179C3.21849 28.3622 4.08979 28.6325 4.98815 28.7106C6.10306 28.9662 7.23677 29.1316 8.37825 29.205C8.79655 29.2788 9.22127 29.3095 9.64587 29.2966C11.3852 29.3878 13.1287 29.3628 14.8647 29.2216C16.0356 29.1425 17.1986 28.9734 18.3435 28.716C19.1377 28.5595 20.0603 28.3241 20.8858 27.92C21.7124 27.5153 22.5087 26.9081 22.9402 25.9749C23.2058 25.4245 23.3437 24.8214 23.3437 24.2104C23.3437 23.5975 23.2049 22.9924 22.9376 22.4405C22.5057 21.5398 21.7123 20.9353 20.8924 20.524C20.069 20.1109 19.1473 19.8562 18.345 19.6907C17.1996 19.439 16.0366 19.2747 14.8663 19.1993Z" fill="#200E32"/>
<mask id="path-3-outside-1" maskUnits="userSpaceOnUse" x="12.9014" y="18.8461" width="9" height="9" fill="black">
<rect fill="white" x="12.9014" y="18.8461" width="9" height="9"/>
<path fill-rule="evenodd" clip-rule="evenodd" d="M16.1079 21.0542C15.8319 20.7767 15.3844 20.7767 15.1084 21.0542C14.8324 21.3317 14.8324 21.7816 15.1084 22.0591L16.1885 23.145L15.1084 24.2309C14.8324 24.5083 14.8324 24.9583 15.1084 25.2357C15.3844 25.5132 15.8319 25.5132 16.1079 25.2357L17.188 24.1498L18.2747 25.2424C18.5508 25.5199 18.9983 25.5199 19.2743 25.2424C19.5503 24.9649 19.5503 24.515 19.2743 24.2375L18.1876 23.145L19.2677 22.0591C19.5437 21.7816 19.5437 21.3317 19.2677 21.0542C18.9917 20.7767 18.5442 20.7767 18.2681 21.0542L17.188 22.1401L16.1079 21.0542Z"/>
</mask>
<path fill-rule="evenodd" clip-rule="evenodd" d="M16.1079 21.0542C15.8319 20.7767 15.3844 20.7767 15.1084 21.0542C14.8324 21.3317 14.8324 21.7816 15.1084 22.0591L16.1885 23.145L15.1084 24.2309C14.8324 24.5083 14.8324 24.9583 15.1084 25.2357C15.3844 25.5132 15.8319 25.5132 16.1079 25.2357L17.188 24.1498L18.2747 25.2424C18.5508 25.5199 18.9983 25.5199 19.2743 25.2424C19.5503 24.9649 19.5503 24.515 19.2743 24.2375L18.1876 23.145L19.2677 22.0591C19.5437 21.7816 19.5437 21.3317 19.2677 21.0542C18.9917 20.7767 18.5442 20.7767 18.2681 21.0542L17.188 22.1401L16.1079 21.0542Z" fill="#200E32"/>
<path d="M15.1084 21.0542L16.5264 22.4646L16.5264 22.4646L15.1084 21.0542ZM16.1079 21.0542L14.6899 22.4646L14.6899 22.4646L16.1079 21.0542ZM15.1084 22.0591L16.5264 20.6486L15.1084 22.0591ZM16.1885 23.145L17.6065 24.5554C18.3825 23.7752 18.3825 22.5147 17.6065 21.7345L16.1885 23.145ZM15.1084 24.2309L13.6904 22.8204L13.6904 22.8204L15.1084 24.2309ZM15.1084 25.2357L13.6904 26.6462H13.6904L15.1084 25.2357ZM16.1079 25.2357L17.5259 26.6462L17.5259 26.6462L16.1079 25.2357ZM17.188 24.1498L18.606 22.7394C18.2306 22.362 17.7203 22.1498 17.188 22.1498C16.6557 22.1498 16.1454 22.362 15.77 22.7394L17.188 24.1498ZM18.2747 25.2424L19.6927 23.832V23.832L18.2747 25.2424ZM19.2743 24.2375L20.6922 22.8271V22.8271L19.2743 24.2375ZM18.1876 23.145L16.7696 21.7345C15.9935 22.5147 15.9935 23.7752 16.7696 24.5554L18.1876 23.145ZM19.2677 22.0591L20.6856 23.4695L19.2677 22.0591ZM19.2677 21.0542L20.6857 19.6438L20.6857 19.6438L19.2677 21.0542ZM18.2681 21.0542L19.6861 22.4646V22.4646L18.2681 21.0542ZM17.188 22.1401L15.77 23.5505C16.1454 23.9279 16.6557 24.1401 17.188 24.1401C17.7203 24.1401 18.2306 23.9279 18.606 23.5505L17.188 22.1401ZM16.5264 22.4646C16.0205 22.9732 15.1958 22.9732 14.6899 22.4646L17.5259 19.6437C16.468 18.5802 14.7483 18.5802 13.6904 19.6438L16.5264 22.4646ZM16.5264 20.6486C17.0264 21.1513 17.0264 21.9619 16.5264 22.4646L13.6904 19.6438C12.6384 20.7014 12.6384 22.4118 13.6904 23.4695L16.5264 20.6486ZM17.6065 21.7345L16.5264 20.6486L13.6904 23.4695L14.7705 24.5554L17.6065 21.7345ZM16.5264 25.6413L17.6065 24.5554L14.7705 21.7345L13.6904 22.8204L16.5264 25.6413ZM16.5264 23.8253C17.0264 24.328 17.0264 25.1386 16.5264 25.6413L13.6904 22.8204C12.6384 23.8781 12.6384 25.5885 13.6904 26.6462L16.5264 23.8253ZM14.6899 23.8253C15.1958 23.3167 16.0205 23.3167 16.5264 23.8253L13.6904 26.6462C14.7483 27.7098 16.468 27.7098 17.5259 26.6462L14.6899 23.8253ZM15.77 22.7394L14.6899 23.8253L17.5259 26.6462L18.606 25.5603L15.77 22.7394ZM19.6927 23.832L18.606 22.7394L15.77 25.5603L16.8568 26.6528L19.6927 23.832ZM17.8563 23.832C18.3622 23.3234 19.1868 23.3233 19.6927 23.832L16.8568 26.6528C17.9147 27.7164 19.6344 27.7164 20.6923 26.6528L17.8563 23.832ZM17.8563 25.6479C17.3563 25.1452 17.3563 24.3346 17.8563 23.832L20.6923 26.6528C21.7443 25.5951 21.7443 23.8847 20.6922 22.8271L17.8563 25.6479ZM16.7696 24.5554L17.8563 25.6479L20.6922 22.8271L19.6055 21.7345L16.7696 24.5554ZM17.8497 20.6486L16.7696 21.7345L19.6055 24.5554L20.6856 23.4695L17.8497 20.6486ZM17.8497 22.4646C17.3497 21.9619 17.3497 21.1513 17.8497 20.6486L20.6856 23.4695C21.7377 22.4118 21.7377 20.7014 20.6857 19.6438L17.8497 22.4646ZM19.6861 22.4646C19.1802 22.9732 18.3556 22.9732 17.8497 22.4646L20.6857 19.6438C19.6278 18.5802 17.9081 18.5802 16.8502 19.6437L19.6861 22.4646ZM18.606 23.5505L19.6861 22.4646L16.8502 19.6437L15.77 20.7296L18.606 23.5505ZM14.6899 22.4646L15.77 23.5505L18.606 20.7296L17.5259 19.6437L14.6899 22.4646Z" fill="#F6F6F6" mask="url(#path-3-outside-1)"/>
<path d="M14.3351 15.3032C12.9187 15.3032 11.6393 15.8223 10.7222 16.8078C9.81658 17.7807 9.38281 19.0787 9.38281 20.4425V25.8674C9.38281 27.2178 9.80948 28.513 10.7114 29.4877C11.6266 30.4767 12.9079 31 14.3351 31H20.0476C21.4639 31 22.7429 30.4809 23.6598 29.4971C24.5653 28.5255 24.9999 27.2292 24.9999 25.8674V20.4491C24.9999 19.0928 24.5792 17.792 23.6747 16.8131C22.7564 15.8193 21.4723 15.3032 20.0476 15.3032H14.3351ZM12.7964 20.4425C12.7964 19.7977 12.9953 19.381 13.2183 19.1413C13.4297 18.9142 13.7734 18.7243 14.3351 18.7243H20.0476C20.6273 18.7243 20.9664 18.9172 21.1701 19.1377C21.3876 19.373 21.5864 19.7903 21.5864 20.4491V25.8674C21.5864 26.5074 21.3883 26.9225 21.1652 27.1618C20.9536 27.3889 20.6095 27.5789 20.0476 27.5789H14.3351C13.7645 27.5789 13.4227 27.3865 13.2142 27.1613C12.9925 26.9217 12.7964 26.5056 12.7964 25.8674V20.4425Z" fill="#200E32" stroke="#F6F6F6" stroke-width="2" stroke-linecap="round" stroke-linejoin="round"/>
</svg>
