<svg width="156" height="108" viewBox="0 0 156 108" fill="none" xmlns="http://www.w3.org/2000/svg">
<g clip-path="url(#clip0_2382:13404)">
<g filter="url(#filter0_i_2382:13404)">
<path d="M106.977 11.9168C107.188 8.35946 107.401 4.8021 107.617 1.24474C107.644 0.814479 107.71 0.318908 108.08 0.0922513C108.261 0.0213743 108.455 -0.00850563 108.649 0.00478622C108.842 0.0180781 109.031 0.0742114 109.2 0.169089C115.538 2.70841 120.189 9.74629 120.744 16.5191" fill="url(#paint0_linear_2382:13404)"/>
</g>
<g opacity="0.3">
<path opacity="0.3" d="M109.13 3.78012C110.614 4.74832 111.854 6.04523 112.751 7.56939C113.648 9.09356 114.179 10.8037 114.302 12.5659C114.372 12.9917 114.281 13.4284 114.047 13.7914C113.927 13.9216 113.781 14.0254 113.618 14.0962C113.455 14.167 113.279 14.2032 113.102 14.2025C112.746 14.1986 112.392 14.1443 112.052 14.0411C111.199 13.8222 110.299 13.584 109.666 12.9693C109.088 12.3589 108.756 11.5571 108.736 10.7181C108.721 9.88625 108.806 9.05558 108.991 8.2441L110.072 10.0804L108.914 4.13355C108.895 4.08132 108.889 4.02579 108.894 3.97076C108.899 3.91573 108.917 3.8625 108.945 3.81469C109.01 3.73017 109.195 3.76091 109.184 3.86847" fill="white"/>
</g>
<g filter="url(#filter1_i_2382:13404)">
<path d="M70.2357 19.4924C66.9282 15.5839 65.0265 10.6882 64.832 5.58179L68.3637 7.23753L67.4798 6.16572C72.6335 6.59332 77.4157 9.00696 80.8076 12.8924" fill="url(#paint1_linear_2382:13404)"/>
</g>
<g opacity="0.3">
<path opacity="0.3" d="M72.1937 17.9404C70.8067 16.9371 69.6413 15.6612 68.7696 14.1916C67.8979 12.722 67.3384 11.09 67.1258 9.39659C67.0988 9.16609 67.1258 8.8626 67.342 8.78577C67.4226 8.77171 67.5053 8.77581 67.5842 8.79775C67.663 8.81969 67.7358 8.85891 67.7974 8.91254L74.1699 13.0577C73.8931 12.6622 73.7206 12.2038 73.6681 11.7246L76.37 13.6954C76.4726 13.7522 76.5629 13.8286 76.6358 13.9202C76.7086 14.0119 76.7626 14.1169 76.7945 14.2294C76.7959 14.3558 76.7669 14.4807 76.7098 14.5937C76.6527 14.7066 76.5693 14.8043 76.4664 14.8786C76.0164 15.283 75.4686 15.5643 74.8766 15.6949C74.2847 15.8255 73.6688 15.8011 73.0892 15.6239L74.2471 16.6266C73.9022 16.8483 73.5159 16.9983 73.1113 17.0676C72.7067 17.1369 72.2921 17.1241 71.8926 17.0299C71.8535 17.2194 71.8724 17.4161 71.9467 17.5949C72.0209 17.7736 72.1473 17.926 72.3095 18.0326" fill="white"/>
</g>
<g filter="url(#filter2_i_2382:13404)">
<path d="M142.216 53.0184C142.216 53.0184 147.157 58.1009 149.403 57.6783C149.403 57.6783 141.599 49.4149 138.318 41.7893C136.751 38.1832 134.884 34.7136 132.737 31.4168C134.215 28.8814 135.531 26.0117 136.133 23.1112C134.474 25.0267 132.582 26.73 130.502 28.1822C130.332 27.944 130.158 27.7097 129.981 27.4715C131.727 25.8994 132.89 23.7886 133.285 21.4785L125.484 21.1443C125.729 20.7944 125.949 20.4286 126.144 20.0494C122.312 16.7713 118.022 14.0654 113.407 12.0166C104.433 6.93408 84.4588 5.25529 74.7322 13.5187C66.0208 18.5742 63.6856 25.0436 56.8229 26.6455L52.7547 26.2037C52.7547 26.2037 51.1722 34.6553 56.3713 38.4317L52.5116 37.5404C52.5116 37.5404 53.2218 40.9057 57.0198 44.6167L54.6499 44.3286C54.6499 44.3286 55.6766 49.6224 58.9574 50.894C58.9574 50.894 53.8316 51.5317 52.3958 49.6224C52.3958 49.6224 50.6898 57.5361 58.4518 60.5211C58.4518 60.5211 35.1928 63.2333 41.7313 91.5731C43.2752 98.1922 52.4421 102.956 62.9986 105.257L139.036 104.961C143.668 103.455 149.195 88.1809 149.399 82.0381C149.604 75.8953 146.532 64.0285 146.532 64.0285L149.411 67.8433L142.216 53.0184Z" fill="url(#paint2_linear_2382:13404)"/>
</g>
<path d="M55.3106 64.8277C50.9452 64.5664 46.657 67.9432 45.9121 72.2344C48.7523 70.3593 51.9955 69.175 55.3801 68.7769C54.047 69.9971 53.118 71.5918 52.7161 73.3495C52.3143 75.1072 52.4586 76.9449 53.1299 78.6192C53.6926 77.1227 54.5547 75.7556 55.664 74.6006C56.7733 73.4457 58.1067 72.5269 59.5834 71.9001C58.5747 73.111 57.897 74.5605 57.6157 76.1083C57.3345 77.6562 57.4591 79.25 57.9777 80.7359" fill="#3099FE"/>
<path d="M57.9782 80.7435C57.9522 80.6933 57.9315 80.6405 57.9164 80.586C57.8817 80.4823 57.82 80.3286 57.7582 80.125C57.5883 79.5204 57.4822 78.8999 57.4417 78.2734C57.3824 77.283 57.4827 76.2895 57.7389 75.3307C58.0742 74.0623 58.6841 72.8822 59.526 71.8732L59.6147 71.9923C58.1524 72.621 56.8323 73.5366 55.7335 74.6844C54.6346 75.8322 53.7794 77.1888 53.2191 78.6729L53.1342 78.9034L53.0416 78.6767C52.575 77.5077 52.3591 76.2545 52.4076 74.9975C52.4561 73.7406 52.768 72.5076 53.3233 71.3776C53.8124 70.3797 54.4883 69.4839 55.315 68.7384L55.3922 68.9113C52.0237 69.3068 48.7941 70.4774 45.9589 72.3304L45.7891 72.4418L45.8277 72.242C45.9992 71.3148 46.3253 70.4228 46.7926 69.6028C47.2067 68.8598 47.7267 68.1805 48.3365 67.5859C49.3106 66.6046 50.4883 65.8468 51.7871 65.3655C52.6179 65.0559 53.4913 64.8745 54.377 64.8276C54.6858 64.8276 54.9213 64.8276 55.0757 64.8276H55.2571H55.315H55.2571H55.0757C54.9174 64.8276 54.6897 64.8276 54.3809 64.8276C53.5039 64.8946 52.6416 65.0901 51.8219 65.4077C50.5451 65.8966 49.3902 66.6555 48.4369 67.632C47.8429 68.2215 47.3372 68.893 46.9354 69.6258C46.4827 70.4331 46.1671 71.3093 46.0014 72.2189L45.8663 72.1306C48.7206 70.2555 51.9763 69.0714 55.3729 68.6731L55.6855 68.6385L55.4501 68.846C54.6486 69.5759 53.9937 70.4506 53.5202 71.4237C52.9738 72.5302 52.6661 73.7383 52.6169 74.9702C52.5677 76.2021 52.7781 77.4307 53.2346 78.5769H53.057C53.6683 76.968 54.6215 75.5094 55.8515 74.3011C56.9219 73.2469 58.1848 72.4059 59.5723 71.8233L59.8656 71.7003L59.6611 71.9423C58.8255 72.9323 58.2158 74.091 57.874 75.3383C57.613 76.2848 57.5023 77.266 57.5459 78.2465C57.576 78.8676 57.6691 79.4841 57.8238 80.0866C57.874 80.2941 57.928 80.4516 57.955 80.5553C57.969 80.6171 57.9767 80.6802 57.9782 80.7435Z" fill="url(#paint3_linear_2382:13404)"/>
<path d="M135.012 76.7483C137.368 76.2521 139.825 76.5791 141.967 77.6741C144.11 78.7691 145.808 80.5653 146.776 82.7605" fill="#3099FE"/>
<path d="M146.776 82.7604C146.738 82.7796 146.441 82.0305 145.688 80.9894C144.707 79.6321 143.416 78.5262 141.922 77.7628C140.427 76.9994 138.772 76.6003 137.092 76.5984C135.803 76.5984 135.016 76.7905 135.012 76.7482C135.188 76.6844 135.37 76.6394 135.556 76.6138C136.065 76.5183 136.582 76.4669 137.1 76.4601C138.81 76.4217 140.502 76.8084 142.024 77.5852C143.546 78.362 144.849 79.5043 145.815 80.9087C146.109 81.3298 146.367 81.7744 146.587 82.2379C146.67 82.4044 146.733 82.5796 146.776 82.7604Z" fill="url(#paint4_linear_2382:13404)"/>
<g opacity="0.3">
<path opacity="0.3" d="M108.201 83.1331C105.398 83.5787 101.832 85.6877 100.531 88.1887C100.253 88.7226 100.508 88.7956 100.531 89.3949C100.532 89.697 100.617 89.9929 100.778 90.2489C100.939 90.505 101.169 90.7109 101.442 90.8432C101.58 90.8991 101.729 90.9255 101.878 90.9206C102.027 90.9157 102.174 90.8797 102.308 90.8149C102.442 90.75 102.561 90.6578 102.658 90.5443C102.754 90.4307 102.825 90.2983 102.866 90.1556C102.532 92.2025 102.981 94.2999 104.125 96.0333C104.913 95.591 105.548 94.9213 105.946 94.1125C105.873 95.6133 106.109 97.1132 106.64 98.5198C107.171 99.9264 107.986 101.21 109.034 102.291L107.668 96.986C107.178 95.0652 106.703 93.4325 106.834 91.4617C106.973 89.3565 108.231 87.5817 109.208 85.8376C107.865 86.4177 106.309 89.0453 104.985 90.6473C104.906 89.2532 105.146 87.8593 105.687 86.571C106.228 85.2826 107.056 84.1333 108.108 83.2099" fill="black"/>
</g>
<path d="M107.676 97.0475C107.632 96.9761 107.596 96.9001 107.568 96.8209C107.51 96.6672 107.398 96.4367 107.305 96.1409C107.016 95.2786 106.841 94.3823 106.784 93.4748C106.693 92.0932 106.856 90.7065 107.267 89.3835C107.772 87.702 108.673 86.1649 109.895 84.9003L110.03 85.0386C108.902 86.045 107.831 87.1134 106.823 88.2387C106.171 88.9787 105.596 89.7817 105.105 90.6358L104.955 90.9009L104.92 90.6013C104.749 89.0169 105.039 87.417 105.754 85.9913C106.346 84.7831 107.226 83.7372 108.317 82.9449L108.39 83.0755C107.623 83.3597 106.92 83.7918 106.321 84.3471C105.87 84.764 105.48 85.2426 105.163 85.7685C104.963 86.1035 104.79 86.4543 104.646 86.8173C104.605 86.9481 104.556 87.0764 104.499 87.2014C104.495 87.1683 104.495 87.1347 104.499 87.1015C104.519 87.0324 104.542 86.9325 104.584 86.8057C104.711 86.4306 104.876 86.069 105.074 85.7262C105.387 85.184 105.777 84.6897 106.232 84.2587C106.838 83.6861 107.552 83.2383 108.332 82.941L108.849 82.7451L108.402 83.0717C107.349 83.8612 106.503 84.8917 105.935 86.0758C105.248 87.4717 104.971 89.0325 105.136 90.5782L104.951 90.5398C105.448 89.6745 106.03 88.86 106.688 88.1081C107.702 86.9768 108.781 85.9045 109.918 84.8964L110.054 85.0347C108.849 86.2753 107.955 87.7809 107.444 89.4296C107.03 90.7336 106.855 92.1013 106.927 93.4671C106.972 94.3672 107.126 95.2586 107.386 96.1217C107.471 96.4252 107.572 96.648 107.618 96.8055C107.642 96.8849 107.662 96.9657 107.676 97.0475Z" fill="url(#paint5_linear_2382:13404)"/>
<path d="M61.8789 96.6403C63.3949 98.3145 65.3899 99.4863 67.5952 99.9978C67.7151 100.046 67.8453 100.061 67.9732 100.044C68.1011 100.026 68.2222 99.9761 68.3247 99.898C68.5486 99.6521 68.3633 99.2641 68.178 98.9913L65.7271 95.3879C67.4718 96.7604 69.5409 97.6651 71.7367 98.0156C72.1034 98.0732 72.555 98.0732 72.7403 97.7582C72.7931 97.6196 72.8126 97.4706 72.7972 97.3232C72.7818 97.1757 72.7319 97.034 72.6515 96.9092C72.2655 96.0871 71.8795 95.2765 71.4241 94.4851" fill="#3099FE"/>
<path d="M71.4242 94.4697C71.4713 94.529 71.5115 94.5934 71.5438 94.6618L71.8526 95.2381C71.9915 95.4954 72.1498 95.8028 72.3351 96.1524C72.4328 96.3316 72.5332 96.5237 72.6361 96.7286C72.7646 96.944 72.8474 97.1832 72.8793 97.4316C72.89 97.5803 72.8461 97.7277 72.7558 97.8465C72.6566 97.9641 72.5207 98.0452 72.3698 98.077C72.0715 98.1224 71.767 98.1081 71.4743 98.0348C70.8365 97.9258 70.208 97.7678 69.5946 97.5622C68.1736 97.0902 66.8455 96.3766 65.6692 95.4532L65.8159 95.3187L66.2405 95.9449L67.6068 97.9579L68.2591 98.9145C68.3749 99.0785 68.4599 99.262 68.51 99.4562C68.5395 99.563 68.5341 99.6764 68.4945 99.78C68.455 99.8836 68.3834 99.972 68.29 100.032C68.1086 100.124 67.8999 100.146 67.7033 100.094C67.5219 100.063 67.3598 100.009 67.19 99.971C66.8542 99.8749 66.5338 99.775 66.2328 99.6598C65.6694 99.449 65.1246 99.192 64.6039 98.8914C63.8491 98.4596 63.1504 97.937 62.5235 97.3356C62.3035 97.1205 62.1376 96.9514 62.0372 96.8247C61.979 96.7649 61.9273 96.6992 61.8828 96.6287C61.9505 96.6769 62.0126 96.7323 62.0681 96.7939C62.18 96.9092 62.3498 97.0744 62.5776 97.278C63.218 97.8513 63.921 98.3513 64.6734 98.7685C65.1918 99.0571 65.7326 99.3038 66.2907 99.5061C66.5917 99.6175 66.9082 99.7136 67.2363 99.8058C67.5644 99.898 67.9311 100.025 68.1935 99.8787C68.2547 99.8379 68.3007 99.7782 68.3244 99.7088C68.3481 99.6393 68.3483 99.5641 68.3248 99.4946C68.2793 99.3254 68.202 99.1664 68.097 99.0259C67.8848 98.7147 67.6686 98.3959 67.4447 98.0732C67.0022 97.4201 66.5454 96.7491 66.0745 96.0602L65.6499 95.434L65.264 94.8961L65.7928 95.2957C67.4573 96.6063 69.4183 97.4925 71.5052 97.8773C71.7769 97.9494 72.0602 97.9676 72.3389 97.931C72.4566 97.9157 72.564 97.8563 72.6393 97.765C72.7146 97.6736 72.7521 97.5572 72.7442 97.4393C72.7175 97.2068 72.644 96.9821 72.528 96.7785C72.4277 96.5749 72.3312 96.3944 72.2424 96.1985L71.7908 95.2726L71.5129 94.681C71.4738 94.6149 71.444 94.5438 71.4242 94.4697Z" fill="url(#paint6_linear_2382:13404)"/>
<g opacity="0.3">
<path opacity="0.3" d="M71.4016 72.7374C72.2547 74.1702 73.5033 75.329 74.999 76.0758C74.9135 75.2866 74.5845 74.5431 74.0572 73.9475C75.686 75.4917 77.6157 76.6867 79.7272 77.4588C78.8281 77.8573 77.8468 78.0374 76.8641 77.9843C75.8814 77.9312 74.9254 77.6465 74.075 77.1535C73.2246 76.6605 72.5041 75.9734 71.9728 75.1488C71.4416 74.3242 71.1149 73.3858 71.0195 72.4109" fill="black"/>
</g>
<g opacity="0.3">
<path opacity="0.3" d="M61.0723 47.7017C64.1369 53.5679 74.0488 56.4645 81.8224 56.5913C84.2231 56.6259 87.612 58.393 89.9896 58.1625C95.3277 57.6516 99.6622 54.7895 105.012 54.3209C108.343 54.0404 111.693 53.9367 114.985 53.3797C118.278 52.8226 118.127 52.4346 120.744 50.364C123.361 48.2933 126.19 46.2419 126.148 42.915C121.231 48.908 116.371 50.7635 108.802 52.5191C101.233 54.2748 93.363 54.2364 85.6011 53.8791C77.0594 53.4949 68.0932 52.5576 61.0723 47.6979" fill="black"/>
</g>
<path d="M87.4424 2.70825C87.4771 2.70825 87.508 3.14236 87.6238 3.83001C87.7767 4.72495 88.0225 5.60169 88.3571 6.44616C88.6995 7.28903 89.1276 8.09484 89.6347 8.85103C89.8657 9.1522 90.0808 9.46507 90.2793 9.78839C90.2793 9.78839 90.1905 9.72308 90.0554 9.5771C89.8632 9.37335 89.684 9.1578 89.5189 8.9317C88.9698 8.18845 88.5172 7.37914 88.1719 6.523C87.8257 5.66035 87.5948 4.75627 87.4848 3.83385C87.4485 3.55735 87.4279 3.27903 87.4231 3.00021C87.4153 2.90248 87.4218 2.80414 87.4424 2.70825Z" fill="#3099FE"/>
<path d="M89.9645 1.75177C89.9992 1.75177 89.8449 2.13594 89.6943 2.77749C89.504 3.60583 89.4402 4.45802 89.5052 5.30529C89.5748 6.15127 89.774 6.9817 90.0957 7.76778C90.3427 8.37476 90.555 8.72435 90.5242 8.73971C90.4933 8.75508 90.4508 8.66672 90.3466 8.51306C90.2015 8.2934 90.0725 8.06358 89.9606 7.8254C89.2198 6.23383 89.0761 4.43086 89.5554 2.74292C89.6242 2.49035 89.7132 2.24369 89.8217 2.00532C89.9027 1.82092 89.9529 1.72872 89.9645 1.75177Z" fill="#3099FE"/>
<path d="M42.7246 65.5999C42.7705 65.5446 42.8223 65.4944 42.879 65.4501C42.9832 65.3579 43.1337 65.2119 43.346 65.0659C43.9391 64.5968 44.5661 64.1718 45.2219 63.7944C47.4004 62.5657 49.7713 61.7111 52.2351 61.2666C54.6916 60.8214 57.1802 60.5748 59.6767 60.529C60.6339 60.5059 61.4058 60.4982 61.9385 60.4982H62.5561C62.628 60.4921 62.7003 60.4921 62.7722 60.4982C62.7015 60.5157 62.6289 60.5247 62.5561 60.5251L61.9424 60.5558L59.6805 60.6519C57.1963 60.7308 54.7209 60.9875 52.2737 61.4202C49.8306 61.8643 47.4738 62.6916 45.2914 63.8712C44.6361 64.2382 44.0032 64.6435 43.3962 65.0851C42.9678 65.427 42.7362 65.6115 42.7246 65.5999Z" fill="#3099FE"/>
<path d="M98.0533 3.41899C98.0533 3.45357 97.3933 3.23459 96.3203 2.97336C95.6964 2.82063 95.056 2.74451 94.4135 2.74671C93.6329 2.75212 92.8685 2.96856 92.2019 3.3729C91.8634 3.58266 91.5686 3.85524 91.3335 4.1758C91.1221 4.47898 90.9738 4.8212 90.8973 5.1823C90.7869 5.8082 90.8146 6.45051 90.9784 7.06471C91.2447 8.125 91.5303 8.75503 91.4917 8.7704C91.404 8.6345 91.3328 8.48879 91.2794 8.33629C91.1043 7.93454 90.9573 7.52122 90.8394 7.09928C90.6511 6.46632 90.6089 5.79921 90.7159 5.14773C90.7916 4.75939 90.9466 4.39066 91.1713 4.06439C91.42 3.7198 91.7333 3.4263 92.0938 3.20002C92.792 2.77902 93.5934 2.55832 94.4097 2.56231C95.0625 2.5686 95.7115 2.66162 96.3396 2.83891C96.8761 2.98105 97.3006 3.12703 97.594 3.22307C97.7533 3.27286 97.9072 3.33849 98.0533 3.41899Z" fill="#3099FE"/>
<g filter="url(#filter3_i_2382:13404)">
<path d="M155.962 99.6906C155.545 96.9323 154.187 94.2163 151.867 92.6451C149.547 91.0738 146.209 90.8894 144.001 92.6143L134.838 104.946L154.345 105.027C155.434 104.024 156.182 101.15 155.962 99.6906Z" fill="url(#paint7_linear_2382:13404)"/>
</g>
<g opacity="0.3">
<path opacity="0.3" d="M142.989 104.769C144.637 104.085 145.853 102.614 146.601 101.001C147.35 99.3871 147.678 97.6199 148.006 95.872C148.276 94.4237 148.531 92.8601 147.898 91.5232C147.747 91.5151 147.596 91.5463 147.461 91.6136C147.326 91.681 147.21 91.7822 147.126 91.9074C146.957 92.1623 146.833 92.4443 146.76 92.741C145.25 97.4816 142.923 101.577 139.121 104.785" fill="black"/>
</g>
<g opacity="0.3">
<path opacity="0.3" d="M85.0465 8.44019C86.9764 13.976 87.2196 19.9651 87.0111 25.8006C86.9069 28.7125 86.6869 31.6552 85.7722 34.425C84.8574 37.1948 83.1784 39.8033 80.685 41.34C78.3305 42.7883 75.4203 43.1686 72.6721 42.8075C69.924 42.4464 67.3148 41.3976 64.8407 40.1606C62.0153 38.7469 59.2942 37.0566 57.1019 34.7823C54.9095 32.5081 53.1109 29.331 52.748 26.2078L56.8162 26.6495C56.8162 26.6495 59.9465 26.3192 64.8137 21.6324C70.1324 16.5153 71.1012 15.8891 75.0845 13.223C78.1737 11.1897 81.5247 9.5809 85.0465 8.44019Z" fill="white"/>
</g>
<g opacity="0.3">
<path opacity="0.3" d="M101.859 42.5615C102.628 42.1296 103.518 41.9601 104.394 42.0787C105.269 42.1973 106.081 42.5975 106.707 43.2184C107.326 42.4129 108.163 41.8004 109.121 41.4532C110.078 41.1061 111.116 41.0387 112.11 41.2591C110.904 41.7313 109.781 42.3913 108.783 43.2145C107.83 44.0866 107.143 45.339 107.262 46.6221C106.07 45.3435 104.698 44.2425 103.19 43.3528C102.565 42.9687 101.743 42.6575 101.156 43.0878" fill="black"/>
</g>
<path d="M115.151 85.8416C112.911 87.4423 111.259 89.73 110.45 92.3542C109.64 94.9784 109.718 97.7944 110.67 100.371" fill="#3099FE"/>
<path d="M110.672 100.37C110.64 100.324 110.615 100.274 110.598 100.221C110.56 100.117 110.494 99.9709 110.428 99.7712C110.24 99.2161 110.097 98.647 110 98.0693C109.663 96.1527 109.786 94.1839 110.36 92.3238C110.933 90.4637 111.941 88.765 113.3 87.3665C113.706 86.9471 114.147 86.5616 114.616 86.214C114.778 86.0872 114.917 85.9989 115.002 85.9374C115.087 85.876 115.145 85.8491 115.149 85.8567C114.993 86.005 114.83 86.1447 114.659 86.2755C114.214 86.6495 113.794 87.0511 113.4 87.4779C112.087 88.8818 111.11 90.5641 110.545 92.398C109.979 94.232 109.839 96.1698 110.135 98.0655C110.221 98.6386 110.343 99.2058 110.502 99.7635C110.572 99.9618 110.629 100.165 110.672 100.37Z" fill="url(#paint8_linear_2382:13404)"/>
<g filter="url(#filter4_i_2382:13404)">
<path d="M122.83 72.5416C124.409 71.3353 126.447 70.0676 128.234 70.9166C128.729 71.1867 129.153 71.5686 129.473 72.0316C129.793 72.4947 129.999 73.0259 130.075 73.5827C130.214 74.6974 130.143 75.8282 129.866 76.9172C128.57 83.2716 125.754 89.2213 121.657 94.2622C120.171 96.0908 118.055 97.9425 115.747 97.4392C113.594 96.9667 112.37 94.5157 112.497 92.3222C112.625 90.1286 113.736 88.1348 114.767 86.1756C117.214 81.5656 119.592 76.51 122.818 72.5262" fill="url(#paint9_linear_2382:13404)"/>
</g>
<path d="M122.83 72.5417C122.799 72.5922 122.766 72.6409 122.729 72.6877L122.421 73.0987C122.147 73.4599 121.749 74.0015 121.263 74.7122C119.918 76.7381 118.686 78.8363 117.573 80.9972L115.257 85.4688C114.439 87.0823 113.408 88.7496 112.872 90.7011C112.583 91.6922 112.529 92.7361 112.713 93.7514C112.908 94.8082 113.433 95.7765 114.215 96.5174C114.62 96.8806 115.105 97.1438 115.631 97.2857C116.17 97.4245 116.734 97.439 117.28 97.328C118.396 97.0414 119.414 96.4616 120.228 95.6492C121.061 94.8469 121.82 93.9713 122.494 93.033C123.189 92.1264 123.814 91.189 124.424 90.2593C126.586 86.8241 128.221 83.0874 129.276 79.1724C129.507 78.3016 129.705 77.4539 129.87 76.6292C130.045 75.8476 130.124 75.0479 130.105 74.2474C130.059 72.7376 129.264 71.3662 128.133 70.909C127.613 70.6903 127.042 70.6224 126.485 70.7131C126.015 70.7919 125.559 70.9327 125.126 71.1318C124.528 71.4141 123.956 71.7483 123.417 72.1307L122.992 72.4303C122.899 72.4956 122.845 72.5263 122.845 72.5263L122.98 72.4149C123.073 72.3381 123.208 72.2344 123.393 72.0999C123.924 71.7003 124.493 71.3529 125.092 71.0627C125.528 70.8511 125.992 70.7024 126.47 70.6209C127.089 70.5073 127.729 70.5909 128.297 70.8599C128.866 71.1289 129.336 71.5695 129.638 72.1191C130.012 72.766 130.22 73.4942 130.244 74.2397C130.271 75.0511 130.197 75.8626 130.024 76.6561C129.858 77.4859 129.665 78.3387 129.438 79.2146C128.391 83.148 126.758 86.9032 124.594 90.3554C123.992 91.2927 123.362 92.2301 122.664 93.1444C121.982 94.0934 121.216 94.9793 120.375 95.7913C119.535 96.6289 118.482 97.2248 117.33 97.5162C116.755 97.6324 116.16 97.6153 115.593 97.4663C115.035 97.3131 114.522 97.03 114.095 96.6403C113.287 95.8701 112.746 94.8636 112.551 93.7668C112.361 92.7232 112.418 91.6499 112.717 90.632C113.269 88.642 114.311 86.9747 115.13 85.3689C115.948 83.7631 116.758 82.2726 117.476 80.9088C118.602 78.7498 119.855 76.6588 121.228 74.6469C121.722 73.9401 122.131 73.4061 122.413 73.0526L122.741 72.6685C122.769 72.6249 122.798 72.5826 122.83 72.5417Z" fill="url(#paint10_linear_2382:13404)"/>
<g opacity="0.3">
<path opacity="0.3" d="M123.023 78.0198V78.039C123.409 76.9557 124.231 76.6445 125.115 76.3257C125.999 76.0068 127.068 76.0414 127.778 76.6561C128.596 77.3629 128.701 78.6076 128.481 79.6641C128.429 80.0373 128.275 80.3894 128.037 80.6821C127.913 80.8243 127.748 80.9237 127.564 80.9658C127.38 81.008 127.187 80.9907 127.014 80.9165C126.628 80.7052 126.508 80.1481 126.099 79.9791C125.69 79.8101 125.15 80.1904 124.656 80.3133C124.318 80.3783 123.967 80.3251 123.664 80.1627C123.361 80.0003 123.124 79.7387 122.992 79.422C122.903 79.198 122.86 78.9586 122.866 78.7179C122.871 78.4771 122.924 78.2398 123.023 78.0198Z" fill="black"/>
</g>
<g opacity="0.3">
<path opacity="0.3" d="M124.704 72.6107C124.902 72.6986 125.067 72.8466 125.176 73.0336C125.285 73.2205 125.332 73.4369 125.309 73.6518C125.29 74.1341 125.184 74.609 124.997 75.054C124.862 75.4382 124.634 75.8646 124.225 75.88C124.11 75.8769 123.998 75.8445 123.899 75.786C123.801 75.7275 123.719 75.6448 123.661 75.5458C123.551 75.3451 123.489 75.1215 123.48 74.8927C123.441 74.369 123.523 73.8435 123.719 73.356C123.804 73.1019 123.962 72.8786 124.175 72.7145C124.282 72.6338 124.413 72.5901 124.547 72.5901C124.682 72.5901 124.812 72.6338 124.92 72.7145" fill="black"/>
</g>
<g opacity="0.3">
<path opacity="0.3" d="M129.328 73.5561C129.527 73.644 129.692 73.7919 129.801 73.9789C129.91 74.1658 129.956 74.3822 129.934 74.5971C129.915 75.0793 129.809 75.5542 129.622 75.9993C129.487 76.3835 129.255 76.8099 128.85 76.8253C128.735 76.8226 128.623 76.7904 128.524 76.7318C128.425 76.6733 128.343 76.5903 128.286 76.4911C128.172 76.2918 128.11 76.0673 128.105 75.838C128.067 75.3147 128.147 74.7897 128.34 74.3013C128.426 74.047 128.586 73.8237 128.8 73.6598C128.907 73.5785 129.037 73.5344 129.172 73.5344C129.307 73.5344 129.437 73.5785 129.544 73.6598" fill="black"/>
</g>
<g opacity="0.3">
<path opacity="0.3" d="M127.377 71.7964C127.574 71.8863 127.739 72.0353 127.847 72.2226C127.956 72.4098 128.003 72.626 127.983 72.8413C127.962 73.322 127.856 73.7954 127.67 74.2396C127.531 74.6238 127.304 75.0541 126.898 75.0656C126.783 75.0629 126.671 75.0307 126.572 74.9721C126.474 74.9136 126.392 74.8306 126.335 74.7314C126.224 74.5325 126.163 74.3097 126.157 74.0821C126.115 73.5587 126.196 73.0327 126.393 72.5455C126.477 72.2901 126.637 72.0663 126.852 71.9039C126.959 71.8235 127.089 71.78 127.223 71.78C127.356 71.78 127.486 71.8235 127.593 71.9039" fill="black"/>
</g>
<g opacity="0.3">
<path opacity="0.3" d="M125.879 87.501C125.571 89.8254 124.935 92.095 123.991 94.2431C123.039 96.3998 121.584 98.299 119.745 99.7827C118.896 100.443 117.9 101.012 116.824 101.039C115.299 101.077 113.909 99.9902 113.222 98.6341C112.535 97.278 112.45 95.7029 112.52 94.1893C113.257 95.4148 114.087 96.7209 115.422 97.2626C116.013 97.4595 116.639 97.5271 117.258 97.4608C117.876 97.3945 118.474 97.1958 119.008 96.8784C120.073 96.236 121.005 95.3962 121.752 94.4044C123.406 92.3951 124.766 90.1627 125.79 87.7737" fill="black"/>
</g>
<g filter="url(#filter5_i_2382:13404)">
<path d="M39.4309 72.849C37.5319 72.2689 35.1852 71.7887 33.788 73.2101C33.4218 73.6376 33.1614 74.1445 33.0273 74.6902C32.8933 75.2358 32.8894 75.8051 33.016 76.3526C33.2769 77.4462 33.7402 78.482 34.3824 79.4067C37.8325 84.9065 42.5612 89.4997 48.1694 92.7986C50.2035 93.9895 52.8359 94.9883 54.8198 93.7091C56.6763 92.5182 56.9542 89.7945 56.0665 87.7853C55.1787 85.7761 53.4418 84.2817 51.7783 82.8104C47.8645 79.3529 43.8581 75.4421 39.4271 72.8221" fill="url(#paint11_linear_2382:13404)"/>
</g>
<path d="M39.4303 72.849C39.4303 72.849 39.4844 72.8721 39.5886 72.9297L40.0324 73.1909C40.4184 73.4253 40.9935 73.7826 41.7076 74.2704C43.7013 75.6774 45.6101 77.2001 47.4239 78.8305L51.1949 82.1881C52.5265 83.4059 54.0897 84.6045 55.3055 86.2756C55.945 87.1241 56.3771 88.1093 56.5677 89.153C56.7658 90.2508 56.6104 91.3829 56.1238 92.3876C55.8596 92.8994 55.4789 93.3427 55.0122 93.6823C54.5324 94.0213 53.9801 94.2448 53.3988 94.3353C52.2119 94.4681 51.0111 94.2769 49.925 93.7821C48.8478 93.3146 47.8145 92.7528 46.8372 92.1034C45.8645 91.4887 44.9421 90.8279 44.0505 90.1633C42.3586 88.8618 40.7713 87.4309 39.303 85.8837C37.9673 84.4828 36.7342 82.9884 35.613 81.4121C35.092 80.6706 34.6095 79.9369 34.1656 79.2185C33.7233 78.5358 33.3668 77.8017 33.1042 77.0326C32.8653 76.3256 32.8044 75.5711 32.9266 74.8352C33.0167 74.2149 33.3009 73.6386 33.7388 73.1883C34.1767 72.738 34.7461 72.4364 35.366 72.3266C35.8431 72.2386 36.33 72.2153 36.8134 72.2574C37.4764 72.3236 38.1317 72.4523 38.7703 72.6416C38.9903 72.7031 39.1563 72.753 39.2644 72.7914L39.4303 72.8529L39.2605 72.8106L38.7587 72.68C38.1187 72.5107 37.4653 72.3963 36.8057 72.3381C36.3306 72.3033 35.8529 72.3318 35.3853 72.4226C34.8306 72.5343 34.3192 72.8008 33.9109 73.1909C33.0115 74.0169 32.7529 75.5766 33.2393 77.0057C33.5034 77.7614 33.8585 78.4825 34.2968 79.1532C34.7446 79.8677 35.2283 80.5938 35.7481 81.3314C38.1154 84.6294 40.963 87.5581 44.1971 90.0212C45.0849 90.6858 46.0035 91.3427 46.9723 91.942C47.935 92.5856 48.9542 93.1411 50.0177 93.6016C51.0645 94.081 52.2222 94.2696 53.3679 94.1471C53.9238 94.0629 54.4524 93.8512 54.9118 93.5286C55.3547 93.209 55.7146 92.7889 55.9617 92.3031C56.4323 91.3373 56.5836 90.248 56.394 89.1914C56.2112 88.1757 55.7921 87.2166 55.1704 86.3908C53.9816 84.7466 52.43 83.5442 51.0984 82.3187L47.3467 78.9419C45.5439 77.302 43.6509 75.763 41.6767 74.3319C40.9742 73.8325 40.4107 73.4675 40.0286 73.2217L39.5924 72.9451L39.4303 72.849Z" fill="url(#paint12_linear_2382:13404)"/>
<g opacity="0.3">
<path opacity="0.3" d="M41.1841 78.043C40.4392 77.1632 39.563 77.1555 38.6212 77.1671C37.6795 77.1786 36.6914 77.5858 36.2436 78.4041C35.7264 79.3568 36.0661 80.5554 36.6296 81.4774C36.8066 81.8095 37.0742 82.0851 37.4016 82.2726C37.5661 82.3645 37.756 82.401 37.9431 82.3767C38.1302 82.3525 38.3044 82.2688 38.4398 82.1382C38.7293 81.8039 38.6483 81.2469 38.9648 80.9396C39.2813 80.6322 39.9336 80.8051 40.4353 80.7513C40.7747 80.6942 41.084 80.5224 41.311 80.2649C41.5381 80.0074 41.6691 79.68 41.682 79.3376C41.6924 78.8579 41.5137 78.3932 41.1841 78.043Z" fill="black"/>
</g>
<g opacity="0.3">
<path opacity="0.3" d="M37.6982 73.5635C37.5436 73.716 37.4409 73.913 37.4049 74.1268C37.3689 74.3405 37.4013 74.56 37.4975 74.7544C37.6814 75.1975 37.9428 75.6046 38.2695 75.9569C38.5281 76.2603 38.8986 76.5907 39.2769 76.464C39.3835 76.4211 39.4772 76.3515 39.5489 76.262C39.6206 76.1725 39.6678 76.066 39.686 75.953C39.7208 75.7275 39.7009 75.497 39.6281 75.2807C39.4769 74.7754 39.213 74.3105 38.8562 73.9208C38.6875 73.7107 38.4587 73.5566 38.2 73.479C38.0707 73.4436 37.9334 73.4511 37.8087 73.5003C37.6841 73.5495 37.5789 73.6378 37.5091 73.7518" fill="black"/>
</g>
<g opacity="0.3">
<path opacity="0.3" d="M33.7036 76.0644C33.5493 76.2163 33.4468 76.4127 33.4108 76.6257C33.3748 76.8388 33.407 77.0577 33.5029 77.2515C33.6866 77.6947 33.948 78.1018 34.2749 78.4539C34.5374 78.7574 34.904 79.0878 35.2862 78.961C35.3924 78.9175 35.4857 78.8478 35.5573 78.7583C35.6289 78.6689 35.6764 78.5628 35.6953 78.4501C35.7288 78.2243 35.7076 77.9938 35.6335 77.7778C35.4838 77.2718 35.2197 76.8066 34.8616 76.4178C34.6929 76.2077 34.4641 76.0537 34.2054 75.9761C34.0761 75.9407 33.9388 75.9482 33.8141 75.9974C33.6895 76.0466 33.5843 76.1349 33.5145 76.2488" fill="black"/>
</g>
<g opacity="0.3">
<path opacity="0.3" d="M34.9146 73.7365C34.7602 73.8884 34.6578 74.0848 34.6218 74.2978C34.5857 74.5109 34.618 74.7298 34.7139 74.9236C34.8976 75.3668 35.159 75.7739 35.4858 76.1261C35.7483 76.4296 36.115 76.7599 36.4971 76.6332C36.6035 76.59 36.697 76.5203 36.7687 76.4308C36.8403 76.3414 36.8877 76.2351 36.9062 76.1222C36.9397 75.8964 36.9186 75.6659 36.8445 75.4499C36.6947 74.9439 36.4307 74.4787 36.0725 74.09C35.9039 73.8799 35.675 73.7258 35.4164 73.6482C35.2871 73.6128 35.1497 73.6203 35.0251 73.6695C34.9004 73.7187 34.7952 73.807 34.7255 73.9209" fill="black"/>
</g>
<g opacity="0.3">
<path opacity="0.3" d="M41.8613 87.9199C42.9642 89.9854 44.3531 91.8864 45.9874 93.5671C47.6304 95.2588 49.6567 96.534 51.8967 97.2858C52.9234 97.6124 54.0543 97.7968 55.0733 97.4472C56.5168 96.9516 57.4316 95.4495 57.5976 93.9398C57.7635 92.43 57.3004 90.9202 56.6905 89.5296C56.4319 90.9356 56.1154 92.4492 55.0501 93.4096C54.5707 93.8004 54.012 94.0831 53.4123 94.2382C52.8126 94.3934 52.1862 94.4174 51.5763 94.3086C50.3522 94.0797 49.1835 93.6193 48.1334 92.9525C45.8791 91.6454 43.821 90.0288 42.0196 88.1504" fill="black"/>
</g>
<g opacity="0.3">
<path opacity="0.3" d="M40.4274 85.8337C40.3154 85.9873 40.2035 86.1448 40.0954 86.3023C40.5721 85.5371 41.1997 84.8759 41.9403 84.3588C42.6809 83.8418 43.5191 83.4795 44.4044 83.2939C45.2896 83.1083 46.2035 83.1033 47.0907 83.2791C47.9779 83.4549 48.8202 83.808 49.5665 84.3168C50.3128 84.8257 50.9477 85.4799 51.4328 86.2399C51.918 86.9999 52.2433 87.8499 52.3891 88.7385C52.5349 89.6271 52.4983 90.536 52.2813 91.4101C52.0643 92.2842 51.6715 93.1055 51.1266 93.8243C46.7874 92.0585 42.8592 89.4236 39.5859 86.0834" fill="white"/>
</g>
<path d="M149.395 82.042C149.398 82.1282 149.392 82.2146 149.376 82.2994C149.349 82.4915 149.314 82.7335 149.276 83.037C149.187 83.6785 149.036 84.6005 148.824 85.7261C148.299 88.6984 147.509 91.6181 146.462 94.4505C145.861 96.0046 145.134 97.5077 144.289 98.9452C144.092 99.2756 143.88 99.5829 143.687 99.8903L143.394 100.34L143.081 100.758L142.486 101.546C142.282 101.788 142.077 102.015 141.884 102.23C141.691 102.445 141.518 102.664 141.325 102.841L140.792 103.352L140.325 103.793L139.9 104.128L139.31 104.589C139.245 104.647 139.172 104.696 139.094 104.735C139.152 104.67 139.215 104.609 139.283 104.554L139.85 104.07L140.259 103.724L140.711 103.271L141.232 102.756C141.421 102.576 141.587 102.353 141.776 102.138L142.363 101.45L142.946 100.659L143.251 100.244C143.347 100.098 143.44 99.9479 143.536 99.7942C143.729 99.4869 143.922 99.1796 144.131 98.853C144.953 97.4184 145.664 95.9235 146.257 94.3813C147.303 91.5633 148.115 88.6647 148.685 85.7146C148.913 84.5852 149.071 83.667 149.199 83.0255C149.253 82.7258 149.299 82.4838 149.334 82.2955C149.348 82.2096 149.368 82.1248 149.395 82.042Z" fill="url(#paint13_linear_2382:13404)"/>
<path d="M60.5977 58.7388C60.6482 58.6696 60.7079 58.6076 60.7752 58.5544L61.3117 58.055C61.5472 57.836 61.8366 57.5748 62.184 57.2866C62.5314 56.9985 62.9174 56.6489 63.3651 56.2955C64.249 55.5694 65.3336 54.7588 66.5726 53.8753C67.8116 52.9917 69.2126 52.112 70.7257 51.2361C72.2387 50.3602 73.7247 49.6072 75.0911 48.9618C76.4574 48.3164 77.7234 47.8093 78.7964 47.3983C79.3291 47.187 79.8193 47.0141 80.2477 46.8681C80.6761 46.7221 81.0505 46.5954 81.3555 46.5032L82.0618 46.288C82.1416 46.2586 82.2245 46.238 82.3088 46.2266C82.2332 46.2661 82.1544 46.2995 82.0734 46.3264L81.3786 46.5762C81.0776 46.6799 80.7109 46.8105 80.2863 46.9603C79.8617 47.1101 79.3754 47.2945 78.8466 47.5135C77.7852 47.9323 76.5308 48.4739 75.1721 49.1155C73.8135 49.757 72.3545 50.5407 70.8106 51.4012C69.2667 52.2618 67.908 53.1684 66.6613 54.0212C65.4146 54.8741 64.3455 55.6885 63.4384 56.3992C62.9868 56.745 62.5932 57.0792 62.2419 57.3673C61.8907 57.6554 61.5896 57.9013 61.3503 58.1126L60.7868 58.5851C60.73 58.6435 60.6665 58.6951 60.5977 58.7388Z" fill="url(#paint14_linear_2382:13404)"/>
<path d="M49.7324 52.3232C49.7324 52.3232 49.7556 52.3039 49.8019 52.2694L50.018 52.1234L50.8672 51.5856C51.2339 51.3512 51.6855 51.0708 52.2258 50.7673C52.7662 50.4638 53.3838 50.095 54.0631 49.7416L55.1438 49.1692C55.5298 48.9732 55.9158 48.785 56.3365 48.5852C57.1547 48.1742 58.0579 47.79 58.9997 47.3713C60.9026 46.5722 63.0254 45.7732 65.3027 45.0663C67.58 44.3594 69.7916 43.8485 71.818 43.449C72.8331 43.2684 73.798 43.084 74.7089 42.9649C75.1605 42.9035 75.6005 42.8305 76.0213 42.7844L77.2409 42.6499C78.0129 42.5577 78.7192 42.5193 79.3368 42.4732C79.9544 42.4271 80.4947 42.4002 80.927 42.3887L81.9306 42.3618H82.1892C82.2198 42.356 82.2512 42.356 82.2818 42.3618H82.193L81.9306 42.3848L80.9309 42.4501C80.4947 42.4732 79.9621 42.5039 79.3484 42.5654C78.7347 42.6269 78.0283 42.6691 77.2564 42.7728L76.0406 42.9188C75.6198 42.9688 75.1837 43.0456 74.7321 43.1109C73.8251 43.2338 72.864 43.4259 71.8527 43.6103C69.8379 44.0214 67.634 44.5515 65.3606 45.2392C63.0872 45.9268 60.972 46.7297 59.073 47.5173C58.1313 47.9283 57.2281 48.3086 56.4098 48.712C55.9968 48.9118 55.5915 49.0962 55.2133 49.2844L54.1287 49.8453C53.4339 50.191 52.8241 50.5445 52.2837 50.8403C51.7434 51.1361 51.2802 51.405 50.9058 51.6278L50.0412 52.1349L49.8135 52.2617C49.7633 52.3155 49.7324 52.327 49.7324 52.3232Z" fill="url(#paint15_linear_2382:13404)"/>
<path d="M95.7291 39.6611C95.7523 39.7188 94.7565 40.1375 93.6564 40.8712C92.5564 41.605 91.7806 42.3541 91.7266 42.308C92.7808 41.0702 94.1639 40.1529 95.7175 39.6611H95.7291Z" fill="url(#paint16_linear_2382:13404)"/>
<path d="M102.262 41.7471C102.262 41.7855 101.69 41.5281 100.745 41.29C99.5125 40.9697 98.236 40.8529 96.9659 40.9442C95.6952 40.9971 94.4515 41.3262 93.3223 41.9085C92.8727 42.1778 92.4859 42.5392 92.1875 42.9688C92.2269 42.829 92.2938 42.6984 92.3844 42.5846C92.6187 42.2658 92.9122 41.9946 93.2489 41.7855C94.0904 41.2362 95.4452 40.8559 96.9505 40.7406C98.2422 40.6475 99.5403 40.7854 100.783 41.1478C101.158 41.252 101.525 41.3803 101.883 41.532C102.017 41.5898 102.144 41.662 102.262 41.7471Z" fill="url(#paint17_linear_2382:13404)"/>
<path d="M89.5771 44.9511L90.0287 46.0267C90.1621 46.305 90.2532 46.6015 90.2989 46.9065C90.3206 47.0597 90.3092 47.2158 90.2652 47.3642C90.2213 47.5126 90.1459 47.65 90.0441 47.767C89.8703 47.9131 89.6532 47.9986 89.426 48.0103C89.1988 48.0221 88.974 47.9596 88.7859 47.8323C88.4203 47.5628 88.15 47.1849 88.0139 46.7528C87.8518 46.3302 87.7437 45.8846 87.5469 45.4774C87.7971 45.2502 87.986 44.9639 88.0959 44.6451C88.2058 44.3262 88.2334 43.9849 88.176 43.6526C88.176 43.6526 88.5659 44.8819 89.5771 44.9511Z" fill="#F5F5F5"/>
<path d="M83.2754 41.0324C83.6173 40.3471 84.099 39.7403 84.6898 39.2508C85.2807 38.7613 85.9676 38.3999 86.7067 38.1896C89.1693 37.5442 91.7244 40.1104 91.7244 40.1104C91.7244 40.1104 88.7485 39.2383 88.791 40.7097C88.8335 42.181 89.7096 42.1465 88.7215 43.1146C87.7334 44.0826 86.039 43.0646 85.6337 41.9236L84.8386 40.8096L83.2754 41.0324Z" fill="#263238"/>
<path d="M93.4718 42.4731C93.4718 42.4731 93.4718 42.5231 93.4911 42.6114C93.5041 42.7456 93.5041 42.8807 93.4911 43.0148C93.4204 43.5071 93.2208 43.9722 92.9121 44.3632C92.6868 44.6601 92.4034 44.9085 92.079 45.0933C91.7547 45.2782 91.396 45.3958 91.0247 45.4389C90.5663 45.4737 90.1062 45.4003 89.6816 45.2247C89.2571 45.0492 88.8802 44.7764 88.5815 44.4285C88.2857 44.0906 88.0777 43.6856 87.9755 43.2491L88.1646 43.1954C88.2807 43.5569 88.3122 43.9401 88.2567 44.3157C88.2012 44.6912 88.0601 45.0491 87.8443 45.362C87.5523 45.769 87.1392 46.0744 86.6634 46.235C86.1876 46.3957 85.6731 46.4034 85.1926 46.2572C85.0913 46.2266 84.9931 46.1867 84.8993 46.1381C84.8375 46.1035 84.8066 46.0843 84.8066 46.0766C84.8066 46.0689 84.9494 46.1304 85.2119 46.1918C85.5828 46.2761 85.9681 46.2761 86.339 46.1918C86.895 46.0671 87.3823 45.736 87.7015 45.266C87.8963 44.9733 88.0224 44.6408 88.0705 44.2929C88.1186 43.9451 88.0875 43.591 87.9794 43.2568L88.1685 43.2069C88.2669 43.6106 88.4615 43.9848 88.7359 44.2979C89.014 44.6225 89.3642 44.8783 89.7588 45.0449C90.1534 45.2116 90.5815 45.2847 91.0093 45.2583C91.3589 45.2205 91.6974 45.114 92.0055 44.9452C92.3135 44.7764 92.585 44.5486 92.8041 44.2749C93.1105 43.9067 93.3201 43.4684 93.4139 42.9994C93.4641 42.6767 93.4525 42.4731 93.4718 42.4731Z" fill="url(#paint18_linear_2382:13404)"/>
<path d="M88.7017 38.551C88.4463 38.5891 88.1876 38.6007 87.9298 38.5855C87.3054 38.579 86.6831 38.6592 86.081 38.8237C85.4861 38.9965 84.9463 39.3194 84.5139 39.7611C84.1935 40.1107 84.0778 40.3911 84.0469 40.3796C84.0976 40.1132 84.2235 39.8667 84.4097 39.6689C84.8307 39.1698 85.3929 38.8084 86.0231 38.6316C86.6444 38.4602 87.2906 38.3965 87.9336 38.4434C88.1937 38.4393 88.4529 38.4756 88.7017 38.551Z" fill="white"/>
<path d="M89.4419 48.0975C89.0697 47.4746 88.7889 46.8019 88.6082 46.0998C88.3671 45.4167 88.2267 44.7024 88.1914 43.9792C88.2493 43.9792 88.4539 44.9089 88.8012 46.0422C89.1486 47.1755 89.496 48.0744 89.4419 48.0975Z" fill="#263238"/>
<path d="M61.9609 52.4037C62.0079 52.3539 62.0596 52.3089 62.1153 52.2692L62.5824 51.9081C62.9683 51.5969 63.5975 51.1705 64.3656 50.6711C65.1337 50.1717 66.0677 49.6108 67.1369 49.0345C68.206 48.4583 69.4103 47.8821 70.7072 47.3558C72.004 46.8295 73.2662 46.3992 74.428 46.0496C75.5898 45.7 76.6551 45.4465 77.5544 45.2813C78.4537 45.1161 79.1871 44.9739 79.6966 44.8971L80.2832 44.8241C80.3512 44.8164 80.4198 44.8164 80.4878 44.8241C80.4238 44.8515 80.3562 44.8697 80.2871 44.8779L79.7081 44.9855C79.2025 45.07 78.4769 45.216 77.5853 45.4157C76.6937 45.6155 75.6554 45.8844 74.4975 46.234C73.3395 46.5836 72.089 47.0254 70.7959 47.5478C69.5029 48.0703 68.3102 48.6504 67.2372 49.2074C66.1642 49.7645 65.2302 50.3138 64.4543 50.7979C63.6785 51.2819 63.0648 51.6891 62.6441 51.9811L62.1539 52.3076C62.0266 52.3768 61.9648 52.4114 61.9609 52.4037Z" fill="url(#paint19_linear_2382:13404)"/>
<path d="M81.3011 35.4806C82.4159 30.8267 79.5291 26.1544 74.8532 25.0448C70.1773 23.9352 65.483 26.8085 64.3682 31.4625C63.2533 36.1164 66.1402 40.7887 70.8161 41.8982C75.492 43.0078 80.1863 40.1346 81.3011 35.4806Z" fill="#F5F5F5"/>
<path d="M81.5448 33.4839C81.5448 37.6636 78.7079 41.0558 76.3071 41.0558C73.9064 41.0558 71.9688 37.6636 71.9688 33.4839C71.9688 29.3042 73.8986 25.9082 76.3226 25.9082C78.7465 25.9082 81.5448 29.3004 81.5448 33.4839Z" fill="#263238"/>
<path d="M78.2379 30.6833C79.0607 30.6833 79.7278 30.0194 79.7278 29.2004C79.7278 28.3814 79.0607 27.7175 78.2379 27.7175C77.4151 27.7175 76.748 28.3814 76.748 29.2004C76.748 30.0194 77.4151 30.6833 78.2379 30.6833Z" fill="white"/>
<path d="M74.386 38.9849C74.2991 38.8739 74.2265 38.7526 74.1698 38.6238C73.9878 38.2837 73.8317 37.9306 73.7028 37.5673C73.5025 37.0301 73.3463 36.4777 73.2358 35.9154C73.1046 35.2261 73.0323 34.527 73.0196 33.8255C73.0172 33.1227 73.0753 32.421 73.1933 31.728C73.2923 31.1641 73.4369 30.6091 73.6256 30.0684C73.7463 29.7031 73.8947 29.3473 74.0695 29.0043C74.1218 28.8677 74.1919 28.7386 74.2779 28.6201C74.3126 28.6201 74.0463 29.1772 73.7607 30.0992C73.5949 30.6379 73.4659 31.1873 73.3747 31.7434C73.2695 32.426 73.2179 33.1157 73.2203 33.8063C73.2329 34.4967 73.2987 35.1851 73.4172 35.8654C73.5186 36.4214 73.6592 36.9695 73.8379 37.5058C74.1428 38.4355 74.4207 38.9695 74.386 38.9849Z" fill="white"/>
<path d="M70.6297 22.4504C70.6066 22.7309 70.2824 22.946 69.8578 23.1458C69.4332 23.3455 68.8581 23.5299 68.2907 23.7873C67.7233 24.0447 67.2254 24.2675 66.8009 24.4596C66.3763 24.6517 66.0289 24.7669 65.778 24.6171C65.5272 24.4673 65.4963 24.0485 65.778 23.4915C66.1587 22.7886 66.7786 22.2438 67.5265 21.9548C68.2426 21.6407 69.0422 21.5679 69.8038 21.7474C70.348 21.8934 70.6529 22.1815 70.6297 22.4504Z" fill="#263238"/>
<path d="M29.0918 96.2561L31.0487 93.2059C40.3662 103.394 71.1516 115.51 98.7142 88.1234C110.552 76.3603 109.595 56.4836 109.595 56.4836L107.24 49.123H109.595C109.595 49.123 116.419 61.6506 109.274 78.0544C109.274 78.0544 101.941 97.497 79.4887 104.562C44.0715 115.695 29.0918 96.2561 29.0918 96.2561Z" fill="#3099FE"/>
<g opacity="0.7">
<path opacity="0.7" d="M29.0918 96.2561L31.0487 93.2059C40.3662 103.394 71.1516 115.51 98.7142 88.1234C110.552 76.3603 109.595 56.4836 109.595 56.4836L107.24 49.123H109.595C109.595 49.123 116.419 61.6506 109.274 78.0544C109.274 78.0544 101.941 97.497 79.4887 104.562C44.0715 115.695 29.0918 96.2561 29.0918 96.2561Z" fill="white"/>
</g>
<path d="M28.5624 99.9833C35.0967 93.4797 35.0967 82.9353 28.5624 76.4317C22.0281 69.9281 11.434 69.9281 4.89971 76.4317C-1.63456 82.9353 -1.63457 93.4797 4.89971 99.9833C11.434 106.487 22.0281 106.487 28.5624 99.9833Z" fill="#3099FE"/>
<g opacity="0.7">
<path opacity="0.7" d="M28.5624 99.9836C35.0967 93.48 35.0967 82.9356 28.5624 76.432C22.0281 69.9284 11.434 69.9284 4.89971 76.432C-1.63456 82.9356 -1.63457 93.48 4.89971 99.9836C11.434 106.487 22.0281 106.487 28.5624 99.9836Z" fill="white"/>
</g>
<path d="M20.7416 72.0193C20.7327 72.1259 20.7133 72.2314 20.6837 72.3343C20.6374 72.5571 20.568 72.8568 20.4869 73.2371C20.4406 73.433 20.3904 73.652 20.3364 73.8863C20.2823 74.1207 20.1974 74.3742 20.1202 74.6546C19.9543 75.2002 19.796 75.8302 19.5413 76.5025L19.1553 77.5628C19.0241 77.9469 18.8581 78.3042 18.6998 78.6961C18.3988 79.4836 17.9974 80.2942 17.5921 81.1509C16.6635 82.9902 15.6032 84.7606 14.4194 86.4485C13.2112 88.1201 11.8839 89.7031 10.4477 91.1852C9.76449 91.8498 9.13149 92.4914 8.48305 93.0369C8.16655 93.3135 7.86548 93.5939 7.56056 93.8398L6.67668 94.5428C6.12473 95.0038 5.58051 95.3611 5.13277 95.6953C4.89733 95.8605 4.68504 96.018 4.48047 96.1525L3.91309 96.5097L3.14114 96.9938C3.05312 97.0561 2.95866 97.1089 2.85938 97.1513C2.9414 97.0819 3.02777 97.0177 3.11798 96.9592L3.88993 96.4444L4.44574 96.0603C4.64644 95.9181 4.85487 95.7568 5.08646 95.5916C5.54191 95.2497 6.07842 94.8809 6.63036 94.416L7.50267 93.7092C7.80759 93.4595 8.10093 93.179 8.41357 92.8986C9.05429 92.3492 9.68343 91.7038 10.3434 91.0392C11.7584 89.5614 13.0687 87.9876 14.265 86.3294C15.444 84.6505 16.5042 82.8919 17.4377 81.0663C17.8468 80.2135 18.2482 79.4106 18.557 78.6307C18.7191 78.2466 18.889 77.8624 19.0241 77.5051C19.1591 77.1479 19.2865 76.7868 19.41 76.4525C19.6725 75.7841 19.8423 75.1579 20.016 74.6201C20.0971 74.3473 20.182 74.0938 20.2476 73.8517C20.3132 73.6097 20.3634 73.4023 20.4136 73.2064C20.5139 72.8222 20.5911 72.5341 20.649 72.3151C20.6715 72.2141 20.7025 72.1151 20.7416 72.0193Z" fill="#3099FE"/>
<path d="M24.6991 73.7173C24.6872 73.8304 24.6653 73.9423 24.6335 74.0515C24.5795 74.2859 24.5061 74.6009 24.4096 75.0004C24.3594 75.2079 24.3015 75.4383 24.2398 75.688C24.178 75.9378 24.0893 76.2028 24.0005 76.4909C23.8191 77.0634 23.6454 77.7318 23.3636 78.4348L22.9506 79.5527C22.8078 79.9369 22.6187 80.3211 22.445 80.7436C22.1092 81.5696 21.6731 82.4186 21.2215 83.3137C20.1952 85.2375 19.0209 87.0793 17.7091 88.8226C16.3766 90.5475 14.9147 92.1695 13.336 93.6746C12.5949 94.3546 11.8924 95.0077 11.1899 95.5608C10.8426 95.8413 10.5183 96.1294 10.1825 96.3714L9.22146 97.0821C8.6232 97.547 8.03266 97.9081 7.53089 98.2346C7.02912 98.5612 6.58525 98.8416 6.21857 99.0529L5.36942 99.5446C5.273 99.6054 5.1724 99.6593 5.06836 99.706C5.15714 99.6336 5.25134 99.5681 5.35012 99.51L6.17611 98.9876C6.53893 98.7648 6.97894 98.492 7.46913 98.1424C7.95932 97.7928 8.54601 97.4279 9.14041 96.9592L10.086 96.2562C10.418 96.0103 10.7383 95.7184 11.0819 95.4379C11.7805 94.8809 12.4714 94.2278 13.2086 93.5478C14.7699 92.0376 16.2198 90.4174 17.547 88.6997C18.8514 86.9662 20.0229 85.1376 21.0516 83.2292C21.5071 82.3379 21.9471 81.4966 22.2906 80.6745C22.4643 80.2673 22.6766 79.8831 22.8001 79.4951C22.9236 79.1071 23.0896 78.7268 23.2247 78.3887C23.5142 77.6857 23.6956 77.0288 23.8886 76.4679C23.9812 76.1798 24.0777 75.9147 24.1472 75.6688C24.2166 75.423 24.2745 75.1963 24.3286 74.9889C24.4405 74.6047 24.5254 74.282 24.591 74.0515C24.6203 73.9381 24.6564 73.8264 24.6991 73.7173Z" fill="#3099FE"/>
<path d="M28.3543 76.7097C28.3349 76.8219 28.3065 76.9324 28.2694 77.0401C28.1999 77.2744 28.1035 77.5856 27.9838 77.9851C27.922 78.1888 27.8487 78.4154 27.7754 78.6613C27.702 78.9071 27.5901 79.1722 27.4859 79.4603C27.2697 80.0251 27.0497 80.682 26.7139 81.3812L26.2392 82.4837C26.0732 82.8679 25.8725 83.252 25.6757 83.6592C25.2897 84.4737 24.8188 85.3112 24.3325 86.1986C23.2344 88.0951 22.008 89.9151 20.6618 91.646C19.2831 93.359 17.7871 94.975 16.1845 96.4826C15.4126 97.1626 14.7255 97.8157 14.0115 98.3727C13.6602 98.6532 13.3321 98.9374 12.9925 99.1872L12.0237 99.9017C11.4138 100.367 10.8233 100.731 10.3177 101.054C10.0629 101.219 9.82748 101.381 9.60361 101.515L8.98991 101.876L8.13305 102.368C8.03511 102.428 7.93324 102.482 7.82812 102.529C7.91791 102.457 8.01343 102.391 8.11375 102.333L8.94746 101.811L9.55344 101.427C9.77345 101.289 10.005 101.123 10.2559 100.954C10.7538 100.605 11.3366 100.236 11.9388 99.7634C12.2476 99.5329 12.5679 99.2947 12.8999 99.0412C13.2318 98.7876 13.556 98.5033 13.9072 98.2191C14.6097 97.662 15.3122 97.0051 16.0571 96.329C17.6446 94.8186 19.13 93.2054 20.5036 91.5C21.855 89.7791 23.0903 87.9708 24.2012 86.0872C24.6914 85.2036 25.1739 84.3776 25.5599 83.567C25.7567 83.1829 25.9458 82.7987 26.1311 82.4146C26.3164 82.0304 26.4592 81.6654 26.6136 81.3197C26.9378 80.6282 27.1655 79.9751 27.3855 79.3989C27.4975 79.1184 27.6017 78.8572 27.6905 78.6113C27.7792 78.3655 27.8487 78.1427 27.9182 77.939C28.0533 77.5549 28.1614 77.2399 28.2385 77.0094C28.2701 76.9069 28.3088 76.8068 28.3543 76.7097Z" fill="#3099FE"/>
<path d="M32.7424 92.5104C32.6073 92.4768 32.4775 92.4251 32.3564 92.3568C32.1248 92.2492 31.789 92.0802 31.3799 91.8689C30.5616 91.4463 29.45 90.8316 28.2342 90.1094C27.0183 89.3872 25.9608 88.6919 25.2004 88.1694C24.8144 87.9082 24.5172 87.693 24.3088 87.5355C24.196 87.4637 24.0923 87.3786 24 87.282C24.1263 87.3302 24.2457 87.3948 24.3551 87.4741L25.2776 88.0503C26.0495 88.542 27.1341 89.2028 28.3384 89.9365C29.5426 90.6703 30.6542 91.2926 31.4493 91.746L32.395 92.2876C32.5211 92.3446 32.6381 92.4197 32.7424 92.5104Z" fill="#3099FE"/>
<path d="M33.4473 88.9072C33.0581 88.6892 32.6841 88.4454 32.328 88.1772C31.6448 87.7124 30.6953 87.0824 29.6261 86.4293C28.557 85.7762 27.5496 85.2307 26.8239 84.8312C26.4224 84.6334 26.0354 84.4074 25.666 84.155C25.7849 84.1822 25.8993 84.2261 26.0057 84.2856C26.218 84.3778 26.519 84.52 26.8896 84.7044C27.6306 85.0885 28.6458 85.6072 29.7303 86.2603C30.8149 86.9133 31.7529 87.5664 32.4322 88.062C32.7641 88.3117 33.0304 88.5153 33.2041 88.6651C33.3778 88.8149 33.4589 88.8995 33.4473 88.9072Z" fill="#3099FE"/>
<path d="M23.14 103.248C23.0821 103.248 22.9508 100.198 22.8466 96.4289C22.7424 92.6602 22.7 89.6023 22.754 89.6023C22.808 89.6023 22.9393 92.6526 23.0473 96.4212C23.1554 100.19 23.194 103.248 23.14 103.248Z" fill="#3099FE"/>
<path d="M14.8911 105.157C14.7894 103.888 14.7559 102.615 14.7907 101.342C14.7558 100.07 14.7893 98.7965 14.8911 97.5276C14.9905 98.7966 15.024 100.07 14.9914 101.342C15.0239 102.615 14.9904 103.888 14.8911 105.157Z" fill="#3099FE"/>
<path d="M18.9445 104.708C18.8905 104.708 18.8596 102.211 18.8828 99.1335C18.9059 96.0563 18.9638 93.5554 19.0217 93.5554C19.0796 93.5554 19.1028 96.0525 19.0835 99.1335C19.0642 102.214 18.9986 104.708 18.9445 104.708Z" fill="#3099FE"/>
<path d="M10.392 91.1813C10.3611 91.2274 8.17651 89.8252 5.51714 88.0465C2.85776 86.2679 0.719452 84.7888 0.75033 84.7312C0.781208 84.6736 2.96583 86.0873 5.62907 87.866C8.2923 89.6447 10.4229 91.1352 10.392 91.1813Z" fill="#3099FE"/>
<path d="M7.47678 93.5669C7.36097 93.5493 7.24884 93.513 7.14484 93.4593C6.94027 93.3787 6.64307 93.248 6.28411 93.0752C5.35653 92.6241 4.45456 92.1227 3.58228 91.5731C2.55558 90.9277 1.6524 90.2861 1.02711 89.8098C0.672398 89.5687 0.340385 89.2961 0.0351562 88.9954C0.409798 89.2036 0.769604 89.4372 1.11203 89.6945C1.76433 90.144 2.65593 90.7625 3.69035 91.4041C4.72477 92.0456 5.66655 92.5758 6.36516 92.9407C6.74772 93.1276 7.1189 93.3366 7.47678 93.5669Z" fill="#3099FE"/>
<path d="M17.5195 81.12C17.3307 81.2107 17.1344 81.2852 16.9329 81.3428C16.7002 81.4284 16.4631 81.5015 16.2227 81.5618C15.9448 81.6386 15.6283 81.727 15.2732 81.8C14.4403 81.9789 13.5974 82.1072 12.7489 82.1841C11.7095 82.2761 10.6656 82.3082 9.62247 82.2802C8.57956 82.2428 7.53962 82.1466 6.50765 81.9921C5.66576 81.8628 4.83197 81.6858 4.01038 81.4619C3.65914 81.3736 3.3465 81.2737 3.07246 81.1853C2.79841 81.097 2.55911 81.0163 2.37384 80.9395C2.17279 80.8744 1.97778 80.7922 1.79102 80.6936C1.99741 80.7347 2.20008 80.7925 2.397 80.8665C2.58999 80.9318 2.82543 81.0048 3.10334 81.0778C3.38124 81.1508 3.69388 81.2468 4.04512 81.3275C4.74759 81.508 5.58902 81.6617 6.53466 81.8115C7.55869 81.9531 8.58929 82.0429 9.62247 82.0804C10.6525 82.1068 11.6831 82.0799 12.7103 81.9998C13.556 81.9314 14.3974 81.8172 15.2307 81.6578C15.5897 81.5964 15.9062 81.5157 16.1841 81.4504C16.462 81.3851 16.7051 81.3236 16.8981 81.266C17.0999 81.1971 17.3081 81.1482 17.5195 81.12Z" fill="#3099FE"/>
<path d="M19.3687 76.8098C19.187 76.9119 18.9972 76.9993 18.8014 77.071C18.6161 77.1556 18.3845 77.2401 18.1143 77.3361C17.8441 77.4322 17.5354 77.5436 17.1918 77.6434C16.3815 77.8908 15.5582 78.0934 14.7254 78.2504C13.7043 78.4362 12.6733 78.5644 11.6376 78.6346C10.6016 78.6958 9.56274 78.6958 8.52667 78.6346C7.68135 78.5804 6.84062 78.47 6.0101 78.3042C5.65114 78.2427 5.33464 78.1582 5.05674 78.0852C4.819 78.0272 4.58452 77.9566 4.35426 77.8739C4.15303 77.8154 3.95683 77.7409 3.76758 77.6511C3.97525 77.6813 4.17949 77.7315 4.37742 77.8009C4.56655 77.8586 4.80585 77.9162 5.08376 77.9738C5.36166 78.0314 5.67816 78.1121 6.03326 78.1659C6.86209 78.3083 7.69847 78.4033 8.53824 78.4502C9.56725 78.4965 10.598 78.4875 11.6261 78.4233C12.6534 78.3464 13.6763 78.2181 14.6907 78.0391C15.6209 77.8586 16.4585 77.678 17.1455 77.4783C17.4929 77.3861 17.8017 77.2862 18.0757 77.1978C18.3498 77.1095 18.5813 77.0403 18.7705 76.9673C18.9645 76.8964 19.1648 76.8437 19.3687 76.8098Z" fill="#3099FE"/>
<path d="M20.5114 73.0142C20.3503 73.1039 20.1793 73.1747 20.0019 73.2254C19.67 73.3522 19.1798 73.5174 18.5738 73.7018C16.9872 74.1882 15.3651 74.5517 13.7221 74.789C12.0778 75.0281 10.4155 75.1219 8.75457 75.0694C8.1177 75.0425 7.59664 75.0041 7.24926 74.9619C7.06424 74.9514 6.88068 74.9231 6.70117 74.8774C6.88606 74.8607 7.07209 74.8607 7.25698 74.8774C7.60822 74.8966 8.12156 74.9119 8.75842 74.9196C10.4073 74.9335 12.0549 74.8243 13.6873 74.5931C15.3219 74.3519 16.9397 74.0093 18.5313 73.5674C19.1412 73.3983 19.6352 73.2562 19.9749 73.1525C20.1495 73.0915 20.329 73.0452 20.5114 73.0142Z" fill="#3099FE"/>
<path d="M27.2728 89.3989C26.61 90.2675 25.8946 91.095 25.1306 91.8768C24.4157 92.7042 23.6514 93.488 22.8418 94.224C23.5051 93.3547 24.2204 92.5259 24.984 91.7423C25.6983 90.9155 26.4626 90.1329 27.2728 89.3989Z" fill="#3099FE"/>
<path d="M30.4831 91.289C30.4415 91.4045 30.383 91.5132 30.3095 91.6117C30.1859 91.8153 29.993 92.0958 29.7421 92.4377C28.4249 94.2131 26.7417 95.6879 24.8054 96.7633C24.4195 96.9669 24.13 97.1206 23.9138 97.2166C23.806 97.2759 23.6904 97.3199 23.5703 97.3473C23.5703 97.3204 24.018 97.0783 24.7282 96.6404C25.6598 96.0734 26.5428 95.4309 27.3683 94.7196C28.1845 93.9959 28.9385 93.2057 29.6224 92.357C30.1589 91.6962 30.4561 91.2621 30.4831 91.289Z" fill="#3099FE"/>
<path d="M31.4602 92.9946C31.3889 93.75 31.1593 94.482 30.7864 95.1437C30.4134 95.8054 29.9054 96.3819 29.2949 96.8363C29.7799 96.2723 30.2211 95.6726 30.615 95.0422C30.9469 94.3813 31.2294 93.6969 31.4602 92.9946Z" fill="#3099FE"/>
<path d="M34.6991 96.5251C34.5823 97.1438 34.298 97.7189 33.877 98.1886C33.507 98.6995 33.002 99.0985 32.418 99.341C32.8796 98.9425 33.3153 98.5152 33.7226 98.0618C34.0777 97.5688 34.4037 97.0557 34.6991 96.5251Z" fill="#3099FE"/>
<path d="M39.9331 99.7136C39.9513 100.377 39.7771 101.032 39.4313 101.6C39.1417 102.198 38.6812 102.698 38.1074 103.037C38.539 102.56 38.9265 102.046 39.2654 101.5C39.5401 100.925 39.7636 100.327 39.9331 99.7136Z" fill="#3099FE"/>
<path d="M45.9275 102.579C46.0706 103.203 46.0041 103.856 45.7384 104.439C45.5338 105.043 45.1385 105.566 44.6113 105.929C45.4164 104.992 45.8801 103.812 45.9275 102.579Z" fill="#3099FE"/>
<path d="M51.4623 107.493C51.4044 107.474 51.636 106.725 51.6901 105.787C51.7441 104.85 51.609 104.078 51.6669 104.066C52.0362 105.193 51.9631 106.417 51.4623 107.493Z" fill="#3099FE"/>
<path d="M55.9972 107.823C55.9431 107.8 56.221 107.132 56.2944 106.26C56.3677 105.388 56.2172 104.685 56.2944 104.673C56.4853 105.186 56.5591 105.735 56.5104 106.28C56.4616 106.825 56.2916 107.352 56.0126 107.823H55.9972Z" fill="#3099FE"/>
<path d="M62.3431 107.781C62.2852 107.781 62.3778 107.124 62.2736 106.337C62.1694 105.549 61.9223 104.946 61.9764 104.923C62.2695 105.331 62.4419 105.813 62.4743 106.314C62.571 106.805 62.5255 107.314 62.3431 107.781Z" fill="#3099FE"/>
<path d="M66.7269 107.397C66.6651 107.397 66.6651 106.778 66.4567 106.06C66.2483 105.342 65.9357 104.808 65.9858 104.777C66.2948 105.133 66.5213 105.552 66.6494 106.005C66.7775 106.458 66.8039 106.933 66.7269 107.397Z" fill="#3099FE"/>
<path d="M71.8739 106.271C71.8121 106.271 71.843 105.668 71.6153 104.981C71.3876 104.293 71.0209 103.828 71.0711 103.782C71.4131 104.09 71.6675 104.482 71.8084 104.919C71.9494 105.356 71.972 105.823 71.8739 106.271Z" fill="#3099FE"/>
<path d="M78.2081 104.988C78.1464 104.988 78.1386 104.316 77.8569 103.551C77.5751 102.787 77.1505 102.264 77.1969 102.226C77.5784 102.57 77.8698 103.001 78.0461 103.483C78.2223 103.964 78.2779 104.481 78.2081 104.988Z" fill="#3099FE"/>
<path d="M83.5472 102.914C83.4893 102.914 83.277 102.234 82.8215 101.473C82.3661 100.712 81.8604 100.19 81.9029 100.148C82.7863 100.826 83.3748 101.816 83.5472 102.914Z" fill="#3099FE"/>
<path d="M89.5199 99.7982C89.462 99.7982 89.2806 99.0759 88.7943 98.2999C88.3079 97.5239 87.7367 97.0322 87.7753 96.9861C88.2569 97.2973 88.6632 97.7109 88.9649 98.1971C89.2665 98.6834 89.4561 99.2302 89.5199 99.7982Z" fill="#3099FE"/>
<path d="M95.3527 95.6377C95.0985 95.1897 94.8135 94.7597 94.4997 94.3507C94.1388 93.9829 93.7519 93.6414 93.3418 93.3289C93.8665 93.4751 94.3287 93.7881 94.658 94.2201C95.0362 94.6063 95.2798 95.1033 95.3527 95.6377Z" fill="#3099FE"/>
<path d="M100.345 91.3926C100.295 91.4271 99.8321 90.8086 99.1296 90.1786C98.4271 89.5486 97.771 89.1375 97.8018 89.0837C98.3533 89.2879 98.8528 89.6106 99.2647 90.0288C99.7203 90.3997 100.089 90.8651 100.345 91.3926Z" fill="#3099FE"/>
<path d="M104.819 85.8568C104.769 85.8875 104.383 85.2652 103.703 84.7043C103.024 84.1434 102.349 83.8591 102.372 83.8015C102.909 83.9388 103.409 84.1953 103.832 84.5519C104.256 84.9085 104.593 85.3559 104.819 85.8606V85.8568Z" fill="#3099FE"/>
<path d="M108.808 79.2682C108.357 78.9096 107.887 78.5761 107.399 78.2694C106.879 78.0236 106.345 77.8069 105.801 77.6202C106.399 77.6167 106.987 77.7818 107.495 78.0965C108.037 78.3537 108.492 78.7604 108.808 79.2682Z" fill="#3099FE"/>
<path d="M111.23 72.1499C110.188 71.5483 108.99 71.2676 107.787 71.3431C108.382 71.1714 109.012 71.1555 109.615 71.2968C110.218 71.4381 110.774 71.732 111.23 72.1499Z" fill="#3099FE"/>
<path d="M112.307 64.5048C112.287 64.5624 111.658 64.3435 110.851 64.2589C110.045 64.1744 109.385 64.2589 109.377 64.1821C110.358 63.9064 111.409 64.0222 112.307 64.5048Z" fill="#3099FE"/>
<path d="M111.911 56.8486C111.548 56.8946 111.181 56.91 110.815 56.8947C110.453 56.9413 110.088 56.9593 109.723 56.9485C110.414 56.645 111.195 56.6094 111.911 56.8486Z" fill="#3099FE"/>
<path d="M110.336 51.5894C109.955 51.5106 109.567 51.4758 109.178 51.4857C108.801 51.5588 108.434 51.6734 108.082 51.8276C108.082 51.8084 108.152 51.697 108.337 51.5741C108.583 51.4157 108.863 51.317 109.155 51.2859C109.446 51.2533 109.742 51.2902 110.016 51.3935C110.24 51.4742 110.348 51.5664 110.336 51.5894Z" fill="#3099FE"/>
<g opacity="0.3">
<path opacity="0.3" d="M84.1575 77.4321C86.0294 80.9703 90.3948 82.7874 94.3858 82.3033C98.3768 81.8193 101.932 79.3491 104.421 76.199C106.255 73.8709 107.613 70.8552 106.857 67.9971C104.877 72.0936 101.413 75.2931 97.1614 76.9534C92.9095 78.6136 88.1841 78.6117 83.9336 76.9481" fill="black"/>
</g>
<path d="M107.519 46.9871C106.622 45.6114 106.293 43.9443 106.601 42.3333C106.909 40.7223 107.829 39.2917 109.171 38.3396C110.236 37.5712 111.521 37.1602 112.529 36.3304C113.145 35.7926 113.646 35.1377 114.004 34.404C114.362 33.6704 114.569 32.8729 114.613 32.0585C114.687 30.4246 114.324 28.8004 113.559 27.3525L114.632 26.8262L114.725 26.9414C115.437 27.8726 115.933 28.9493 116.178 30.0942C116.422 31.2391 116.408 32.4237 116.137 33.5626C115.866 34.7015 115.345 35.7665 114.611 36.6808C113.877 37.5952 112.948 38.3362 111.892 38.8505C111.088 39.2176 110.333 39.6807 109.642 40.2297C108.302 41.3821 108.85 42.6921 108.85 42.6921" fill="#3099FE"/>
<g opacity="0.7">
<path opacity="0.7" d="M107.519 46.9871C106.622 45.6114 106.293 43.9443 106.601 42.3333C106.909 40.7223 107.829 39.2917 109.171 38.3396C110.236 37.5712 111.521 37.1602 112.529 36.3304C113.145 35.7926 113.646 35.1377 114.004 34.404C114.362 33.6704 114.569 32.8729 114.613 32.0585C114.687 30.4246 114.324 28.8004 113.559 27.3525L114.632 26.8262L114.725 26.9414C115.437 27.8726 115.933 28.9493 116.178 30.0942C116.422 31.2391 116.408 32.4237 116.137 33.5626C115.866 34.7015 115.345 35.7665 114.611 36.6808C113.877 37.5952 112.948 38.3362 111.892 38.8505C111.088 39.2176 110.333 39.6807 109.642 40.2297C108.302 41.3821 108.85 42.6921 108.85 42.6921" fill="white"/>
</g>
<path d="M109.023 42.7613C108.586 42.6751 108.141 42.6364 107.695 42.6461C107.254 42.7169 106.821 42.8367 106.406 43.0033C106.757 42.6858 107.202 42.4905 107.674 42.4468C108.146 42.4032 108.62 42.5135 109.023 42.7613Z" fill="#3099FE"/>
<path d="M110.034 39.83C109.98 39.8492 109.81 39.515 109.493 39.2C109.177 38.885 108.845 38.7082 108.864 38.6545C108.883 38.6007 109.285 38.7044 109.636 39.0578C109.987 39.4113 110.084 39.8146 110.034 39.83Z" fill="#3099FE"/>
<path d="M113.82 37.6018C113.766 37.621 113.627 37.2484 113.322 36.8834C113.017 36.5185 112.689 36.3033 112.716 36.2534C112.743 36.2035 113.149 36.3533 113.488 36.7605C113.828 37.1677 113.874 37.5941 113.82 37.6018Z" fill="#3099FE"/>
<path d="M116.356 32.823C116.06 32.8026 115.767 32.7576 115.48 32.6886C115.184 32.6819 114.89 32.6498 114.6 32.5925C114.889 32.4843 115.2 32.4488 115.507 32.489C115.813 32.5292 116.105 32.6439 116.356 32.823Z" fill="#3099FE"/>
<path d="M115.496 28.2054C115.496 28.2631 115.168 28.2439 114.809 28.3514C114.45 28.459 114.183 28.6319 114.145 28.5896C114.106 28.5473 114.338 28.2746 114.751 28.1593C115.164 28.0441 115.511 28.1555 115.496 28.2054Z" fill="#3099FE"/>
<g filter="url(#filter6_i_2382:13404)">
<path d="M79.7695 56.645C81.1359 55.7614 82.9461 56.0534 84.4977 56.5643C86.0494 57.0752 87.6049 57.7821 89.2298 57.6285C91.0014 57.4633 92.5183 56.2877 93.6878 54.9585C95.1328 53.3151 96.208 51.3831 96.8413 49.2921C97.482 47.1638 97.8101 44.6629 99.6512 43.4029C101.492 42.1428 104.047 42.7767 105.63 44.2672C107.212 45.7578 107.977 47.9091 108.478 50.0297C109.636 54.9163 109.656 60.1294 108.065 64.8968C106.475 69.6643 103.206 73.9362 98.7673 76.3257C94.3286 78.7152 88.7319 79.0571 84.216 76.8213" fill="url(#paint20_linear_2382:13404)"/>
</g>
<path d="M84.216 76.8098C84.287 76.8341 84.3565 76.8623 84.4244 76.8943L85.0265 77.1555C85.2967 77.2592 85.6325 77.3822 86.0301 77.5397C86.4276 77.6972 86.8985 77.8048 87.435 77.9238C88.7354 78.2035 90.0656 78.3209 91.3951 78.2734C92.2245 78.2402 93.0503 78.1452 93.8654 77.9892C94.7798 77.8231 95.6775 77.5762 96.5479 77.2516C98.5534 76.5058 100.402 75.3945 101.998 73.9746C103.835 72.3564 105.364 70.4211 106.51 68.2621C107.775 65.8772 108.604 63.2873 108.957 60.6134C109.338 57.7422 109.275 54.8299 108.772 51.9774C108.54 50.5302 108.177 49.1068 107.687 47.7247C107.227 46.3799 106.44 45.1695 105.395 44.2019C104.363 43.295 103.022 42.8141 101.647 42.8574C100.988 42.8856 100.348 43.0843 99.7901 43.4336C99.2512 43.7875 98.8021 44.2609 98.4778 44.8166C97.8139 45.9076 97.5283 47.1523 97.2041 48.3279C96.9196 49.4873 96.5107 50.613 95.9844 51.6855C95.4894 52.686 94.8849 53.6291 94.1819 54.4975C93.5466 55.3122 92.7981 56.0327 91.9587 56.6373C91.1927 57.1944 90.3004 57.5546 89.361 57.6861C88.5217 57.7623 87.6756 57.6722 86.8715 57.421C85.37 56.9792 84.1426 56.4107 83.058 56.2378C82.2368 56.0563 81.3835 56.0774 80.5724 56.2993C80.3644 56.3641 80.1629 56.4477 79.9702 56.549C79.839 56.622 79.7695 56.6527 79.7695 56.6527L79.9587 56.5336C80.1483 56.4227 80.3487 56.3313 80.5569 56.2608C81.3742 56.0186 82.2394 55.9843 83.0735 56.161C84.1697 56.3262 85.4125 56.887 86.9024 57.3135C87.6925 57.5549 88.5229 57.6385 89.3456 57.5593C90.2625 57.4263 91.1323 57.07 91.8776 56.5221C92.7036 55.9224 93.4392 55.2083 94.0622 54.4015C94.7521 53.5381 95.3461 52.603 95.8339 51.6125C96.3533 50.5485 96.7558 49.4318 97.0343 48.2818C97.3546 47.1101 97.6364 45.85 98.3196 44.7206C98.6567 44.1392 99.126 43.6445 99.6898 43.2761C100.268 42.9078 100.934 42.6972 101.62 42.6653C102.32 42.6328 103.02 42.7413 103.677 42.9841C104.349 43.2245 104.971 43.5866 105.51 44.0521C106.579 45.0409 107.385 46.2775 107.857 47.6517C108.353 49.0472 108.72 50.4848 108.953 51.9467C109.463 54.818 109.524 57.7504 109.135 60.6403C108.777 63.3368 107.938 65.9479 106.657 68.3505C105.498 70.5307 103.951 72.4832 102.091 74.1129C100.475 75.5331 98.6068 76.6406 96.5827 77.3783C95.7053 77.6999 94.8012 77.9442 93.8808 78.1082C93.0588 78.2593 92.2267 78.3492 91.3913 78.3772C90.0526 78.417 88.7141 78.2879 87.408 77.993C86.8715 77.8777 86.4083 77.7241 86.003 77.6088C85.5978 77.4936 85.2697 77.3361 85.0034 77.2247L84.409 76.9442C84.2816 76.8482 84.216 76.8098 84.216 76.8098Z" fill="url(#paint21_linear_2382:13404)"/>
<path d="M100.828 47.9091C100.63 47.7465 100.472 47.5417 100.365 47.3098C100.073 46.7612 99.9272 46.1477 99.9403 45.5273C99.9477 44.908 100.111 44.3005 100.415 43.7601C100.527 43.5289 100.692 43.3274 100.897 43.1724C100.924 43.1954 100.739 43.4182 100.542 43.8254C100.287 44.3587 100.15 44.9406 100.141 45.5314C100.132 46.1222 100.252 46.7079 100.492 47.2483C100.681 47.6594 100.859 47.8899 100.828 47.9091Z" fill="url(#paint22_linear_2382:13404)"/>
<path d="M103.171 47.571C102.994 47.3898 102.855 47.1757 102.762 46.941C102.503 46.3849 102.351 45.7855 102.314 45.1738C102.276 44.5628 102.354 43.95 102.546 43.3683C102.608 43.1232 102.72 42.8932 102.874 42.6921C102.586 43.4824 102.463 44.3231 102.514 45.1622C102.565 46.0014 102.789 46.8212 103.171 47.571Z" fill="url(#paint23_linear_2382:13404)"/>
<path d="M105.047 48.2356C104.803 47.6529 104.702 47.0208 104.753 46.3916C104.736 45.7604 104.868 45.1341 105.139 44.563C105.197 44.5822 104.977 45.3813 104.954 46.3954C104.931 47.4096 105.104 48.2356 105.047 48.2356Z" fill="url(#paint24_linear_2382:13404)"/>
<g filter="url(#filter7_i_2382:13404)">
<path d="M137.273 53.0376C133.741 55.1812 129.044 54.774 125.385 52.8493C121.726 50.9247 118.954 47.7015 116.642 44.3209C115.986 43.3605 115.322 42.3424 114.303 41.7624C112.3 40.6099 109.533 41.7239 108.382 43.6832C107.232 45.6424 107.448 48.1548 108.336 50.2524C108.336 50.2524 110.691 61.6083 122.965 68.6692" fill="url(#paint25_linear_2382:13404)"/>
</g>
<path d="M122.964 68.6807C122.927 68.6682 122.892 68.6501 122.86 68.6269L122.559 68.4502C122.289 68.285 121.907 68.0469 121.401 67.7472C121.158 67.5859 120.865 67.4322 120.575 67.2171L119.629 66.5294C119.294 66.272 118.908 66.03 118.545 65.7111L117.387 64.7238C115.477 63.0209 113.778 61.0966 112.327 58.9921C111.451 57.7255 110.677 56.3921 110.011 55.0045C109.263 53.4949 108.673 51.9128 108.251 50.2831V50.3023C107.664 48.9652 107.418 47.5041 107.537 46.0496C107.612 45.2901 107.829 44.5512 108.178 43.8714C108.631 43.0139 109.328 42.3074 110.18 41.8391C111.033 41.3707 112.004 41.1611 112.975 41.2361C113.541 41.3029 114.083 41.4974 114.562 41.8046C115.019 42.1153 115.426 42.4951 115.766 42.9302C116.109 43.3528 116.41 43.7984 116.704 44.2325C116.997 44.6666 117.302 45.0931 117.603 45.508C118.213 46.3416 118.838 47.1368 119.483 47.8783C120.692 49.2962 122.07 50.563 123.586 51.6507C124.91 52.5974 126.379 53.3251 127.936 53.8059C130.184 54.5343 132.594 54.6089 134.883 54.021C135.074 53.9743 135.262 53.9165 135.447 53.8482C135.62 53.7867 135.786 53.7368 135.933 53.6753C136.226 53.5447 136.481 53.4448 136.674 53.3449L137.118 53.1106C137.167 53.0819 137.219 53.0575 137.272 53.0376C137.227 53.0722 137.18 53.103 137.13 53.1298L136.693 53.3795C136.501 53.487 136.25 53.5908 135.956 53.7291C135.806 53.7944 135.644 53.8482 135.47 53.9135C135.285 53.9864 135.095 54.0479 134.903 54.0979C132.596 54.7226 130.157 54.6679 127.882 53.9404C126.308 53.4645 124.823 52.7365 123.485 51.7852C121.954 50.695 120.562 49.423 119.34 47.9973C118.688 47.2521 118.059 46.4607 117.445 45.6232C117.14 45.2045 116.839 44.7742 116.542 44.3401C116.244 43.906 115.947 43.4642 115.611 43.0532C115.283 42.6359 114.892 42.2707 114.454 41.9698C114.001 41.6796 113.487 41.4969 112.952 41.4358C111.843 41.3351 110.734 41.6396 109.833 42.2925C109.229 42.7321 108.727 43.2977 108.365 43.9499C108.002 44.6022 107.787 45.3253 107.734 46.0688C107.619 47.4901 107.858 48.9176 108.428 50.2255V50.2447C108.845 51.8632 109.427 53.435 110.165 54.9353C110.832 56.3173 111.607 57.6455 112.481 58.9076C113.92 61.007 115.604 62.9285 117.499 64.6316L118.657 65.6266C119.016 65.9493 119.398 66.1914 119.726 66.4526L120.664 67.1518C120.95 67.3707 121.239 67.5359 121.482 67.6896L122.613 68.4195L122.903 68.6116C122.925 68.6328 122.946 68.6559 122.964 68.6807Z" fill="url(#paint26_linear_2382:13404)"/>
<path d="M111.656 48.1934C111.363 47.2651 110.952 46.378 110.432 45.5542C109.529 44.2096 108.379 43.5028 108.425 43.449C108.694 43.5604 108.943 43.7148 109.162 43.9061C110.278 44.7831 111.095 45.981 111.501 47.3367C111.602 47.6112 111.655 47.9011 111.656 48.1934Z" fill="url(#paint27_linear_2382:13404)"/>
<path d="M114.042 46.653C113.89 45.6781 113.609 44.7275 113.208 43.8255C112.745 42.9536 112.17 42.1453 111.498 41.4207C111.752 41.5736 111.98 41.7655 112.174 41.9892C112.667 42.5072 113.077 43.0981 113.389 43.741C113.7 44.3831 113.911 45.0683 114.015 45.7732C114.074 46.0628 114.083 46.3604 114.042 46.653Z" fill="url(#paint28_linear_2382:13404)"/>
<g opacity="0.3">
<path opacity="0.3" d="M106.064 69.1995C107.025 67.7358 103.065 67.3901 101.32 67.5937C98.765 67.8859 96.4101 69.1126 94.7126 71.0357C93.0151 72.9588 92.0961 75.4411 92.1339 78.0007C92.1339 78.0007 99.7608 78.8113 106.064 69.1995Z" fill="white"/>
</g>
<g opacity="0.3">
<path opacity="0.3" d="M112.566 62.6648C114.572 65.7196 117.548 68.0184 121.018 69.1956C121.383 69.3529 121.783 69.4087 122.176 69.357C122.37 69.3285 122.548 69.2334 122.679 69.0882C122.811 68.943 122.887 68.7568 122.894 68.5618C118.768 66.3276 115.232 63.1538 112.573 59.2996C112.371 60.4819 112.541 61.6976 113.06 62.7801" fill="black"/>
</g>
<path d="M107.256 36.7372C110.655 33.3541 110.655 27.8691 107.256 24.486C103.857 21.1029 98.3465 21.1029 94.9475 24.486C91.5484 27.869 91.5484 33.3541 94.9475 36.7372C98.3465 40.1202 103.857 40.1202 107.256 36.7372Z" fill="#F5F5F5"/>
<path d="M109.794 30.979C109.794 35.1626 107.587 38.6623 105.128 38.6623C102.669 38.6623 100.674 35.2701 100.674 31.0904C100.674 26.9107 102.669 23.5186 105.128 23.5186C107.587 23.5186 109.794 26.7993 109.794 30.979Z" fill="#263238"/>
<path d="M102.962 34.5708C102.889 34.4851 102.829 34.3894 102.784 34.2865C102.645 34.015 102.525 33.7338 102.425 33.4452C101.753 31.517 101.809 29.4112 102.584 27.5214C102.698 27.2382 102.835 26.9646 102.993 26.7031C103.042 26.6021 103.105 26.5089 103.182 26.4265C103.213 26.4265 102.981 26.8568 102.719 27.579C102.38 28.5117 102.192 29.492 102.163 30.4833C102.137 31.4731 102.267 32.4609 102.549 33.4106C102.784 34.129 102.997 34.5554 102.962 34.5708Z" fill="white"/>
<path d="M106.24 27.7175C107.063 27.7175 107.73 27.0535 107.73 26.2346C107.73 25.4156 107.063 24.7517 106.24 24.7517C105.417 24.7517 104.75 25.4156 104.75 26.2346C104.75 27.0535 105.417 27.7175 106.24 27.7175Z" fill="white"/>
<path d="M106.739 19.9228C106.573 20.1494 106.152 20.1456 105.623 20.0611C105.094 19.9765 104.43 19.8229 103.713 19.7076C102.995 19.5924 102.346 19.5232 101.825 19.4502C101.304 19.3772 100.903 19.2735 100.798 19.0123C100.694 18.7511 100.945 18.3784 101.532 18.0672C101.877 17.8917 102.248 17.7736 102.632 17.7177C103.1 17.6449 103.576 17.6449 104.044 17.7177C104.888 17.8451 105.674 18.2226 106.299 18.801C106.762 19.2774 106.897 19.7038 106.739 19.9228Z" fill="#263238"/>
<path d="M102.793 41.4322C102.122 40.0582 101.974 38.4882 102.377 37.0138C102.781 35.5395 103.708 34.2611 104.987 33.4161C106.266 32.571 107.81 32.2169 109.332 32.4194C110.854 32.622 112.25 33.3674 113.261 34.5172" fill="#3099FE"/>
<path d="M113.268 34.5171C113.268 34.5171 113.083 34.3442 112.74 34.0484C112.249 33.6338 111.697 33.2969 111.103 33.0496C110.226 32.6803 109.28 32.4997 108.328 32.5195C107.157 32.5087 106.01 32.8464 105.033 33.4891C104.057 34.1318 103.296 35.0503 102.847 36.1268C102.46 36.9924 102.26 37.9297 102.26 38.8774C102.26 39.5171 102.358 40.1531 102.55 40.7636C102.689 41.1939 102.797 41.4244 102.778 41.4321C102.742 41.3834 102.712 41.3305 102.689 41.2746C102.608 41.1179 102.537 40.9562 102.477 40.7905C102.249 40.175 102.129 39.5254 102.121 38.8697C102.096 37.898 102.285 36.9326 102.677 36.0422C103.13 34.9306 103.91 33.9809 104.914 33.3174C105.918 32.6539 107.1 32.3075 108.305 32.3235C109.281 32.3122 110.248 32.5128 111.138 32.9113C111.737 33.1735 112.288 33.5346 112.767 33.9793C112.898 34.0986 113.02 34.227 113.133 34.3635C113.185 34.4089 113.23 34.4605 113.268 34.5171Z" fill="url(#paint29_linear_2382:13404)"/>
<path d="M85.5096 8.62842C85.448 8.66069 85.3815 8.68275 85.3127 8.69373L84.7376 8.84739C84.4867 8.90886 84.1818 8.99722 83.8306 9.10478L83.2709 9.26998L82.6456 9.48126C80.3769 10.2704 78.2002 11.3008 76.1535 12.5546C74.1042 13.8127 72.144 15.2092 70.2867 16.7343C69.5726 17.3182 68.9975 17.7946 68.6077 18.1326L68.1483 18.5168C68.0441 18.6052 67.9862 18.6474 67.9785 18.6397C68.0205 18.5847 68.0683 18.5345 68.1213 18.4899L68.5536 18.0789C68.9396 17.7254 69.4915 17.2337 70.194 16.6306C72.0339 15.0744 73.9914 13.6616 76.0493 12.4047C78.1075 11.1332 80.3101 10.1093 82.6109 9.35449L83.24 9.15088L83.8113 9.00106C84.1664 8.90117 84.4713 8.82434 84.726 8.7744L85.3127 8.65915C85.3769 8.64104 85.4429 8.63072 85.5096 8.62842Z" fill="url(#paint30_linear_2382:13404)"/>
</g>
<defs>
<filter id="filter0_i_2382:13404" x="106.977" y="0.00170898" width="13.7676" height="18.5173" filterUnits="userSpaceOnUse" color-interpolation-filters="sRGB">
<feFlood flood-opacity="0" result="BackgroundImageFix"/>
<feBlend mode="normal" in="SourceGraphic" in2="BackgroundImageFix" result="shape"/>
<feColorMatrix in="SourceAlpha" type="matrix" values="0 0 0 0 0 0 0 0 0 0 0 0 0 0 0 0 0 0 127 0" result="hardAlpha"/>
<feOffset dy="2"/>
<feGaussianBlur stdDeviation="2"/>
<feComposite in2="hardAlpha" operator="arithmetic" k2="-1" k3="1"/>
<feColorMatrix type="matrix" values="0 0 0 0 0.279167 0 0 0 0 0.655653 0 0 0 0 1 0 0 0 1 0"/>
<feBlend mode="normal" in2="shape" result="effect1_innerShadow_2382:13404"/>
</filter>
<filter id="filter1_i_2382:13404" x="64.832" y="5.58179" width="15.9746" height="15.9106" filterUnits="userSpaceOnUse" color-interpolation-filters="sRGB">
<feFlood flood-opacity="0" result="BackgroundImageFix"/>
<feBlend mode="normal" in="SourceGraphic" in2="BackgroundImageFix" result="shape"/>
<feColorMatrix in="SourceAlpha" type="matrix" values="0 0 0 0 0 0 0 0 0 0 0 0 0 0 0 0 0 0 127 0" result="hardAlpha"/>
<feOffset dy="2"/>
<feGaussianBlur stdDeviation="2"/>
<feComposite in2="hardAlpha" operator="arithmetic" k2="-1" k3="1"/>
<feColorMatrix type="matrix" values="0 0 0 0 0.279167 0 0 0 0 0.655653 0 0 0 0 1 0 0 0 1 0"/>
<feBlend mode="normal" in2="shape" result="effect1_innerShadow_2382:13404"/>
</filter>
<filter id="filter2_i_2382:13404" x="40.5723" y="7.7627" width="108.838" height="99.4944" filterUnits="userSpaceOnUse" color-interpolation-filters="sRGB">
<feFlood flood-opacity="0" result="BackgroundImageFix"/>
<feBlend mode="normal" in="SourceGraphic" in2="BackgroundImageFix" result="shape"/>
<feColorMatrix in="SourceAlpha" type="matrix" values="0 0 0 0 0 0 0 0 0 0 0 0 0 0 0 0 0 0 127 0" result="hardAlpha"/>
<feOffset dy="2"/>
<feGaussianBlur stdDeviation="2"/>
<feComposite in2="hardAlpha" operator="arithmetic" k2="-1" k3="1"/>
<feColorMatrix type="matrix" values="0 0 0 0 0.279167 0 0 0 0 0.655653 0 0 0 0 1 0 0 0 1 0"/>
<feBlend mode="normal" in2="shape" result="effect1_innerShadow_2382:13404"/>
</filter>
<filter id="filter3_i_2382:13404" x="134.838" y="91.3923" width="21.1621" height="15.6343" filterUnits="userSpaceOnUse" color-interpolation-filters="sRGB">
<feFlood flood-opacity="0" result="BackgroundImageFix"/>
<feBlend mode="normal" in="SourceGraphic" in2="BackgroundImageFix" result="shape"/>
<feColorMatrix in="SourceAlpha" type="matrix" values="0 0 0 0 0 0 0 0 0 0 0 0 0 0 0 0 0 0 127 0" result="hardAlpha"/>
<feOffset dy="2"/>
<feGaussianBlur stdDeviation="2"/>
<feComposite in2="hardAlpha" operator="arithmetic" k2="-1" k3="1"/>
<feColorMatrix type="matrix" values="0 0 0 0 0.279167 0 0 0 0 0.655653 0 0 0 0 1 0 0 0 1 0"/>
<feBlend mode="normal" in2="shape" result="effect1_innerShadow_2382:13404"/>
</filter>
<filter id="filter4_i_2382:13404" x="112.488" y="70.6401" width="17.6562" height="28.8828" filterUnits="userSpaceOnUse" color-interpolation-filters="sRGB">
<feFlood flood-opacity="0" result="BackgroundImageFix"/>
<feBlend mode="normal" in="SourceGraphic" in2="BackgroundImageFix" result="shape"/>
<feColorMatrix in="SourceAlpha" type="matrix" values="0 0 0 0 0 0 0 0 0 0 0 0 0 0 0 0 0 0 127 0" result="hardAlpha"/>
<feOffset dy="2"/>
<feGaussianBlur stdDeviation="2"/>
<feComposite in2="hardAlpha" operator="arithmetic" k2="-1" k3="1"/>
<feColorMatrix type="matrix" values="0 0 0 0 0.279167 0 0 0 0 0.655653 0 0 0 0 1 0 0 0 1 0"/>
<feBlend mode="normal" in2="shape" result="effect1_innerShadow_2382:13404"/>
</filter>
<filter id="filter5_i_2382:13404" x="32.9238" y="72.2783" width="23.6289" height="24.0278" filterUnits="userSpaceOnUse" color-interpolation-filters="sRGB">
<feFlood flood-opacity="0" result="BackgroundImageFix"/>
<feBlend mode="normal" in="SourceGraphic" in2="BackgroundImageFix" result="shape"/>
<feColorMatrix in="SourceAlpha" type="matrix" values="0 0 0 0 0 0 0 0 0 0 0 0 0 0 0 0 0 0 127 0" result="hardAlpha"/>
<feOffset dy="2"/>
<feGaussianBlur stdDeviation="2"/>
<feComposite in2="hardAlpha" operator="arithmetic" k2="-1" k3="1"/>
<feColorMatrix type="matrix" values="0 0 0 0 0.279167 0 0 0 0 0.655653 0 0 0 0 1 0 0 0 1 0"/>
<feBlend mode="normal" in2="shape" result="effect1_innerShadow_2382:13404"/>
</filter>
<filter id="filter6_i_2382:13404" x="79.7695" y="42.7295" width="29.5391" height="37.5928" filterUnits="userSpaceOnUse" color-interpolation-filters="sRGB">
<feFlood flood-opacity="0" result="BackgroundImageFix"/>
<feBlend mode="normal" in="SourceGraphic" in2="BackgroundImageFix" result="shape"/>
<feColorMatrix in="SourceAlpha" type="matrix" values="0 0 0 0 0 0 0 0 0 0 0 0 0 0 0 0 0 0 127 0" result="hardAlpha"/>
<feOffset dy="2"/>
<feGaussianBlur stdDeviation="2"/>
<feComposite in2="hardAlpha" operator="arithmetic" k2="-1" k3="1"/>
<feColorMatrix type="matrix" values="0 0 0 0 0.279167 0 0 0 0 0.655653 0 0 0 0 1 0 0 0 1 0"/>
<feBlend mode="normal" in2="shape" result="effect1_innerShadow_2382:13404"/>
</filter>
<filter id="filter7_i_2382:13404" x="107.594" y="41.2961" width="29.6797" height="29.373" filterUnits="userSpaceOnUse" color-interpolation-filters="sRGB">
<feFlood flood-opacity="0" result="BackgroundImageFix"/>
<feBlend mode="normal" in="SourceGraphic" in2="BackgroundImageFix" result="shape"/>
<feColorMatrix in="SourceAlpha" type="matrix" values="0 0 0 0 0 0 0 0 0 0 0 0 0 0 0 0 0 0 127 0" result="hardAlpha"/>
<feOffset dy="2"/>
<feGaussianBlur stdDeviation="2"/>
<feComposite in2="hardAlpha" operator="arithmetic" k2="-1" k3="1"/>
<feColorMatrix type="matrix" values="0 0 0 0 0.279167 0 0 0 0 0.655653 0 0 0 0 1 0 0 0 1 0"/>
<feBlend mode="normal" in2="shape" result="effect1_innerShadow_2382:13404"/>
</filter>
<linearGradient id="paint0_linear_2382:13404" x1="105.941" y1="-16.846" x2="123.795" y2="-16.0789" gradientUnits="userSpaceOnUse">
<stop stop-color="#93CFFF"/>
<stop offset="1" stop-color="#2894FF"/>
</linearGradient>
<linearGradient id="paint1_linear_2382:13404" x1="63.6301" y1="-8.60698" x2="84.3134" y2="-7.38252" gradientUnits="userSpaceOnUse">
<stop stop-color="#93CFFF"/>
<stop offset="1" stop-color="#2894FF"/>
</linearGradient>
<linearGradient id="paint2_linear_2382:13404" x1="32.3838" y1="-91.6813" x2="173.323" y2="-83.5708" gradientUnits="userSpaceOnUse">
<stop stop-color="#93CFFF"/>
<stop offset="1" stop-color="#2894FF"/>
</linearGradient>
<linearGradient id="paint3_linear_2382:13404" x1="52.8273" y1="80.7435" x2="52.8273" y2="64.8276" gradientUnits="userSpaceOnUse">
<stop stop-color="#ADDCFF"/>
<stop offset="0.5028" stop-color="#EAF6FF"/>
<stop offset="1" stop-color="#EAF6FF"/>
</linearGradient>
<linearGradient id="paint4_linear_2382:13404" x1="140.894" y1="82.7608" x2="140.894" y2="76.4575" gradientUnits="userSpaceOnUse">
<stop stop-color="#ADDCFF"/>
<stop offset="0.5028" stop-color="#EAF6FF"/>
<stop offset="1" stop-color="#EAF6FF"/>
</linearGradient>
<linearGradient id="paint5_linear_2382:13404" x1="107.275" y1="97.0475" x2="107.275" y2="82.7451" gradientUnits="userSpaceOnUse">
<stop stop-color="#ADDCFF"/>
<stop offset="0.5028" stop-color="#EAF6FF"/>
<stop offset="1" stop-color="#EAF6FF"/>
</linearGradient>
<linearGradient id="paint6_linear_2382:13404" x1="67.3818" y1="100.121" x2="67.3818" y2="94.4697" gradientUnits="userSpaceOnUse">
<stop stop-color="#ADDCFF"/>
<stop offset="0.5028" stop-color="#EAF6FF"/>
<stop offset="1" stop-color="#EAF6FF"/>
</linearGradient>
<linearGradient id="paint7_linear_2382:13404" x1="133.246" y1="77.4854" x2="160.566" y2="79.6713" gradientUnits="userSpaceOnUse">
<stop stop-color="#93CFFF"/>
<stop offset="1" stop-color="#2894FF"/>
</linearGradient>
<linearGradient id="paint8_linear_2382:13404" x1="112.482" y1="100.37" x2="112.482" y2="85.8555" gradientUnits="userSpaceOnUse">
<stop stop-color="#ADDCFF"/>
<stop offset="0.5028" stop-color="#EAF6FF"/>
<stop offset="1" stop-color="#EAF6FF"/>
</linearGradient>
<linearGradient id="paint9_linear_2382:13404" x1="111.16" y1="43.2196" x2="134.072" y2="43.9953" gradientUnits="userSpaceOnUse">
<stop stop-color="#93CFFF"/>
<stop offset="1" stop-color="#2894FF"/>
</linearGradient>
<linearGradient id="paint10_linear_2382:13404" x1="121.346" y1="97.5923" x2="121.346" y2="70.5715" gradientUnits="userSpaceOnUse">
<stop stop-color="#ADDCFF"/>
<stop offset="0.5028" stop-color="#EAF6FF"/>
<stop offset="1" stop-color="#EAF6FF"/>
</linearGradient>
<linearGradient id="paint11_linear_2382:13404" x1="31.1461" y1="49.8098" x2="61.7518" y2="51.5022" gradientUnits="userSpaceOnUse">
<stop stop-color="#93CFFF"/>
<stop offset="1" stop-color="#2894FF"/>
</linearGradient>
<linearGradient id="paint12_linear_2382:13404" x1="44.7583" y1="94.3763" x2="44.7583" y2="72.2371" gradientUnits="userSpaceOnUse">
<stop stop-color="#ADDCFF"/>
<stop offset="0.5028" stop-color="#EAF6FF"/>
<stop offset="1" stop-color="#EAF6FF"/>
</linearGradient>
<linearGradient id="paint13_linear_2382:13404" x1="144.245" y1="104.735" x2="144.245" y2="82.042" gradientUnits="userSpaceOnUse">
<stop stop-color="#ADDCFF"/>
<stop offset="0.5028" stop-color="#EAF6FF"/>
<stop offset="1" stop-color="#EAF6FF"/>
</linearGradient>
<linearGradient id="paint14_linear_2382:13404" x1="71.4532" y1="58.7388" x2="71.4532" y2="46.2266" gradientUnits="userSpaceOnUse">
<stop stop-color="#ADDCFF"/>
<stop offset="0.5028" stop-color="#EAF6FF"/>
<stop offset="1" stop-color="#EAF6FF"/>
</linearGradient>
<linearGradient id="paint15_linear_2382:13404" x1="66.0071" y1="52.3238" x2="66.0071" y2="42.3574" gradientUnits="userSpaceOnUse">
<stop stop-color="#ADDCFF"/>
<stop offset="0.5028" stop-color="#EAF6FF"/>
<stop offset="1" stop-color="#EAF6FF"/>
</linearGradient>
<linearGradient id="paint16_linear_2382:13404" x1="93.728" y1="42.3101" x2="93.728" y2="39.6611" gradientUnits="userSpaceOnUse">
<stop stop-color="#ADDCFF"/>
<stop offset="0.5028" stop-color="#EAF6FF"/>
<stop offset="1" stop-color="#EAF6FF"/>
</linearGradient>
<linearGradient id="paint17_linear_2382:13404" x1="97.2245" y1="42.9688" x2="97.2245" y2="40.7124" gradientUnits="userSpaceOnUse">
<stop stop-color="#ADDCFF"/>
<stop offset="0.5028" stop-color="#EAF6FF"/>
<stop offset="1" stop-color="#EAF6FF"/>
</linearGradient>
<linearGradient id="paint18_linear_2382:13404" x1="89.1538" y1="46.3614" x2="89.1538" y2="42.4731" gradientUnits="userSpaceOnUse">
<stop stop-color="#ADDCFF"/>
<stop offset="0.5028" stop-color="#EAF6FF"/>
<stop offset="1" stop-color="#EAF6FF"/>
</linearGradient>
<linearGradient id="paint19_linear_2382:13404" x1="71.2244" y1="52.4047" x2="71.2244" y2="44.8184" gradientUnits="userSpaceOnUse">
<stop stop-color="#ADDCFF"/>
<stop offset="0.5028" stop-color="#EAF6FF"/>
<stop offset="1" stop-color="#EAF6FF"/>
</linearGradient>
<linearGradient id="paint20_linear_2382:13404" x1="77.5472" y1="6.42502" x2="115.854" y2="8.06377" gradientUnits="userSpaceOnUse">
<stop stop-color="#93CFFF"/>
<stop offset="1" stop-color="#2894FF"/>
</linearGradient>
<linearGradient id="paint21_linear_2382:13404" x1="94.5785" y1="78.3842" x2="94.5785" y2="42.6597" gradientUnits="userSpaceOnUse">
<stop stop-color="#ADDCFF"/>
<stop offset="0.5028" stop-color="#EAF6FF"/>
<stop offset="1" stop-color="#EAF6FF"/>
</linearGradient>
<linearGradient id="paint22_linear_2382:13404" x1="100.42" y1="47.9091" x2="100.42" y2="43.1724" gradientUnits="userSpaceOnUse">
<stop stop-color="#ADDCFF"/>
<stop offset="0.5028" stop-color="#EAF6FF"/>
<stop offset="1" stop-color="#EAF6FF"/>
</linearGradient>
<linearGradient id="paint23_linear_2382:13404" x1="102.738" y1="47.571" x2="102.738" y2="42.6921" gradientUnits="userSpaceOnUse">
<stop stop-color="#ADDCFF"/>
<stop offset="0.5028" stop-color="#EAF6FF"/>
<stop offset="1" stop-color="#EAF6FF"/>
</linearGradient>
<linearGradient id="paint24_linear_2382:13404" x1="104.945" y1="48.2356" x2="104.945" y2="44.563" gradientUnits="userSpaceOnUse">
<stop stop-color="#ADDCFF"/>
<stop offset="0.5028" stop-color="#EAF6FF"/>
<stop offset="1" stop-color="#EAF6FF"/>
</linearGradient>
<linearGradient id="paint25_linear_2382:13404" x1="105.361" y1="13.3757" x2="143.8" y2="15.5241" gradientUnits="userSpaceOnUse">
<stop stop-color="#93CFFF"/>
<stop offset="1" stop-color="#2894FF"/>
</linearGradient>
<linearGradient id="paint26_linear_2382:13404" x1="122.39" y1="68.6807" x2="122.39" y2="41.2212" gradientUnits="userSpaceOnUse">
<stop stop-color="#ADDCFF"/>
<stop offset="0.5028" stop-color="#EAF6FF"/>
<stop offset="1" stop-color="#EAF6FF"/>
</linearGradient>
<linearGradient id="paint27_linear_2382:13404" x1="110.04" y1="48.1934" x2="110.04" y2="43.449" gradientUnits="userSpaceOnUse">
<stop stop-color="#ADDCFF"/>
<stop offset="0.5028" stop-color="#EAF6FF"/>
<stop offset="1" stop-color="#EAF6FF"/>
</linearGradient>
<linearGradient id="paint28_linear_2382:13404" x1="112.783" y1="46.653" x2="112.783" y2="41.4207" gradientUnits="userSpaceOnUse">
<stop stop-color="#ADDCFF"/>
<stop offset="0.5028" stop-color="#EAF6FF"/>
<stop offset="1" stop-color="#EAF6FF"/>
</linearGradient>
<linearGradient id="paint29_linear_2382:13404" x1="107.694" y1="41.4321" x2="107.694" y2="32.323" gradientUnits="userSpaceOnUse">
<stop stop-color="#ADDCFF"/>
<stop offset="0.5028" stop-color="#EAF6FF"/>
<stop offset="1" stop-color="#EAF6FF"/>
</linearGradient>
<linearGradient id="paint30_linear_2382:13404" x1="76.744" y1="18.6406" x2="76.744" y2="8.62842" gradientUnits="userSpaceOnUse">
<stop stop-color="#ADDCFF"/>
<stop offset="0.5028" stop-color="#EAF6FF"/>
<stop offset="1" stop-color="#EAF6FF"/>
</linearGradient>
<clipPath id="clip0_2382:13404">
<rect width="156" height="108" fill="white"/>
</clipPath>
</defs>
</svg>
