<svg width="36" height="36" viewBox="0 0 36 36" fill="none" xmlns="http://www.w3.org/2000/svg">
<path d="M10.1829 35.982C8.81205 36.0257 7.44719 35.7843 6.17442 35.2733C4.90165 34.7624 3.74869 33.9929 2.78858 33.0135C0.897018 30.9262 -0.103704 28.1822 1.40304e-06 25.3673V10.6686C-0.103565 7.84497 0.90407 5.09332 2.80659 3.00437C3.76108 2.02132 4.90997 1.24818 6.18002 0.733971C7.45006 0.219759 8.81332 -0.0240765 10.1829 0.0180204H25.7811C27.152 -0.0256089 28.5169 0.215538 29.7897 0.726504C31.0625 1.23747 32.2153 2.00718 33.1754 2.98658C35.0724 5.08608 36.0788 7.84066 35.982 10.6686V25.3673C36.0856 28.1909 35.0779 30.9425 33.1754 33.0315C32.2153 34.0109 31.0625 34.7804 29.7897 35.2913C28.5169 35.8023 27.152 36.0437 25.7811 36L10.1829 35.982ZM2.69865 10.6505V25.3673C2.60191 27.4831 3.33084 29.5537 4.73164 31.1423C5.43168 31.8577 6.2732 32.4193 7.20255 32.791C8.1319 33.1627 9.12863 33.3367 10.1289 33.3014H25.7271C30.2788 33.3014 33.2293 30.1889 33.2293 25.3673V10.6686C33.2293 5.84697 30.2788 2.73468 25.7271 2.73468H10.1289C5.63119 2.6987 2.69865 5.82896 2.69865 10.6505ZM4.98354 27.0225C4.73622 26.7981 4.58084 26.4898 4.54761 26.1575C4.51437 25.8251 4.60558 25.4924 4.80357 25.2234L4.92952 25.0794L7.68219 22.1648C8.37343 21.4309 9.32281 20.9945 10.3299 20.9475C11.337 20.9005 12.3229 21.2466 13.0795 21.9129L13.2954 22.1288L14.8966 23.7661C15.1243 23.9838 15.4271 24.1054 15.7421 24.1054C16.0572 24.1054 16.36 23.9838 16.5877 23.7661L16.7316 23.6222L20.7437 18.7465C21.1124 18.2938 21.5676 17.9195 22.0828 17.6449C22.598 17.3703 23.1629 17.2013 23.7442 17.1477C24.3255 17.0941 24.9117 17.1569 25.4684 17.3326C26.0251 17.5083 26.5413 17.7933 26.9865 18.1709L27.1125 18.2789L27.3463 18.5126L31.0885 22.3627C31.3423 22.6188 31.4846 22.9648 31.4846 23.3253C31.4846 23.6858 31.3423 24.0318 31.0885 24.2879C30.8411 24.5091 30.5209 24.6313 30.189 24.6313C29.8571 24.6313 29.5368 24.5091 29.2894 24.2879L29.1454 24.1618L25.4033 20.2939C25.0868 19.9819 24.6603 19.8068 24.2159 19.8068C23.7715 19.8068 23.3449 19.9819 23.0285 20.2939L22.8845 20.4558L18.8725 25.3493C18.2088 26.1549 17.2526 26.6642 16.2136 26.7654C15.1747 26.8666 14.138 26.5515 13.3313 25.8891H13.2233L13.0075 25.6732L11.4063 24.036C11.2055 23.828 10.9356 23.7005 10.6475 23.6773C10.3593 23.6541 10.0725 23.7368 9.84103 23.9099L9.69718 24.054L6.9445 26.9505C6.6915 27.2032 6.34861 27.3452 5.99104 27.3452C5.63346 27.3452 5.29046 27.2032 5.03746 26.9505L4.98354 27.0225ZM7.30434 12.8816C7.30434 11.9885 7.56923 11.1153 8.06543 10.3727C8.56162 9.63012 9.2668 9.05136 10.0919 8.70957C10.9171 8.36779 11.8251 8.27838 12.7011 8.45262C13.5771 8.62686 14.3817 9.05687 15.0132 9.68841C15.6448 10.3199 16.0749 11.1246 16.2491 12.0005C16.4234 12.8765 16.3338 13.7844 15.9921 14.6096C15.6503 15.4347 15.0715 16.14 14.3289 16.6362C13.5863 17.1324 12.7132 17.3972 11.8201 17.3972C10.6239 17.3924 9.4781 16.9152 8.63226 16.0694C7.78642 15.2235 7.30908 14.0778 7.30434 12.8816ZM10.003 12.8816C10.003 13.2375 10.1085 13.5852 10.3062 13.8811C10.5039 14.177 10.7849 14.4075 11.1136 14.5437C11.4423 14.6799 11.8041 14.7155 12.153 14.646C12.502 14.5766 12.8226 14.4053 13.0742 14.1537C13.3258 13.902 13.4972 13.5816 13.5666 13.2326C13.636 12.8836 13.6004 12.5219 13.4643 12.1931C13.3281 11.8644 13.0975 11.5833 12.8017 11.3856C12.5058 11.1879 12.1579 11.0825 11.8021 11.0825C11.3249 11.0825 10.8674 11.272 10.53 11.6094C10.1926 11.9468 10.003 12.4045 10.003 12.8816Z" fill="#262A33"/>
</svg>
