<svg width="12" height="12" viewBox="0 0 12 12" fill="none" xmlns="http://www.w3.org/2000/svg">
<path d="M8.59801 12H3.40199C1.36799 12 0 10.578 0 8.454V3.55201C0 1.42801 1.36799 2.28882e-05 3.40199 2.28882e-05H8.59801C10.632 2.28882e-05 12 1.42801 12 3.55201V8.46001C12 10.584 10.632 12.006 8.59801 12.006" fill="#FD027A"/>
<path d="M3.4137 10.656C2.95508 10.6666 2.50243 10.5503 2.10571 10.32C2.00839 10.2582 1.93932 10.1607 1.91348 10.0483C1.88765 9.93602 1.90716 9.81804 1.96772 9.71999L2.00372 9.66601L2.8497 8.63399C3.3837 7.97399 3.74369 7.78202 4.14569 7.95002C4.31735 8.02996 4.48195 8.12428 4.63769 8.232C4.88875 8.46254 5.204 8.61127 5.54157 8.65842C5.87914 8.70557 6.22308 8.64892 6.52771 8.49601C7.03501 8.17741 7.44901 7.7303 7.72771 7.20002C7.83518 7.01334 7.95336 6.83302 8.08169 6.66001C8.2099 6.45288 8.41293 6.30305 8.64865 6.24161C8.88437 6.18017 9.13471 6.21183 9.34771 6.33001C9.74416 6.59976 10.1103 6.91157 10.4397 7.26001C10.5718 7.38955 10.6759 7.54473 10.7457 7.71601C10.914 8.24346 10.8711 8.81565 10.6257 9.312C10.5003 9.59738 10.3147 9.85233 10.0817 10.0594C9.84876 10.2665 9.57384 10.4209 9.27572 10.512C9.00503 10.6019 8.72086 10.6445 8.4357 10.638L3.4137 10.656ZM2.56171 4.00802C2.56053 3.71228 2.64711 3.42283 2.81055 3.17635C2.97399 2.92988 3.20692 2.73745 3.4798 2.62345C3.75269 2.50945 4.05327 2.47903 4.34348 2.536C4.63368 2.59296 4.90045 2.73478 5.10999 2.94348C5.31953 3.15218 5.46242 3.41834 5.52055 3.70831C5.57869 3.99828 5.54944 4.29901 5.43654 4.57235C5.32364 4.84569 5.13216 5.07937 4.88635 5.2438C4.64053 5.40823 4.35145 5.496 4.05571 5.49601C3.66051 5.49601 3.28139 5.33943 3.00139 5.06054C2.72138 4.78166 2.5633 4.40321 2.56171 4.00802Z" fill="white"/>
</svg>
