<svg width="62" height="18" viewBox="0 0 62 18" fill="none" xmlns="http://www.w3.org/2000/svg">
<path d="M10.365 13.8744H9.36966C9.33532 13.8744 9.30239 13.8891 9.27811 13.9153C9.25383 13.9416 9.24019 13.9771 9.24019 14.0142V17.5723C9.24019 17.5918 9.23663 17.6111 9.22972 17.6292C9.22281 17.6472 9.21267 17.6636 9.1999 17.6774C9.18713 17.6912 9.17196 17.7021 9.15527 17.7096C9.13858 17.7171 9.1207 17.7209 9.10263 17.7209H7.08776C7.06969 17.7209 7.0518 17.7171 7.03511 17.7096C7.01842 17.7021 7.00326 17.6912 6.99049 17.6774C6.97771 17.6636 6.96758 17.6472 6.96067 17.6292C6.95375 17.6111 6.9502 17.5918 6.9502 17.5723V7.65873C6.9502 7.61932 6.96469 7.58152 6.99049 7.55364C7.01628 7.52577 7.05127 7.51012 7.08776 7.51012H10.4216C12.4931 7.51012 14.1196 8.32313 14.1196 10.6573C14.1196 12.9914 12.3475 13.8744 10.365 13.8744ZM10.2274 9.50332H9.36966C9.33532 9.50332 9.30239 9.51805 9.27811 9.54428C9.25383 9.57052 9.24019 9.60609 9.24019 9.64319V11.7675C9.24019 11.8046 9.25383 11.8402 9.27811 11.8664C9.30239 11.8927 9.33532 11.9074 9.36966 11.9074H10.1788C11.0366 11.9074 11.7972 11.6364 11.7972 10.666C11.7972 9.69564 11.0528 9.50332 10.2355 9.50332H10.2274Z" fill="#2F394D"/>
<path d="M22.948 17.6326L22.2763 15.8055C22.2666 15.7794 22.2498 15.7571 22.2281 15.7416C22.2065 15.726 22.181 15.7178 22.155 15.7181H18.6755C18.6494 15.7178 18.6239 15.726 18.6023 15.7416C18.5806 15.7571 18.5638 15.7794 18.5541 15.8055L17.9229 17.6326C17.9132 17.6587 17.8964 17.6809 17.8747 17.6965C17.8531 17.7121 17.8276 17.7203 17.8015 17.72H15.6006C15.5792 17.7203 15.5582 17.7148 15.5393 17.7042C15.5204 17.6935 15.5042 17.678 15.4922 17.6589C15.4802 17.6399 15.4727 17.618 15.4705 17.5951C15.4682 17.5722 15.4712 17.549 15.4792 17.5277L19.339 7.59665C19.3488 7.57059 19.3656 7.54831 19.3872 7.53272C19.4089 7.51712 19.4344 7.50894 19.4604 7.50923H21.5076C21.5336 7.50894 21.5591 7.51712 21.5808 7.53272C21.6024 7.54831 21.6192 7.57059 21.629 7.59665L25.4483 17.5364C25.4563 17.5578 25.4593 17.5809 25.4571 17.6038C25.4548 17.6267 25.4473 17.6487 25.4353 17.6677C25.4233 17.6867 25.4071 17.7022 25.3882 17.7129C25.3693 17.7235 25.3483 17.729 25.327 17.7288H23.0693C23.0424 17.7284 23.0162 17.7189 22.9944 17.7017C22.9726 17.6844 22.9564 17.6603 22.948 17.6326ZM20.3181 10.5865L19.3066 13.55C19.3003 13.5709 19.2986 13.5931 19.3016 13.6148C19.3047 13.6365 19.3124 13.6572 19.3243 13.675C19.3361 13.6929 19.3516 13.7075 19.3697 13.7177C19.3877 13.7279 19.4077 13.7333 19.428 13.7336H21.4348C21.4551 13.7333 21.4751 13.7279 21.4931 13.7177C21.5112 13.7075 21.5267 13.6929 21.5385 13.675C21.5504 13.6572 21.5581 13.6365 21.5612 13.6148C21.5642 13.5931 21.5625 13.5709 21.5562 13.55L20.5609 10.5865C20.5509 10.56 20.5336 10.5375 20.5114 10.5219C20.4892 10.5064 20.4631 10.4985 20.4367 10.4995C20.4102 10.5004 20.3847 10.5101 20.3635 10.5272C20.3423 10.5443 20.3264 10.5681 20.3181 10.5952V10.5865Z" fill="#2F394D"/>
<path d="M33.8401 17.6588L31.9223 14.3106C31.9106 14.2907 31.8945 14.2744 31.8754 14.2631C31.8563 14.2517 31.8349 14.2458 31.8131 14.2458C31.7913 14.2458 31.7699 14.2517 31.7508 14.2631C31.7317 14.2744 31.7155 14.2907 31.7038 14.3106L29.8589 17.6588C29.8474 17.6803 29.8309 17.698 29.811 17.7103C29.7911 17.7226 29.7685 17.729 29.7456 17.7288H27.3181C27.2947 17.7284 27.2718 17.7212 27.2519 17.7079C27.232 17.6947 27.2158 17.6758 27.205 17.6534C27.1942 17.631 27.1893 17.6059 27.1907 17.5806C27.192 17.5554 27.1997 17.5311 27.2129 17.5102L30.3444 12.4048C30.359 12.3816 30.3668 12.3542 30.3668 12.3261C30.3668 12.2981 30.359 12.2707 30.3444 12.2475L27.5123 7.72778C27.4991 7.7069 27.4914 7.68256 27.4901 7.65734C27.4887 7.63212 27.4936 7.60697 27.5044 7.58456C27.5152 7.56215 27.5314 7.54331 27.5513 7.53004C27.5712 7.51678 27.5941 7.50959 27.6175 7.50923H30.045C30.0679 7.50901 30.0905 7.51537 30.1104 7.52765C30.1303 7.53994 30.1468 7.55772 30.1583 7.57917L31.7767 10.4815C31.7884 10.5014 31.8045 10.5178 31.8236 10.5291C31.8427 10.5404 31.8641 10.5463 31.8859 10.5463C31.9077 10.5463 31.9291 10.5404 31.9482 10.5291C31.9673 10.5178 31.9835 10.5014 31.9952 10.4815L33.6135 7.57917C33.625 7.55772 33.6415 7.53994 33.6614 7.52765C33.6813 7.51537 33.7039 7.50901 33.7268 7.50923H36.0654C36.0887 7.50959 36.1116 7.51678 36.1315 7.53004C36.1514 7.54331 36.1676 7.56215 36.1784 7.58456C36.1892 7.60697 36.1941 7.63212 36.1928 7.65734C36.1914 7.68256 36.1837 7.7069 36.1706 7.72778L33.3303 12.2387C33.3157 12.2619 33.3079 12.2893 33.3079 12.3174C33.3079 12.3455 33.3157 12.3729 33.3303 12.3961L36.5671 17.4927C36.5802 17.5136 36.5879 17.5379 36.5893 17.5632C36.5906 17.5884 36.5857 17.6135 36.5749 17.6359C36.5641 17.6584 36.5479 17.6772 36.528 17.6905C36.5081 17.7037 36.4852 17.7109 36.4619 17.7113H33.9858C33.9595 17.7205 33.9312 17.7203 33.905 17.7109C33.8787 17.7014 33.856 17.6832 33.8401 17.6588Z" fill="#2F394D"/>
<path d="M43.3799 18C40.8957 18 39.334 16.3215 39.334 13.8737V7.64935C39.334 7.61225 39.3476 7.57667 39.3719 7.55044C39.3962 7.52421 39.4291 7.50947 39.4635 7.50947H41.4702C41.5046 7.50947 41.5375 7.52421 41.5618 7.55044C41.5861 7.57667 41.5997 7.61225 41.5997 7.64935V13.6639C41.5833 13.9268 41.617 14.1905 41.6988 14.4387C41.7807 14.687 41.9088 14.9144 42.0754 15.1068C42.2419 15.2993 42.4433 15.4528 42.667 15.5577C42.8907 15.6626 43.132 15.7168 43.3759 15.7168C43.6198 15.7168 43.861 15.6626 44.0848 15.5577C44.3085 15.4528 44.5098 15.2993 44.6764 15.1068C44.8429 14.9144 44.9711 14.687 45.0529 14.4387C45.1347 14.1905 45.1685 13.9268 45.152 13.6639V7.64935C45.1514 7.62763 45.1554 7.60605 45.1639 7.58631C45.1723 7.56658 45.1849 7.54924 45.2006 7.53566C45.2163 7.52209 45.2347 7.51265 45.2544 7.50811C45.274 7.50356 45.2944 7.50403 45.3139 7.50947H47.3368C47.3712 7.50947 47.4041 7.52421 47.4284 7.55044C47.4527 7.57667 47.4663 7.61225 47.4663 7.64935V13.8737C47.4501 16.3215 45.8479 18 43.3799 18Z" fill="#2F394D"/>
<path d="M59.88 17.72C59.8435 17.72 59.8085 17.7044 59.7827 17.6765C59.7569 17.6486 59.7424 17.6108 59.7424 17.5714L59.7991 10.4903L57.3715 17.6239C57.3616 17.6522 57.3439 17.6767 57.3207 17.6939C57.2976 17.7111 57.2701 17.7202 57.242 17.72H55.834C55.806 17.7202 55.7785 17.7111 55.7553 17.6939C55.7322 17.6767 55.7145 17.6522 55.7046 17.6239L53.3094 10.4903L53.3579 17.5714C53.3579 17.5909 53.3544 17.6102 53.3475 17.6283C53.3406 17.6463 53.3304 17.6627 53.3176 17.6765C53.3049 17.6903 53.2897 17.7012 53.273 17.7087C53.2563 17.7162 53.2384 17.72 53.2204 17.72H51.3026C51.2845 17.72 51.2666 17.7162 51.25 17.7087C51.2333 17.7012 51.2181 17.6903 51.2053 17.6765C51.1926 17.6627 51.1824 17.6463 51.1755 17.6283C51.1686 17.6102 51.165 17.5909 51.165 17.5714V7.65785C51.165 7.61843 51.1795 7.58063 51.2053 7.55276C51.2311 7.52489 51.2661 7.50923 51.3026 7.50923H54.3128C54.3409 7.50907 54.3683 7.51819 54.3915 7.53538C54.4146 7.55257 54.4323 7.57701 54.4422 7.6054L56.5623 14.0571H56.6432L58.6662 7.6054C58.6761 7.57701 58.6938 7.55257 58.717 7.53538C58.7401 7.51819 58.7676 7.50907 58.7957 7.50923H61.8625C61.899 7.50923 61.9339 7.52489 61.9597 7.55276C61.9855 7.58063 62 7.61843 62 7.65785V17.5801C62 17.6196 61.9855 17.6574 61.9597 17.6852C61.9339 17.7131 61.899 17.7288 61.8625 17.7288L59.88 17.72Z" fill="#2F394D"/>
<path d="M0 8.74211H2.46802C2.47861 7.13425 3.07452 5.5955 4.12691 4.45854C5.1793 3.32159 6.6036 2.67779 8.09186 2.66634V0C5.94577 0 3.88757 0.921041 2.37005 2.5605C0.852533 4.19997 0 6.42356 0 8.74211H0Z" fill="#FF5252"/>
</svg>
