    <svg
      width="22"
      height="22"
      viewBox="0 0 22 22"
      fill="none"
      xmlns="http://www.w3.org/2000/svg"
    >
      <path
        d="M7.2354 1.6251C6.83005 1.78691 6.63258 2.2467 6.79438 2.65204C6.95617 3.05742 7.41598 3.25492 7.82134 3.09311L7.82318 3.09237L20.9989 11.0001M7.2354 1.6251C7.23541 1.62509 7.23543 1.62508 7.23545 1.62508L7.27252 1.71794L7.23534 1.62512C7.23536 1.62511 7.23538 1.62511 7.2354 1.6251ZM7.2354 1.6251C10.99 0.121331 15.2795 0.999818 18.1407 3.85847C20.0411 5.74847 21.1063 8.32021 21.0989 11.0004M21.0989 11.0004L20.9989 11.0001M21.0989 11.0004C21.0989 11.0003 21.0989 11.0002 21.0989 11.0001L20.9989 11.0001M21.0989 11.0004C21.1003 14.5975 19.1876 17.9236 16.078 19.7318M20.9989 11.0001C21.0004 14.5617 19.1067 17.855 16.0278 19.6454M16.078 19.7318L16.0795 19.7309L16.0278 19.6454M16.078 19.7318L16.0727 19.7349M16.078 19.7318L16.0278 19.6454M16.0278 19.6454L16.0727 19.7349M16.0727 19.7349L16.0227 19.6483L16.0721 19.7353L16.0727 19.7349ZM16.0727 19.7349C15.6946 19.9531 15.2113 19.8235 14.9931 19.4455C14.775 19.0676 14.9044 18.5845 15.2821 18.3662C17.8997 16.835 19.5113 14.0327 19.5183 11.0001L16.0727 19.7349Z"
        fill="#778797"
        stroke="white"
        strokeWidth="0.2"
      />
      <path
        d="M6.17627 3.00067L6.17627 3.00066C5.921 2.64661 5.42707 2.56652 5.07298 2.82178L5.0703 2.82371L5.06865 2.82492L5.06831 2.82516C3.8424 3.71828 2.83117 4.87366 2.10835 6.20711L2.10826 6.20727C1.90095 6.59139 2.04421 7.0708 2.42831 7.27818C2.81204 7.48566 3.29131 7.34277 3.49875 6.95902L3.49873 6.95902L3.4995 6.95763C3.49967 6.9573 3.49985 6.95697 3.50002 6.95662C4.11013 5.83186 4.96335 4.85729 5.99761 4.1038C6.35148 3.84849 6.43148 3.35468 6.17627 3.00067Z"
        fill="#778797"
        stroke="white"
        strokeWidth="0.2"
      />
      <path
        d="M2.80386 13.3332L2.80381 13.3332C2.42259 11.9828 2.37787 10.5596 2.67354 9.188L2.67363 9.18758C2.76379 8.76051 2.49069 8.34121 2.06364 8.25105C1.63965 8.16152 1.22267 8.43011 1.12881 8.85312L1.12881 8.85312L1.12868 8.8537C0.77817 10.4788 0.831269 12.1651 1.28332 13.765L1.28336 13.7651C1.40263 14.185 1.83968 14.4287 2.25956 14.3094C2.67944 14.1901 2.92313 13.7531 2.80386 13.3332Z"
        fill="#778797"
        stroke="white"
        strokeWidth="0.2"
      />
      <path
        d="M6.26256 18.0817C5.1564 17.3386 4.23808 16.3485 3.5801 15.1896C3.36978 14.8075 2.88962 14.668 2.50725 14.878C2.12467 15.0881 1.98487 15.5686 2.19501 15.9512L2.19502 15.9512L2.20433 15.9677L2.20433 15.9677C2.98372 17.3408 4.07157 18.514 5.38212 19.3946L5.38221 19.3946C5.74476 19.6377 6.2357 19.5408 6.47875 19.1782C6.67062 18.892 6.65064 18.5259 6.4554 18.2647H6.53494L6.26256 18.0817Z"
        fill="#778797"
        stroke="white"
        strokeWidth="0.2"
      />
      <path
        d="M6.79701 19.3472L6.79701 19.3472C6.63428 19.7523 6.83068 20.2125 7.23567 20.3753L7.23584 20.3753C9.37971 21.2324 11.7518 21.3324 13.9603 20.6589L13.9604 20.6589C14.3777 20.5311 14.6125 20.0892 14.4847 19.6718C14.3569 19.2545 13.915 19.0197 13.4977 19.1475C11.6346 19.7153 9.63365 19.631 7.82494 18.9085C7.41994 18.7459 6.95974 18.9423 6.79701 19.3472Z"
        fill="#778797"
        stroke="white"
        strokeWidth="0.2"
      />
      <path
        d="M10.4266 13.2452L10.4264 13.1565L10.3942 11.1112L8.32668 11.1011C8.17088 11.1006 8.02133 11.0383 7.91092 10.9279C7.80051 10.8175 7.73824 10.668 7.7378 10.5122C7.73681 10.3676 7.78848 10.2279 7.88308 10.119C7.97768 10.0101 8.10879 9.93942 8.25201 9.92026L8.33508 9.9149L10.4026 9.92502L10.398 7.852C10.3977 7.6962 10.4594 7.54699 10.5693 7.43707C10.6793 7.32715 10.8285 7.26547 10.9843 7.26572C11.129 7.26383 11.2696 7.31474 11.38 7.40882C11.4904 7.5029 11.5629 7.63376 11.584 7.77701L11.5843 7.86571L11.5888 9.93874L13.6619 9.94332C13.8184 9.93411 13.9725 9.98749 14.0902 10.0917C14.2078 10.1959 14.2795 10.3424 14.2894 10.499C14.2993 10.6556 14.2466 10.8094 14.1429 10.9266C14.0392 11.0439 13.8931 11.1149 13.7365 11.1241L13.6534 11.1294L11.5804 11.1248L11.5904 13.1924C11.5957 13.2703 11.5856 13.3484 11.5607 13.4223C11.5357 13.4961 11.4965 13.5643 11.4452 13.6229C11.3938 13.6814 11.3314 13.7292 11.2615 13.7635C11.1916 13.7979 11.1155 13.8181 11.0376 13.8231C10.9597 13.828 10.8816 13.8175 10.8076 13.7922C10.7337 13.767 10.6653 13.7274 10.6065 13.6758C10.5478 13.6242 10.4996 13.5616 10.4649 13.4915C10.4303 13.4214 10.4097 13.3452 10.4045 13.2673L10.4266 13.2452Z"
        fill="#778797"
      />
    </svg>