<?xml version="1.0" encoding="UTF-8" standalone="no"?>
<svg
   width="24"
   height="30"
   viewBox="0 0 24 30"
   fill="none"
   version="1.1"
   id="svg6"
   sodipodiDocname="Profile-4.svg"
   inkscapeVersion="1.1.1 (26b7af14f2, 2022-01-19)"
   xmlnsInkscape="http://www.inkscape.org/namespaces/inkscape"
   xmlnsSodipodi="http://sodipodi.sourceforge.net/DTD/sodipodi-0.dtd"
   xmlns="http://www.w3.org/2000/svg"
   xmlnsSvg="http://www.w3.org/2000/svg">
  <defs
     id="defs10">
    <clipPath
       clipPathUnits="userSpaceOnUse"
       id="clipPath1332">
      <path
         id="path1334"
         style="fill:#ff0000;fill-opacity:1;fillRule:nonzero;stroke:none"
         d="m 0,19.056641 v 10.292968 h 14.898438 c -0.03832,-0.0554 -0.07697,-0.110567 -0.115235,-0.166015 -0.06315,-0.09169 -0.12477,-0.183411 -0.1875,-0.275391 -0.05193,-0.07637 -0.10404,-0.154289 -0.15625,-0.230469 -0.04968,-0.07283 -0.09886,-0.14585 -0.148437,-0.21875 -0.04656,-0.06833 -0.09405,-0.136768 -0.140625,-0.205078 -0.04611,-0.06737 -0.09254,-0.133822 -0.138672,-0.201172 -0.0468,-0.06845 -0.09231,-0.136328 -0.138672,-0.205078 -0.04578,-0.06751 -0.09268,-0.135755 -0.138672,-0.203125 -0.04912,-0.0722 -0.09802,-0.144157 -0.146484,-0.216797 -0.04977,-0.07463 -0.09934,-0.149539 -0.148438,-0.224609 -0.05174,-0.07929 -0.104247,-0.157901 -0.154297,-0.238281 -0.0471,-0.0762 -0.09304,-0.154192 -0.136718,-0.232422 -0.0423,-0.07585 -0.08242,-0.150809 -0.117188,-0.230469 -0.03642,-0.08682 -0.07078,-0.175518 -0.0918,-0.267578 -0.121728,-0.533155 -0.01975,-0.698925 0.195313,-0.679687 0.645183,0.05771 2.303685,1.773082 1.955078,0.169921 -0.0092,-0.04255 -0.02288,-0.0783 -0.03516,-0.109375 -0.0052,-0.01059 0.01918,0.03311 0.02148,0.03711 0.0279,0.04984 0.05772,0.09996 0.08789,0.148437 0.04105,0.06565 0.08463,0.130473 0.126954,0.195313 0.0451,0.06891 0.08906,0.136568 0.134765,0.205078 0.04468,0.06696 0.08948,0.134622 0.134766,0.201172 0.04663,0.06822 0.09424,0.136698 0.140625,0.205078 0.0448,0.06644 0.08953,0.131124 0.134766,0.197266 0.04279,0.06246 0.08604,0.125032 0.128906,0.1875 0.02128,-0.07739 0.04842,-0.13486 0.07813,-0.136719 0.01896,-0.0012 0.03768,-10e-4 0.05664,-0.002 -0.03125,-0.06793 -0.06238,-0.135246 -0.09375,-0.203125 -0.03595,-0.07821 -0.07201,-0.156835 -0.109375,-0.234375 -0.02995,-0.06171 -0.06151,-0.123034 -0.09375,-0.183594 -0.01975,-0.03647 -0.03982,-0.07265 -0.0625,-0.107422 -0.03287,-0.05114 -0.06472,-0.101254 -0.09766,-0.152344 -0.02899,-0.0453 -0.05888,-0.09143 -0.08789,-0.136718 -0.04588,-0.07218 -0.09131,-0.145727 -0.128907,-0.222657 -0.01375,-0.02813 -0.02588,-0.05557 -0.03906,-0.08398 -0.920062,-1.982847 2.933721,1.064087 2.013672,-0.908203 -3.05e-4,-9.43e-4 0.0053,0.0071 0.01953,0.0293 0.02802,0.04371 0.05599,0.08713 0.08398,0.130859 0.03231,0.04977 0.06361,0.09853 0.0957,0.148438 0.05155,0.07972 0.09903,0.162803 0.144532,0.246093 0.04899,0.09064 0.09562,0.182731 0.140625,0.275391 0.0442,0.09154 0.08645,0.183041 0.128906,0.27539 0.0384,0.08307 0.07704,0.166831 0.115234,0.25 0.03468,0.07575 0.07011,0.151133 0.105469,0.226563 0.0207,0.04494 0.04307,0.08922 0.06641,0.132813 0.04031,-0.02135 0.07969,-0.04329 0.121094,-0.0625 0.12344,-0.05494 0.250033,-0.102399 0.380859,-0.136719 0.03112,-0.0083 0.06246,-0.01578 0.09375,-0.02344 0.0069,-0.01309 0.01455,-0.02599 0.02148,-0.03906 0.02951,-0.05534 0.05831,-0.110716 0.08789,-0.166016 0.03038,-0.05713 0.06142,-0.112782 0.0918,-0.169922 0.03338,-0.06299 0.06769,-0.126723 0.101563,-0.189453 0.03894,-0.07151 0.07742,-0.142961 0.11914,-0.21289 0.03914,-0.06531 0.07833,-0.12907 0.119141,-0.19336 0.04463,-0.0701 0.09147,-0.140574 0.138672,-0.208984 0.04836,-0.06981 0.09743,-0.139131 0.148437,-0.207032 0.08482,-0.112246 0.174233,-0.222216 0.279297,-0.316406 0.07239,-0.06354 0.147633,-0.122534 0.226563,-0.177734 0.05334,-0.03853 0.106816,-0.0767 0.160156,-0.115234 0.04871,-0.03535 0.09701,-0.07047 0.144531,-0.107422 0.0068,-0.0056 0.01273,-0.01194 0.01953,-0.01758 -0.0012,-0.0053 -0.0027,-0.01036 -0.0039,-0.01563 -0.02772,-0.109685 -0.06256,-0.218037 -0.0957,-0.326171 -0.03375,-0.111049 -0.07102,-0.221258 -0.111328,-0.330079 -0.02658,-0.07006 -0.06264,-0.136241 -0.09961,-0.201171 -0.04699,-0.0816 -0.100147,-0.157435 -0.154297,-0.234375 -0.06144,-0.08598 -0.125997,-0.170927 -0.191406,-0.253907 -0.05895,-0.07388 -0.121647,-0.14331 -0.185547,-0.21289 -0.06017,-0.06548 -0.124243,-0.1271 -0.189453,-0.1875 -0.05989,-0.05355 -0.122137,-0.103084 -0.185547,-0.152344 -0.05043,-0.04035 -0.105497,-0.07518 -0.160157,-0.109375 -0.04681,-0.02776 -0.09424,-0.05316 -0.142578,-0.07813 -0.0444,-0.02273 -0.09118,-0.04413 -0.136718,-0.06445 -0.04423,-0.01942 -0.08818,-0.03819 -0.132813,-0.05664 -0.17584,0.101395 -0.367622,0.14939 -0.568359,0.171875 -0.08787,0.01021 -0.177205,0.0147 -0.265625,0.01563 -0.138756,0.0011 -0.275388,-0.01938 -0.410157,-0.05078 -0.112214,-0.02766 -0.220897,-0.06806 -0.326172,-0.115234 -0.108191,-0.04835 -0.208897,-0.110318 -0.304687,-0.179688 -0.123538,-0.09042 -0.226539,-0.202342 -0.318359,-0.324219 -0.05229,-0.07275 -0.0923,-0.150229 -0.126954,-0.230468 -0.03954,0.07049 -0.0793,0.14019 -0.11914,0.210937 -0.0475,0.08467 -0.09571,0.170839 -0.142578,0.25586 -0.0487,0.08845 -0.09621,0.176964 -0.144532,0.265624 -0.05157,0.09466 -0.104247,0.188784 -0.15625,0.283204 -0.05378,0.09767 -0.107729,0.195628 -0.162109,0.292968 -0.05446,0.0975 -0.109112,0.193786 -0.164062,0.291016 -0.05577,0.09863 -0.110819,0.197082 -0.167969,0.294922 -0.05887,0.101624 -0.118008,0.204727 -0.179688,0.304687 -0.04341,0.07009 -0.0869,0.138558 -0.132812,0.207032 0.63737,-1.080506 -3.108668,0.436099 -1.873047,-1.177735 0.0063,-0.0082 0.0061,-0.0071 0.0098,-0.01172 0.0017,-0.003 -1.16e-4,-0.0012 0.0039,-0.0078 0.03908,-0.056 0.07557,-0.113715 0.111328,-0.171875 0.05055,-0.08231 0.100029,-0.16642 0.148437,-0.25 0.0533,-0.09119 0.104262,-0.183441 0.15625,-0.275391 0.05305,-0.09388 0.105624,-0.1871 0.158204,-0.28125 0.05219,-0.09343 0.10463,-0.1875 0.15625,-0.28125 0.05043,-0.09157 0.10037,-0.18359 0.15039,-0.27539 0.04984,-0.09145 0.100171,-0.182198 0.150391,-0.273438 0.04972,-0.09021 0.1,-0.179691 0.150391,-0.269531 0.04784,-0.08497 0.09488,-0.170809 0.142578,-0.255859 0.04693,-0.08414 0.09516,-0.168085 0.142578,-0.251953 0.04718,-0.08355 0.09505,-0.166652 0.142578,-0.25 0.04785,-0.08402 0.09416,-0.168254 0.142578,-0.251954 0.02333,-0.04059 0.04823,-0.08059 0.07227,-0.121093 z m 19.839844,0 c 0.06465,0.04077 0.127932,0.08395 0.191406,0.126953 0.115832,0.07873 0.228265,0.163457 0.339844,0.248047 0.114951,0.08776 0.227004,0.178674 0.33789,0.271484 0.112204,0.09463 0.221718,0.192036 0.330078,0.291016 0.09406,0.08621 0.185113,0.177442 0.275391,0.267578 0.06943,-0.03094 0.139611,-0.0584 0.214844,-0.06641 0.425918,-0.04534 0.741115,0.111497 1.013672,0.390626 0.08774,0.09374 0.171317,0.191915 0.248047,0.294921 0.09929,0.136213 0.193353,0.275607 0.277343,0.421875 0.103547,0.181616 0.201365,0.36657 0.275391,0.5625 v -2.808593 z m 2.914062,2.171875 c 0.0022,0.0084 0.0072,0.03146 0.01367,0.05664 0.02728,-0.01033 0.0012,-0.03502 -0.01367,-0.05664 z m 0.589844,4.091796 c -0.01154,0.05916 -0.0209,0.119095 -0.03516,0.177735 -0.05821,0.234914 -0.124431,0.467886 -0.232422,0.685547 -0.128429,0.253668 -0.279555,0.486646 -0.509766,0.662109 -0.114767,0.06784 -0.18773,0.114722 -0.255859,0.148438 0.03041,0.07259 0.05774,0.152174 0.08008,0.242187 0.03953,0.159259 0.09247,0.370309 -0.01953,0.490234 -0.152071,0.162836 -0.334433,0.29079 -0.525391,0.408204 -0.06758,0.07327 -0.138149,0.143382 -0.216797,0.205078 -0.09199,0.07099 -0.186971,0.138191 -0.287109,0.197265 -7.57e-4,0.0012 -0.0012,0.0027 -0.002,0.0039 -0.112676,0.180998 -0.231676,0.357766 -0.371094,0.519531 -0.09079,0.102488 -0.186373,0.199545 -0.289062,0.289062 h 2.664062 z m -5.949219,3.751954 c 0.05604,0.09447 0.105272,0.186728 0.144531,0.277343 h 0.617188 c -0.05907,-0.04257 -0.116968,-0.08566 -0.173828,-0.130859 -0.0307,-0.02458 -0.05948,-0.05118 -0.08984,-0.07617 -0.153708,0.0049 -0.304561,-0.01592 -0.474609,-0.0625 -0.0079,-0.0024 -0.01562,-0.0053 -0.02344,-0.0078 z" />
    </clipPath>
  </defs>
  <sodipodiNamedview
     id="namedview8"
     pagecolor="#ffffff"
     bordercolor="#666666"
     borderopacity="1.0"
     inkscapePageshadow="2"
     inkscapePageopacity="0.0"
     inkscapePagecheckerboard="0"
     showgrid="false"
     inkscapeZoom="64"
     inkscapeCx="20.203125"
     inkscapeCy="25.710937"
     inkscapeWindowWidth="2560"
     inkscapeWindowHeight="1376"
     inkscapeWindowX="0"
     inkscapeWindowY="27"
     inkscapeWindowMaximized="1"
     inkscapeCurrentLayer="svg6" />
  <path
     fillRule="evenodd"
     clipRule="evenodd"
     d="M11.7045 1.49761C8.31028 1.49761 5.55306 4.25284 5.55306 7.65863C5.55306 11.0644 8.31028 13.8196 11.7045 13.8196C15.0986 13.8196 17.8559 11.0644 17.8559 7.65863C17.8559 4.25284 15.0986 1.49761 11.7045 1.49761ZM4.05029 7.65863C4.05029 3.43203 7.47403 0 11.7045 0C15.9349 0 19.3586 3.43203 19.3586 7.65863C19.3586 11.8852 15.9349 15.3173 11.7045 15.3173C7.47403 15.3173 4.05029 11.8852 4.05029 7.65863Z"
     fill="#200E32"
     id="path2" />
  <path
     fillRule="evenodd"
     clipRule="evenodd"
     d="M14.7418 20.6918C12.6773 20.5079 10.6006 20.5079 8.53613 20.6918L8.51826 20.6932C7.41796 20.7649 6.32409 20.9147 5.24495 21.1413C5.22263 21.146 5.20011 21.1497 5.17746 21.1523C4.48832 21.2328 3.82262 21.453 3.22094 21.7997C2.64085 22.1339 2.13197 22.5788 1.7232 23.1092C1.57645 23.4375 1.50318 23.7945 1.50899 24.155C1.50931 24.1746 1.50886 24.1941 1.50763 24.2136C1.48467 24.5806 1.54311 24.9477 1.67827 25.2887C2.07865 25.8314 2.58877 26.2836 3.17547 26.6156C3.78576 26.961 4.4642 27.1681 5.16287 27.2224C5.20057 27.2253 5.23799 27.231 5.27481 27.2396C6.34032 27.4868 7.42446 27.6452 8.51604 27.7131C8.54616 27.715 8.57614 27.7186 8.60582 27.7241C8.94226 27.7861 9.28435 27.8111 9.62619 27.7988C9.6486 27.798 9.67104 27.7982 9.69343 27.7994C11.3778 27.8892 13.0663 27.8655 14.7475 27.7286L14.7581 27.7277L14.7581 27.7278C15.8567 27.6538 16.948 27.495 18.0223 27.253L18.0426 27.2487C18.7913 27.1016 19.5684 26.8964 20.2232 26.5758C20.8783 26.2551 21.3436 25.8525 21.5772 25.3442L21.5838 25.3302C21.7529 24.9814 21.8409 24.5985 21.8409 24.2105C21.8409 23.8224 21.7529 23.4395 21.5838 23.0907L21.5822 23.0873C21.3495 22.6013 20.88 22.1945 20.2166 21.8617C19.5579 21.5312 18.7777 21.309 18.036 21.1564L18.026 21.1543L18.026 21.1543C16.9508 20.9177 15.8591 20.7636 14.7606 20.6933L14.7418 20.6918ZM14.8663 19.1993C12.7188 19.0086 10.5587 19.0086 8.41123 19.1994C7.25386 19.2752 6.1032 19.4322 4.96779 19.669C4.0873 19.7766 3.23748 20.0603 2.46882 20.5031C1.69009 20.9518 1.01094 21.5543 0.472838 22.2741C0.443963 22.3127 0.418894 22.354 0.39798 22.3974C0.134717 22.944 0.000772055 23.5436 0.00606072 24.1497C-0.0280196 24.7672 0.08196 25.3844 0.327621 25.9524C0.348466 26.0006 0.374339 26.0465 0.404812 26.0893C0.939055 26.8398 1.63144 27.464 2.43338 27.9179C3.21849 28.3622 4.08979 28.6325 4.98815 28.7107C6.10306 28.9663 7.23677 29.1316 8.37825 29.205C8.79655 29.2788 9.22127 29.3095 9.64587 29.2966C11.3852 29.3878 13.1287 29.3628 14.8647 29.2216C16.0356 29.1425 17.1986 28.9734 18.3435 28.716C19.1377 28.5595 20.0603 28.3242 20.8858 27.92C21.7124 27.5154 22.5087 26.9082 22.9402 25.9749C23.2058 25.4245 23.3437 24.8214 23.3437 24.2105C23.3437 23.5975 23.2049 22.9924 22.9376 22.4406C22.5057 21.5398 21.7123 20.9354 20.8924 20.524C20.069 20.1109 19.1473 19.8562 18.345 19.6908C17.1996 19.439 16.0366 19.2747 14.8663 19.1993Z"
     fill="#200E32"
     id="path4"
     clipPath="url(#clipPath1332)" />
  <g
     style="fill:none"
     id="g1351"
     transform="translate(13.900674,17.60068)">
    <path
       d="M 7.12025,4.36339 V 3.28568 C 7.12025,2.67947 6.87939,2.09811 6.45073,1.66946 6.02208,1.2408 5.44072,1 4.83451,1 4.2283,1 3.64694,1.2408 3.21829,1.66946 2.78963,2.09811 2.54883,2.67947 2.54883,3.28568 v 1.08774"
       stroke="#200e32"
       strokeWidth="1.4"
       strokeLinecap="round"
       strokeLinejoin="round"
       id="path1336" />
    <path
       d="M 6.74942,10.2782 H 2.89977 C 2.39592,10.2782 1.91272,10.078 1.55644,9.72174 1.20017,9.36546 1,8.88226 1,8.37841 V 6.22802 C 1,5.72417 1.20017,5.24096 1.55644,4.88469 1.91272,4.52842 2.39592,4.32831 2.89977,4.32831 h 3.82958 c 0.50385,0 0.98705,0.20011 1.34332,0.55638 0.35628,0.35627 0.55645,0.83948 0.55645,1.34333 V 8.37841 C 8.63046,8.8792 8.43347,9.36018 8.08124,9.71617 7.72901,10.0722 7.25019,10.2742 6.74942,10.2782 Z"
       stroke="#200e32"
       strokeWidth="1.4"
       strokeLinecap="round"
       strokeLinejoin="round"
       id="path1338" />
    <path
       d="M 4.83447,6.74936 V 7.86213"
       stroke="#200e32"
       strokeWidth="1.4"
       strokeLinecap="round"
       strokeLinejoin="round"
       id="path1340" />
  </g>
</svg>
