<svg width="116" height="100" viewBox="0 0 116 100" fill="none" xmlns="http://www.w3.org/2000/svg">
<path d="M32.598 41.8306C32.2274 41.8168 31.8755 41.6543 31.6133 41.3759C31.3511 41.0976 31.1981 40.724 31.1851 40.3306V33.3866C31.1989 30.0517 32.4565 26.8587 34.6827 24.5058C36.9089 22.1529 39.9223 20.832 43.0637 20.8321H71.949C75.0626 20.8467 78.0439 22.1701 80.2407 24.5126C82.4374 26.8551 83.6707 30.0259 83.6707 33.3313V40.2753C83.6577 40.6687 83.5046 41.042 83.2424 41.3203C82.9802 41.5986 82.6283 41.7612 82.2578 41.775L32.598 41.8306ZM97.5901 32.0534V21.7207C97.5696 19.9407 97.219 18.1822 96.5583 16.546C95.8976 14.9097 94.9399 13.4278 93.7396 12.1846C92.5394 10.9414 91.1202 9.96143 89.5631 9.30051C88.0061 8.63959 86.3417 8.3108 84.6649 8.33282H76.3447C75.3038 8.33282 74.3055 7.89389 73.5695 7.11253C72.8335 6.33118 72.4201 5.27141 72.4201 4.16641C72.4201 3.06141 72.8335 2.00164 73.5695 1.22029C74.3055 0.438937 75.3038 1.08684e-06 76.3447 1.08684e-06H84.6649C90.1356 -0.00146918 95.3895 2.27062 99.3016 6.33031C103.214 10.39 105.473 15.9145 105.596 21.7207V32.0534C105.596 33.1731 105.177 34.247 104.432 35.0388C103.686 35.8306 102.674 36.2754 101.619 36.2754C100.565 36.2754 99.553 35.8306 98.8072 35.0388C98.0614 34.247 97.6424 33.1731 97.6424 32.0534H97.5901ZM9.46875 32.0534V21.6651C9.6053 15.8686 11.8707 10.3585 15.7814 6.31065C19.6921 2.26283 24.9383 -0.00181117 30.4002 1.08684e-06H38.8774C39.9183 1.08684e-06 40.9165 0.438937 41.6526 1.22029C42.3886 2.00164 42.802 3.06141 42.802 4.16641C42.802 5.27141 42.3886 6.33118 41.6526 7.11253C40.9165 7.89389 39.9183 8.33282 38.8774 8.33282H30.2955C28.6281 8.31082 26.9731 8.63865 25.4253 9.29746C23.8776 9.95626 22.4676 10.9329 21.2764 12.1717C20.0852 13.4105 19.1362 14.887 18.4838 16.5161C17.8315 18.1453 17.4887 19.895 17.475 21.6651V32.0534C17.3625 33.0967 16.8923 34.0597 16.154 34.7587C15.4158 35.4578 14.4611 35.8444 13.4719 35.8444C12.4826 35.8444 11.5279 35.4578 10.7897 34.7587C10.0514 34.0597 9.5813 33.0967 9.46875 32.0534Z" fill="url(#paint0_linear)"/>
<g filter="url(#filter0_i)">
<path d="M111.094 50.219H3.92465C2.88376 50.219 1.88557 50.6579 1.14956 51.4393C0.413545 52.2206 0 53.2804 0 54.3854C0 55.4904 0.413545 56.5502 1.14956 57.3315C1.88557 58.1129 2.88376 58.5518 3.92465 58.5518H9.47155V78.3284C9.60809 84.1249 11.8735 89.635 15.7842 93.6829C19.6949 97.7307 24.9411 99.9957 30.403 99.9938H38.9325C39.4471 100.024 39.9621 99.943 40.4465 99.7562C40.9309 99.5693 41.3747 99.2802 41.7511 98.9065C42.1275 98.5328 42.4289 98.0823 42.637 97.5817C42.8451 97.0812 42.9555 96.541 42.9618 95.9939C42.9902 94.8981 42.6105 93.8346 41.9053 93.0339C41.2 92.2332 40.2259 91.7597 39.1942 91.7163H30.2983C28.6284 91.7309 26.9722 91.3965 25.4241 90.7317C23.8761 90.0668 22.4666 89.0847 21.2761 87.8415C20.0856 86.5983 19.1374 85.1181 18.4856 83.4859C17.8339 81.8536 17.4915 80.1011 17.4778 78.3284V58.5518H31.3449V64.107C31.3587 67.4419 32.6163 70.6352 34.8425 72.9881C37.0687 75.341 40.0821 76.6619 43.2235 76.6619H72.1088C73.6663 76.6692 75.2097 76.3497 76.6506 75.722C78.0915 75.0943 79.4014 74.1709 80.5051 73.0044C81.6089 71.8378 82.4846 70.4513 83.0822 68.9244C83.6798 67.3976 83.9874 65.7604 83.9874 64.107V58.5518H97.6975V78.3284C97.6839 80.1058 97.3397 81.8629 96.6847 83.4987C96.0297 85.1346 95.0769 86.6172 93.8808 87.8611C92.6847 89.1051 91.269 90.086 89.715 90.7476C88.1609 91.4092 86.499 91.7383 84.8247 91.7163H76.3475C75.3914 91.8341 74.5093 92.321 73.8691 93.0841C73.2289 93.8471 72.8753 94.8334 72.8753 95.8552C72.8753 96.8771 73.2289 97.863 73.8691 98.6261C74.5093 99.3891 75.3914 99.8761 76.3475 99.9938H84.9294C90.3913 99.9957 95.6374 97.7307 99.5481 93.6829C103.459 89.635 105.724 84.1249 105.861 78.3284V58.5518H111.408C112.453 58.5519 113.457 58.1147 114.201 57.3349C114.946 56.5551 115.371 55.4955 115.385 54.3854C115.371 53.2753 114.946 52.2157 114.201 51.4359C113.457 50.6561 112.453 50.2189 111.408 50.219" fill="url(#paint1_linear)"/>
</g>
<defs>
<filter id="filter0_i" x="0" y="50.219" width="115.385" height="51.781" filterUnits="userSpaceOnUse" color-interpolation-filters="sRGB">
<feFlood flood-opacity="0" result="BackgroundImageFix"/>
<feBlend mode="normal" in="SourceGraphic" in2="BackgroundImageFix" result="shape"/>
<feColorMatrix in="SourceAlpha" type="matrix" values="0 0 0 0 0 0 0 0 0 0 0 0 0 0 0 0 0 0 127 0" result="hardAlpha"/>
<feOffset dy="2"/>
<feGaussianBlur stdDeviation="2"/>
<feComposite in2="hardAlpha" operator="arithmetic" k2="-1" k3="1"/>
<feColorMatrix type="matrix" values="0 0 0 0 0.279167 0 0 0 0 0.655653 0 0 0 0 1 0 0 0 1 0"/>
<feBlend mode="normal" in2="shape" result="effect1_innerShadow"/>
</filter>
<linearGradient id="paint0_linear" x1="57.5326" y1="41.8306" x2="57.5326" y2="0" gradientUnits="userSpaceOnUse">
<stop stop-color="white"/>
<stop offset="0.5028" stop-color="#A0D6FF"/>
<stop offset="1" stop-color="#6DC1FF"/>
</linearGradient>
<linearGradient id="paint1_linear" x1="-8.68098" y1="-0.557517" x2="139.119" y2="17.1018" gradientUnits="userSpaceOnUse">
<stop stop-color="#93CFFF"/>
<stop offset="1" stop-color="#2894FF"/>
</linearGradient>
</defs>
</svg>
