<svg width="26" height="26" viewBox="0 0 26 26" fill="none" xmlns="http://www.w3.org/2000/svg">
<path d="M13 0C5.82029 0 0 5.82029 0 13C0 20.1797 5.82029 25.9999 13 25.9999C20.1797 25.9999 25.9999 20.1797 25.9999 13C25.9923 5.8235 20.1765 0.00767159 13 0ZM13 24.1428C6.84594 24.1428 1.85712 19.154 1.85712 13C1.85712 6.84594 6.84594 1.85712 13 1.85712C19.154 1.85712 24.1428 6.84594 24.1428 13C24.1362 19.1513 19.1513 24.1362 13 24.1428Z" fill="#778797"/>
<path d="M8.35713 13C9.38279 13 10.2143 12.1685 10.2143 11.1429C10.2143 10.1172 9.38279 9.28574 8.35713 9.28574C7.33147 9.28574 6.5 10.1172 6.5 11.1429C6.5 12.1685 7.33147 13 8.35713 13Z" fill="#778797"/>
<path d="M17.6433 13C18.6689 13 19.5004 12.1685 19.5004 11.1429C19.5004 10.1172 18.6689 9.28574 17.6433 9.28574C16.6176 9.28574 15.7861 10.1172 15.7861 11.1429C15.7861 12.1685 16.6176 13 17.6433 13Z" fill="#778797"/>
<path d="M16.5549 16.1381C16.2482 15.7271 15.6663 15.6425 15.2553 15.9493C15.2375 15.9626 15.2203 15.9764 15.2035 15.991C13.8903 16.9501 12.1077 16.9501 10.7946 15.991C10.4066 15.6556 9.82017 15.6983 9.48485 16.0863C9.14948 16.4743 9.19219 17.0607 9.58018 17.396C9.59694 17.4105 9.61424 17.4244 9.63203 17.4377C11.6196 18.9569 14.3784 18.9569 16.366 17.4377C16.7771 17.1309 16.8616 16.5491 16.5549 16.1381Z" fill="#778797"/>
</svg>
