<svg width="20" height="20" viewBox="0 0 20 20" fill="none" xmlns="http://www.w3.org/2000/svg">
<path d="M5.04785 12.8116L7.95483 9.05313L11.2591 11.6425L14.0982 7.99035" stroke="#767676" stroke-width="1.5" stroke-linecap="round" stroke-linejoin="round"/>
<path d="M17.4122 4.43478C18.4397 4.43478 19.2727 3.60424 19.2727 2.57971C19.2727 1.55518 18.4397 0.72464 17.4122 0.72464C16.3847 0.72464 15.5518 1.55518 15.5518 2.57971C15.5518 3.60424 16.3847 4.43478 17.4122 4.43478Z" stroke="#767676" stroke-width="1.5" stroke-linecap="round" stroke-linejoin="round"/>
<path d="M12.4901 1.51691H5.45525C2.54827 1.51691 0.726562 3.58456 0.726562 6.49278V14.2995C0.726562 17.198 2.49982 19.256 5.45525 19.256H13.7886C16.6955 19.256 18.5173 17.2077 18.5173 14.2995V7.53621" stroke="#767676" stroke-width="1.5" stroke-linecap="round" stroke-linejoin="round"/>
</svg>
