<svg width="30" height="24" viewBox="0 0 30 24" fill="none" xmlns="http://www.w3.org/2000/svg">
<path d="M29.999 2.84287C29.1636 4.06666 28.1387 5.10988 26.9242 5.97254C26.9362 6.2039 26.9422 6.46539 26.9422 6.75703C26.9422 8.37739 26.7023 9.99972 26.2226 11.624C25.7428 13.2483 25.01 14.803 24.0241 16.2882C23.0382 17.7734 21.8638 19.0892 20.5009 20.2355C19.138 21.3818 17.4998 22.2958 15.5862 22.9775C13.6726 23.6592 11.6217 24 9.43355 24C6.01859 24 2.87375 23.0921 -0.000976562 21.2762C0.509253 21.3321 0.998606 21.3601 1.46708 21.3601C4.32 21.3601 6.86812 20.4946 9.11144 18.7638C7.78124 18.7398 6.58995 18.3365 5.53757 17.554C4.48519 16.7715 3.76096 15.7716 3.3649 14.5543C3.75638 14.6277 4.14277 14.6644 4.52405 14.6644C5.07288 14.6644 5.61292 14.5939 6.14417 14.453C4.72461 14.173 3.54696 13.4766 2.61122 12.364C1.67552 11.2514 1.20767 9.96719 1.20767 8.51145V8.43642C2.07901 8.91156 3.00842 9.16429 3.99592 9.19463C3.15498 8.6425 2.48824 7.92251 1.9957 7.03466C1.50313 6.1468 1.25685 5.18599 1.25685 4.15221C1.25685 3.06192 1.53426 2.04666 2.08909 1.10642C3.63284 2.97213 5.50341 4.46327 7.70082 5.57983C9.89825 6.6964 12.2557 7.31651 14.7731 7.44016C14.6657 6.99947 14.6119 6.53959 14.6117 6.06052C14.6117 4.38779 15.2128 2.95952 16.4149 1.77571C17.6171 0.591903 19.0674 0 20.7659 0C22.5441 0 24.042 0.637687 25.2594 1.91306C26.6504 1.64172 27.9528 1.15093 29.1666 0.440688C28.699 1.89013 27.7978 3.00827 26.4632 3.79512C27.6899 3.65156 28.8684 3.33415 29.9989 2.84287H29.999Z" fill="#179AFF"/>
</svg>
