<svg width="23" height="25" viewBox="0 0 23 25" fill="none" xmlns="http://www.w3.org/2000/svg">
<path d="M18.3357 24.0157H15.9344C15.3872 24.0081 14.8627 23.7953 14.4648 23.4195C14.0668 23.0437 13.8243 22.5321 13.7853 21.9861V18.3833C13.7842 18.202 13.7183 18.0273 13.5993 17.8907C13.4803 17.754 13.3163 17.6646 13.137 17.6387H9.8232C9.64273 17.6421 9.46924 17.7091 9.33313 17.8276C9.19702 17.9462 9.10698 18.1089 9.07881 18.2872V21.8179C9.08472 21.8899 9.08472 21.9622 9.07881 22.0342V22.1422C9.01006 22.6413 8.77012 23.1011 8.40001 23.4428C8.02991 23.7846 7.55261 23.9871 7.04975 24.0157H4.74452C3.54109 24.0204 2.38208 23.5614 1.50797 22.734C0.633857 21.9066 0.111755 20.7743 0.0500488 19.5722V9.59242C0.0577414 9.09487 0.168409 8.60431 0.375049 8.15165C0.581689 7.69899 0.879821 7.29397 1.25068 6.96229L8.73062 0.957579C9.47139 0.373101 10.381 0.0434025 11.3241 0.0174379C12.2672 -0.00852676 13.1936 0.270634 13.9654 0.813472L14.1575 0.957579L21.4693 6.80616C21.8645 7.11322 22.1913 7.49939 22.4291 7.93981C22.6668 8.38023 22.8102 8.86525 22.85 9.36417V19.332C22.8478 20.5447 22.3767 21.7096 21.5352 22.5826C20.6937 23.4556 19.5472 23.9692 18.3357 24.0157ZM9.64311 15.9573H13.0289C13.6396 15.956 14.2278 16.1876 14.6739 16.6049C15.12 17.0221 15.3904 17.5936 15.4301 18.2032V21.8061C15.4303 21.9273 15.4722 22.0447 15.5487 22.1387C15.6252 22.2327 15.7317 22.2976 15.8504 22.3224H18.0835C18.8487 22.3241 19.5858 22.0347 20.1454 21.5129C20.7051 20.991 21.0453 20.2758 21.0971 19.5122V9.59242C21.0815 9.07908 20.8661 8.59212 20.4968 8.23535L20.3407 8.10327L13.0169 2.24267C12.5399 1.87061 11.9528 1.66784 11.348 1.66624C10.8154 1.66716 10.2944 1.82142 9.8472 2.11058L9.66711 2.24267L2.36729 8.12731C2.16628 8.2797 1.99786 8.47086 1.87206 8.68952C1.74626 8.90818 1.66561 9.14983 1.63489 9.40023V19.332C1.63657 20.0992 1.9306 20.8369 2.45706 21.3947C2.98353 21.9525 3.70283 22.2886 4.4684 22.3344H6.8096C6.93403 22.342 7.05687 22.3032 7.15443 22.2256C7.25198 22.148 7.31734 22.0371 7.33788 21.9141V21.6979V18.3833C7.33659 17.7724 7.56804 17.184 7.98514 16.7378C8.40223 16.2916 8.97364 16.0211 9.58306 15.9814L9.64311 15.9573Z" fill="white"/>
</svg>
