<svg width="21" height="24" viewBox="0 0 21 24" fill="none" xmlns="http://www.w3.org/2000/svg">
<path d="M10.2715 23.976C9.73556 23.9112 9.21749 23.7389 8.74706 23.4692C8.27662 23.1994 7.86312 22.8373 7.53034 22.4039C7.4549 22.3215 7.39677 22.2242 7.35951 22.118C7.32226 22.0118 7.30665 21.899 7.31366 21.7865C7.32068 21.6739 7.35019 21.564 7.40033 21.4635C7.45048 21.363 7.52023 21.2741 7.6053 21.202C7.69037 21.13 7.78896 21.0763 7.89504 21.0446C8.00113 21.0128 8.11247 21.0035 8.22223 21.0172C8.33198 21.0308 8.43782 21.0672 8.53329 21.1241C8.62876 21.181 8.71182 21.2571 8.77739 21.3479C9.19161 21.8798 9.79559 22.2228 10.4571 22.3015C11.1186 22.3803 11.7837 22.1884 12.3068 21.768C12.4675 21.6501 12.6102 21.5084 12.7304 21.3479C12.797 21.2575 12.881 21.182 12.9774 21.126C13.0737 21.07 13.1803 21.0347 13.2906 21.0223C13.4008 21.0099 13.5124 21.0208 13.6184 21.0541C13.7244 21.0874 13.8225 21.1424 13.9068 21.2159C13.9932 21.2858 14.065 21.3727 14.1179 21.4714C14.1707 21.5701 14.2036 21.6787 14.2146 21.7906C14.2256 21.9025 14.2144 22.0155 14.1817 22.123C14.149 22.2304 14.0956 22.33 14.0244 22.4159C13.8221 22.6804 13.5845 22.9147 13.3186 23.112C12.8951 23.4519 12.4101 23.7031 11.8912 23.8513C11.3724 23.9996 10.83 24.042 10.2951 23.976H10.2715ZM5.56562 19.02C4.18188 18.8768 2.89527 18.2291 1.9421 17.196C1.20988 16.3026 0.821031 15.1681 0.847993 14.0039V13.7159C0.904239 12.8602 1.17569 12.0336 1.63621 11.3159L1.71857 11.22C2.26667 10.6038 2.64426 9.85013 2.81268 9.03606V9.10798V7.73997C2.81268 7.42797 2.81268 7.14 2.81268 6.876C3.02763 4.98697 3.96655 3.2614 5.42445 2.076C6.92944 0.813487 8.81703 0.122229 10.7656 0.119995H10.8009C12.7446 0.129905 14.6261 0.820427 16.1304 2.076C16.8624 2.67023 17.4713 3.40699 17.9216 4.24338C18.372 5.07977 18.6549 5.99903 18.7539 6.94792C18.7539 7.18792 18.7539 7.40395 18.7539 7.72795V9.14402V9.35994C18.9174 9.98767 19.2102 10.5727 19.6127 11.076L19.7892 11.2921L19.8598 11.388C20.3466 12.1246 20.6236 12.9844 20.6598 13.8719V14.352C20.6193 15.4606 20.2035 16.5207 19.4833 17.352C18.5555 18.3609 17.3027 18.9956 15.9539 19.14C12.4346 19.5257 8.88492 19.5257 5.36564 19.14L5.56562 19.02ZM2.95385 12.24L2.85975 12.396C2.66875 12.7448 2.54496 13.1278 2.49505 13.524V13.752V14.0159C2.48262 14.7616 2.7191 15.4895 3.16564 16.0801C3.85255 16.8046 4.77022 17.2556 5.75386 17.352C9.15523 17.736 12.5878 17.736 15.9891 17.352C16.9497 17.2752 17.8515 16.8494 18.5303 16.152C19.0131 15.5555 19.2679 14.8011 19.248 14.028V13.824C19.2238 13.2589 19.0489 12.7112 18.7421 12.24L18.5892 12.0361C18.0291 11.3338 17.6274 10.5144 17.4127 9.63606L17.3421 9.31204V9.19207C17.3304 9.03229 17.3304 8.87181 17.3421 8.71204V7.63201C17.3559 7.41623 17.3559 7.19973 17.3421 6.98396C17.0925 5.46728 16.3125 4.0943 15.1466 3.11912C13.9808 2.14394 12.5079 1.63271 11.0009 1.68005H10.8009C9.29561 1.63228 7.82419 2.14182 6.65858 3.11457C5.49296 4.08733 4.7119 5.45747 4.45973 6.97195C4.45973 7.11595 4.45973 7.284 4.45973 7.476V9.31204C4.23893 10.3987 3.74427 11.4078 3.02447 12.24H2.95385Z" fill="white"/>
</svg>
