<svg width="23" height="24" viewBox="0 0 23 24" fill="none" xmlns="http://www.w3.org/2000/svg">
<path d="M7.96801 22.548V18.864C7.97422 18.414 8.1557 17.9842 8.47393 17.666C8.79216 17.3477 9.22199 17.1662 9.67199 17.16H13.116C13.569 17.16 14.0037 17.3391 14.3252 17.6583C14.6466 17.9776 14.8288 18.411 14.832 18.864V22.464C14.832 22.8534 14.9858 23.227 15.26 23.5034C15.5343 23.7799 15.9066 23.9368 16.296 23.94H18.696C19.2385 23.9447 19.7766 23.8422 20.2794 23.6382C20.7822 23.4342 21.2396 23.1329 21.6255 22.7515C22.0114 22.3701 22.318 21.9162 22.5278 21.4158C22.7376 20.9155 22.8464 20.3785 22.848 19.836V9.38396C22.8485 8.94759 22.7518 8.51665 22.565 8.12229C22.3782 7.72793 22.106 7.38007 21.768 7.104L13.776 0.75603C13.1004 0.214379 12.2566 -0.0737659 11.3908 -0.0584232C10.525 -0.0430805 9.69195 0.274718 9.03599 0.839966L1.212 7.104C0.852008 7.368 0.556835 7.71047 0.348917 8.10552C0.140999 8.50056 0.0257964 8.93775 0.012003 9.38396V19.824C0.00553436 20.3752 0.109535 20.9222 0.317862 21.4325C0.52619 21.9429 0.834618 22.4063 1.22497 22.7956C1.61532 23.1848 2.07968 23.4919 2.59064 23.6988C3.1016 23.9056 3.6488 24.0081 4.19999 24H6.50401C6.6977 24.0048 6.89038 23.9708 7.07072 23.9C7.25106 23.8292 7.41538 23.723 7.55405 23.5877C7.69271 23.4524 7.80293 23.2907 7.87814 23.1121C7.95335 22.9336 7.99206 22.7417 7.992 22.548H7.96801Z" fill="white"/>
</svg>
