<svg width="24" height="24" viewBox="0 0 24 24" fill="none" xmlns="http://www.w3.org/2000/svg">
<path d="M11.9999 24C9.92952 24.0039 7.89416 23.4661 6.09592 22.44C5.70589 22.1542 5.24538 21.98 4.76387 21.936C4.609 21.9355 4.45512 21.9598 4.30793 22.008L1.90793 22.728C1.81683 22.7461 1.72299 22.7461 1.63188 22.728C1.51682 22.7272 1.40339 22.701 1.29966 22.6512C1.19593 22.6014 1.10446 22.5293 1.03188 22.44C0.961414 22.3402 0.914976 22.2254 0.89624 22.1047C0.877504 21.9839 0.887019 21.8605 0.923926 21.744L1.72791 19.056C1.7951 18.8811 1.82242 18.6933 1.80789 18.5065C1.79335 18.3197 1.73733 18.1385 1.6439 17.976C0.614695 16.1413 0.0580135 14.0794 0.0239258 11.976C0.0311441 8.843 1.24769 5.83375 3.41987 3.57601C4.53764 2.43122 5.87305 1.52153 7.34756 0.900432C8.82207 0.279331 10.4059 -0.040657 12.0059 -0.040657C13.6059 -0.040657 15.1897 0.279331 16.6642 0.900432C18.1387 1.52153 19.4741 2.43122 20.5919 3.57601C21.6673 4.67584 22.5227 5.97106 23.1119 7.392C23.7119 8.84172 24.0217 10.395 24.0239 11.964C24.0387 13.6863 23.6868 15.3921 22.9919 16.968C22.3503 18.4032 21.4188 19.6901 20.2559 20.748C18.0075 22.8265 15.0618 23.9868 11.9999 24ZM17.5079 10.5C17.2041 10.5 16.9071 10.5901 16.6545 10.7589C16.4019 10.9276 16.2051 11.1675 16.0888 11.4482C15.9725 11.7289 15.9422 12.0377 16.0014 12.3357C16.0607 12.6336 16.2069 12.9073 16.4218 13.1221C16.6366 13.3369 16.9103 13.4832 17.2082 13.5425C17.5062 13.6017 17.815 13.5714 18.0957 13.4551C18.3764 13.3388 18.6163 13.142 18.7851 12.8894C18.9538 12.6368 19.0439 12.3398 19.0439 12.036C19.0439 11.6286 18.8821 11.2379 18.594 10.9499C18.306 10.6618 17.9153 10.5 17.5079 10.5ZM11.9519 10.5C11.7524 10.5 11.5548 10.5395 11.3705 10.6162C11.1863 10.693 11.0191 10.8054 10.8785 10.9471C10.7379 11.0888 10.6268 11.2569 10.5515 11.4417C10.4763 11.6265 10.4383 11.8245 10.4399 12.024C10.4376 12.3278 10.5253 12.6254 10.6921 12.8793C10.8589 13.1332 11.0972 13.332 11.377 13.4504C11.6567 13.5688 11.9653 13.6017 12.2637 13.5447C12.5621 13.4878 12.8369 13.3436 13.0534 13.1305C13.2699 12.9174 13.4184 12.6449 13.48 12.3474C13.5416 12.0499 13.5135 11.7408 13.3995 11.4593C13.2854 11.1777 13.0904 10.9363 12.8392 10.7655C12.5879 10.5948 12.2917 10.5024 11.9879 10.5H11.9519ZM6.4439 10.5C6.1401 10.5 5.84315 10.5901 5.59055 10.7589C5.33796 10.9276 5.14109 11.1675 5.02483 11.4482C4.90857 11.7289 4.87818 12.0377 4.93745 12.3357C4.99672 12.6336 5.14297 12.9073 5.35779 13.1221C5.5726 13.3369 5.84631 13.4832 6.14426 13.5425C6.44222 13.6017 6.75107 13.5714 7.03174 13.4551C7.31241 13.3388 7.55224 13.142 7.72102 12.8894C7.8898 12.6368 7.97993 12.3398 7.97993 12.036C7.97993 11.6286 7.81806 11.2379 7.53 10.9499C7.24195 10.6618 6.85127 10.5 6.4439 10.5Z" fill="white"/>
</svg>
