<svg width="25" height="24" viewBox="0 0 25 24" fill="none" xmlns="http://www.w3.org/2000/svg">
<path d="M16.8148 12.2567C16.8126 11.9979 16.8873 11.7444 17.0293 11.5281C17.1713 11.3119 17.3744 11.1427 17.6126 11.0421C17.8508 10.9416 18.1135 10.9141 18.3673 10.9632C18.6212 11.0124 18.8547 11.1359 19.0383 11.3181C19.2219 11.5003 19.3473 11.733 19.3986 11.9866C19.4498 12.2403 19.4246 12.5035 19.3262 12.7428C19.2278 12.9821 19.0605 13.1867 18.8457 13.3307C18.6309 13.4747 18.3782 13.5516 18.1197 13.5516C17.7756 13.5516 17.4453 13.4156 17.2009 13.173C16.9565 12.9305 16.8178 12.6012 16.8148 12.2567ZM11.7516 12.2567C11.7516 11.9103 11.8891 11.5781 12.1338 11.3332C12.3785 11.0883 12.7104 10.9507 13.0565 10.9507C13.4025 10.9507 13.7344 11.0883 13.9791 11.3332C14.2238 11.5781 14.3613 11.9103 14.3613 12.2567C14.3584 12.6022 14.22 12.9327 13.9759 13.177C13.7319 13.4213 13.4016 13.5598 13.0565 13.5628C12.7104 13.5628 12.3785 13.4252 12.1338 13.1803C11.8891 12.9353 11.7516 12.6031 11.7516 12.2567ZM6.68848 12.2567C6.68849 11.9979 6.76528 11.745 6.90916 11.53C7.05303 11.3149 7.25745 11.1476 7.49652 11.0491C7.7356 10.9506 7.99854 10.9254 8.25195 10.9767C8.50536 11.028 8.73788 11.1534 8.91991 11.3372C9.10195 11.521 9.22534 11.7548 9.27442 12.0089C9.3235 12.2629 9.296 12.5259 9.19552 12.7643C9.09505 13.0028 8.9261 13.206 8.71006 13.3481C8.49402 13.4903 8.24066 13.565 7.98213 13.5628C7.638 13.5598 7.30896 13.4209 7.06667 13.1763C6.82437 12.9317 6.68846 12.6012 6.68848 12.2567Z" fill="white"/>
<path d="M12.7896 0.837253C9.83182 0.837253 6.99518 2.01329 4.9037 4.10672C2.81222 6.20015 1.63721 9.03949 1.63721 12C1.66889 13.9567 2.18625 15.8747 3.14276 17.5814C3.22959 17.7325 3.28166 17.9011 3.29516 18.0749C3.30867 18.2487 3.28328 18.4233 3.22083 18.5861L2.47364 21.0865C2.41661 21.2612 2.43019 21.4514 2.51148 21.6162C2.59278 21.7811 2.73534 21.9075 2.9086 21.9684C3.06367 22.0238 3.23308 22.0238 3.38814 21.9684L5.61863 21.2986C5.90775 21.2315 6.20851 21.233 6.49699 21.3028C6.78547 21.3725 7.05369 21.5087 7.28033 21.7005C8.76476 22.5465 10.4235 23.0399 12.1287 23.1427C13.8338 23.2454 15.5397 22.9546 17.1148 22.2929C18.6899 21.6312 20.0921 20.6162 21.2132 19.3262C22.3343 18.0361 23.1443 16.5056 23.5808 14.8525C24.0173 13.1995 24.0686 11.4682 23.7308 9.79215C23.3929 8.11613 22.6749 6.54021 21.6322 5.18593C20.5894 3.83165 19.2498 2.73518 17.7167 1.98119C16.1835 1.22721 14.4978 0.835866 12.7896 0.837253V0.837253Z" stroke="white" stroke-width="1.5" stroke-linecap="round" stroke-linejoin="round"/>
</svg>
