<svg width="20" height="24" viewBox="0 0 20 24" fill="none" xmlns="http://www.w3.org/2000/svg">
<path d="M9.3939 23.964C8.66055 23.8551 7.9676 23.5532 7.38329 23.088C7.15003 22.931 6.95476 22.7219 6.81219 22.4766C6.66962 22.2313 6.58349 21.9562 6.56026 21.672C6.56026 21.072 7.1011 20.796 7.60669 20.676C9.17227 20.5584 10.7443 20.5584 12.3098 20.676C12.8154 20.796 13.3562 21.072 13.3562 21.672C13.3352 21.9554 13.2512 22.2302 13.1107 22.4755C12.9701 22.7209 12.7766 22.9303 12.5449 23.088C11.9576 23.5556 11.2602 23.8576 10.5226 23.964C10.3269 23.9763 10.1305 23.9763 9.93474 23.964C9.75459 23.9741 9.57405 23.9741 9.3939 23.964ZM4.43211 18.9C3.13125 18.7797 1.91841 18.1779 1.02232 17.208C0.360509 16.4106 0.00164583 15.397 0.0111669 14.352C-0.0481535 13.3515 0.257622 12.364 0.869498 11.58C1.29852 11.1295 1.63091 10.5927 1.84549 10.0039C2.06007 9.4151 2.15213 8.78715 2.11582 8.16001V7.64398C2.03961 5.96488 2.5805 4.31728 3.63255 3.02401C4.41288 2.0743 5.38814 1.31114 6.48936 0.788588C7.59058 0.266035 8.79086 -0.00317185 10.0053 -1.06254e-05H10.1111C11.3445 0.00149574 12.5618 0.285894 13.673 0.832167C14.7842 1.37844 15.7609 2.17263 16.5308 3.156C17.5254 4.42431 18.0276 6.02189 17.9418 7.64398V8.16001C17.9165 8.78598 18.0138 9.41079 18.2278 9.99799C18.4418 10.5852 18.7682 11.123 19.1881 11.58C19.798 12.3651 20.1035 13.3518 20.0464 14.352C20.0559 15.397 19.6971 16.4106 19.0353 17.208C18.1392 18.1779 16.9264 18.7797 15.6255 18.9C13.7796 19.056 11.9218 19.2 10.0523 19.2C8.17481 19.2096 6.29836 19.1094 4.43211 18.9Z" fill="white"/>
</svg>
